G04 #@! TF.GenerationSoftware,KiCad,Pcbnew,(5.1.4)-1*
G04 #@! TF.CreationDate,2019-12-12T21:51:51+01:00*
G04 #@! TF.ProjectId,Schaltplan_embedded,53636861-6c74-4706-9c61-6e5f656d6265,rev?*
G04 #@! TF.SameCoordinates,Original*
G04 #@! TF.FileFunction,Copper,L2,Bot*
G04 #@! TF.FilePolarity,Positive*
%FSLAX46Y46*%
G04 Gerber Fmt 4.6, Leading zero omitted, Abs format (unit mm)*
G04 Created by KiCad (PCBNEW (5.1.4)-1) date 2019-12-12 21:51:51*
%MOMM*%
%LPD*%
G04 APERTURE LIST*
%ADD10C,4.400000*%
%ADD11C,0.700000*%
%ADD12C,5.300000*%
%ADD13C,5.000000*%
%ADD14R,0.950000X0.950000*%
%ADD15C,0.950000*%
%ADD16C,2.250000*%
%ADD17C,2.100000*%
%ADD18O,1.700000X1.700000*%
%ADD19R,1.700000X1.700000*%
%ADD20C,0.900000*%
%ADD21C,0.400000*%
%ADD22C,0.600000*%
%ADD23C,0.200000*%
%ADD24C,0.254000*%
G04 APERTURE END LIST*
D10*
X97800000Y-95000000D03*
D11*
X99450000Y-95000000D03*
X98966726Y-96166726D03*
X97800000Y-96650000D03*
X96633274Y-96166726D03*
X96150000Y-95000000D03*
X96633274Y-93833274D03*
X97800000Y-93350000D03*
X98966726Y-93833274D03*
X98966726Y-103833274D03*
X97800000Y-103350000D03*
X96633274Y-103833274D03*
X96150000Y-105000000D03*
X96633274Y-106166726D03*
X97800000Y-106650000D03*
X98966726Y-106166726D03*
X99450000Y-105000000D03*
D10*
X97800000Y-105000000D03*
X193000000Y-65000000D03*
D11*
X194650000Y-65000000D03*
X194166726Y-66166726D03*
X193000000Y-66650000D03*
X191833274Y-66166726D03*
X191350000Y-65000000D03*
X191833274Y-63833274D03*
X193000000Y-63350000D03*
X194166726Y-63833274D03*
X194166726Y-48833274D03*
X193000000Y-48350000D03*
X191833274Y-48833274D03*
X191350000Y-50000000D03*
X191833274Y-51166726D03*
X193000000Y-51650000D03*
X194166726Y-51166726D03*
X194650000Y-50000000D03*
D10*
X193000000Y-50000000D03*
D12*
X108500000Y-50500000D03*
D13*
X102500000Y-50500000D03*
D12*
X105500000Y-55200000D03*
D14*
X127900000Y-105800000D03*
D15*
X129150000Y-105800000D03*
X130400000Y-105800000D03*
X131650000Y-105800000D03*
X132900000Y-105800000D03*
X134150000Y-105800000D03*
X135400000Y-105800000D03*
X136650000Y-105800000D03*
D16*
X190050000Y-101950000D03*
X190050000Y-107050000D03*
X184950000Y-107050000D03*
X184950000Y-101950000D03*
D17*
X187500000Y-104500000D03*
D18*
X153960000Y-47000000D03*
D19*
X156500000Y-47000000D03*
X151500000Y-107250000D03*
D18*
X154040000Y-107250000D03*
D19*
X151200000Y-69700000D03*
D18*
X148660000Y-69700000D03*
X146120000Y-69700000D03*
X143580000Y-69700000D03*
X141040000Y-69700000D03*
D20*
X164500000Y-104500000D03*
X164500000Y-102250000D03*
X164500000Y-100500000D03*
X164500000Y-98500000D03*
X164500000Y-96500000D03*
X164500000Y-94750000D03*
X164500000Y-92750000D03*
X168500000Y-102250000D03*
X168500000Y-98500000D03*
X168500000Y-94750000D03*
X168500000Y-90500000D03*
X136750000Y-77000000D03*
X136750000Y-79000000D03*
X160750000Y-63000000D03*
X153500000Y-54000000D03*
X118250000Y-50500000D03*
X126499984Y-51000000D03*
X118250000Y-55500000D03*
X139750000Y-65750000D03*
X137250000Y-82250000D03*
X125000000Y-94750000D03*
X115000000Y-95700000D03*
X182700000Y-86100000D03*
X119250000Y-78750000D03*
X119250000Y-77500000D03*
X119250000Y-76250000D03*
X120750000Y-76250000D03*
X120750000Y-77500000D03*
X120750000Y-78750000D03*
X119250000Y-80000000D03*
X120750000Y-80000000D03*
X119250000Y-81500000D03*
X119250000Y-75000000D03*
X120750000Y-75000000D03*
X117750000Y-75000000D03*
X116500000Y-75000000D03*
X117750000Y-73750000D03*
X119250000Y-73750000D03*
X120750000Y-73750000D03*
X183500000Y-79750000D03*
X164500000Y-90500000D03*
X171100000Y-83100000D03*
X163500000Y-82800000D03*
X126000000Y-61500000D03*
X122500000Y-61500000D03*
X118000000Y-61500000D03*
X125000000Y-89500000D03*
X118750000Y-89500000D03*
X118750000Y-94750000D03*
X146700000Y-98400000D03*
X142000000Y-90000000D03*
X140250000Y-94500000D03*
X148700000Y-92100006D03*
X152200000Y-76000000D03*
X152200000Y-78400000D03*
X143200000Y-74500000D03*
X146300000Y-74500000D03*
X140450000Y-98150000D03*
X129050000Y-87250000D03*
X167300000Y-78400000D03*
X181650000Y-70625000D03*
X173200000Y-70700000D03*
X178100000Y-65400000D03*
X181175000Y-65375000D03*
X183975000Y-65350000D03*
X130000000Y-60000000D03*
X156750000Y-58000000D03*
X156750000Y-61250000D03*
X156500000Y-106100000D03*
X164100000Y-109800000D03*
X170100000Y-109800000D03*
X176800000Y-109800000D03*
X127400000Y-102700000D03*
X104700000Y-84300000D03*
X102900000Y-64700000D03*
X106900000Y-64700000D03*
X115000000Y-98500000D03*
X141600000Y-59900000D03*
X120700000Y-81500000D03*
X122200000Y-80000000D03*
X122200000Y-78750000D03*
X122200000Y-77500000D03*
X122175000Y-76225000D03*
X122175000Y-74975000D03*
X151500000Y-50999978D03*
X154250000Y-51000000D03*
X161700000Y-85300000D03*
X181200000Y-79550000D03*
X181250000Y-82600000D03*
X158750000Y-107750000D03*
X154400000Y-68800000D03*
X154450000Y-62050000D03*
X155250000Y-79950002D03*
X155300000Y-82650004D03*
X155900000Y-68700000D03*
X155800000Y-63899999D03*
X156450000Y-79950002D03*
X156500000Y-82550000D03*
X155350000Y-104050000D03*
X157500000Y-87200000D03*
X157700000Y-82600000D03*
X159200000Y-79799994D03*
X164199996Y-65500000D03*
X167000000Y-64899994D03*
X137600000Y-100600000D03*
X131000000Y-95000000D03*
X129000000Y-76600000D03*
X128950000Y-85300008D03*
X146100000Y-102500000D03*
X138900000Y-102900000D03*
X127800000Y-81700000D03*
X135150000Y-102325000D03*
X133100000Y-103375000D03*
X135400000Y-103774996D03*
X140250000Y-105000000D03*
X156500018Y-96250020D03*
X140750090Y-103750000D03*
X155051304Y-94683768D03*
X141750008Y-104500014D03*
X156250018Y-95000000D03*
X112500000Y-88500000D03*
X113500000Y-90900000D03*
X138750000Y-50000000D03*
X139900000Y-61000000D03*
X131750002Y-69750000D03*
X127334627Y-69665373D03*
X139250000Y-79600000D03*
X136750024Y-91000000D03*
X136800018Y-94000000D03*
X136799994Y-87000000D03*
X154049999Y-82800000D03*
X154050000Y-79950000D03*
X153250000Y-94750000D03*
X146299988Y-93299988D03*
D21*
X154249978Y-50999978D02*
X154250000Y-51000000D01*
X151500000Y-50999978D02*
X154249978Y-50999978D01*
D22*
X158750000Y-86750000D02*
X158750000Y-107750000D01*
X160200000Y-85300000D02*
X158750000Y-86750000D01*
X160200000Y-85300000D02*
X161700000Y-85300000D01*
X181200000Y-79550000D02*
X181200000Y-82550000D01*
X181200000Y-82550000D02*
X181250000Y-82600000D01*
D23*
X154400000Y-62100000D02*
X154450000Y-62050000D01*
X154400000Y-68800000D02*
X154400000Y-62100000D01*
X155300000Y-82650004D02*
X155300000Y-80000002D01*
X155300000Y-80000002D02*
X155250000Y-79950002D01*
X155900000Y-63999999D02*
X155800000Y-63899999D01*
X155900000Y-68700000D02*
X155900000Y-63999999D01*
X156500000Y-82550000D02*
X156500000Y-80000002D01*
X156500000Y-80000002D02*
X156450000Y-79950002D01*
X156450000Y-82500000D02*
X156500000Y-82550000D01*
X157500000Y-101900000D02*
X155350000Y-104050000D01*
X157500000Y-87900000D02*
X157500000Y-101900000D01*
X157500000Y-87900000D02*
X157500000Y-87200000D01*
X157700000Y-82600000D02*
X159200000Y-81100000D01*
X159200000Y-80436390D02*
X159200000Y-79799994D01*
X159200000Y-81100000D02*
X159200000Y-80436390D01*
X164199996Y-65500000D02*
X166399994Y-65500000D01*
X166399994Y-65500000D02*
X166550001Y-65349993D01*
X166550001Y-65349993D02*
X167000000Y-64899994D01*
X136950000Y-100600000D02*
X137600000Y-100600000D01*
X136950000Y-100600000D02*
X136600000Y-100600000D01*
X136600000Y-100600000D02*
X131000000Y-95000000D01*
X129000000Y-85250008D02*
X128950000Y-85300008D01*
X129000000Y-76600000D02*
X129000000Y-85250008D01*
X146100000Y-102500000D02*
X139300000Y-102500000D01*
X139300000Y-102500000D02*
X138900000Y-102900000D01*
X134700001Y-101875001D02*
X135150000Y-102325000D01*
X127800000Y-94975000D02*
X134700001Y-101875001D01*
X127800000Y-81700000D02*
X127800000Y-94975000D01*
X133100000Y-103375000D02*
X135000004Y-103375000D01*
X135000004Y-103375000D02*
X135400000Y-103774996D01*
X156050019Y-96700019D02*
X156500018Y-96250020D01*
X147300039Y-105449999D02*
X156050019Y-96700019D01*
X140250000Y-105000000D02*
X140699999Y-105449999D01*
X140699999Y-105449999D02*
X147300039Y-105449999D01*
X154601305Y-95133767D02*
X155051304Y-94683768D01*
X154601305Y-95148695D02*
X154601305Y-95133767D01*
X146000000Y-103750000D02*
X154601305Y-95148695D01*
X140750090Y-103750000D02*
X146000000Y-103750000D01*
X155800019Y-95449999D02*
X156250018Y-95000000D01*
X146750004Y-104500014D02*
X155800019Y-95449999D01*
X141750008Y-104500014D02*
X146750004Y-104500014D01*
D21*
X112500000Y-88500000D02*
X113500000Y-89500000D01*
X113500000Y-89500000D02*
X113500000Y-90263604D01*
X113500000Y-90263604D02*
X113500000Y-90900000D01*
X139900000Y-60363604D02*
X139900000Y-61000000D01*
X138750000Y-50000000D02*
X139900000Y-51150000D01*
X139900000Y-51150000D02*
X139900000Y-60363604D01*
D23*
X127419254Y-69750000D02*
X127334627Y-69665373D01*
X131750002Y-69750000D02*
X127419254Y-69750000D01*
X139250000Y-79600000D02*
X139250000Y-84249996D01*
X139250000Y-84249996D02*
X139249996Y-84250000D01*
X136750024Y-91000000D02*
X136750024Y-93950006D01*
X136750024Y-93950006D02*
X136800018Y-94000000D01*
X139249996Y-84250000D02*
X136799994Y-86700002D01*
X136799994Y-86700002D02*
X136799994Y-87000000D01*
X154049999Y-82800000D02*
X154050000Y-82163603D01*
X154050000Y-82163603D02*
X154050000Y-80586396D01*
X154050000Y-80586396D02*
X154050000Y-79950000D01*
X153250000Y-94750000D02*
X147750000Y-94750000D01*
X147750000Y-94750000D02*
X146749987Y-93749987D01*
X146749987Y-93749987D02*
X146299988Y-93299988D01*
D24*
G36*
X195856775Y-43198147D02*
G01*
X196199967Y-43301763D01*
X196516489Y-43470062D01*
X196794299Y-43696637D01*
X197022806Y-43972856D01*
X197193310Y-44288197D01*
X197299319Y-44630656D01*
X197340000Y-45017712D01*
X197340001Y-69967711D01*
X197301853Y-70356776D01*
X197198238Y-70699964D01*
X197029939Y-71016489D01*
X196803365Y-71294296D01*
X196527146Y-71522805D01*
X196211803Y-71693310D01*
X195869344Y-71799319D01*
X195482288Y-71840000D01*
X194967581Y-71840000D01*
X194938282Y-71842886D01*
X194922730Y-71842777D01*
X194913558Y-71843677D01*
X194428316Y-71894678D01*
X194369760Y-71906698D01*
X194310959Y-71917914D01*
X194302138Y-71920578D01*
X193836044Y-72064858D01*
X193780881Y-72088046D01*
X193725435Y-72110448D01*
X193717299Y-72114774D01*
X193288106Y-72346838D01*
X193238539Y-72380271D01*
X193188460Y-72413042D01*
X193181319Y-72418866D01*
X192805374Y-72729875D01*
X192763252Y-72772292D01*
X192720483Y-72814174D01*
X192714610Y-72821275D01*
X192406233Y-73199382D01*
X192373141Y-73249191D01*
X192339334Y-73298563D01*
X192334952Y-73306669D01*
X192105890Y-73737473D01*
X192083099Y-73792767D01*
X192059529Y-73847760D01*
X192056804Y-73856563D01*
X191915781Y-74323653D01*
X191904159Y-74382347D01*
X191891725Y-74440844D01*
X191890762Y-74450009D01*
X191843150Y-74935595D01*
X191843150Y-74935608D01*
X191840001Y-74967581D01*
X191840000Y-109967721D01*
X191801853Y-110356776D01*
X191698238Y-110699964D01*
X191529939Y-111016489D01*
X191303365Y-111294296D01*
X191027146Y-111522805D01*
X190711803Y-111693310D01*
X190369344Y-111799319D01*
X189982288Y-111840000D01*
X95332279Y-111840000D01*
X94943224Y-111801853D01*
X94600036Y-111698238D01*
X94283511Y-111529939D01*
X94005704Y-111303365D01*
X93777195Y-111027146D01*
X93606690Y-110711803D01*
X93500681Y-110369344D01*
X93460000Y-109982288D01*
X93460000Y-104720777D01*
X94965000Y-104720777D01*
X94965000Y-105279223D01*
X95073948Y-105826939D01*
X95287656Y-106342876D01*
X95597912Y-106807207D01*
X95992793Y-107202088D01*
X96457124Y-107512344D01*
X96973061Y-107726052D01*
X97520777Y-107835000D01*
X98079223Y-107835000D01*
X98626939Y-107726052D01*
X99142876Y-107512344D01*
X99607207Y-107202088D01*
X100002088Y-106807207D01*
X100312344Y-106342876D01*
X100526052Y-105826939D01*
X100635000Y-105279223D01*
X100635000Y-104720777D01*
X100526052Y-104173061D01*
X100312344Y-103657124D01*
X100002088Y-103192793D01*
X99607207Y-102797912D01*
X99142876Y-102487656D01*
X98626939Y-102273948D01*
X98079223Y-102165000D01*
X97520777Y-102165000D01*
X96973061Y-102273948D01*
X96457124Y-102487656D01*
X95992793Y-102797912D01*
X95597912Y-103192793D01*
X95287656Y-103657124D01*
X95073948Y-104173061D01*
X94965000Y-104720777D01*
X93460000Y-104720777D01*
X93460000Y-94720777D01*
X94965000Y-94720777D01*
X94965000Y-95279223D01*
X95073948Y-95826939D01*
X95287656Y-96342876D01*
X95597912Y-96807207D01*
X95992793Y-97202088D01*
X96457124Y-97512344D01*
X96973061Y-97726052D01*
X97520777Y-97835000D01*
X98079223Y-97835000D01*
X98626939Y-97726052D01*
X99142876Y-97512344D01*
X99607207Y-97202088D01*
X100002088Y-96807207D01*
X100312344Y-96342876D01*
X100526052Y-95826939D01*
X100635000Y-95279223D01*
X100635000Y-94720777D01*
X100526052Y-94173061D01*
X100312344Y-93657124D01*
X100002088Y-93192793D01*
X99607207Y-92797912D01*
X99142876Y-92487656D01*
X98626939Y-92273948D01*
X98079223Y-92165000D01*
X97520777Y-92165000D01*
X96973061Y-92273948D01*
X96457124Y-92487656D01*
X95992793Y-92797912D01*
X95597912Y-93192793D01*
X95287656Y-93657124D01*
X95073948Y-94173061D01*
X94965000Y-94720777D01*
X93460000Y-94720777D01*
X93460000Y-90032279D01*
X93498147Y-89643225D01*
X93601763Y-89300033D01*
X93770062Y-88983511D01*
X93996637Y-88705701D01*
X94272856Y-88477194D01*
X94428316Y-88393137D01*
X111415000Y-88393137D01*
X111415000Y-88606863D01*
X111456696Y-88816483D01*
X111538485Y-89013940D01*
X111657225Y-89191647D01*
X111808353Y-89342775D01*
X111986060Y-89461515D01*
X112183517Y-89543304D01*
X112393137Y-89585000D01*
X112404132Y-89585000D01*
X112665000Y-89845868D01*
X112665000Y-90200578D01*
X112657225Y-90208353D01*
X112538485Y-90386060D01*
X112456696Y-90583517D01*
X112415000Y-90793137D01*
X112415000Y-91006863D01*
X112456696Y-91216483D01*
X112538485Y-91413940D01*
X112657225Y-91591647D01*
X112808353Y-91742775D01*
X112986060Y-91861515D01*
X113183517Y-91943304D01*
X113393137Y-91985000D01*
X113606863Y-91985000D01*
X113816483Y-91943304D01*
X114013940Y-91861515D01*
X114191647Y-91742775D01*
X114342775Y-91591647D01*
X114461515Y-91413940D01*
X114543304Y-91216483D01*
X114585000Y-91006863D01*
X114585000Y-90793137D01*
X114543304Y-90583517D01*
X114461515Y-90386060D01*
X114342775Y-90208353D01*
X114335000Y-90200578D01*
X114335000Y-89541018D01*
X114339040Y-89500000D01*
X114322918Y-89336312D01*
X114316408Y-89314849D01*
X114275172Y-89178913D01*
X114197636Y-89033854D01*
X114093291Y-88906709D01*
X114061433Y-88880564D01*
X113585000Y-88404132D01*
X113585000Y-88393137D01*
X113543304Y-88183517D01*
X113461515Y-87986060D01*
X113342775Y-87808353D01*
X113191647Y-87657225D01*
X113013940Y-87538485D01*
X112816483Y-87456696D01*
X112606863Y-87415000D01*
X112393137Y-87415000D01*
X112183517Y-87456696D01*
X111986060Y-87538485D01*
X111808353Y-87657225D01*
X111657225Y-87808353D01*
X111538485Y-87986060D01*
X111456696Y-88183517D01*
X111415000Y-88393137D01*
X94428316Y-88393137D01*
X94588197Y-88306690D01*
X94930656Y-88200681D01*
X95317712Y-88160000D01*
X95832419Y-88160000D01*
X95861718Y-88157114D01*
X95877271Y-88157223D01*
X95886442Y-88156323D01*
X96371684Y-88105322D01*
X96430247Y-88093301D01*
X96489040Y-88082086D01*
X96497862Y-88079422D01*
X96963956Y-87935142D01*
X97019086Y-87911967D01*
X97074565Y-87889553D01*
X97082701Y-87885226D01*
X97511894Y-87653162D01*
X97561461Y-87619729D01*
X97611540Y-87586958D01*
X97618681Y-87581133D01*
X97994627Y-87270125D01*
X98036767Y-87227689D01*
X98079517Y-87185826D01*
X98085391Y-87178725D01*
X98393767Y-86800618D01*
X98426859Y-86750809D01*
X98460666Y-86701437D01*
X98465047Y-86693333D01*
X98465051Y-86693325D01*
X98694111Y-86262527D01*
X98716910Y-86207212D01*
X98740471Y-86152240D01*
X98743196Y-86143437D01*
X98884219Y-85676348D01*
X98895845Y-85617631D01*
X98908275Y-85559155D01*
X98909238Y-85549991D01*
X98956850Y-85064404D01*
X98956850Y-85064402D01*
X98960000Y-85032419D01*
X98960000Y-81593137D01*
X126715000Y-81593137D01*
X126715000Y-81806863D01*
X126756696Y-82016483D01*
X126838485Y-82213940D01*
X126957225Y-82391647D01*
X127065000Y-82499422D01*
X127065001Y-94938885D01*
X127061444Y-94975000D01*
X127075635Y-95119085D01*
X127106120Y-95219579D01*
X127117664Y-95257633D01*
X127185914Y-95385320D01*
X127277763Y-95497238D01*
X127305808Y-95520254D01*
X134065000Y-102279447D01*
X134065000Y-102431863D01*
X134106401Y-102640000D01*
X133899422Y-102640000D01*
X133791647Y-102532225D01*
X133613940Y-102413485D01*
X133416483Y-102331696D01*
X133206863Y-102290000D01*
X132993137Y-102290000D01*
X132783517Y-102331696D01*
X132586060Y-102413485D01*
X132408353Y-102532225D01*
X132257225Y-102683353D01*
X132138485Y-102861060D01*
X132056696Y-103058517D01*
X132015000Y-103268137D01*
X132015000Y-103481863D01*
X132056696Y-103691483D01*
X132138485Y-103888940D01*
X132257225Y-104066647D01*
X132408353Y-104217775D01*
X132586060Y-104336515D01*
X132783517Y-104418304D01*
X132993137Y-104460000D01*
X133206863Y-104460000D01*
X133416483Y-104418304D01*
X133613940Y-104336515D01*
X133791647Y-104217775D01*
X133899422Y-104110000D01*
X134364368Y-104110000D01*
X134438485Y-104288936D01*
X134557225Y-104466643D01*
X134708353Y-104617771D01*
X134886060Y-104736511D01*
X134976490Y-104773968D01*
X134874218Y-104816331D01*
X134775000Y-104882626D01*
X134675782Y-104816331D01*
X134473775Y-104732657D01*
X134259325Y-104690000D01*
X134040675Y-104690000D01*
X133826225Y-104732657D01*
X133624218Y-104816331D01*
X133525000Y-104882626D01*
X133425782Y-104816331D01*
X133223775Y-104732657D01*
X133009325Y-104690000D01*
X132790675Y-104690000D01*
X132576225Y-104732657D01*
X132374218Y-104816331D01*
X132275000Y-104882626D01*
X132175782Y-104816331D01*
X131973775Y-104732657D01*
X131759325Y-104690000D01*
X131540675Y-104690000D01*
X131326225Y-104732657D01*
X131124218Y-104816331D01*
X131025000Y-104882626D01*
X130925782Y-104816331D01*
X130723775Y-104732657D01*
X130509325Y-104690000D01*
X130290675Y-104690000D01*
X130076225Y-104732657D01*
X129874218Y-104816331D01*
X129775000Y-104882626D01*
X129675782Y-104816331D01*
X129473775Y-104732657D01*
X129259325Y-104690000D01*
X129040675Y-104690000D01*
X128826225Y-104732657D01*
X128706581Y-104782215D01*
X128619180Y-104735498D01*
X128499482Y-104699188D01*
X128375000Y-104686928D01*
X127425000Y-104686928D01*
X127300518Y-104699188D01*
X127180820Y-104735498D01*
X127070506Y-104794463D01*
X126973815Y-104873815D01*
X126894463Y-104970506D01*
X126835498Y-105080820D01*
X126799188Y-105200518D01*
X126786928Y-105325000D01*
X126786928Y-106275000D01*
X126799188Y-106399482D01*
X126835498Y-106519180D01*
X126894463Y-106629494D01*
X126973815Y-106726185D01*
X127070506Y-106805537D01*
X127180820Y-106864502D01*
X127300518Y-106900812D01*
X127425000Y-106913072D01*
X128375000Y-106913072D01*
X128499482Y-106900812D01*
X128619180Y-106864502D01*
X128706581Y-106817785D01*
X128826225Y-106867343D01*
X129040675Y-106910000D01*
X129259325Y-106910000D01*
X129473775Y-106867343D01*
X129675782Y-106783669D01*
X129775000Y-106717374D01*
X129874218Y-106783669D01*
X130076225Y-106867343D01*
X130290675Y-106910000D01*
X130509325Y-106910000D01*
X130723775Y-106867343D01*
X130925782Y-106783669D01*
X131025000Y-106717374D01*
X131124218Y-106783669D01*
X131326225Y-106867343D01*
X131540675Y-106910000D01*
X131759325Y-106910000D01*
X131973775Y-106867343D01*
X132175782Y-106783669D01*
X132275000Y-106717374D01*
X132374218Y-106783669D01*
X132576225Y-106867343D01*
X132790675Y-106910000D01*
X133009325Y-106910000D01*
X133223775Y-106867343D01*
X133425782Y-106783669D01*
X133525000Y-106717374D01*
X133624218Y-106783669D01*
X133826225Y-106867343D01*
X134040675Y-106910000D01*
X134259325Y-106910000D01*
X134473775Y-106867343D01*
X134675782Y-106783669D01*
X134775000Y-106717374D01*
X134874218Y-106783669D01*
X135076225Y-106867343D01*
X135290675Y-106910000D01*
X135509325Y-106910000D01*
X135723775Y-106867343D01*
X135925782Y-106783669D01*
X136086948Y-106675982D01*
X136101410Y-106771134D01*
X136301410Y-106859498D01*
X136514805Y-106907147D01*
X136733397Y-106912249D01*
X136948784Y-106874607D01*
X137152689Y-106795669D01*
X137198590Y-106771134D01*
X137230643Y-106560248D01*
X137070395Y-106400000D01*
X150011928Y-106400000D01*
X150011928Y-108100000D01*
X150024188Y-108224482D01*
X150060498Y-108344180D01*
X150119463Y-108454494D01*
X150198815Y-108551185D01*
X150295506Y-108630537D01*
X150405820Y-108689502D01*
X150525518Y-108725812D01*
X150650000Y-108738072D01*
X152350000Y-108738072D01*
X152474482Y-108725812D01*
X152594180Y-108689502D01*
X152704494Y-108630537D01*
X152801185Y-108551185D01*
X152880537Y-108454494D01*
X152939502Y-108344180D01*
X152960393Y-108275313D01*
X152984866Y-108305134D01*
X153210986Y-108490706D01*
X153468966Y-108628599D01*
X153748889Y-108713513D01*
X153967050Y-108735000D01*
X154112950Y-108735000D01*
X154331111Y-108713513D01*
X154611034Y-108628599D01*
X154869014Y-108490706D01*
X155095134Y-108305134D01*
X155280706Y-108079014D01*
X155418599Y-107821034D01*
X155503513Y-107541111D01*
X155532185Y-107250000D01*
X155503513Y-106958889D01*
X155418599Y-106678966D01*
X155280706Y-106420986D01*
X155095134Y-106194866D01*
X154869014Y-106009294D01*
X154611034Y-105871401D01*
X154331111Y-105786487D01*
X154112950Y-105765000D01*
X153967050Y-105765000D01*
X153748889Y-105786487D01*
X153468966Y-105871401D01*
X153210986Y-106009294D01*
X152984866Y-106194866D01*
X152960393Y-106224687D01*
X152939502Y-106155820D01*
X152880537Y-106045506D01*
X152801185Y-105948815D01*
X152704494Y-105869463D01*
X152594180Y-105810498D01*
X152474482Y-105774188D01*
X152350000Y-105761928D01*
X150650000Y-105761928D01*
X150525518Y-105774188D01*
X150405820Y-105810498D01*
X150295506Y-105869463D01*
X150198815Y-105948815D01*
X150119463Y-106045506D01*
X150060498Y-106155820D01*
X150024188Y-106275518D01*
X150011928Y-106400000D01*
X137070395Y-106400000D01*
X136650000Y-105979605D01*
X136635858Y-105993748D01*
X136510000Y-105867890D01*
X136510000Y-105800000D01*
X136829605Y-105800000D01*
X137410248Y-106380643D01*
X137621134Y-106348590D01*
X137709498Y-106148590D01*
X137757147Y-105935195D01*
X137762249Y-105716603D01*
X137724607Y-105501216D01*
X137645669Y-105297311D01*
X137621134Y-105251410D01*
X137410248Y-105219357D01*
X136829605Y-105800000D01*
X136510000Y-105800000D01*
X136510000Y-105732110D01*
X136635858Y-105606253D01*
X136650000Y-105620395D01*
X137230643Y-105039752D01*
X137198590Y-104828866D01*
X136998590Y-104740502D01*
X136785195Y-104692853D01*
X136566603Y-104687751D01*
X136351216Y-104725393D01*
X136147311Y-104804331D01*
X136101410Y-104828866D01*
X136086948Y-104924018D01*
X135925782Y-104816331D01*
X135823510Y-104773968D01*
X135913940Y-104736511D01*
X136091647Y-104617771D01*
X136242775Y-104466643D01*
X136361515Y-104288936D01*
X136443304Y-104091479D01*
X136485000Y-103881859D01*
X136485000Y-103668133D01*
X136443304Y-103458513D01*
X136361515Y-103261056D01*
X136242775Y-103083349D01*
X136091647Y-102932221D01*
X136062292Y-102912607D01*
X136111515Y-102838940D01*
X136130487Y-102793137D01*
X137815000Y-102793137D01*
X137815000Y-103006863D01*
X137856696Y-103216483D01*
X137938485Y-103413940D01*
X138057225Y-103591647D01*
X138208353Y-103742775D01*
X138386060Y-103861515D01*
X138583517Y-103943304D01*
X138793137Y-103985000D01*
X139006863Y-103985000D01*
X139216483Y-103943304D01*
X139413940Y-103861515D01*
X139591647Y-103742775D01*
X139665090Y-103669332D01*
X139665090Y-103856863D01*
X139705305Y-104059035D01*
X139558353Y-104157225D01*
X139407225Y-104308353D01*
X139288485Y-104486060D01*
X139206696Y-104683517D01*
X139165000Y-104893137D01*
X139165000Y-105106863D01*
X139206696Y-105316483D01*
X139288485Y-105513940D01*
X139407225Y-105691647D01*
X139558353Y-105842775D01*
X139736060Y-105961515D01*
X139933517Y-106043304D01*
X140143137Y-106085000D01*
X140328806Y-106085000D01*
X140417365Y-106132336D01*
X140555914Y-106174364D01*
X140699999Y-106188555D01*
X140736104Y-106184999D01*
X147263934Y-106184999D01*
X147300039Y-106188555D01*
X147336144Y-106184999D01*
X147444124Y-106174364D01*
X147582672Y-106132336D01*
X147710359Y-106064086D01*
X147822277Y-105972237D01*
X147845298Y-105944186D01*
X156454465Y-97335020D01*
X156606881Y-97335020D01*
X156765001Y-97303568D01*
X156765001Y-101595552D01*
X155395554Y-102965000D01*
X155243137Y-102965000D01*
X155033517Y-103006696D01*
X154836060Y-103088485D01*
X154658353Y-103207225D01*
X154507225Y-103358353D01*
X154388485Y-103536060D01*
X154306696Y-103733517D01*
X154265000Y-103943137D01*
X154265000Y-104156863D01*
X154306696Y-104366483D01*
X154388485Y-104563940D01*
X154507225Y-104741647D01*
X154658353Y-104892775D01*
X154836060Y-105011515D01*
X155033517Y-105093304D01*
X155243137Y-105135000D01*
X155456863Y-105135000D01*
X155666483Y-105093304D01*
X155863940Y-105011515D01*
X156041647Y-104892775D01*
X156192775Y-104741647D01*
X156311515Y-104563940D01*
X156393304Y-104366483D01*
X156435000Y-104156863D01*
X156435000Y-104004446D01*
X157815001Y-102624446D01*
X157815001Y-107196376D01*
X157788485Y-107236060D01*
X157706696Y-107433517D01*
X157665000Y-107643137D01*
X157665000Y-107856863D01*
X157706696Y-108066483D01*
X157788485Y-108263940D01*
X157907225Y-108441647D01*
X158058353Y-108592775D01*
X158236060Y-108711515D01*
X158433517Y-108793304D01*
X158643137Y-108835000D01*
X158856863Y-108835000D01*
X159066483Y-108793304D01*
X159263940Y-108711515D01*
X159441647Y-108592775D01*
X159592775Y-108441647D01*
X159704438Y-108274531D01*
X183905074Y-108274531D01*
X184015921Y-108551714D01*
X184326840Y-108705089D01*
X184661705Y-108794860D01*
X185007650Y-108817576D01*
X185351380Y-108772366D01*
X185679685Y-108660966D01*
X185884079Y-108551714D01*
X185994926Y-108274531D01*
X189005074Y-108274531D01*
X189115921Y-108551714D01*
X189426840Y-108705089D01*
X189761705Y-108794860D01*
X190107650Y-108817576D01*
X190451380Y-108772366D01*
X190779685Y-108660966D01*
X190984079Y-108551714D01*
X191094926Y-108274531D01*
X190050000Y-107229605D01*
X189005074Y-108274531D01*
X185994926Y-108274531D01*
X184950000Y-107229605D01*
X183905074Y-108274531D01*
X159704438Y-108274531D01*
X159711515Y-108263940D01*
X159793304Y-108066483D01*
X159835000Y-107856863D01*
X159835000Y-107643137D01*
X159793304Y-107433517D01*
X159711515Y-107236060D01*
X159685000Y-107196377D01*
X159685000Y-107107650D01*
X183182424Y-107107650D01*
X183227634Y-107451380D01*
X183339034Y-107779685D01*
X183448286Y-107984079D01*
X183725469Y-108094926D01*
X184770395Y-107050000D01*
X185129605Y-107050000D01*
X186174531Y-108094926D01*
X186451714Y-107984079D01*
X186605089Y-107673160D01*
X186694860Y-107338295D01*
X186710004Y-107107650D01*
X188282424Y-107107650D01*
X188327634Y-107451380D01*
X188439034Y-107779685D01*
X188548286Y-107984079D01*
X188825469Y-108094926D01*
X189870395Y-107050000D01*
X190229605Y-107050000D01*
X191274531Y-108094926D01*
X191551714Y-107984079D01*
X191705089Y-107673160D01*
X191794860Y-107338295D01*
X191817576Y-106992350D01*
X191772366Y-106648620D01*
X191660966Y-106320315D01*
X191551714Y-106115921D01*
X191274531Y-106005074D01*
X190229605Y-107050000D01*
X189870395Y-107050000D01*
X188825469Y-106005074D01*
X188548286Y-106115921D01*
X188394911Y-106426840D01*
X188305140Y-106761705D01*
X188282424Y-107107650D01*
X186710004Y-107107650D01*
X186717576Y-106992350D01*
X186672366Y-106648620D01*
X186560966Y-106320315D01*
X186451714Y-106115921D01*
X186174531Y-106005074D01*
X185129605Y-107050000D01*
X184770395Y-107050000D01*
X183725469Y-106005074D01*
X183448286Y-106115921D01*
X183294911Y-106426840D01*
X183205140Y-106761705D01*
X183182424Y-107107650D01*
X159685000Y-107107650D01*
X159685000Y-105825469D01*
X183905074Y-105825469D01*
X184950000Y-106870395D01*
X185994926Y-105825469D01*
X185884079Y-105548286D01*
X185573160Y-105394911D01*
X185238295Y-105305140D01*
X184892350Y-105282424D01*
X184548620Y-105327634D01*
X184220315Y-105439034D01*
X184015921Y-105548286D01*
X183905074Y-105825469D01*
X159685000Y-105825469D01*
X159685000Y-104393137D01*
X163415000Y-104393137D01*
X163415000Y-104606863D01*
X163456696Y-104816483D01*
X163538485Y-105013940D01*
X163657225Y-105191647D01*
X163808353Y-105342775D01*
X163986060Y-105461515D01*
X164183517Y-105543304D01*
X164393137Y-105585000D01*
X164606863Y-105585000D01*
X164816483Y-105543304D01*
X165013940Y-105461515D01*
X165191647Y-105342775D01*
X165342775Y-105191647D01*
X165461515Y-105013940D01*
X165543304Y-104816483D01*
X165585000Y-104606863D01*
X165585000Y-104393137D01*
X165573246Y-104334042D01*
X185815000Y-104334042D01*
X185815000Y-104665958D01*
X185879754Y-104991496D01*
X186006772Y-105298147D01*
X186191175Y-105574125D01*
X186425875Y-105808825D01*
X186701853Y-105993228D01*
X187008504Y-106120246D01*
X187334042Y-106185000D01*
X187665958Y-106185000D01*
X187991496Y-106120246D01*
X188298147Y-105993228D01*
X188549215Y-105825469D01*
X189005074Y-105825469D01*
X190050000Y-106870395D01*
X191094926Y-105825469D01*
X190984079Y-105548286D01*
X190673160Y-105394911D01*
X190338295Y-105305140D01*
X189992350Y-105282424D01*
X189648620Y-105327634D01*
X189320315Y-105439034D01*
X189115921Y-105548286D01*
X189005074Y-105825469D01*
X188549215Y-105825469D01*
X188574125Y-105808825D01*
X188808825Y-105574125D01*
X188993228Y-105298147D01*
X189120246Y-104991496D01*
X189185000Y-104665958D01*
X189185000Y-104334042D01*
X189120246Y-104008504D01*
X188993228Y-103701853D01*
X188808825Y-103425875D01*
X188574125Y-103191175D01*
X188549216Y-103174531D01*
X189005074Y-103174531D01*
X189115921Y-103451714D01*
X189426840Y-103605089D01*
X189761705Y-103694860D01*
X190107650Y-103717576D01*
X190451380Y-103672366D01*
X190779685Y-103560966D01*
X190984079Y-103451714D01*
X191094926Y-103174531D01*
X190050000Y-102129605D01*
X189005074Y-103174531D01*
X188549216Y-103174531D01*
X188298147Y-103006772D01*
X187991496Y-102879754D01*
X187665958Y-102815000D01*
X187334042Y-102815000D01*
X187008504Y-102879754D01*
X186701853Y-103006772D01*
X186425875Y-103191175D01*
X186191175Y-103425875D01*
X186006772Y-103701853D01*
X185879754Y-104008504D01*
X185815000Y-104334042D01*
X165573246Y-104334042D01*
X165543304Y-104183517D01*
X165461515Y-103986060D01*
X165342775Y-103808353D01*
X165191647Y-103657225D01*
X165013940Y-103538485D01*
X164816483Y-103456696D01*
X164606863Y-103415000D01*
X164393137Y-103415000D01*
X164183517Y-103456696D01*
X163986060Y-103538485D01*
X163808353Y-103657225D01*
X163657225Y-103808353D01*
X163538485Y-103986060D01*
X163456696Y-104183517D01*
X163415000Y-104393137D01*
X159685000Y-104393137D01*
X159685000Y-92643137D01*
X163415000Y-92643137D01*
X163415000Y-92856863D01*
X163456696Y-93066483D01*
X163538485Y-93263940D01*
X163657225Y-93441647D01*
X163808353Y-93592775D01*
X163986060Y-93711515D01*
X164078971Y-93750000D01*
X163986060Y-93788485D01*
X163808353Y-93907225D01*
X163657225Y-94058353D01*
X163538485Y-94236060D01*
X163456696Y-94433517D01*
X163415000Y-94643137D01*
X163415000Y-94856863D01*
X163456696Y-95066483D01*
X163538485Y-95263940D01*
X163657225Y-95441647D01*
X163808353Y-95592775D01*
X163856581Y-95625000D01*
X163808353Y-95657225D01*
X163657225Y-95808353D01*
X163538485Y-95986060D01*
X163456696Y-96183517D01*
X163415000Y-96393137D01*
X163415000Y-96606863D01*
X163456696Y-96816483D01*
X163538485Y-97013940D01*
X163657225Y-97191647D01*
X163808353Y-97342775D01*
X163986060Y-97461515D01*
X164078971Y-97500000D01*
X163986060Y-97538485D01*
X163808353Y-97657225D01*
X163657225Y-97808353D01*
X163538485Y-97986060D01*
X163456696Y-98183517D01*
X163415000Y-98393137D01*
X163415000Y-98606863D01*
X163456696Y-98816483D01*
X163538485Y-99013940D01*
X163657225Y-99191647D01*
X163808353Y-99342775D01*
X163986060Y-99461515D01*
X164078971Y-99500000D01*
X163986060Y-99538485D01*
X163808353Y-99657225D01*
X163657225Y-99808353D01*
X163538485Y-99986060D01*
X163456696Y-100183517D01*
X163415000Y-100393137D01*
X163415000Y-100606863D01*
X163456696Y-100816483D01*
X163538485Y-101013940D01*
X163657225Y-101191647D01*
X163808353Y-101342775D01*
X163856581Y-101375000D01*
X163808353Y-101407225D01*
X163657225Y-101558353D01*
X163538485Y-101736060D01*
X163456696Y-101933517D01*
X163415000Y-102143137D01*
X163415000Y-102356863D01*
X163456696Y-102566483D01*
X163538485Y-102763940D01*
X163657225Y-102941647D01*
X163808353Y-103092775D01*
X163986060Y-103211515D01*
X164183517Y-103293304D01*
X164393137Y-103335000D01*
X164606863Y-103335000D01*
X164816483Y-103293304D01*
X165013940Y-103211515D01*
X165191647Y-103092775D01*
X165342775Y-102941647D01*
X165461515Y-102763940D01*
X165543304Y-102566483D01*
X165585000Y-102356863D01*
X165585000Y-102143137D01*
X167415000Y-102143137D01*
X167415000Y-102356863D01*
X167456696Y-102566483D01*
X167538485Y-102763940D01*
X167657225Y-102941647D01*
X167808353Y-103092775D01*
X167986060Y-103211515D01*
X168183517Y-103293304D01*
X168393137Y-103335000D01*
X168606863Y-103335000D01*
X168816483Y-103293304D01*
X169013940Y-103211515D01*
X169069290Y-103174531D01*
X183905074Y-103174531D01*
X184015921Y-103451714D01*
X184326840Y-103605089D01*
X184661705Y-103694860D01*
X185007650Y-103717576D01*
X185351380Y-103672366D01*
X185679685Y-103560966D01*
X185884079Y-103451714D01*
X185994926Y-103174531D01*
X184950000Y-102129605D01*
X183905074Y-103174531D01*
X169069290Y-103174531D01*
X169191647Y-103092775D01*
X169342775Y-102941647D01*
X169461515Y-102763940D01*
X169543304Y-102566483D01*
X169585000Y-102356863D01*
X169585000Y-102143137D01*
X169558050Y-102007650D01*
X183182424Y-102007650D01*
X183227634Y-102351380D01*
X183339034Y-102679685D01*
X183448286Y-102884079D01*
X183725469Y-102994926D01*
X184770395Y-101950000D01*
X185129605Y-101950000D01*
X186174531Y-102994926D01*
X186451714Y-102884079D01*
X186605089Y-102573160D01*
X186694860Y-102238295D01*
X186710004Y-102007650D01*
X188282424Y-102007650D01*
X188327634Y-102351380D01*
X188439034Y-102679685D01*
X188548286Y-102884079D01*
X188825469Y-102994926D01*
X189870395Y-101950000D01*
X190229605Y-101950000D01*
X191274531Y-102994926D01*
X191551714Y-102884079D01*
X191705089Y-102573160D01*
X191794860Y-102238295D01*
X191817576Y-101892350D01*
X191772366Y-101548620D01*
X191660966Y-101220315D01*
X191551714Y-101015921D01*
X191274531Y-100905074D01*
X190229605Y-101950000D01*
X189870395Y-101950000D01*
X188825469Y-100905074D01*
X188548286Y-101015921D01*
X188394911Y-101326840D01*
X188305140Y-101661705D01*
X188282424Y-102007650D01*
X186710004Y-102007650D01*
X186717576Y-101892350D01*
X186672366Y-101548620D01*
X186560966Y-101220315D01*
X186451714Y-101015921D01*
X186174531Y-100905074D01*
X185129605Y-101950000D01*
X184770395Y-101950000D01*
X183725469Y-100905074D01*
X183448286Y-101015921D01*
X183294911Y-101326840D01*
X183205140Y-101661705D01*
X183182424Y-102007650D01*
X169558050Y-102007650D01*
X169543304Y-101933517D01*
X169461515Y-101736060D01*
X169342775Y-101558353D01*
X169191647Y-101407225D01*
X169013940Y-101288485D01*
X168816483Y-101206696D01*
X168606863Y-101165000D01*
X168393137Y-101165000D01*
X168183517Y-101206696D01*
X167986060Y-101288485D01*
X167808353Y-101407225D01*
X167657225Y-101558353D01*
X167538485Y-101736060D01*
X167456696Y-101933517D01*
X167415000Y-102143137D01*
X165585000Y-102143137D01*
X165543304Y-101933517D01*
X165461515Y-101736060D01*
X165342775Y-101558353D01*
X165191647Y-101407225D01*
X165143419Y-101375000D01*
X165191647Y-101342775D01*
X165342775Y-101191647D01*
X165461515Y-101013940D01*
X165543304Y-100816483D01*
X165561407Y-100725469D01*
X183905074Y-100725469D01*
X184950000Y-101770395D01*
X185994926Y-100725469D01*
X189005074Y-100725469D01*
X190050000Y-101770395D01*
X191094926Y-100725469D01*
X190984079Y-100448286D01*
X190673160Y-100294911D01*
X190338295Y-100205140D01*
X189992350Y-100182424D01*
X189648620Y-100227634D01*
X189320315Y-100339034D01*
X189115921Y-100448286D01*
X189005074Y-100725469D01*
X185994926Y-100725469D01*
X185884079Y-100448286D01*
X185573160Y-100294911D01*
X185238295Y-100205140D01*
X184892350Y-100182424D01*
X184548620Y-100227634D01*
X184220315Y-100339034D01*
X184015921Y-100448286D01*
X183905074Y-100725469D01*
X165561407Y-100725469D01*
X165585000Y-100606863D01*
X165585000Y-100393137D01*
X165543304Y-100183517D01*
X165461515Y-99986060D01*
X165342775Y-99808353D01*
X165191647Y-99657225D01*
X165013940Y-99538485D01*
X164921029Y-99500000D01*
X165013940Y-99461515D01*
X165191647Y-99342775D01*
X165342775Y-99191647D01*
X165461515Y-99013940D01*
X165543304Y-98816483D01*
X165585000Y-98606863D01*
X165585000Y-98393137D01*
X167415000Y-98393137D01*
X167415000Y-98606863D01*
X167456696Y-98816483D01*
X167538485Y-99013940D01*
X167657225Y-99191647D01*
X167808353Y-99342775D01*
X167986060Y-99461515D01*
X168183517Y-99543304D01*
X168393137Y-99585000D01*
X168606863Y-99585000D01*
X168816483Y-99543304D01*
X169013940Y-99461515D01*
X169191647Y-99342775D01*
X169342775Y-99191647D01*
X169461515Y-99013940D01*
X169543304Y-98816483D01*
X169585000Y-98606863D01*
X169585000Y-98393137D01*
X169543304Y-98183517D01*
X169461515Y-97986060D01*
X169342775Y-97808353D01*
X169191647Y-97657225D01*
X169013940Y-97538485D01*
X168816483Y-97456696D01*
X168606863Y-97415000D01*
X168393137Y-97415000D01*
X168183517Y-97456696D01*
X167986060Y-97538485D01*
X167808353Y-97657225D01*
X167657225Y-97808353D01*
X167538485Y-97986060D01*
X167456696Y-98183517D01*
X167415000Y-98393137D01*
X165585000Y-98393137D01*
X165543304Y-98183517D01*
X165461515Y-97986060D01*
X165342775Y-97808353D01*
X165191647Y-97657225D01*
X165013940Y-97538485D01*
X164921029Y-97500000D01*
X165013940Y-97461515D01*
X165191647Y-97342775D01*
X165342775Y-97191647D01*
X165461515Y-97013940D01*
X165543304Y-96816483D01*
X165585000Y-96606863D01*
X165585000Y-96393137D01*
X165543304Y-96183517D01*
X165461515Y-95986060D01*
X165342775Y-95808353D01*
X165191647Y-95657225D01*
X165143419Y-95625000D01*
X165191647Y-95592775D01*
X165342775Y-95441647D01*
X165461515Y-95263940D01*
X165543304Y-95066483D01*
X165585000Y-94856863D01*
X165585000Y-94643137D01*
X167415000Y-94643137D01*
X167415000Y-94856863D01*
X167456696Y-95066483D01*
X167538485Y-95263940D01*
X167657225Y-95441647D01*
X167808353Y-95592775D01*
X167986060Y-95711515D01*
X168183517Y-95793304D01*
X168393137Y-95835000D01*
X168606863Y-95835000D01*
X168816483Y-95793304D01*
X169013940Y-95711515D01*
X169191647Y-95592775D01*
X169342775Y-95441647D01*
X169461515Y-95263940D01*
X169543304Y-95066483D01*
X169585000Y-94856863D01*
X169585000Y-94643137D01*
X169543304Y-94433517D01*
X169461515Y-94236060D01*
X169342775Y-94058353D01*
X169191647Y-93907225D01*
X169013940Y-93788485D01*
X168816483Y-93706696D01*
X168606863Y-93665000D01*
X168393137Y-93665000D01*
X168183517Y-93706696D01*
X167986060Y-93788485D01*
X167808353Y-93907225D01*
X167657225Y-94058353D01*
X167538485Y-94236060D01*
X167456696Y-94433517D01*
X167415000Y-94643137D01*
X165585000Y-94643137D01*
X165543304Y-94433517D01*
X165461515Y-94236060D01*
X165342775Y-94058353D01*
X165191647Y-93907225D01*
X165013940Y-93788485D01*
X164921029Y-93750000D01*
X165013940Y-93711515D01*
X165191647Y-93592775D01*
X165342775Y-93441647D01*
X165461515Y-93263940D01*
X165543304Y-93066483D01*
X165585000Y-92856863D01*
X165585000Y-92643137D01*
X165543304Y-92433517D01*
X165461515Y-92236060D01*
X165342775Y-92058353D01*
X165191647Y-91907225D01*
X165013940Y-91788485D01*
X164816483Y-91706696D01*
X164606863Y-91665000D01*
X164393137Y-91665000D01*
X164183517Y-91706696D01*
X163986060Y-91788485D01*
X163808353Y-91907225D01*
X163657225Y-92058353D01*
X163538485Y-92236060D01*
X163456696Y-92433517D01*
X163415000Y-92643137D01*
X159685000Y-92643137D01*
X159685000Y-90393137D01*
X167415000Y-90393137D01*
X167415000Y-90606863D01*
X167456696Y-90816483D01*
X167538485Y-91013940D01*
X167657225Y-91191647D01*
X167808353Y-91342775D01*
X167986060Y-91461515D01*
X168183517Y-91543304D01*
X168393137Y-91585000D01*
X168606863Y-91585000D01*
X168816483Y-91543304D01*
X169013940Y-91461515D01*
X169191647Y-91342775D01*
X169342775Y-91191647D01*
X169461515Y-91013940D01*
X169543304Y-90816483D01*
X169585000Y-90606863D01*
X169585000Y-90393137D01*
X169543304Y-90183517D01*
X169461515Y-89986060D01*
X169342775Y-89808353D01*
X169191647Y-89657225D01*
X169013940Y-89538485D01*
X168816483Y-89456696D01*
X168606863Y-89415000D01*
X168393137Y-89415000D01*
X168183517Y-89456696D01*
X167986060Y-89538485D01*
X167808353Y-89657225D01*
X167657225Y-89808353D01*
X167538485Y-89986060D01*
X167456696Y-90183517D01*
X167415000Y-90393137D01*
X159685000Y-90393137D01*
X159685000Y-87137289D01*
X160587289Y-86235000D01*
X161146377Y-86235000D01*
X161186060Y-86261515D01*
X161383517Y-86343304D01*
X161593137Y-86385000D01*
X161806863Y-86385000D01*
X162016483Y-86343304D01*
X162213940Y-86261515D01*
X162391647Y-86142775D01*
X162542775Y-85991647D01*
X162661515Y-85813940D01*
X162743304Y-85616483D01*
X162785000Y-85406863D01*
X162785000Y-85193137D01*
X162743304Y-84983517D01*
X162661515Y-84786060D01*
X162542775Y-84608353D01*
X162391647Y-84457225D01*
X162213940Y-84338485D01*
X162016483Y-84256696D01*
X161806863Y-84215000D01*
X161593137Y-84215000D01*
X161383517Y-84256696D01*
X161186060Y-84338485D01*
X161146377Y-84365000D01*
X160245935Y-84365000D01*
X160200000Y-84360476D01*
X160016708Y-84378528D01*
X159840459Y-84431993D01*
X159793254Y-84457225D01*
X159678028Y-84518814D01*
X159535656Y-84635656D01*
X159506370Y-84671341D01*
X158121341Y-86056370D01*
X158085656Y-86085656D01*
X157973858Y-86221883D01*
X157816483Y-86156696D01*
X157606863Y-86115000D01*
X157393137Y-86115000D01*
X157183517Y-86156696D01*
X156986060Y-86238485D01*
X156808353Y-86357225D01*
X156657225Y-86508353D01*
X156538485Y-86686060D01*
X156456696Y-86883517D01*
X156415000Y-87093137D01*
X156415000Y-87306863D01*
X156456696Y-87516483D01*
X156538485Y-87713940D01*
X156657225Y-87891647D01*
X156765000Y-87999422D01*
X156765000Y-94039182D01*
X156763958Y-94038485D01*
X156566501Y-93956696D01*
X156356881Y-93915000D01*
X156143155Y-93915000D01*
X155933535Y-93956696D01*
X155880586Y-93978628D01*
X155742951Y-93840993D01*
X155565244Y-93722253D01*
X155367787Y-93640464D01*
X155158167Y-93598768D01*
X154944441Y-93598768D01*
X154734821Y-93640464D01*
X154537364Y-93722253D01*
X154359657Y-93840993D01*
X154208529Y-93992121D01*
X154128525Y-94111856D01*
X154092775Y-94058353D01*
X153941647Y-93907225D01*
X153763940Y-93788485D01*
X153566483Y-93706696D01*
X153356863Y-93665000D01*
X153143137Y-93665000D01*
X152933517Y-93706696D01*
X152736060Y-93788485D01*
X152558353Y-93907225D01*
X152450578Y-94015000D01*
X148054447Y-94015000D01*
X147384988Y-93345542D01*
X147384988Y-93193125D01*
X147343292Y-92983505D01*
X147261503Y-92786048D01*
X147142763Y-92608341D01*
X146991635Y-92457213D01*
X146813928Y-92338473D01*
X146616471Y-92256684D01*
X146406851Y-92214988D01*
X146193125Y-92214988D01*
X145983505Y-92256684D01*
X145786048Y-92338473D01*
X145608341Y-92457213D01*
X145457213Y-92608341D01*
X145338473Y-92786048D01*
X145256684Y-92983505D01*
X145214988Y-93193125D01*
X145214988Y-93406851D01*
X145256684Y-93616471D01*
X145338473Y-93813928D01*
X145457213Y-93991635D01*
X145608341Y-94142763D01*
X145786048Y-94261503D01*
X145983505Y-94343292D01*
X146193125Y-94384988D01*
X146345542Y-94384988D01*
X147204746Y-95244193D01*
X147227762Y-95272238D01*
X147339680Y-95364087D01*
X147467367Y-95432337D01*
X147580225Y-95466572D01*
X147605915Y-95474365D01*
X147750000Y-95488556D01*
X147786105Y-95485000D01*
X152450578Y-95485000D01*
X152558353Y-95592775D01*
X152736060Y-95711515D01*
X152922014Y-95788539D01*
X146922488Y-101788066D01*
X146791647Y-101657225D01*
X146613940Y-101538485D01*
X146416483Y-101456696D01*
X146206863Y-101415000D01*
X145993137Y-101415000D01*
X145783517Y-101456696D01*
X145586060Y-101538485D01*
X145408353Y-101657225D01*
X145300578Y-101765000D01*
X139336094Y-101765000D01*
X139299999Y-101761445D01*
X139263904Y-101765000D01*
X139263895Y-101765000D01*
X139155915Y-101775635D01*
X139018509Y-101817317D01*
X139006863Y-101815000D01*
X138793137Y-101815000D01*
X138583517Y-101856696D01*
X138386060Y-101938485D01*
X138208353Y-102057225D01*
X138057225Y-102208353D01*
X137938485Y-102386060D01*
X137856696Y-102583517D01*
X137815000Y-102793137D01*
X136130487Y-102793137D01*
X136193304Y-102641483D01*
X136235000Y-102431863D01*
X136235000Y-102218137D01*
X136193304Y-102008517D01*
X136111515Y-101811060D01*
X135992775Y-101633353D01*
X135841647Y-101482225D01*
X135663940Y-101363485D01*
X135466483Y-101281696D01*
X135256863Y-101240000D01*
X135104447Y-101240000D01*
X128757584Y-94893137D01*
X129915000Y-94893137D01*
X129915000Y-95106863D01*
X129956696Y-95316483D01*
X130038485Y-95513940D01*
X130157225Y-95691647D01*
X130308353Y-95842775D01*
X130486060Y-95961515D01*
X130683517Y-96043304D01*
X130893137Y-96085000D01*
X131045554Y-96085000D01*
X136054746Y-101094193D01*
X136077762Y-101122238D01*
X136189680Y-101214087D01*
X136317367Y-101282337D01*
X136455915Y-101324365D01*
X136600000Y-101338556D01*
X136636105Y-101335000D01*
X136800578Y-101335000D01*
X136908353Y-101442775D01*
X137086060Y-101561515D01*
X137283517Y-101643304D01*
X137493137Y-101685000D01*
X137706863Y-101685000D01*
X137916483Y-101643304D01*
X138113940Y-101561515D01*
X138291647Y-101442775D01*
X138442775Y-101291647D01*
X138561515Y-101113940D01*
X138643304Y-100916483D01*
X138685000Y-100706863D01*
X138685000Y-100493137D01*
X138643304Y-100283517D01*
X138561515Y-100086060D01*
X138442775Y-99908353D01*
X138291647Y-99757225D01*
X138113940Y-99638485D01*
X137916483Y-99556696D01*
X137706863Y-99515000D01*
X137493137Y-99515000D01*
X137283517Y-99556696D01*
X137086060Y-99638485D01*
X136908353Y-99757225D01*
X136852512Y-99813066D01*
X132085000Y-95045554D01*
X132085000Y-94893137D01*
X132043304Y-94683517D01*
X131961515Y-94486060D01*
X131842775Y-94308353D01*
X131691647Y-94157225D01*
X131513940Y-94038485D01*
X131316483Y-93956696D01*
X131106863Y-93915000D01*
X130893137Y-93915000D01*
X130683517Y-93956696D01*
X130486060Y-94038485D01*
X130308353Y-94157225D01*
X130157225Y-94308353D01*
X130038485Y-94486060D01*
X129956696Y-94683517D01*
X129915000Y-94893137D01*
X128757584Y-94893137D01*
X128535000Y-94670554D01*
X128535000Y-90893137D01*
X135665024Y-90893137D01*
X135665024Y-91106863D01*
X135706720Y-91316483D01*
X135788509Y-91513940D01*
X135907249Y-91691647D01*
X136015024Y-91799422D01*
X136015025Y-93250571D01*
X135957243Y-93308353D01*
X135838503Y-93486060D01*
X135756714Y-93683517D01*
X135715018Y-93893137D01*
X135715018Y-94106863D01*
X135756714Y-94316483D01*
X135838503Y-94513940D01*
X135957243Y-94691647D01*
X136108371Y-94842775D01*
X136286078Y-94961515D01*
X136483535Y-95043304D01*
X136693155Y-95085000D01*
X136906881Y-95085000D01*
X137116501Y-95043304D01*
X137313958Y-94961515D01*
X137491665Y-94842775D01*
X137642793Y-94691647D01*
X137761533Y-94513940D01*
X137843322Y-94316483D01*
X137885018Y-94106863D01*
X137885018Y-93893137D01*
X137843322Y-93683517D01*
X137761533Y-93486060D01*
X137642793Y-93308353D01*
X137491665Y-93157225D01*
X137485024Y-93152788D01*
X137485024Y-91799422D01*
X137592799Y-91691647D01*
X137711539Y-91513940D01*
X137793328Y-91316483D01*
X137835024Y-91106863D01*
X137835024Y-90893137D01*
X137793328Y-90683517D01*
X137711539Y-90486060D01*
X137592799Y-90308353D01*
X137441671Y-90157225D01*
X137263964Y-90038485D01*
X137066507Y-89956696D01*
X136856887Y-89915000D01*
X136643161Y-89915000D01*
X136433541Y-89956696D01*
X136236084Y-90038485D01*
X136058377Y-90157225D01*
X135907249Y-90308353D01*
X135788509Y-90486060D01*
X135706720Y-90683517D01*
X135665024Y-90893137D01*
X128535000Y-90893137D01*
X128535000Y-86893137D01*
X135714994Y-86893137D01*
X135714994Y-87106863D01*
X135756690Y-87316483D01*
X135838479Y-87513940D01*
X135957219Y-87691647D01*
X136108347Y-87842775D01*
X136286054Y-87961515D01*
X136483511Y-88043304D01*
X136693131Y-88085000D01*
X136906857Y-88085000D01*
X137116477Y-88043304D01*
X137313934Y-87961515D01*
X137491641Y-87842775D01*
X137642769Y-87691647D01*
X137761509Y-87513940D01*
X137843298Y-87316483D01*
X137884994Y-87106863D01*
X137884994Y-86893137D01*
X137845393Y-86694049D01*
X139744193Y-84795250D01*
X139772238Y-84772234D01*
X139864087Y-84660316D01*
X139932337Y-84532629D01*
X139974365Y-84394081D01*
X139985000Y-84286101D01*
X139988556Y-84249996D01*
X139985000Y-84213891D01*
X139985000Y-82693137D01*
X152964999Y-82693137D01*
X152964999Y-82906863D01*
X153006695Y-83116483D01*
X153088484Y-83313940D01*
X153207224Y-83491647D01*
X153358352Y-83642775D01*
X153536059Y-83761515D01*
X153733516Y-83843304D01*
X153943136Y-83885000D01*
X154156862Y-83885000D01*
X154366482Y-83843304D01*
X154563939Y-83761515D01*
X154741646Y-83642775D01*
X154778172Y-83606249D01*
X154786060Y-83611519D01*
X154983517Y-83693308D01*
X155193137Y-83735004D01*
X155406863Y-83735004D01*
X155616483Y-83693308D01*
X155813940Y-83611519D01*
X155974833Y-83504014D01*
X155986060Y-83511515D01*
X156183517Y-83593304D01*
X156393137Y-83635000D01*
X156606863Y-83635000D01*
X156816483Y-83593304D01*
X157013940Y-83511515D01*
X157062585Y-83479012D01*
X157186060Y-83561515D01*
X157383517Y-83643304D01*
X157593137Y-83685000D01*
X157806863Y-83685000D01*
X158016483Y-83643304D01*
X158213940Y-83561515D01*
X158391647Y-83442775D01*
X158542775Y-83291647D01*
X158661515Y-83113940D01*
X158743304Y-82916483D01*
X158785000Y-82706863D01*
X158785000Y-82554446D01*
X159694197Y-81645250D01*
X159722237Y-81622238D01*
X159745250Y-81594197D01*
X159745253Y-81594194D01*
X159814086Y-81510321D01*
X159814087Y-81510320D01*
X159882337Y-81382633D01*
X159924365Y-81244085D01*
X159935000Y-81136105D01*
X159935000Y-81136096D01*
X159938555Y-81100001D01*
X159935000Y-81063906D01*
X159935000Y-80599416D01*
X160042775Y-80491641D01*
X160161515Y-80313934D01*
X160243304Y-80116477D01*
X160285000Y-79906857D01*
X160285000Y-79693131D01*
X160243304Y-79483511D01*
X160226581Y-79443137D01*
X180115000Y-79443137D01*
X180115000Y-79656863D01*
X180156696Y-79866483D01*
X180238485Y-80063940D01*
X180265000Y-80103623D01*
X180265001Y-82142756D01*
X180206696Y-82283517D01*
X180165000Y-82493137D01*
X180165000Y-82706863D01*
X180206696Y-82916483D01*
X180288485Y-83113940D01*
X180407225Y-83291647D01*
X180558353Y-83442775D01*
X180736060Y-83561515D01*
X180933517Y-83643304D01*
X181143137Y-83685000D01*
X181356863Y-83685000D01*
X181566483Y-83643304D01*
X181763940Y-83561515D01*
X181941647Y-83442775D01*
X182092775Y-83291647D01*
X182211515Y-83113940D01*
X182293304Y-82916483D01*
X182335000Y-82706863D01*
X182335000Y-82493137D01*
X182293304Y-82283517D01*
X182211515Y-82086060D01*
X182135000Y-81971547D01*
X182135000Y-80103623D01*
X182161515Y-80063940D01*
X182243304Y-79866483D01*
X182285000Y-79656863D01*
X182285000Y-79443137D01*
X182243304Y-79233517D01*
X182161515Y-79036060D01*
X182042775Y-78858353D01*
X181891647Y-78707225D01*
X181713940Y-78588485D01*
X181516483Y-78506696D01*
X181306863Y-78465000D01*
X181093137Y-78465000D01*
X180883517Y-78506696D01*
X180686060Y-78588485D01*
X180508353Y-78707225D01*
X180357225Y-78858353D01*
X180238485Y-79036060D01*
X180156696Y-79233517D01*
X180115000Y-79443137D01*
X160226581Y-79443137D01*
X160161515Y-79286054D01*
X160042775Y-79108347D01*
X159891647Y-78957219D01*
X159713940Y-78838479D01*
X159516483Y-78756690D01*
X159306863Y-78714994D01*
X159093137Y-78714994D01*
X158883517Y-78756690D01*
X158686060Y-78838479D01*
X158508353Y-78957219D01*
X158357225Y-79108347D01*
X158238485Y-79286054D01*
X158156696Y-79483511D01*
X158115000Y-79693131D01*
X158115000Y-79906857D01*
X158156696Y-80116477D01*
X158238485Y-80313934D01*
X158357225Y-80491641D01*
X158465000Y-80599416D01*
X158465000Y-80795553D01*
X157745554Y-81515000D01*
X157593137Y-81515000D01*
X157383517Y-81556696D01*
X157235000Y-81618213D01*
X157235000Y-80699424D01*
X157292775Y-80641649D01*
X157411515Y-80463942D01*
X157493304Y-80266485D01*
X157535000Y-80056865D01*
X157535000Y-79843139D01*
X157493304Y-79633519D01*
X157411515Y-79436062D01*
X157292775Y-79258355D01*
X157141647Y-79107227D01*
X156963940Y-78988487D01*
X156766483Y-78906698D01*
X156556863Y-78865002D01*
X156343137Y-78865002D01*
X156133517Y-78906698D01*
X155936060Y-78988487D01*
X155850000Y-79045990D01*
X155763940Y-78988487D01*
X155566483Y-78906698D01*
X155356863Y-78865002D01*
X155143137Y-78865002D01*
X154933517Y-78906698D01*
X154736060Y-78988487D01*
X154650001Y-79045989D01*
X154563940Y-78988485D01*
X154366483Y-78906696D01*
X154156863Y-78865000D01*
X153943137Y-78865000D01*
X153733517Y-78906696D01*
X153536060Y-78988485D01*
X153358353Y-79107225D01*
X153207225Y-79258353D01*
X153088485Y-79436060D01*
X153006696Y-79633517D01*
X152965000Y-79843137D01*
X152965000Y-80056863D01*
X153006696Y-80266483D01*
X153088485Y-80463940D01*
X153207225Y-80641647D01*
X153315001Y-80749423D01*
X153315000Y-82000577D01*
X153207224Y-82108353D01*
X153088484Y-82286060D01*
X153006695Y-82483517D01*
X152964999Y-82693137D01*
X139985000Y-82693137D01*
X139985000Y-80399422D01*
X140092775Y-80291647D01*
X140211515Y-80113940D01*
X140293304Y-79916483D01*
X140335000Y-79706863D01*
X140335000Y-79493137D01*
X140293304Y-79283517D01*
X140211515Y-79086060D01*
X140092775Y-78908353D01*
X139941647Y-78757225D01*
X139763940Y-78638485D01*
X139566483Y-78556696D01*
X139356863Y-78515000D01*
X139143137Y-78515000D01*
X138933517Y-78556696D01*
X138736060Y-78638485D01*
X138558353Y-78757225D01*
X138407225Y-78908353D01*
X138288485Y-79086060D01*
X138206696Y-79283517D01*
X138165000Y-79493137D01*
X138165000Y-79706863D01*
X138206696Y-79916483D01*
X138288485Y-80113940D01*
X138407225Y-80291647D01*
X138515000Y-80399422D01*
X138515001Y-83945548D01*
X136508905Y-85951645D01*
X136483511Y-85956696D01*
X136286054Y-86038485D01*
X136108347Y-86157225D01*
X135957219Y-86308353D01*
X135838479Y-86486060D01*
X135756690Y-86683517D01*
X135714994Y-86893137D01*
X128535000Y-86893137D01*
X128535000Y-86302505D01*
X128633517Y-86343312D01*
X128843137Y-86385008D01*
X129056863Y-86385008D01*
X129266483Y-86343312D01*
X129463940Y-86261523D01*
X129641647Y-86142783D01*
X129792775Y-85991655D01*
X129911515Y-85813948D01*
X129993304Y-85616491D01*
X130035000Y-85406871D01*
X130035000Y-85193145D01*
X129993304Y-84983525D01*
X129911515Y-84786068D01*
X129792775Y-84608361D01*
X129735000Y-84550586D01*
X129735000Y-77399422D01*
X129842775Y-77291647D01*
X129961515Y-77113940D01*
X130043304Y-76916483D01*
X130085000Y-76706863D01*
X130085000Y-76493137D01*
X130043304Y-76283517D01*
X129961515Y-76086060D01*
X129842775Y-75908353D01*
X129691647Y-75757225D01*
X129513940Y-75638485D01*
X129316483Y-75556696D01*
X129106863Y-75515000D01*
X128893137Y-75515000D01*
X128683517Y-75556696D01*
X128486060Y-75638485D01*
X128308353Y-75757225D01*
X128157225Y-75908353D01*
X128038485Y-76086060D01*
X127956696Y-76283517D01*
X127915000Y-76493137D01*
X127915000Y-76706863D01*
X127956696Y-76916483D01*
X128038485Y-77113940D01*
X128157225Y-77291647D01*
X128265000Y-77399422D01*
X128265000Y-80718214D01*
X128116483Y-80656696D01*
X127906863Y-80615000D01*
X127693137Y-80615000D01*
X127483517Y-80656696D01*
X127286060Y-80738485D01*
X127108353Y-80857225D01*
X126957225Y-81008353D01*
X126838485Y-81186060D01*
X126756696Y-81383517D01*
X126715000Y-81593137D01*
X98960000Y-81593137D01*
X98960000Y-69558510D01*
X126249627Y-69558510D01*
X126249627Y-69772236D01*
X126291323Y-69981856D01*
X126373112Y-70179313D01*
X126491852Y-70357020D01*
X126642980Y-70508148D01*
X126820687Y-70626888D01*
X127018144Y-70708677D01*
X127227764Y-70750373D01*
X127441490Y-70750373D01*
X127651110Y-70708677D01*
X127848567Y-70626888D01*
X128026274Y-70508148D01*
X128049422Y-70485000D01*
X130950580Y-70485000D01*
X131058355Y-70592775D01*
X131236062Y-70711515D01*
X131433519Y-70793304D01*
X131643139Y-70835000D01*
X131856865Y-70835000D01*
X132066485Y-70793304D01*
X132263942Y-70711515D01*
X132441649Y-70592775D01*
X132592777Y-70441647D01*
X132711517Y-70263940D01*
X132793306Y-70066483D01*
X132835002Y-69856863D01*
X132835002Y-69700000D01*
X139547815Y-69700000D01*
X139576487Y-69991111D01*
X139661401Y-70271034D01*
X139799294Y-70529014D01*
X139984866Y-70755134D01*
X140210986Y-70940706D01*
X140468966Y-71078599D01*
X140748889Y-71163513D01*
X140967050Y-71185000D01*
X141112950Y-71185000D01*
X141331111Y-71163513D01*
X141611034Y-71078599D01*
X141869014Y-70940706D01*
X142095134Y-70755134D01*
X142280706Y-70529014D01*
X142310000Y-70474209D01*
X142339294Y-70529014D01*
X142524866Y-70755134D01*
X142750986Y-70940706D01*
X143008966Y-71078599D01*
X143288889Y-71163513D01*
X143507050Y-71185000D01*
X143652950Y-71185000D01*
X143871111Y-71163513D01*
X144151034Y-71078599D01*
X144409014Y-70940706D01*
X144635134Y-70755134D01*
X144820706Y-70529014D01*
X144855201Y-70464477D01*
X144924822Y-70581355D01*
X145119731Y-70797588D01*
X145353080Y-70971641D01*
X145615901Y-71096825D01*
X145763110Y-71141476D01*
X145993000Y-71020155D01*
X145993000Y-69827000D01*
X145973000Y-69827000D01*
X145973000Y-69573000D01*
X145993000Y-69573000D01*
X145993000Y-68379845D01*
X146247000Y-68379845D01*
X146247000Y-69573000D01*
X146267000Y-69573000D01*
X146267000Y-69827000D01*
X146247000Y-69827000D01*
X146247000Y-71020155D01*
X146476890Y-71141476D01*
X146624099Y-71096825D01*
X146886920Y-70971641D01*
X147120269Y-70797588D01*
X147315178Y-70581355D01*
X147384799Y-70464477D01*
X147419294Y-70529014D01*
X147604866Y-70755134D01*
X147830986Y-70940706D01*
X148088966Y-71078599D01*
X148368889Y-71163513D01*
X148587050Y-71185000D01*
X148732950Y-71185000D01*
X148951111Y-71163513D01*
X149231034Y-71078599D01*
X149489014Y-70940706D01*
X149715134Y-70755134D01*
X149739607Y-70725313D01*
X149760498Y-70794180D01*
X149819463Y-70904494D01*
X149898815Y-71001185D01*
X149995506Y-71080537D01*
X150105820Y-71139502D01*
X150225518Y-71175812D01*
X150350000Y-71188072D01*
X152050000Y-71188072D01*
X152174482Y-71175812D01*
X152294180Y-71139502D01*
X152404494Y-71080537D01*
X152501185Y-71001185D01*
X152580537Y-70904494D01*
X152639502Y-70794180D01*
X152675812Y-70674482D01*
X152688072Y-70550000D01*
X152688072Y-68850000D01*
X152675812Y-68725518D01*
X152665990Y-68693137D01*
X153315000Y-68693137D01*
X153315000Y-68906863D01*
X153356696Y-69116483D01*
X153438485Y-69313940D01*
X153557225Y-69491647D01*
X153708353Y-69642775D01*
X153886060Y-69761515D01*
X154083517Y-69843304D01*
X154293137Y-69885000D01*
X154506863Y-69885000D01*
X154716483Y-69843304D01*
X154913940Y-69761515D01*
X155091647Y-69642775D01*
X155200000Y-69534422D01*
X155208353Y-69542775D01*
X155386060Y-69661515D01*
X155583517Y-69743304D01*
X155793137Y-69785000D01*
X156006863Y-69785000D01*
X156216483Y-69743304D01*
X156413940Y-69661515D01*
X156591647Y-69542775D01*
X156742775Y-69391647D01*
X156861515Y-69213940D01*
X156943304Y-69016483D01*
X156985000Y-68806863D01*
X156985000Y-68593137D01*
X156943304Y-68383517D01*
X156861515Y-68186060D01*
X156742775Y-68008353D01*
X156635000Y-67900578D01*
X156635000Y-65393137D01*
X163114996Y-65393137D01*
X163114996Y-65606863D01*
X163156692Y-65816483D01*
X163238481Y-66013940D01*
X163357221Y-66191647D01*
X163508349Y-66342775D01*
X163686056Y-66461515D01*
X163883513Y-66543304D01*
X164093133Y-66585000D01*
X164306859Y-66585000D01*
X164516479Y-66543304D01*
X164713936Y-66461515D01*
X164891643Y-66342775D01*
X164999418Y-66235000D01*
X166363889Y-66235000D01*
X166399994Y-66238556D01*
X166436099Y-66235000D01*
X166544079Y-66224365D01*
X166682627Y-66182337D01*
X166810314Y-66114087D01*
X166922232Y-66022238D01*
X166945253Y-65994187D01*
X166954446Y-65984994D01*
X167106863Y-65984994D01*
X167316483Y-65943298D01*
X167513940Y-65861509D01*
X167691647Y-65742769D01*
X167842775Y-65591641D01*
X167961515Y-65413934D01*
X168043304Y-65216477D01*
X168085000Y-65006857D01*
X168085000Y-64793131D01*
X168070608Y-64720777D01*
X190165000Y-64720777D01*
X190165000Y-65279223D01*
X190273948Y-65826939D01*
X190487656Y-66342876D01*
X190797912Y-66807207D01*
X191192793Y-67202088D01*
X191657124Y-67512344D01*
X192173061Y-67726052D01*
X192720777Y-67835000D01*
X193279223Y-67835000D01*
X193826939Y-67726052D01*
X194342876Y-67512344D01*
X194807207Y-67202088D01*
X195202088Y-66807207D01*
X195512344Y-66342876D01*
X195726052Y-65826939D01*
X195835000Y-65279223D01*
X195835000Y-64720777D01*
X195726052Y-64173061D01*
X195512344Y-63657124D01*
X195202088Y-63192793D01*
X194807207Y-62797912D01*
X194342876Y-62487656D01*
X193826939Y-62273948D01*
X193279223Y-62165000D01*
X192720777Y-62165000D01*
X192173061Y-62273948D01*
X191657124Y-62487656D01*
X191192793Y-62797912D01*
X190797912Y-63192793D01*
X190487656Y-63657124D01*
X190273948Y-64173061D01*
X190165000Y-64720777D01*
X168070608Y-64720777D01*
X168043304Y-64583511D01*
X167961515Y-64386054D01*
X167842775Y-64208347D01*
X167691647Y-64057219D01*
X167513940Y-63938479D01*
X167316483Y-63856690D01*
X167106863Y-63814994D01*
X166893137Y-63814994D01*
X166683517Y-63856690D01*
X166486060Y-63938479D01*
X166308353Y-64057219D01*
X166157225Y-64208347D01*
X166038485Y-64386054D01*
X165956696Y-64583511D01*
X165920596Y-64765000D01*
X164999418Y-64765000D01*
X164891643Y-64657225D01*
X164713936Y-64538485D01*
X164516479Y-64456696D01*
X164306859Y-64415000D01*
X164093133Y-64415000D01*
X163883513Y-64456696D01*
X163686056Y-64538485D01*
X163508349Y-64657225D01*
X163357221Y-64808353D01*
X163238481Y-64986060D01*
X163156692Y-65183517D01*
X163114996Y-65393137D01*
X156635000Y-65393137D01*
X156635000Y-64599421D01*
X156642775Y-64591646D01*
X156761515Y-64413939D01*
X156843304Y-64216482D01*
X156885000Y-64006862D01*
X156885000Y-63793136D01*
X156843304Y-63583516D01*
X156761515Y-63386059D01*
X156642775Y-63208352D01*
X156491647Y-63057224D01*
X156313940Y-62938484D01*
X156116483Y-62856695D01*
X155906863Y-62814999D01*
X155693137Y-62814999D01*
X155483517Y-62856695D01*
X155286060Y-62938484D01*
X155135000Y-63039419D01*
X155135000Y-62897216D01*
X155141647Y-62892775D01*
X155292775Y-62741647D01*
X155411515Y-62563940D01*
X155493304Y-62366483D01*
X155535000Y-62156863D01*
X155535000Y-61943137D01*
X155493304Y-61733517D01*
X155411515Y-61536060D01*
X155292775Y-61358353D01*
X155141647Y-61207225D01*
X154963940Y-61088485D01*
X154766483Y-61006696D01*
X154556863Y-60965000D01*
X154343137Y-60965000D01*
X154133517Y-61006696D01*
X153936060Y-61088485D01*
X153758353Y-61207225D01*
X153607225Y-61358353D01*
X153488485Y-61536060D01*
X153406696Y-61733517D01*
X153365000Y-61943137D01*
X153365000Y-62156863D01*
X153406696Y-62366483D01*
X153488485Y-62563940D01*
X153607225Y-62741647D01*
X153665001Y-62799423D01*
X153665000Y-68000578D01*
X153557225Y-68108353D01*
X153438485Y-68286060D01*
X153356696Y-68483517D01*
X153315000Y-68693137D01*
X152665990Y-68693137D01*
X152639502Y-68605820D01*
X152580537Y-68495506D01*
X152501185Y-68398815D01*
X152404494Y-68319463D01*
X152294180Y-68260498D01*
X152174482Y-68224188D01*
X152050000Y-68211928D01*
X150350000Y-68211928D01*
X150225518Y-68224188D01*
X150105820Y-68260498D01*
X149995506Y-68319463D01*
X149898815Y-68398815D01*
X149819463Y-68495506D01*
X149760498Y-68605820D01*
X149739607Y-68674687D01*
X149715134Y-68644866D01*
X149489014Y-68459294D01*
X149231034Y-68321401D01*
X148951111Y-68236487D01*
X148732950Y-68215000D01*
X148587050Y-68215000D01*
X148368889Y-68236487D01*
X148088966Y-68321401D01*
X147830986Y-68459294D01*
X147604866Y-68644866D01*
X147419294Y-68870986D01*
X147384799Y-68935523D01*
X147315178Y-68818645D01*
X147120269Y-68602412D01*
X146886920Y-68428359D01*
X146624099Y-68303175D01*
X146476890Y-68258524D01*
X146247000Y-68379845D01*
X145993000Y-68379845D01*
X145763110Y-68258524D01*
X145615901Y-68303175D01*
X145353080Y-68428359D01*
X145119731Y-68602412D01*
X144924822Y-68818645D01*
X144855201Y-68935523D01*
X144820706Y-68870986D01*
X144635134Y-68644866D01*
X144409014Y-68459294D01*
X144151034Y-68321401D01*
X143871111Y-68236487D01*
X143652950Y-68215000D01*
X143507050Y-68215000D01*
X143288889Y-68236487D01*
X143008966Y-68321401D01*
X142750986Y-68459294D01*
X142524866Y-68644866D01*
X142339294Y-68870986D01*
X142310000Y-68925791D01*
X142280706Y-68870986D01*
X142095134Y-68644866D01*
X141869014Y-68459294D01*
X141611034Y-68321401D01*
X141331111Y-68236487D01*
X141112950Y-68215000D01*
X140967050Y-68215000D01*
X140748889Y-68236487D01*
X140468966Y-68321401D01*
X140210986Y-68459294D01*
X139984866Y-68644866D01*
X139799294Y-68870986D01*
X139661401Y-69128966D01*
X139576487Y-69408889D01*
X139547815Y-69700000D01*
X132835002Y-69700000D01*
X132835002Y-69643137D01*
X132793306Y-69433517D01*
X132711517Y-69236060D01*
X132592777Y-69058353D01*
X132441649Y-68907225D01*
X132263942Y-68788485D01*
X132066485Y-68706696D01*
X131856865Y-68665000D01*
X131643139Y-68665000D01*
X131433519Y-68706696D01*
X131236062Y-68788485D01*
X131058355Y-68907225D01*
X130950580Y-69015000D01*
X128204980Y-69015000D01*
X128177402Y-68973726D01*
X128026274Y-68822598D01*
X127848567Y-68703858D01*
X127651110Y-68622069D01*
X127441490Y-68580373D01*
X127227764Y-68580373D01*
X127018144Y-68622069D01*
X126820687Y-68703858D01*
X126642980Y-68822598D01*
X126491852Y-68973726D01*
X126373112Y-69151433D01*
X126291323Y-69348890D01*
X126249627Y-69558510D01*
X98960000Y-69558510D01*
X98960000Y-57509819D01*
X103369786Y-57509819D01*
X103663965Y-57943151D01*
X104234406Y-58248636D01*
X104853484Y-58436962D01*
X105497407Y-58500894D01*
X106141429Y-58437973D01*
X106760802Y-58250621D01*
X107331722Y-57946034D01*
X107336035Y-57943151D01*
X107630214Y-57509819D01*
X105500000Y-55379605D01*
X103369786Y-57509819D01*
X98960000Y-57509819D01*
X98960000Y-52703148D01*
X100476457Y-52703148D01*
X100752627Y-53121118D01*
X101297557Y-53411649D01*
X101888696Y-53590287D01*
X102503328Y-53650168D01*
X102609226Y-53639625D01*
X102451364Y-53934406D01*
X102263038Y-54553484D01*
X102199106Y-55197407D01*
X102262027Y-55841429D01*
X102449379Y-56460802D01*
X102753966Y-57031722D01*
X102756849Y-57036035D01*
X103190181Y-57330214D01*
X105320395Y-55200000D01*
X105306253Y-55185858D01*
X105485858Y-55006253D01*
X105500000Y-55020395D01*
X105514143Y-55006253D01*
X105693748Y-55185858D01*
X105679605Y-55200000D01*
X107809819Y-57330214D01*
X108243151Y-57036035D01*
X108548636Y-56465594D01*
X108736962Y-55846516D01*
X108800894Y-55202593D01*
X108737973Y-54558571D01*
X108550621Y-53939198D01*
X108468356Y-53785000D01*
X108823544Y-53785000D01*
X109458199Y-53658760D01*
X110056031Y-53411129D01*
X110594066Y-53051626D01*
X111051626Y-52594066D01*
X111411129Y-52056031D01*
X111658760Y-51458199D01*
X111785000Y-50823544D01*
X111785000Y-50176456D01*
X111728645Y-49893137D01*
X137665000Y-49893137D01*
X137665000Y-50106863D01*
X137706696Y-50316483D01*
X137788485Y-50513940D01*
X137907225Y-50691647D01*
X138058353Y-50842775D01*
X138236060Y-50961515D01*
X138433517Y-51043304D01*
X138643137Y-51085000D01*
X138654132Y-51085000D01*
X139065000Y-51495869D01*
X139065001Y-60300577D01*
X139057225Y-60308353D01*
X138938485Y-60486060D01*
X138856696Y-60683517D01*
X138815000Y-60893137D01*
X138815000Y-61106863D01*
X138856696Y-61316483D01*
X138938485Y-61513940D01*
X139057225Y-61691647D01*
X139208353Y-61842775D01*
X139386060Y-61961515D01*
X139583517Y-62043304D01*
X139793137Y-62085000D01*
X140006863Y-62085000D01*
X140216483Y-62043304D01*
X140413940Y-61961515D01*
X140591647Y-61842775D01*
X140742775Y-61691647D01*
X140861515Y-61513940D01*
X140943304Y-61316483D01*
X140985000Y-61106863D01*
X140985000Y-60893137D01*
X140943304Y-60683517D01*
X140861515Y-60486060D01*
X140742775Y-60308353D01*
X140735000Y-60300578D01*
X140735000Y-51191018D01*
X140739040Y-51150000D01*
X140722918Y-50986312D01*
X140694648Y-50893115D01*
X150415000Y-50893115D01*
X150415000Y-51106841D01*
X150456696Y-51316461D01*
X150538485Y-51513918D01*
X150657225Y-51691625D01*
X150808353Y-51842753D01*
X150986060Y-51961493D01*
X151183517Y-52043282D01*
X151393137Y-52084978D01*
X151606863Y-52084978D01*
X151816483Y-52043282D01*
X152013940Y-51961493D01*
X152191647Y-51842753D01*
X152199422Y-51834978D01*
X153550556Y-51834978D01*
X153558353Y-51842775D01*
X153736060Y-51961515D01*
X153933517Y-52043304D01*
X154143137Y-52085000D01*
X154356863Y-52085000D01*
X154566483Y-52043304D01*
X154763940Y-51961515D01*
X154941647Y-51842775D01*
X155092775Y-51691647D01*
X155211515Y-51513940D01*
X155293304Y-51316483D01*
X155335000Y-51106863D01*
X155335000Y-50893137D01*
X155293304Y-50683517D01*
X155211515Y-50486060D01*
X155092775Y-50308353D01*
X154941647Y-50157225D01*
X154763940Y-50038485D01*
X154566483Y-49956696D01*
X154356863Y-49915000D01*
X154143137Y-49915000D01*
X153933517Y-49956696D01*
X153736060Y-50038485D01*
X153558353Y-50157225D01*
X153550600Y-50164978D01*
X152199422Y-50164978D01*
X152191647Y-50157203D01*
X152013940Y-50038463D01*
X151816483Y-49956674D01*
X151606863Y-49914978D01*
X151393137Y-49914978D01*
X151183517Y-49956674D01*
X150986060Y-50038463D01*
X150808353Y-50157203D01*
X150657225Y-50308331D01*
X150538485Y-50486038D01*
X150456696Y-50683495D01*
X150415000Y-50893115D01*
X140694648Y-50893115D01*
X140675172Y-50828913D01*
X140597636Y-50683854D01*
X140519439Y-50588570D01*
X140519437Y-50588568D01*
X140493291Y-50556709D01*
X140461433Y-50530564D01*
X139835000Y-49904132D01*
X139835000Y-49893137D01*
X139800716Y-49720777D01*
X190165000Y-49720777D01*
X190165000Y-50279223D01*
X190273948Y-50826939D01*
X190487656Y-51342876D01*
X190797912Y-51807207D01*
X191192793Y-52202088D01*
X191657124Y-52512344D01*
X192173061Y-52726052D01*
X192720777Y-52835000D01*
X193279223Y-52835000D01*
X193826939Y-52726052D01*
X194342876Y-52512344D01*
X194807207Y-52202088D01*
X195202088Y-51807207D01*
X195512344Y-51342876D01*
X195726052Y-50826939D01*
X195835000Y-50279223D01*
X195835000Y-49720777D01*
X195726052Y-49173061D01*
X195512344Y-48657124D01*
X195202088Y-48192793D01*
X194807207Y-47797912D01*
X194342876Y-47487656D01*
X193826939Y-47273948D01*
X193279223Y-47165000D01*
X192720777Y-47165000D01*
X192173061Y-47273948D01*
X191657124Y-47487656D01*
X191192793Y-47797912D01*
X190797912Y-48192793D01*
X190487656Y-48657124D01*
X190273948Y-49173061D01*
X190165000Y-49720777D01*
X139800716Y-49720777D01*
X139793304Y-49683517D01*
X139711515Y-49486060D01*
X139592775Y-49308353D01*
X139441647Y-49157225D01*
X139263940Y-49038485D01*
X139066483Y-48956696D01*
X138856863Y-48915000D01*
X138643137Y-48915000D01*
X138433517Y-48956696D01*
X138236060Y-49038485D01*
X138058353Y-49157225D01*
X137907225Y-49308353D01*
X137788485Y-49486060D01*
X137706696Y-49683517D01*
X137665000Y-49893137D01*
X111728645Y-49893137D01*
X111658760Y-49541801D01*
X111411129Y-48943969D01*
X111051626Y-48405934D01*
X110594066Y-47948374D01*
X110056031Y-47588871D01*
X109495984Y-47356891D01*
X152518519Y-47356891D01*
X152615843Y-47631252D01*
X152764822Y-47881355D01*
X152959731Y-48097588D01*
X153193080Y-48271641D01*
X153455901Y-48396825D01*
X153603110Y-48441476D01*
X153833000Y-48320155D01*
X153833000Y-47127000D01*
X152639186Y-47127000D01*
X152518519Y-47356891D01*
X109495984Y-47356891D01*
X109458199Y-47341240D01*
X108823544Y-47215000D01*
X108176456Y-47215000D01*
X107541801Y-47341240D01*
X106943969Y-47588871D01*
X106405934Y-47948374D01*
X105948374Y-48405934D01*
X105588871Y-48943969D01*
X105424293Y-49341294D01*
X105409103Y-49291408D01*
X105121118Y-48752627D01*
X104703148Y-48476457D01*
X102679605Y-50500000D01*
X102693748Y-50514143D01*
X102514143Y-50693748D01*
X102500000Y-50679605D01*
X100476457Y-52703148D01*
X98960000Y-52703148D01*
X98960000Y-50503328D01*
X99349832Y-50503328D01*
X99411010Y-51117831D01*
X99590897Y-51708592D01*
X99878882Y-52247373D01*
X100296852Y-52523543D01*
X102320395Y-50500000D01*
X100296852Y-48476457D01*
X99878882Y-48752627D01*
X99588351Y-49297557D01*
X99409713Y-49888696D01*
X99349832Y-50503328D01*
X98960000Y-50503328D01*
X98960000Y-48296852D01*
X100476457Y-48296852D01*
X102500000Y-50320395D01*
X104523543Y-48296852D01*
X104247373Y-47878882D01*
X103702443Y-47588351D01*
X103111304Y-47409713D01*
X102496672Y-47349832D01*
X101882169Y-47411010D01*
X101291408Y-47590897D01*
X100752627Y-47878882D01*
X100476457Y-48296852D01*
X98960000Y-48296852D01*
X98960000Y-46643109D01*
X152518519Y-46643109D01*
X152639186Y-46873000D01*
X153833000Y-46873000D01*
X153833000Y-45679845D01*
X154087000Y-45679845D01*
X154087000Y-46873000D01*
X154107000Y-46873000D01*
X154107000Y-47127000D01*
X154087000Y-47127000D01*
X154087000Y-48320155D01*
X154316890Y-48441476D01*
X154464099Y-48396825D01*
X154726920Y-48271641D01*
X154960269Y-48097588D01*
X155036034Y-48013534D01*
X155060498Y-48094180D01*
X155119463Y-48204494D01*
X155198815Y-48301185D01*
X155295506Y-48380537D01*
X155405820Y-48439502D01*
X155525518Y-48475812D01*
X155650000Y-48488072D01*
X157350000Y-48488072D01*
X157474482Y-48475812D01*
X157594180Y-48439502D01*
X157704494Y-48380537D01*
X157801185Y-48301185D01*
X157880537Y-48204494D01*
X157939502Y-48094180D01*
X157975812Y-47974482D01*
X157988072Y-47850000D01*
X157988072Y-46150000D01*
X157975812Y-46025518D01*
X157939502Y-45905820D01*
X157880537Y-45795506D01*
X157801185Y-45698815D01*
X157704494Y-45619463D01*
X157594180Y-45560498D01*
X157474482Y-45524188D01*
X157350000Y-45511928D01*
X155650000Y-45511928D01*
X155525518Y-45524188D01*
X155405820Y-45560498D01*
X155295506Y-45619463D01*
X155198815Y-45698815D01*
X155119463Y-45795506D01*
X155060498Y-45905820D01*
X155036034Y-45986466D01*
X154960269Y-45902412D01*
X154726920Y-45728359D01*
X154464099Y-45603175D01*
X154316890Y-45558524D01*
X154087000Y-45679845D01*
X153833000Y-45679845D01*
X153603110Y-45558524D01*
X153455901Y-45603175D01*
X153193080Y-45728359D01*
X152959731Y-45902412D01*
X152764822Y-46118645D01*
X152615843Y-46368748D01*
X152518519Y-46643109D01*
X98960000Y-46643109D01*
X98960000Y-45032279D01*
X98998147Y-44643225D01*
X99101763Y-44300033D01*
X99270062Y-43983511D01*
X99496637Y-43705701D01*
X99772856Y-43477194D01*
X100088197Y-43306690D01*
X100430656Y-43200681D01*
X100817712Y-43160000D01*
X195467721Y-43160000D01*
X195856775Y-43198147D01*
X195856775Y-43198147D01*
G37*
X195856775Y-43198147D02*
X196199967Y-43301763D01*
X196516489Y-43470062D01*
X196794299Y-43696637D01*
X197022806Y-43972856D01*
X197193310Y-44288197D01*
X197299319Y-44630656D01*
X197340000Y-45017712D01*
X197340001Y-69967711D01*
X197301853Y-70356776D01*
X197198238Y-70699964D01*
X197029939Y-71016489D01*
X196803365Y-71294296D01*
X196527146Y-71522805D01*
X196211803Y-71693310D01*
X195869344Y-71799319D01*
X195482288Y-71840000D01*
X194967581Y-71840000D01*
X194938282Y-71842886D01*
X194922730Y-71842777D01*
X194913558Y-71843677D01*
X194428316Y-71894678D01*
X194369760Y-71906698D01*
X194310959Y-71917914D01*
X194302138Y-71920578D01*
X193836044Y-72064858D01*
X193780881Y-72088046D01*
X193725435Y-72110448D01*
X193717299Y-72114774D01*
X193288106Y-72346838D01*
X193238539Y-72380271D01*
X193188460Y-72413042D01*
X193181319Y-72418866D01*
X192805374Y-72729875D01*
X192763252Y-72772292D01*
X192720483Y-72814174D01*
X192714610Y-72821275D01*
X192406233Y-73199382D01*
X192373141Y-73249191D01*
X192339334Y-73298563D01*
X192334952Y-73306669D01*
X192105890Y-73737473D01*
X192083099Y-73792767D01*
X192059529Y-73847760D01*
X192056804Y-73856563D01*
X191915781Y-74323653D01*
X191904159Y-74382347D01*
X191891725Y-74440844D01*
X191890762Y-74450009D01*
X191843150Y-74935595D01*
X191843150Y-74935608D01*
X191840001Y-74967581D01*
X191840000Y-109967721D01*
X191801853Y-110356776D01*
X191698238Y-110699964D01*
X191529939Y-111016489D01*
X191303365Y-111294296D01*
X191027146Y-111522805D01*
X190711803Y-111693310D01*
X190369344Y-111799319D01*
X189982288Y-111840000D01*
X95332279Y-111840000D01*
X94943224Y-111801853D01*
X94600036Y-111698238D01*
X94283511Y-111529939D01*
X94005704Y-111303365D01*
X93777195Y-111027146D01*
X93606690Y-110711803D01*
X93500681Y-110369344D01*
X93460000Y-109982288D01*
X93460000Y-104720777D01*
X94965000Y-104720777D01*
X94965000Y-105279223D01*
X95073948Y-105826939D01*
X95287656Y-106342876D01*
X95597912Y-106807207D01*
X95992793Y-107202088D01*
X96457124Y-107512344D01*
X96973061Y-107726052D01*
X97520777Y-107835000D01*
X98079223Y-107835000D01*
X98626939Y-107726052D01*
X99142876Y-107512344D01*
X99607207Y-107202088D01*
X100002088Y-106807207D01*
X100312344Y-106342876D01*
X100526052Y-105826939D01*
X100635000Y-105279223D01*
X100635000Y-104720777D01*
X100526052Y-104173061D01*
X100312344Y-103657124D01*
X100002088Y-103192793D01*
X99607207Y-102797912D01*
X99142876Y-102487656D01*
X98626939Y-102273948D01*
X98079223Y-102165000D01*
X97520777Y-102165000D01*
X96973061Y-102273948D01*
X96457124Y-102487656D01*
X95992793Y-102797912D01*
X95597912Y-103192793D01*
X95287656Y-103657124D01*
X95073948Y-104173061D01*
X94965000Y-104720777D01*
X93460000Y-104720777D01*
X93460000Y-94720777D01*
X94965000Y-94720777D01*
X94965000Y-95279223D01*
X95073948Y-95826939D01*
X95287656Y-96342876D01*
X95597912Y-96807207D01*
X95992793Y-97202088D01*
X96457124Y-97512344D01*
X96973061Y-97726052D01*
X97520777Y-97835000D01*
X98079223Y-97835000D01*
X98626939Y-97726052D01*
X99142876Y-97512344D01*
X99607207Y-97202088D01*
X100002088Y-96807207D01*
X100312344Y-96342876D01*
X100526052Y-95826939D01*
X100635000Y-95279223D01*
X100635000Y-94720777D01*
X100526052Y-94173061D01*
X100312344Y-93657124D01*
X100002088Y-93192793D01*
X99607207Y-92797912D01*
X99142876Y-92487656D01*
X98626939Y-92273948D01*
X98079223Y-92165000D01*
X97520777Y-92165000D01*
X96973061Y-92273948D01*
X96457124Y-92487656D01*
X95992793Y-92797912D01*
X95597912Y-93192793D01*
X95287656Y-93657124D01*
X95073948Y-94173061D01*
X94965000Y-94720777D01*
X93460000Y-94720777D01*
X93460000Y-90032279D01*
X93498147Y-89643225D01*
X93601763Y-89300033D01*
X93770062Y-88983511D01*
X93996637Y-88705701D01*
X94272856Y-88477194D01*
X94428316Y-88393137D01*
X111415000Y-88393137D01*
X111415000Y-88606863D01*
X111456696Y-88816483D01*
X111538485Y-89013940D01*
X111657225Y-89191647D01*
X111808353Y-89342775D01*
X111986060Y-89461515D01*
X112183517Y-89543304D01*
X112393137Y-89585000D01*
X112404132Y-89585000D01*
X112665000Y-89845868D01*
X112665000Y-90200578D01*
X112657225Y-90208353D01*
X112538485Y-90386060D01*
X112456696Y-90583517D01*
X112415000Y-90793137D01*
X112415000Y-91006863D01*
X112456696Y-91216483D01*
X112538485Y-91413940D01*
X112657225Y-91591647D01*
X112808353Y-91742775D01*
X112986060Y-91861515D01*
X113183517Y-91943304D01*
X113393137Y-91985000D01*
X113606863Y-91985000D01*
X113816483Y-91943304D01*
X114013940Y-91861515D01*
X114191647Y-91742775D01*
X114342775Y-91591647D01*
X114461515Y-91413940D01*
X114543304Y-91216483D01*
X114585000Y-91006863D01*
X114585000Y-90793137D01*
X114543304Y-90583517D01*
X114461515Y-90386060D01*
X114342775Y-90208353D01*
X114335000Y-90200578D01*
X114335000Y-89541018D01*
X114339040Y-89500000D01*
X114322918Y-89336312D01*
X114316408Y-89314849D01*
X114275172Y-89178913D01*
X114197636Y-89033854D01*
X114093291Y-88906709D01*
X114061433Y-88880564D01*
X113585000Y-88404132D01*
X113585000Y-88393137D01*
X113543304Y-88183517D01*
X113461515Y-87986060D01*
X113342775Y-87808353D01*
X113191647Y-87657225D01*
X113013940Y-87538485D01*
X112816483Y-87456696D01*
X112606863Y-87415000D01*
X112393137Y-87415000D01*
X112183517Y-87456696D01*
X111986060Y-87538485D01*
X111808353Y-87657225D01*
X111657225Y-87808353D01*
X111538485Y-87986060D01*
X111456696Y-88183517D01*
X111415000Y-88393137D01*
X94428316Y-88393137D01*
X94588197Y-88306690D01*
X94930656Y-88200681D01*
X95317712Y-88160000D01*
X95832419Y-88160000D01*
X95861718Y-88157114D01*
X95877271Y-88157223D01*
X95886442Y-88156323D01*
X96371684Y-88105322D01*
X96430247Y-88093301D01*
X96489040Y-88082086D01*
X96497862Y-88079422D01*
X96963956Y-87935142D01*
X97019086Y-87911967D01*
X97074565Y-87889553D01*
X97082701Y-87885226D01*
X97511894Y-87653162D01*
X97561461Y-87619729D01*
X97611540Y-87586958D01*
X97618681Y-87581133D01*
X97994627Y-87270125D01*
X98036767Y-87227689D01*
X98079517Y-87185826D01*
X98085391Y-87178725D01*
X98393767Y-86800618D01*
X98426859Y-86750809D01*
X98460666Y-86701437D01*
X98465047Y-86693333D01*
X98465051Y-86693325D01*
X98694111Y-86262527D01*
X98716910Y-86207212D01*
X98740471Y-86152240D01*
X98743196Y-86143437D01*
X98884219Y-85676348D01*
X98895845Y-85617631D01*
X98908275Y-85559155D01*
X98909238Y-85549991D01*
X98956850Y-85064404D01*
X98956850Y-85064402D01*
X98960000Y-85032419D01*
X98960000Y-81593137D01*
X126715000Y-81593137D01*
X126715000Y-81806863D01*
X126756696Y-82016483D01*
X126838485Y-82213940D01*
X126957225Y-82391647D01*
X127065000Y-82499422D01*
X127065001Y-94938885D01*
X127061444Y-94975000D01*
X127075635Y-95119085D01*
X127106120Y-95219579D01*
X127117664Y-95257633D01*
X127185914Y-95385320D01*
X127277763Y-95497238D01*
X127305808Y-95520254D01*
X134065000Y-102279447D01*
X134065000Y-102431863D01*
X134106401Y-102640000D01*
X133899422Y-102640000D01*
X133791647Y-102532225D01*
X133613940Y-102413485D01*
X133416483Y-102331696D01*
X133206863Y-102290000D01*
X132993137Y-102290000D01*
X132783517Y-102331696D01*
X132586060Y-102413485D01*
X132408353Y-102532225D01*
X132257225Y-102683353D01*
X132138485Y-102861060D01*
X132056696Y-103058517D01*
X132015000Y-103268137D01*
X132015000Y-103481863D01*
X132056696Y-103691483D01*
X132138485Y-103888940D01*
X132257225Y-104066647D01*
X132408353Y-104217775D01*
X132586060Y-104336515D01*
X132783517Y-104418304D01*
X132993137Y-104460000D01*
X133206863Y-104460000D01*
X133416483Y-104418304D01*
X133613940Y-104336515D01*
X133791647Y-104217775D01*
X133899422Y-104110000D01*
X134364368Y-104110000D01*
X134438485Y-104288936D01*
X134557225Y-104466643D01*
X134708353Y-104617771D01*
X134886060Y-104736511D01*
X134976490Y-104773968D01*
X134874218Y-104816331D01*
X134775000Y-104882626D01*
X134675782Y-104816331D01*
X134473775Y-104732657D01*
X134259325Y-104690000D01*
X134040675Y-104690000D01*
X133826225Y-104732657D01*
X133624218Y-104816331D01*
X133525000Y-104882626D01*
X133425782Y-104816331D01*
X133223775Y-104732657D01*
X133009325Y-104690000D01*
X132790675Y-104690000D01*
X132576225Y-104732657D01*
X132374218Y-104816331D01*
X132275000Y-104882626D01*
X132175782Y-104816331D01*
X131973775Y-104732657D01*
X131759325Y-104690000D01*
X131540675Y-104690000D01*
X131326225Y-104732657D01*
X131124218Y-104816331D01*
X131025000Y-104882626D01*
X130925782Y-104816331D01*
X130723775Y-104732657D01*
X130509325Y-104690000D01*
X130290675Y-104690000D01*
X130076225Y-104732657D01*
X129874218Y-104816331D01*
X129775000Y-104882626D01*
X129675782Y-104816331D01*
X129473775Y-104732657D01*
X129259325Y-104690000D01*
X129040675Y-104690000D01*
X128826225Y-104732657D01*
X128706581Y-104782215D01*
X128619180Y-104735498D01*
X128499482Y-104699188D01*
X128375000Y-104686928D01*
X127425000Y-104686928D01*
X127300518Y-104699188D01*
X127180820Y-104735498D01*
X127070506Y-104794463D01*
X126973815Y-104873815D01*
X126894463Y-104970506D01*
X126835498Y-105080820D01*
X126799188Y-105200518D01*
X126786928Y-105325000D01*
X126786928Y-106275000D01*
X126799188Y-106399482D01*
X126835498Y-106519180D01*
X126894463Y-106629494D01*
X126973815Y-106726185D01*
X127070506Y-106805537D01*
X127180820Y-106864502D01*
X127300518Y-106900812D01*
X127425000Y-106913072D01*
X128375000Y-106913072D01*
X128499482Y-106900812D01*
X128619180Y-106864502D01*
X128706581Y-106817785D01*
X128826225Y-106867343D01*
X129040675Y-106910000D01*
X129259325Y-106910000D01*
X129473775Y-106867343D01*
X129675782Y-106783669D01*
X129775000Y-106717374D01*
X129874218Y-106783669D01*
X130076225Y-106867343D01*
X130290675Y-106910000D01*
X130509325Y-106910000D01*
X130723775Y-106867343D01*
X130925782Y-106783669D01*
X131025000Y-106717374D01*
X131124218Y-106783669D01*
X131326225Y-106867343D01*
X131540675Y-106910000D01*
X131759325Y-106910000D01*
X131973775Y-106867343D01*
X132175782Y-106783669D01*
X132275000Y-106717374D01*
X132374218Y-106783669D01*
X132576225Y-106867343D01*
X132790675Y-106910000D01*
X133009325Y-106910000D01*
X133223775Y-106867343D01*
X133425782Y-106783669D01*
X133525000Y-106717374D01*
X133624218Y-106783669D01*
X133826225Y-106867343D01*
X134040675Y-106910000D01*
X134259325Y-106910000D01*
X134473775Y-106867343D01*
X134675782Y-106783669D01*
X134775000Y-106717374D01*
X134874218Y-106783669D01*
X135076225Y-106867343D01*
X135290675Y-106910000D01*
X135509325Y-106910000D01*
X135723775Y-106867343D01*
X135925782Y-106783669D01*
X136086948Y-106675982D01*
X136101410Y-106771134D01*
X136301410Y-106859498D01*
X136514805Y-106907147D01*
X136733397Y-106912249D01*
X136948784Y-106874607D01*
X137152689Y-106795669D01*
X137198590Y-106771134D01*
X137230643Y-106560248D01*
X137070395Y-106400000D01*
X150011928Y-106400000D01*
X150011928Y-108100000D01*
X150024188Y-108224482D01*
X150060498Y-108344180D01*
X150119463Y-108454494D01*
X150198815Y-108551185D01*
X150295506Y-108630537D01*
X150405820Y-108689502D01*
X150525518Y-108725812D01*
X150650000Y-108738072D01*
X152350000Y-108738072D01*
X152474482Y-108725812D01*
X152594180Y-108689502D01*
X152704494Y-108630537D01*
X152801185Y-108551185D01*
X152880537Y-108454494D01*
X152939502Y-108344180D01*
X152960393Y-108275313D01*
X152984866Y-108305134D01*
X153210986Y-108490706D01*
X153468966Y-108628599D01*
X153748889Y-108713513D01*
X153967050Y-108735000D01*
X154112950Y-108735000D01*
X154331111Y-108713513D01*
X154611034Y-108628599D01*
X154869014Y-108490706D01*
X155095134Y-108305134D01*
X155280706Y-108079014D01*
X155418599Y-107821034D01*
X155503513Y-107541111D01*
X155532185Y-107250000D01*
X155503513Y-106958889D01*
X155418599Y-106678966D01*
X155280706Y-106420986D01*
X155095134Y-106194866D01*
X154869014Y-106009294D01*
X154611034Y-105871401D01*
X154331111Y-105786487D01*
X154112950Y-105765000D01*
X153967050Y-105765000D01*
X153748889Y-105786487D01*
X153468966Y-105871401D01*
X153210986Y-106009294D01*
X152984866Y-106194866D01*
X152960393Y-106224687D01*
X152939502Y-106155820D01*
X152880537Y-106045506D01*
X152801185Y-105948815D01*
X152704494Y-105869463D01*
X152594180Y-105810498D01*
X152474482Y-105774188D01*
X152350000Y-105761928D01*
X150650000Y-105761928D01*
X150525518Y-105774188D01*
X150405820Y-105810498D01*
X150295506Y-105869463D01*
X150198815Y-105948815D01*
X150119463Y-106045506D01*
X150060498Y-106155820D01*
X150024188Y-106275518D01*
X150011928Y-106400000D01*
X137070395Y-106400000D01*
X136650000Y-105979605D01*
X136635858Y-105993748D01*
X136510000Y-105867890D01*
X136510000Y-105800000D01*
X136829605Y-105800000D01*
X137410248Y-106380643D01*
X137621134Y-106348590D01*
X137709498Y-106148590D01*
X137757147Y-105935195D01*
X137762249Y-105716603D01*
X137724607Y-105501216D01*
X137645669Y-105297311D01*
X137621134Y-105251410D01*
X137410248Y-105219357D01*
X136829605Y-105800000D01*
X136510000Y-105800000D01*
X136510000Y-105732110D01*
X136635858Y-105606253D01*
X136650000Y-105620395D01*
X137230643Y-105039752D01*
X137198590Y-104828866D01*
X136998590Y-104740502D01*
X136785195Y-104692853D01*
X136566603Y-104687751D01*
X136351216Y-104725393D01*
X136147311Y-104804331D01*
X136101410Y-104828866D01*
X136086948Y-104924018D01*
X135925782Y-104816331D01*
X135823510Y-104773968D01*
X135913940Y-104736511D01*
X136091647Y-104617771D01*
X136242775Y-104466643D01*
X136361515Y-104288936D01*
X136443304Y-104091479D01*
X136485000Y-103881859D01*
X136485000Y-103668133D01*
X136443304Y-103458513D01*
X136361515Y-103261056D01*
X136242775Y-103083349D01*
X136091647Y-102932221D01*
X136062292Y-102912607D01*
X136111515Y-102838940D01*
X136130487Y-102793137D01*
X137815000Y-102793137D01*
X137815000Y-103006863D01*
X137856696Y-103216483D01*
X137938485Y-103413940D01*
X138057225Y-103591647D01*
X138208353Y-103742775D01*
X138386060Y-103861515D01*
X138583517Y-103943304D01*
X138793137Y-103985000D01*
X139006863Y-103985000D01*
X139216483Y-103943304D01*
X139413940Y-103861515D01*
X139591647Y-103742775D01*
X139665090Y-103669332D01*
X139665090Y-103856863D01*
X139705305Y-104059035D01*
X139558353Y-104157225D01*
X139407225Y-104308353D01*
X139288485Y-104486060D01*
X139206696Y-104683517D01*
X139165000Y-104893137D01*
X139165000Y-105106863D01*
X139206696Y-105316483D01*
X139288485Y-105513940D01*
X139407225Y-105691647D01*
X139558353Y-105842775D01*
X139736060Y-105961515D01*
X139933517Y-106043304D01*
X140143137Y-106085000D01*
X140328806Y-106085000D01*
X140417365Y-106132336D01*
X140555914Y-106174364D01*
X140699999Y-106188555D01*
X140736104Y-106184999D01*
X147263934Y-106184999D01*
X147300039Y-106188555D01*
X147336144Y-106184999D01*
X147444124Y-106174364D01*
X147582672Y-106132336D01*
X147710359Y-106064086D01*
X147822277Y-105972237D01*
X147845298Y-105944186D01*
X156454465Y-97335020D01*
X156606881Y-97335020D01*
X156765001Y-97303568D01*
X156765001Y-101595552D01*
X155395554Y-102965000D01*
X155243137Y-102965000D01*
X155033517Y-103006696D01*
X154836060Y-103088485D01*
X154658353Y-103207225D01*
X154507225Y-103358353D01*
X154388485Y-103536060D01*
X154306696Y-103733517D01*
X154265000Y-103943137D01*
X154265000Y-104156863D01*
X154306696Y-104366483D01*
X154388485Y-104563940D01*
X154507225Y-104741647D01*
X154658353Y-104892775D01*
X154836060Y-105011515D01*
X155033517Y-105093304D01*
X155243137Y-105135000D01*
X155456863Y-105135000D01*
X155666483Y-105093304D01*
X155863940Y-105011515D01*
X156041647Y-104892775D01*
X156192775Y-104741647D01*
X156311515Y-104563940D01*
X156393304Y-104366483D01*
X156435000Y-104156863D01*
X156435000Y-104004446D01*
X157815001Y-102624446D01*
X157815001Y-107196376D01*
X157788485Y-107236060D01*
X157706696Y-107433517D01*
X157665000Y-107643137D01*
X157665000Y-107856863D01*
X157706696Y-108066483D01*
X157788485Y-108263940D01*
X157907225Y-108441647D01*
X158058353Y-108592775D01*
X158236060Y-108711515D01*
X158433517Y-108793304D01*
X158643137Y-108835000D01*
X158856863Y-108835000D01*
X159066483Y-108793304D01*
X159263940Y-108711515D01*
X159441647Y-108592775D01*
X159592775Y-108441647D01*
X159704438Y-108274531D01*
X183905074Y-108274531D01*
X184015921Y-108551714D01*
X184326840Y-108705089D01*
X184661705Y-108794860D01*
X185007650Y-108817576D01*
X185351380Y-108772366D01*
X185679685Y-108660966D01*
X185884079Y-108551714D01*
X185994926Y-108274531D01*
X189005074Y-108274531D01*
X189115921Y-108551714D01*
X189426840Y-108705089D01*
X189761705Y-108794860D01*
X190107650Y-108817576D01*
X190451380Y-108772366D01*
X190779685Y-108660966D01*
X190984079Y-108551714D01*
X191094926Y-108274531D01*
X190050000Y-107229605D01*
X189005074Y-108274531D01*
X185994926Y-108274531D01*
X184950000Y-107229605D01*
X183905074Y-108274531D01*
X159704438Y-108274531D01*
X159711515Y-108263940D01*
X159793304Y-108066483D01*
X159835000Y-107856863D01*
X159835000Y-107643137D01*
X159793304Y-107433517D01*
X159711515Y-107236060D01*
X159685000Y-107196377D01*
X159685000Y-107107650D01*
X183182424Y-107107650D01*
X183227634Y-107451380D01*
X183339034Y-107779685D01*
X183448286Y-107984079D01*
X183725469Y-108094926D01*
X184770395Y-107050000D01*
X185129605Y-107050000D01*
X186174531Y-108094926D01*
X186451714Y-107984079D01*
X186605089Y-107673160D01*
X186694860Y-107338295D01*
X186710004Y-107107650D01*
X188282424Y-107107650D01*
X188327634Y-107451380D01*
X188439034Y-107779685D01*
X188548286Y-107984079D01*
X188825469Y-108094926D01*
X189870395Y-107050000D01*
X190229605Y-107050000D01*
X191274531Y-108094926D01*
X191551714Y-107984079D01*
X191705089Y-107673160D01*
X191794860Y-107338295D01*
X191817576Y-106992350D01*
X191772366Y-106648620D01*
X191660966Y-106320315D01*
X191551714Y-106115921D01*
X191274531Y-106005074D01*
X190229605Y-107050000D01*
X189870395Y-107050000D01*
X188825469Y-106005074D01*
X188548286Y-106115921D01*
X188394911Y-106426840D01*
X188305140Y-106761705D01*
X188282424Y-107107650D01*
X186710004Y-107107650D01*
X186717576Y-106992350D01*
X186672366Y-106648620D01*
X186560966Y-106320315D01*
X186451714Y-106115921D01*
X186174531Y-106005074D01*
X185129605Y-107050000D01*
X184770395Y-107050000D01*
X183725469Y-106005074D01*
X183448286Y-106115921D01*
X183294911Y-106426840D01*
X183205140Y-106761705D01*
X183182424Y-107107650D01*
X159685000Y-107107650D01*
X159685000Y-105825469D01*
X183905074Y-105825469D01*
X184950000Y-106870395D01*
X185994926Y-105825469D01*
X185884079Y-105548286D01*
X185573160Y-105394911D01*
X185238295Y-105305140D01*
X184892350Y-105282424D01*
X184548620Y-105327634D01*
X184220315Y-105439034D01*
X184015921Y-105548286D01*
X183905074Y-105825469D01*
X159685000Y-105825469D01*
X159685000Y-104393137D01*
X163415000Y-104393137D01*
X163415000Y-104606863D01*
X163456696Y-104816483D01*
X163538485Y-105013940D01*
X163657225Y-105191647D01*
X163808353Y-105342775D01*
X163986060Y-105461515D01*
X164183517Y-105543304D01*
X164393137Y-105585000D01*
X164606863Y-105585000D01*
X164816483Y-105543304D01*
X165013940Y-105461515D01*
X165191647Y-105342775D01*
X165342775Y-105191647D01*
X165461515Y-105013940D01*
X165543304Y-104816483D01*
X165585000Y-104606863D01*
X165585000Y-104393137D01*
X165573246Y-104334042D01*
X185815000Y-104334042D01*
X185815000Y-104665958D01*
X185879754Y-104991496D01*
X186006772Y-105298147D01*
X186191175Y-105574125D01*
X186425875Y-105808825D01*
X186701853Y-105993228D01*
X187008504Y-106120246D01*
X187334042Y-106185000D01*
X187665958Y-106185000D01*
X187991496Y-106120246D01*
X188298147Y-105993228D01*
X188549215Y-105825469D01*
X189005074Y-105825469D01*
X190050000Y-106870395D01*
X191094926Y-105825469D01*
X190984079Y-105548286D01*
X190673160Y-105394911D01*
X190338295Y-105305140D01*
X189992350Y-105282424D01*
X189648620Y-105327634D01*
X189320315Y-105439034D01*
X189115921Y-105548286D01*
X189005074Y-105825469D01*
X188549215Y-105825469D01*
X188574125Y-105808825D01*
X188808825Y-105574125D01*
X188993228Y-105298147D01*
X189120246Y-104991496D01*
X189185000Y-104665958D01*
X189185000Y-104334042D01*
X189120246Y-104008504D01*
X188993228Y-103701853D01*
X188808825Y-103425875D01*
X188574125Y-103191175D01*
X188549216Y-103174531D01*
X189005074Y-103174531D01*
X189115921Y-103451714D01*
X189426840Y-103605089D01*
X189761705Y-103694860D01*
X190107650Y-103717576D01*
X190451380Y-103672366D01*
X190779685Y-103560966D01*
X190984079Y-103451714D01*
X191094926Y-103174531D01*
X190050000Y-102129605D01*
X189005074Y-103174531D01*
X188549216Y-103174531D01*
X188298147Y-103006772D01*
X187991496Y-102879754D01*
X187665958Y-102815000D01*
X187334042Y-102815000D01*
X187008504Y-102879754D01*
X186701853Y-103006772D01*
X186425875Y-103191175D01*
X186191175Y-103425875D01*
X186006772Y-103701853D01*
X185879754Y-104008504D01*
X185815000Y-104334042D01*
X165573246Y-104334042D01*
X165543304Y-104183517D01*
X165461515Y-103986060D01*
X165342775Y-103808353D01*
X165191647Y-103657225D01*
X165013940Y-103538485D01*
X164816483Y-103456696D01*
X164606863Y-103415000D01*
X164393137Y-103415000D01*
X164183517Y-103456696D01*
X163986060Y-103538485D01*
X163808353Y-103657225D01*
X163657225Y-103808353D01*
X163538485Y-103986060D01*
X163456696Y-104183517D01*
X163415000Y-104393137D01*
X159685000Y-104393137D01*
X159685000Y-92643137D01*
X163415000Y-92643137D01*
X163415000Y-92856863D01*
X163456696Y-93066483D01*
X163538485Y-93263940D01*
X163657225Y-93441647D01*
X163808353Y-93592775D01*
X163986060Y-93711515D01*
X164078971Y-93750000D01*
X163986060Y-93788485D01*
X163808353Y-93907225D01*
X163657225Y-94058353D01*
X163538485Y-94236060D01*
X163456696Y-94433517D01*
X163415000Y-94643137D01*
X163415000Y-94856863D01*
X163456696Y-95066483D01*
X163538485Y-95263940D01*
X163657225Y-95441647D01*
X163808353Y-95592775D01*
X163856581Y-95625000D01*
X163808353Y-95657225D01*
X163657225Y-95808353D01*
X163538485Y-95986060D01*
X163456696Y-96183517D01*
X163415000Y-96393137D01*
X163415000Y-96606863D01*
X163456696Y-96816483D01*
X163538485Y-97013940D01*
X163657225Y-97191647D01*
X163808353Y-97342775D01*
X163986060Y-97461515D01*
X164078971Y-97500000D01*
X163986060Y-97538485D01*
X163808353Y-97657225D01*
X163657225Y-97808353D01*
X163538485Y-97986060D01*
X163456696Y-98183517D01*
X163415000Y-98393137D01*
X163415000Y-98606863D01*
X163456696Y-98816483D01*
X163538485Y-99013940D01*
X163657225Y-99191647D01*
X163808353Y-99342775D01*
X163986060Y-99461515D01*
X164078971Y-99500000D01*
X163986060Y-99538485D01*
X163808353Y-99657225D01*
X163657225Y-99808353D01*
X163538485Y-99986060D01*
X163456696Y-100183517D01*
X163415000Y-100393137D01*
X163415000Y-100606863D01*
X163456696Y-100816483D01*
X163538485Y-101013940D01*
X163657225Y-101191647D01*
X163808353Y-101342775D01*
X163856581Y-101375000D01*
X163808353Y-101407225D01*
X163657225Y-101558353D01*
X163538485Y-101736060D01*
X163456696Y-101933517D01*
X163415000Y-102143137D01*
X163415000Y-102356863D01*
X163456696Y-102566483D01*
X163538485Y-102763940D01*
X163657225Y-102941647D01*
X163808353Y-103092775D01*
X163986060Y-103211515D01*
X164183517Y-103293304D01*
X164393137Y-103335000D01*
X164606863Y-103335000D01*
X164816483Y-103293304D01*
X165013940Y-103211515D01*
X165191647Y-103092775D01*
X165342775Y-102941647D01*
X165461515Y-102763940D01*
X165543304Y-102566483D01*
X165585000Y-102356863D01*
X165585000Y-102143137D01*
X167415000Y-102143137D01*
X167415000Y-102356863D01*
X167456696Y-102566483D01*
X167538485Y-102763940D01*
X167657225Y-102941647D01*
X167808353Y-103092775D01*
X167986060Y-103211515D01*
X168183517Y-103293304D01*
X168393137Y-103335000D01*
X168606863Y-103335000D01*
X168816483Y-103293304D01*
X169013940Y-103211515D01*
X169069290Y-103174531D01*
X183905074Y-103174531D01*
X184015921Y-103451714D01*
X184326840Y-103605089D01*
X184661705Y-103694860D01*
X185007650Y-103717576D01*
X185351380Y-103672366D01*
X185679685Y-103560966D01*
X185884079Y-103451714D01*
X185994926Y-103174531D01*
X184950000Y-102129605D01*
X183905074Y-103174531D01*
X169069290Y-103174531D01*
X169191647Y-103092775D01*
X169342775Y-102941647D01*
X169461515Y-102763940D01*
X169543304Y-102566483D01*
X169585000Y-102356863D01*
X169585000Y-102143137D01*
X169558050Y-102007650D01*
X183182424Y-102007650D01*
X183227634Y-102351380D01*
X183339034Y-102679685D01*
X183448286Y-102884079D01*
X183725469Y-102994926D01*
X184770395Y-101950000D01*
X185129605Y-101950000D01*
X186174531Y-102994926D01*
X186451714Y-102884079D01*
X186605089Y-102573160D01*
X186694860Y-102238295D01*
X186710004Y-102007650D01*
X188282424Y-102007650D01*
X188327634Y-102351380D01*
X188439034Y-102679685D01*
X188548286Y-102884079D01*
X188825469Y-102994926D01*
X189870395Y-101950000D01*
X190229605Y-101950000D01*
X191274531Y-102994926D01*
X191551714Y-102884079D01*
X191705089Y-102573160D01*
X191794860Y-102238295D01*
X191817576Y-101892350D01*
X191772366Y-101548620D01*
X191660966Y-101220315D01*
X191551714Y-101015921D01*
X191274531Y-100905074D01*
X190229605Y-101950000D01*
X189870395Y-101950000D01*
X188825469Y-100905074D01*
X188548286Y-101015921D01*
X188394911Y-101326840D01*
X188305140Y-101661705D01*
X188282424Y-102007650D01*
X186710004Y-102007650D01*
X186717576Y-101892350D01*
X186672366Y-101548620D01*
X186560966Y-101220315D01*
X186451714Y-101015921D01*
X186174531Y-100905074D01*
X185129605Y-101950000D01*
X184770395Y-101950000D01*
X183725469Y-100905074D01*
X183448286Y-101015921D01*
X183294911Y-101326840D01*
X183205140Y-101661705D01*
X183182424Y-102007650D01*
X169558050Y-102007650D01*
X169543304Y-101933517D01*
X169461515Y-101736060D01*
X169342775Y-101558353D01*
X169191647Y-101407225D01*
X169013940Y-101288485D01*
X168816483Y-101206696D01*
X168606863Y-101165000D01*
X168393137Y-101165000D01*
X168183517Y-101206696D01*
X167986060Y-101288485D01*
X167808353Y-101407225D01*
X167657225Y-101558353D01*
X167538485Y-101736060D01*
X167456696Y-101933517D01*
X167415000Y-102143137D01*
X165585000Y-102143137D01*
X165543304Y-101933517D01*
X165461515Y-101736060D01*
X165342775Y-101558353D01*
X165191647Y-101407225D01*
X165143419Y-101375000D01*
X165191647Y-101342775D01*
X165342775Y-101191647D01*
X165461515Y-101013940D01*
X165543304Y-100816483D01*
X165561407Y-100725469D01*
X183905074Y-100725469D01*
X184950000Y-101770395D01*
X185994926Y-100725469D01*
X189005074Y-100725469D01*
X190050000Y-101770395D01*
X191094926Y-100725469D01*
X190984079Y-100448286D01*
X190673160Y-100294911D01*
X190338295Y-100205140D01*
X189992350Y-100182424D01*
X189648620Y-100227634D01*
X189320315Y-100339034D01*
X189115921Y-100448286D01*
X189005074Y-100725469D01*
X185994926Y-100725469D01*
X185884079Y-100448286D01*
X185573160Y-100294911D01*
X185238295Y-100205140D01*
X184892350Y-100182424D01*
X184548620Y-100227634D01*
X184220315Y-100339034D01*
X184015921Y-100448286D01*
X183905074Y-100725469D01*
X165561407Y-100725469D01*
X165585000Y-100606863D01*
X165585000Y-100393137D01*
X165543304Y-100183517D01*
X165461515Y-99986060D01*
X165342775Y-99808353D01*
X165191647Y-99657225D01*
X165013940Y-99538485D01*
X164921029Y-99500000D01*
X165013940Y-99461515D01*
X165191647Y-99342775D01*
X165342775Y-99191647D01*
X165461515Y-99013940D01*
X165543304Y-98816483D01*
X165585000Y-98606863D01*
X165585000Y-98393137D01*
X167415000Y-98393137D01*
X167415000Y-98606863D01*
X167456696Y-98816483D01*
X167538485Y-99013940D01*
X167657225Y-99191647D01*
X167808353Y-99342775D01*
X167986060Y-99461515D01*
X168183517Y-99543304D01*
X168393137Y-99585000D01*
X168606863Y-99585000D01*
X168816483Y-99543304D01*
X169013940Y-99461515D01*
X169191647Y-99342775D01*
X169342775Y-99191647D01*
X169461515Y-99013940D01*
X169543304Y-98816483D01*
X169585000Y-98606863D01*
X169585000Y-98393137D01*
X169543304Y-98183517D01*
X169461515Y-97986060D01*
X169342775Y-97808353D01*
X169191647Y-97657225D01*
X169013940Y-97538485D01*
X168816483Y-97456696D01*
X168606863Y-97415000D01*
X168393137Y-97415000D01*
X168183517Y-97456696D01*
X167986060Y-97538485D01*
X167808353Y-97657225D01*
X167657225Y-97808353D01*
X167538485Y-97986060D01*
X167456696Y-98183517D01*
X167415000Y-98393137D01*
X165585000Y-98393137D01*
X165543304Y-98183517D01*
X165461515Y-97986060D01*
X165342775Y-97808353D01*
X165191647Y-97657225D01*
X165013940Y-97538485D01*
X164921029Y-97500000D01*
X165013940Y-97461515D01*
X165191647Y-97342775D01*
X165342775Y-97191647D01*
X165461515Y-97013940D01*
X165543304Y-96816483D01*
X165585000Y-96606863D01*
X165585000Y-96393137D01*
X165543304Y-96183517D01*
X165461515Y-95986060D01*
X165342775Y-95808353D01*
X165191647Y-95657225D01*
X165143419Y-95625000D01*
X165191647Y-95592775D01*
X165342775Y-95441647D01*
X165461515Y-95263940D01*
X165543304Y-95066483D01*
X165585000Y-94856863D01*
X165585000Y-94643137D01*
X167415000Y-94643137D01*
X167415000Y-94856863D01*
X167456696Y-95066483D01*
X167538485Y-95263940D01*
X167657225Y-95441647D01*
X167808353Y-95592775D01*
X167986060Y-95711515D01*
X168183517Y-95793304D01*
X168393137Y-95835000D01*
X168606863Y-95835000D01*
X168816483Y-95793304D01*
X169013940Y-95711515D01*
X169191647Y-95592775D01*
X169342775Y-95441647D01*
X169461515Y-95263940D01*
X169543304Y-95066483D01*
X169585000Y-94856863D01*
X169585000Y-94643137D01*
X169543304Y-94433517D01*
X169461515Y-94236060D01*
X169342775Y-94058353D01*
X169191647Y-93907225D01*
X169013940Y-93788485D01*
X168816483Y-93706696D01*
X168606863Y-93665000D01*
X168393137Y-93665000D01*
X168183517Y-93706696D01*
X167986060Y-93788485D01*
X167808353Y-93907225D01*
X167657225Y-94058353D01*
X167538485Y-94236060D01*
X167456696Y-94433517D01*
X167415000Y-94643137D01*
X165585000Y-94643137D01*
X165543304Y-94433517D01*
X165461515Y-94236060D01*
X165342775Y-94058353D01*
X165191647Y-93907225D01*
X165013940Y-93788485D01*
X164921029Y-93750000D01*
X165013940Y-93711515D01*
X165191647Y-93592775D01*
X165342775Y-93441647D01*
X165461515Y-93263940D01*
X165543304Y-93066483D01*
X165585000Y-92856863D01*
X165585000Y-92643137D01*
X165543304Y-92433517D01*
X165461515Y-92236060D01*
X165342775Y-92058353D01*
X165191647Y-91907225D01*
X165013940Y-91788485D01*
X164816483Y-91706696D01*
X164606863Y-91665000D01*
X164393137Y-91665000D01*
X164183517Y-91706696D01*
X163986060Y-91788485D01*
X163808353Y-91907225D01*
X163657225Y-92058353D01*
X163538485Y-92236060D01*
X163456696Y-92433517D01*
X163415000Y-92643137D01*
X159685000Y-92643137D01*
X159685000Y-90393137D01*
X167415000Y-90393137D01*
X167415000Y-90606863D01*
X167456696Y-90816483D01*
X167538485Y-91013940D01*
X167657225Y-91191647D01*
X167808353Y-91342775D01*
X167986060Y-91461515D01*
X168183517Y-91543304D01*
X168393137Y-91585000D01*
X168606863Y-91585000D01*
X168816483Y-91543304D01*
X169013940Y-91461515D01*
X169191647Y-91342775D01*
X169342775Y-91191647D01*
X169461515Y-91013940D01*
X169543304Y-90816483D01*
X169585000Y-90606863D01*
X169585000Y-90393137D01*
X169543304Y-90183517D01*
X169461515Y-89986060D01*
X169342775Y-89808353D01*
X169191647Y-89657225D01*
X169013940Y-89538485D01*
X168816483Y-89456696D01*
X168606863Y-89415000D01*
X168393137Y-89415000D01*
X168183517Y-89456696D01*
X167986060Y-89538485D01*
X167808353Y-89657225D01*
X167657225Y-89808353D01*
X167538485Y-89986060D01*
X167456696Y-90183517D01*
X167415000Y-90393137D01*
X159685000Y-90393137D01*
X159685000Y-87137289D01*
X160587289Y-86235000D01*
X161146377Y-86235000D01*
X161186060Y-86261515D01*
X161383517Y-86343304D01*
X161593137Y-86385000D01*
X161806863Y-86385000D01*
X162016483Y-86343304D01*
X162213940Y-86261515D01*
X162391647Y-86142775D01*
X162542775Y-85991647D01*
X162661515Y-85813940D01*
X162743304Y-85616483D01*
X162785000Y-85406863D01*
X162785000Y-85193137D01*
X162743304Y-84983517D01*
X162661515Y-84786060D01*
X162542775Y-84608353D01*
X162391647Y-84457225D01*
X162213940Y-84338485D01*
X162016483Y-84256696D01*
X161806863Y-84215000D01*
X161593137Y-84215000D01*
X161383517Y-84256696D01*
X161186060Y-84338485D01*
X161146377Y-84365000D01*
X160245935Y-84365000D01*
X160200000Y-84360476D01*
X160016708Y-84378528D01*
X159840459Y-84431993D01*
X159793254Y-84457225D01*
X159678028Y-84518814D01*
X159535656Y-84635656D01*
X159506370Y-84671341D01*
X158121341Y-86056370D01*
X158085656Y-86085656D01*
X157973858Y-86221883D01*
X157816483Y-86156696D01*
X157606863Y-86115000D01*
X157393137Y-86115000D01*
X157183517Y-86156696D01*
X156986060Y-86238485D01*
X156808353Y-86357225D01*
X156657225Y-86508353D01*
X156538485Y-86686060D01*
X156456696Y-86883517D01*
X156415000Y-87093137D01*
X156415000Y-87306863D01*
X156456696Y-87516483D01*
X156538485Y-87713940D01*
X156657225Y-87891647D01*
X156765000Y-87999422D01*
X156765000Y-94039182D01*
X156763958Y-94038485D01*
X156566501Y-93956696D01*
X156356881Y-93915000D01*
X156143155Y-93915000D01*
X155933535Y-93956696D01*
X155880586Y-93978628D01*
X155742951Y-93840993D01*
X155565244Y-93722253D01*
X155367787Y-93640464D01*
X155158167Y-93598768D01*
X154944441Y-93598768D01*
X154734821Y-93640464D01*
X154537364Y-93722253D01*
X154359657Y-93840993D01*
X154208529Y-93992121D01*
X154128525Y-94111856D01*
X154092775Y-94058353D01*
X153941647Y-93907225D01*
X153763940Y-93788485D01*
X153566483Y-93706696D01*
X153356863Y-93665000D01*
X153143137Y-93665000D01*
X152933517Y-93706696D01*
X152736060Y-93788485D01*
X152558353Y-93907225D01*
X152450578Y-94015000D01*
X148054447Y-94015000D01*
X147384988Y-93345542D01*
X147384988Y-93193125D01*
X147343292Y-92983505D01*
X147261503Y-92786048D01*
X147142763Y-92608341D01*
X146991635Y-92457213D01*
X146813928Y-92338473D01*
X146616471Y-92256684D01*
X146406851Y-92214988D01*
X146193125Y-92214988D01*
X145983505Y-92256684D01*
X145786048Y-92338473D01*
X145608341Y-92457213D01*
X145457213Y-92608341D01*
X145338473Y-92786048D01*
X145256684Y-92983505D01*
X145214988Y-93193125D01*
X145214988Y-93406851D01*
X145256684Y-93616471D01*
X145338473Y-93813928D01*
X145457213Y-93991635D01*
X145608341Y-94142763D01*
X145786048Y-94261503D01*
X145983505Y-94343292D01*
X146193125Y-94384988D01*
X146345542Y-94384988D01*
X147204746Y-95244193D01*
X147227762Y-95272238D01*
X147339680Y-95364087D01*
X147467367Y-95432337D01*
X147580225Y-95466572D01*
X147605915Y-95474365D01*
X147750000Y-95488556D01*
X147786105Y-95485000D01*
X152450578Y-95485000D01*
X152558353Y-95592775D01*
X152736060Y-95711515D01*
X152922014Y-95788539D01*
X146922488Y-101788066D01*
X146791647Y-101657225D01*
X146613940Y-101538485D01*
X146416483Y-101456696D01*
X146206863Y-101415000D01*
X145993137Y-101415000D01*
X145783517Y-101456696D01*
X145586060Y-101538485D01*
X145408353Y-101657225D01*
X145300578Y-101765000D01*
X139336094Y-101765000D01*
X139299999Y-101761445D01*
X139263904Y-101765000D01*
X139263895Y-101765000D01*
X139155915Y-101775635D01*
X139018509Y-101817317D01*
X139006863Y-101815000D01*
X138793137Y-101815000D01*
X138583517Y-101856696D01*
X138386060Y-101938485D01*
X138208353Y-102057225D01*
X138057225Y-102208353D01*
X137938485Y-102386060D01*
X137856696Y-102583517D01*
X137815000Y-102793137D01*
X136130487Y-102793137D01*
X136193304Y-102641483D01*
X136235000Y-102431863D01*
X136235000Y-102218137D01*
X136193304Y-102008517D01*
X136111515Y-101811060D01*
X135992775Y-101633353D01*
X135841647Y-101482225D01*
X135663940Y-101363485D01*
X135466483Y-101281696D01*
X135256863Y-101240000D01*
X135104447Y-101240000D01*
X128757584Y-94893137D01*
X129915000Y-94893137D01*
X129915000Y-95106863D01*
X129956696Y-95316483D01*
X130038485Y-95513940D01*
X130157225Y-95691647D01*
X130308353Y-95842775D01*
X130486060Y-95961515D01*
X130683517Y-96043304D01*
X130893137Y-96085000D01*
X131045554Y-96085000D01*
X136054746Y-101094193D01*
X136077762Y-101122238D01*
X136189680Y-101214087D01*
X136317367Y-101282337D01*
X136455915Y-101324365D01*
X136600000Y-101338556D01*
X136636105Y-101335000D01*
X136800578Y-101335000D01*
X136908353Y-101442775D01*
X137086060Y-101561515D01*
X137283517Y-101643304D01*
X137493137Y-101685000D01*
X137706863Y-101685000D01*
X137916483Y-101643304D01*
X138113940Y-101561515D01*
X138291647Y-101442775D01*
X138442775Y-101291647D01*
X138561515Y-101113940D01*
X138643304Y-100916483D01*
X138685000Y-100706863D01*
X138685000Y-100493137D01*
X138643304Y-100283517D01*
X138561515Y-100086060D01*
X138442775Y-99908353D01*
X138291647Y-99757225D01*
X138113940Y-99638485D01*
X137916483Y-99556696D01*
X137706863Y-99515000D01*
X137493137Y-99515000D01*
X137283517Y-99556696D01*
X137086060Y-99638485D01*
X136908353Y-99757225D01*
X136852512Y-99813066D01*
X132085000Y-95045554D01*
X132085000Y-94893137D01*
X132043304Y-94683517D01*
X131961515Y-94486060D01*
X131842775Y-94308353D01*
X131691647Y-94157225D01*
X131513940Y-94038485D01*
X131316483Y-93956696D01*
X131106863Y-93915000D01*
X130893137Y-93915000D01*
X130683517Y-93956696D01*
X130486060Y-94038485D01*
X130308353Y-94157225D01*
X130157225Y-94308353D01*
X130038485Y-94486060D01*
X129956696Y-94683517D01*
X129915000Y-94893137D01*
X128757584Y-94893137D01*
X128535000Y-94670554D01*
X128535000Y-90893137D01*
X135665024Y-90893137D01*
X135665024Y-91106863D01*
X135706720Y-91316483D01*
X135788509Y-91513940D01*
X135907249Y-91691647D01*
X136015024Y-91799422D01*
X136015025Y-93250571D01*
X135957243Y-93308353D01*
X135838503Y-93486060D01*
X135756714Y-93683517D01*
X135715018Y-93893137D01*
X135715018Y-94106863D01*
X135756714Y-94316483D01*
X135838503Y-94513940D01*
X135957243Y-94691647D01*
X136108371Y-94842775D01*
X136286078Y-94961515D01*
X136483535Y-95043304D01*
X136693155Y-95085000D01*
X136906881Y-95085000D01*
X137116501Y-95043304D01*
X137313958Y-94961515D01*
X137491665Y-94842775D01*
X137642793Y-94691647D01*
X137761533Y-94513940D01*
X137843322Y-94316483D01*
X137885018Y-94106863D01*
X137885018Y-93893137D01*
X137843322Y-93683517D01*
X137761533Y-93486060D01*
X137642793Y-93308353D01*
X137491665Y-93157225D01*
X137485024Y-93152788D01*
X137485024Y-91799422D01*
X137592799Y-91691647D01*
X137711539Y-91513940D01*
X137793328Y-91316483D01*
X137835024Y-91106863D01*
X137835024Y-90893137D01*
X137793328Y-90683517D01*
X137711539Y-90486060D01*
X137592799Y-90308353D01*
X137441671Y-90157225D01*
X137263964Y-90038485D01*
X137066507Y-89956696D01*
X136856887Y-89915000D01*
X136643161Y-89915000D01*
X136433541Y-89956696D01*
X136236084Y-90038485D01*
X136058377Y-90157225D01*
X135907249Y-90308353D01*
X135788509Y-90486060D01*
X135706720Y-90683517D01*
X135665024Y-90893137D01*
X128535000Y-90893137D01*
X128535000Y-86893137D01*
X135714994Y-86893137D01*
X135714994Y-87106863D01*
X135756690Y-87316483D01*
X135838479Y-87513940D01*
X135957219Y-87691647D01*
X136108347Y-87842775D01*
X136286054Y-87961515D01*
X136483511Y-88043304D01*
X136693131Y-88085000D01*
X136906857Y-88085000D01*
X137116477Y-88043304D01*
X137313934Y-87961515D01*
X137491641Y-87842775D01*
X137642769Y-87691647D01*
X137761509Y-87513940D01*
X137843298Y-87316483D01*
X137884994Y-87106863D01*
X137884994Y-86893137D01*
X137845393Y-86694049D01*
X139744193Y-84795250D01*
X139772238Y-84772234D01*
X139864087Y-84660316D01*
X139932337Y-84532629D01*
X139974365Y-84394081D01*
X139985000Y-84286101D01*
X139988556Y-84249996D01*
X139985000Y-84213891D01*
X139985000Y-82693137D01*
X152964999Y-82693137D01*
X152964999Y-82906863D01*
X153006695Y-83116483D01*
X153088484Y-83313940D01*
X153207224Y-83491647D01*
X153358352Y-83642775D01*
X153536059Y-83761515D01*
X153733516Y-83843304D01*
X153943136Y-83885000D01*
X154156862Y-83885000D01*
X154366482Y-83843304D01*
X154563939Y-83761515D01*
X154741646Y-83642775D01*
X154778172Y-83606249D01*
X154786060Y-83611519D01*
X154983517Y-83693308D01*
X155193137Y-83735004D01*
X155406863Y-83735004D01*
X155616483Y-83693308D01*
X155813940Y-83611519D01*
X155974833Y-83504014D01*
X155986060Y-83511515D01*
X156183517Y-83593304D01*
X156393137Y-83635000D01*
X156606863Y-83635000D01*
X156816483Y-83593304D01*
X157013940Y-83511515D01*
X157062585Y-83479012D01*
X157186060Y-83561515D01*
X157383517Y-83643304D01*
X157593137Y-83685000D01*
X157806863Y-83685000D01*
X158016483Y-83643304D01*
X158213940Y-83561515D01*
X158391647Y-83442775D01*
X158542775Y-83291647D01*
X158661515Y-83113940D01*
X158743304Y-82916483D01*
X158785000Y-82706863D01*
X158785000Y-82554446D01*
X159694197Y-81645250D01*
X159722237Y-81622238D01*
X159745250Y-81594197D01*
X159745253Y-81594194D01*
X159814086Y-81510321D01*
X159814087Y-81510320D01*
X159882337Y-81382633D01*
X159924365Y-81244085D01*
X159935000Y-81136105D01*
X159935000Y-81136096D01*
X159938555Y-81100001D01*
X159935000Y-81063906D01*
X159935000Y-80599416D01*
X160042775Y-80491641D01*
X160161515Y-80313934D01*
X160243304Y-80116477D01*
X160285000Y-79906857D01*
X160285000Y-79693131D01*
X160243304Y-79483511D01*
X160226581Y-79443137D01*
X180115000Y-79443137D01*
X180115000Y-79656863D01*
X180156696Y-79866483D01*
X180238485Y-80063940D01*
X180265000Y-80103623D01*
X180265001Y-82142756D01*
X180206696Y-82283517D01*
X180165000Y-82493137D01*
X180165000Y-82706863D01*
X180206696Y-82916483D01*
X180288485Y-83113940D01*
X180407225Y-83291647D01*
X180558353Y-83442775D01*
X180736060Y-83561515D01*
X180933517Y-83643304D01*
X181143137Y-83685000D01*
X181356863Y-83685000D01*
X181566483Y-83643304D01*
X181763940Y-83561515D01*
X181941647Y-83442775D01*
X182092775Y-83291647D01*
X182211515Y-83113940D01*
X182293304Y-82916483D01*
X182335000Y-82706863D01*
X182335000Y-82493137D01*
X182293304Y-82283517D01*
X182211515Y-82086060D01*
X182135000Y-81971547D01*
X182135000Y-80103623D01*
X182161515Y-80063940D01*
X182243304Y-79866483D01*
X182285000Y-79656863D01*
X182285000Y-79443137D01*
X182243304Y-79233517D01*
X182161515Y-79036060D01*
X182042775Y-78858353D01*
X181891647Y-78707225D01*
X181713940Y-78588485D01*
X181516483Y-78506696D01*
X181306863Y-78465000D01*
X181093137Y-78465000D01*
X180883517Y-78506696D01*
X180686060Y-78588485D01*
X180508353Y-78707225D01*
X180357225Y-78858353D01*
X180238485Y-79036060D01*
X180156696Y-79233517D01*
X180115000Y-79443137D01*
X160226581Y-79443137D01*
X160161515Y-79286054D01*
X160042775Y-79108347D01*
X159891647Y-78957219D01*
X159713940Y-78838479D01*
X159516483Y-78756690D01*
X159306863Y-78714994D01*
X159093137Y-78714994D01*
X158883517Y-78756690D01*
X158686060Y-78838479D01*
X158508353Y-78957219D01*
X158357225Y-79108347D01*
X158238485Y-79286054D01*
X158156696Y-79483511D01*
X158115000Y-79693131D01*
X158115000Y-79906857D01*
X158156696Y-80116477D01*
X158238485Y-80313934D01*
X158357225Y-80491641D01*
X158465000Y-80599416D01*
X158465000Y-80795553D01*
X157745554Y-81515000D01*
X157593137Y-81515000D01*
X157383517Y-81556696D01*
X157235000Y-81618213D01*
X157235000Y-80699424D01*
X157292775Y-80641649D01*
X157411515Y-80463942D01*
X157493304Y-80266485D01*
X157535000Y-80056865D01*
X157535000Y-79843139D01*
X157493304Y-79633519D01*
X157411515Y-79436062D01*
X157292775Y-79258355D01*
X157141647Y-79107227D01*
X156963940Y-78988487D01*
X156766483Y-78906698D01*
X156556863Y-78865002D01*
X156343137Y-78865002D01*
X156133517Y-78906698D01*
X155936060Y-78988487D01*
X155850000Y-79045990D01*
X155763940Y-78988487D01*
X155566483Y-78906698D01*
X155356863Y-78865002D01*
X155143137Y-78865002D01*
X154933517Y-78906698D01*
X154736060Y-78988487D01*
X154650001Y-79045989D01*
X154563940Y-78988485D01*
X154366483Y-78906696D01*
X154156863Y-78865000D01*
X153943137Y-78865000D01*
X153733517Y-78906696D01*
X153536060Y-78988485D01*
X153358353Y-79107225D01*
X153207225Y-79258353D01*
X153088485Y-79436060D01*
X153006696Y-79633517D01*
X152965000Y-79843137D01*
X152965000Y-80056863D01*
X153006696Y-80266483D01*
X153088485Y-80463940D01*
X153207225Y-80641647D01*
X153315001Y-80749423D01*
X153315000Y-82000577D01*
X153207224Y-82108353D01*
X153088484Y-82286060D01*
X153006695Y-82483517D01*
X152964999Y-82693137D01*
X139985000Y-82693137D01*
X139985000Y-80399422D01*
X140092775Y-80291647D01*
X140211515Y-80113940D01*
X140293304Y-79916483D01*
X140335000Y-79706863D01*
X140335000Y-79493137D01*
X140293304Y-79283517D01*
X140211515Y-79086060D01*
X140092775Y-78908353D01*
X139941647Y-78757225D01*
X139763940Y-78638485D01*
X139566483Y-78556696D01*
X139356863Y-78515000D01*
X139143137Y-78515000D01*
X138933517Y-78556696D01*
X138736060Y-78638485D01*
X138558353Y-78757225D01*
X138407225Y-78908353D01*
X138288485Y-79086060D01*
X138206696Y-79283517D01*
X138165000Y-79493137D01*
X138165000Y-79706863D01*
X138206696Y-79916483D01*
X138288485Y-80113940D01*
X138407225Y-80291647D01*
X138515000Y-80399422D01*
X138515001Y-83945548D01*
X136508905Y-85951645D01*
X136483511Y-85956696D01*
X136286054Y-86038485D01*
X136108347Y-86157225D01*
X135957219Y-86308353D01*
X135838479Y-86486060D01*
X135756690Y-86683517D01*
X135714994Y-86893137D01*
X128535000Y-86893137D01*
X128535000Y-86302505D01*
X128633517Y-86343312D01*
X128843137Y-86385008D01*
X129056863Y-86385008D01*
X129266483Y-86343312D01*
X129463940Y-86261523D01*
X129641647Y-86142783D01*
X129792775Y-85991655D01*
X129911515Y-85813948D01*
X129993304Y-85616491D01*
X130035000Y-85406871D01*
X130035000Y-85193145D01*
X129993304Y-84983525D01*
X129911515Y-84786068D01*
X129792775Y-84608361D01*
X129735000Y-84550586D01*
X129735000Y-77399422D01*
X129842775Y-77291647D01*
X129961515Y-77113940D01*
X130043304Y-76916483D01*
X130085000Y-76706863D01*
X130085000Y-76493137D01*
X130043304Y-76283517D01*
X129961515Y-76086060D01*
X129842775Y-75908353D01*
X129691647Y-75757225D01*
X129513940Y-75638485D01*
X129316483Y-75556696D01*
X129106863Y-75515000D01*
X128893137Y-75515000D01*
X128683517Y-75556696D01*
X128486060Y-75638485D01*
X128308353Y-75757225D01*
X128157225Y-75908353D01*
X128038485Y-76086060D01*
X127956696Y-76283517D01*
X127915000Y-76493137D01*
X127915000Y-76706863D01*
X127956696Y-76916483D01*
X128038485Y-77113940D01*
X128157225Y-77291647D01*
X128265000Y-77399422D01*
X128265000Y-80718214D01*
X128116483Y-80656696D01*
X127906863Y-80615000D01*
X127693137Y-80615000D01*
X127483517Y-80656696D01*
X127286060Y-80738485D01*
X127108353Y-80857225D01*
X126957225Y-81008353D01*
X126838485Y-81186060D01*
X126756696Y-81383517D01*
X126715000Y-81593137D01*
X98960000Y-81593137D01*
X98960000Y-69558510D01*
X126249627Y-69558510D01*
X126249627Y-69772236D01*
X126291323Y-69981856D01*
X126373112Y-70179313D01*
X126491852Y-70357020D01*
X126642980Y-70508148D01*
X126820687Y-70626888D01*
X127018144Y-70708677D01*
X127227764Y-70750373D01*
X127441490Y-70750373D01*
X127651110Y-70708677D01*
X127848567Y-70626888D01*
X128026274Y-70508148D01*
X128049422Y-70485000D01*
X130950580Y-70485000D01*
X131058355Y-70592775D01*
X131236062Y-70711515D01*
X131433519Y-70793304D01*
X131643139Y-70835000D01*
X131856865Y-70835000D01*
X132066485Y-70793304D01*
X132263942Y-70711515D01*
X132441649Y-70592775D01*
X132592777Y-70441647D01*
X132711517Y-70263940D01*
X132793306Y-70066483D01*
X132835002Y-69856863D01*
X132835002Y-69700000D01*
X139547815Y-69700000D01*
X139576487Y-69991111D01*
X139661401Y-70271034D01*
X139799294Y-70529014D01*
X139984866Y-70755134D01*
X140210986Y-70940706D01*
X140468966Y-71078599D01*
X140748889Y-71163513D01*
X140967050Y-71185000D01*
X141112950Y-71185000D01*
X141331111Y-71163513D01*
X141611034Y-71078599D01*
X141869014Y-70940706D01*
X142095134Y-70755134D01*
X142280706Y-70529014D01*
X142310000Y-70474209D01*
X142339294Y-70529014D01*
X142524866Y-70755134D01*
X142750986Y-70940706D01*
X143008966Y-71078599D01*
X143288889Y-71163513D01*
X143507050Y-71185000D01*
X143652950Y-71185000D01*
X143871111Y-71163513D01*
X144151034Y-71078599D01*
X144409014Y-70940706D01*
X144635134Y-70755134D01*
X144820706Y-70529014D01*
X144855201Y-70464477D01*
X144924822Y-70581355D01*
X145119731Y-70797588D01*
X145353080Y-70971641D01*
X145615901Y-71096825D01*
X145763110Y-71141476D01*
X145993000Y-71020155D01*
X145993000Y-69827000D01*
X145973000Y-69827000D01*
X145973000Y-69573000D01*
X145993000Y-69573000D01*
X145993000Y-68379845D01*
X146247000Y-68379845D01*
X146247000Y-69573000D01*
X146267000Y-69573000D01*
X146267000Y-69827000D01*
X146247000Y-69827000D01*
X146247000Y-71020155D01*
X146476890Y-71141476D01*
X146624099Y-71096825D01*
X146886920Y-70971641D01*
X147120269Y-70797588D01*
X147315178Y-70581355D01*
X147384799Y-70464477D01*
X147419294Y-70529014D01*
X147604866Y-70755134D01*
X147830986Y-70940706D01*
X148088966Y-71078599D01*
X148368889Y-71163513D01*
X148587050Y-71185000D01*
X148732950Y-71185000D01*
X148951111Y-71163513D01*
X149231034Y-71078599D01*
X149489014Y-70940706D01*
X149715134Y-70755134D01*
X149739607Y-70725313D01*
X149760498Y-70794180D01*
X149819463Y-70904494D01*
X149898815Y-71001185D01*
X149995506Y-71080537D01*
X150105820Y-71139502D01*
X150225518Y-71175812D01*
X150350000Y-71188072D01*
X152050000Y-71188072D01*
X152174482Y-71175812D01*
X152294180Y-71139502D01*
X152404494Y-71080537D01*
X152501185Y-71001185D01*
X152580537Y-70904494D01*
X152639502Y-70794180D01*
X152675812Y-70674482D01*
X152688072Y-70550000D01*
X152688072Y-68850000D01*
X152675812Y-68725518D01*
X152665990Y-68693137D01*
X153315000Y-68693137D01*
X153315000Y-68906863D01*
X153356696Y-69116483D01*
X153438485Y-69313940D01*
X153557225Y-69491647D01*
X153708353Y-69642775D01*
X153886060Y-69761515D01*
X154083517Y-69843304D01*
X154293137Y-69885000D01*
X154506863Y-69885000D01*
X154716483Y-69843304D01*
X154913940Y-69761515D01*
X155091647Y-69642775D01*
X155200000Y-69534422D01*
X155208353Y-69542775D01*
X155386060Y-69661515D01*
X155583517Y-69743304D01*
X155793137Y-69785000D01*
X156006863Y-69785000D01*
X156216483Y-69743304D01*
X156413940Y-69661515D01*
X156591647Y-69542775D01*
X156742775Y-69391647D01*
X156861515Y-69213940D01*
X156943304Y-69016483D01*
X156985000Y-68806863D01*
X156985000Y-68593137D01*
X156943304Y-68383517D01*
X156861515Y-68186060D01*
X156742775Y-68008353D01*
X156635000Y-67900578D01*
X156635000Y-65393137D01*
X163114996Y-65393137D01*
X163114996Y-65606863D01*
X163156692Y-65816483D01*
X163238481Y-66013940D01*
X163357221Y-66191647D01*
X163508349Y-66342775D01*
X163686056Y-66461515D01*
X163883513Y-66543304D01*
X164093133Y-66585000D01*
X164306859Y-66585000D01*
X164516479Y-66543304D01*
X164713936Y-66461515D01*
X164891643Y-66342775D01*
X164999418Y-66235000D01*
X166363889Y-66235000D01*
X166399994Y-66238556D01*
X166436099Y-66235000D01*
X166544079Y-66224365D01*
X166682627Y-66182337D01*
X166810314Y-66114087D01*
X166922232Y-66022238D01*
X166945253Y-65994187D01*
X166954446Y-65984994D01*
X167106863Y-65984994D01*
X167316483Y-65943298D01*
X167513940Y-65861509D01*
X167691647Y-65742769D01*
X167842775Y-65591641D01*
X167961515Y-65413934D01*
X168043304Y-65216477D01*
X168085000Y-65006857D01*
X168085000Y-64793131D01*
X168070608Y-64720777D01*
X190165000Y-64720777D01*
X190165000Y-65279223D01*
X190273948Y-65826939D01*
X190487656Y-66342876D01*
X190797912Y-66807207D01*
X191192793Y-67202088D01*
X191657124Y-67512344D01*
X192173061Y-67726052D01*
X192720777Y-67835000D01*
X193279223Y-67835000D01*
X193826939Y-67726052D01*
X194342876Y-67512344D01*
X194807207Y-67202088D01*
X195202088Y-66807207D01*
X195512344Y-66342876D01*
X195726052Y-65826939D01*
X195835000Y-65279223D01*
X195835000Y-64720777D01*
X195726052Y-64173061D01*
X195512344Y-63657124D01*
X195202088Y-63192793D01*
X194807207Y-62797912D01*
X194342876Y-62487656D01*
X193826939Y-62273948D01*
X193279223Y-62165000D01*
X192720777Y-62165000D01*
X192173061Y-62273948D01*
X191657124Y-62487656D01*
X191192793Y-62797912D01*
X190797912Y-63192793D01*
X190487656Y-63657124D01*
X190273948Y-64173061D01*
X190165000Y-64720777D01*
X168070608Y-64720777D01*
X168043304Y-64583511D01*
X167961515Y-64386054D01*
X167842775Y-64208347D01*
X167691647Y-64057219D01*
X167513940Y-63938479D01*
X167316483Y-63856690D01*
X167106863Y-63814994D01*
X166893137Y-63814994D01*
X166683517Y-63856690D01*
X166486060Y-63938479D01*
X166308353Y-64057219D01*
X166157225Y-64208347D01*
X166038485Y-64386054D01*
X165956696Y-64583511D01*
X165920596Y-64765000D01*
X164999418Y-64765000D01*
X164891643Y-64657225D01*
X164713936Y-64538485D01*
X164516479Y-64456696D01*
X164306859Y-64415000D01*
X164093133Y-64415000D01*
X163883513Y-64456696D01*
X163686056Y-64538485D01*
X163508349Y-64657225D01*
X163357221Y-64808353D01*
X163238481Y-64986060D01*
X163156692Y-65183517D01*
X163114996Y-65393137D01*
X156635000Y-65393137D01*
X156635000Y-64599421D01*
X156642775Y-64591646D01*
X156761515Y-64413939D01*
X156843304Y-64216482D01*
X156885000Y-64006862D01*
X156885000Y-63793136D01*
X156843304Y-63583516D01*
X156761515Y-63386059D01*
X156642775Y-63208352D01*
X156491647Y-63057224D01*
X156313940Y-62938484D01*
X156116483Y-62856695D01*
X155906863Y-62814999D01*
X155693137Y-62814999D01*
X155483517Y-62856695D01*
X155286060Y-62938484D01*
X155135000Y-63039419D01*
X155135000Y-62897216D01*
X155141647Y-62892775D01*
X155292775Y-62741647D01*
X155411515Y-62563940D01*
X155493304Y-62366483D01*
X155535000Y-62156863D01*
X155535000Y-61943137D01*
X155493304Y-61733517D01*
X155411515Y-61536060D01*
X155292775Y-61358353D01*
X155141647Y-61207225D01*
X154963940Y-61088485D01*
X154766483Y-61006696D01*
X154556863Y-60965000D01*
X154343137Y-60965000D01*
X154133517Y-61006696D01*
X153936060Y-61088485D01*
X153758353Y-61207225D01*
X153607225Y-61358353D01*
X153488485Y-61536060D01*
X153406696Y-61733517D01*
X153365000Y-61943137D01*
X153365000Y-62156863D01*
X153406696Y-62366483D01*
X153488485Y-62563940D01*
X153607225Y-62741647D01*
X153665001Y-62799423D01*
X153665000Y-68000578D01*
X153557225Y-68108353D01*
X153438485Y-68286060D01*
X153356696Y-68483517D01*
X153315000Y-68693137D01*
X152665990Y-68693137D01*
X152639502Y-68605820D01*
X152580537Y-68495506D01*
X152501185Y-68398815D01*
X152404494Y-68319463D01*
X152294180Y-68260498D01*
X152174482Y-68224188D01*
X152050000Y-68211928D01*
X150350000Y-68211928D01*
X150225518Y-68224188D01*
X150105820Y-68260498D01*
X149995506Y-68319463D01*
X149898815Y-68398815D01*
X149819463Y-68495506D01*
X149760498Y-68605820D01*
X149739607Y-68674687D01*
X149715134Y-68644866D01*
X149489014Y-68459294D01*
X149231034Y-68321401D01*
X148951111Y-68236487D01*
X148732950Y-68215000D01*
X148587050Y-68215000D01*
X148368889Y-68236487D01*
X148088966Y-68321401D01*
X147830986Y-68459294D01*
X147604866Y-68644866D01*
X147419294Y-68870986D01*
X147384799Y-68935523D01*
X147315178Y-68818645D01*
X147120269Y-68602412D01*
X146886920Y-68428359D01*
X146624099Y-68303175D01*
X146476890Y-68258524D01*
X146247000Y-68379845D01*
X145993000Y-68379845D01*
X145763110Y-68258524D01*
X145615901Y-68303175D01*
X145353080Y-68428359D01*
X145119731Y-68602412D01*
X144924822Y-68818645D01*
X144855201Y-68935523D01*
X144820706Y-68870986D01*
X144635134Y-68644866D01*
X144409014Y-68459294D01*
X144151034Y-68321401D01*
X143871111Y-68236487D01*
X143652950Y-68215000D01*
X143507050Y-68215000D01*
X143288889Y-68236487D01*
X143008966Y-68321401D01*
X142750986Y-68459294D01*
X142524866Y-68644866D01*
X142339294Y-68870986D01*
X142310000Y-68925791D01*
X142280706Y-68870986D01*
X142095134Y-68644866D01*
X141869014Y-68459294D01*
X141611034Y-68321401D01*
X141331111Y-68236487D01*
X141112950Y-68215000D01*
X140967050Y-68215000D01*
X140748889Y-68236487D01*
X140468966Y-68321401D01*
X140210986Y-68459294D01*
X139984866Y-68644866D01*
X139799294Y-68870986D01*
X139661401Y-69128966D01*
X139576487Y-69408889D01*
X139547815Y-69700000D01*
X132835002Y-69700000D01*
X132835002Y-69643137D01*
X132793306Y-69433517D01*
X132711517Y-69236060D01*
X132592777Y-69058353D01*
X132441649Y-68907225D01*
X132263942Y-68788485D01*
X132066485Y-68706696D01*
X131856865Y-68665000D01*
X131643139Y-68665000D01*
X131433519Y-68706696D01*
X131236062Y-68788485D01*
X131058355Y-68907225D01*
X130950580Y-69015000D01*
X128204980Y-69015000D01*
X128177402Y-68973726D01*
X128026274Y-68822598D01*
X127848567Y-68703858D01*
X127651110Y-68622069D01*
X127441490Y-68580373D01*
X127227764Y-68580373D01*
X127018144Y-68622069D01*
X126820687Y-68703858D01*
X126642980Y-68822598D01*
X126491852Y-68973726D01*
X126373112Y-69151433D01*
X126291323Y-69348890D01*
X126249627Y-69558510D01*
X98960000Y-69558510D01*
X98960000Y-57509819D01*
X103369786Y-57509819D01*
X103663965Y-57943151D01*
X104234406Y-58248636D01*
X104853484Y-58436962D01*
X105497407Y-58500894D01*
X106141429Y-58437973D01*
X106760802Y-58250621D01*
X107331722Y-57946034D01*
X107336035Y-57943151D01*
X107630214Y-57509819D01*
X105500000Y-55379605D01*
X103369786Y-57509819D01*
X98960000Y-57509819D01*
X98960000Y-52703148D01*
X100476457Y-52703148D01*
X100752627Y-53121118D01*
X101297557Y-53411649D01*
X101888696Y-53590287D01*
X102503328Y-53650168D01*
X102609226Y-53639625D01*
X102451364Y-53934406D01*
X102263038Y-54553484D01*
X102199106Y-55197407D01*
X102262027Y-55841429D01*
X102449379Y-56460802D01*
X102753966Y-57031722D01*
X102756849Y-57036035D01*
X103190181Y-57330214D01*
X105320395Y-55200000D01*
X105306253Y-55185858D01*
X105485858Y-55006253D01*
X105500000Y-55020395D01*
X105514143Y-55006253D01*
X105693748Y-55185858D01*
X105679605Y-55200000D01*
X107809819Y-57330214D01*
X108243151Y-57036035D01*
X108548636Y-56465594D01*
X108736962Y-55846516D01*
X108800894Y-55202593D01*
X108737973Y-54558571D01*
X108550621Y-53939198D01*
X108468356Y-53785000D01*
X108823544Y-53785000D01*
X109458199Y-53658760D01*
X110056031Y-53411129D01*
X110594066Y-53051626D01*
X111051626Y-52594066D01*
X111411129Y-52056031D01*
X111658760Y-51458199D01*
X111785000Y-50823544D01*
X111785000Y-50176456D01*
X111728645Y-49893137D01*
X137665000Y-49893137D01*
X137665000Y-50106863D01*
X137706696Y-50316483D01*
X137788485Y-50513940D01*
X137907225Y-50691647D01*
X138058353Y-50842775D01*
X138236060Y-50961515D01*
X138433517Y-51043304D01*
X138643137Y-51085000D01*
X138654132Y-51085000D01*
X139065000Y-51495869D01*
X139065001Y-60300577D01*
X139057225Y-60308353D01*
X138938485Y-60486060D01*
X138856696Y-60683517D01*
X138815000Y-60893137D01*
X138815000Y-61106863D01*
X138856696Y-61316483D01*
X138938485Y-61513940D01*
X139057225Y-61691647D01*
X139208353Y-61842775D01*
X139386060Y-61961515D01*
X139583517Y-62043304D01*
X139793137Y-62085000D01*
X140006863Y-62085000D01*
X140216483Y-62043304D01*
X140413940Y-61961515D01*
X140591647Y-61842775D01*
X140742775Y-61691647D01*
X140861515Y-61513940D01*
X140943304Y-61316483D01*
X140985000Y-61106863D01*
X140985000Y-60893137D01*
X140943304Y-60683517D01*
X140861515Y-60486060D01*
X140742775Y-60308353D01*
X140735000Y-60300578D01*
X140735000Y-51191018D01*
X140739040Y-51150000D01*
X140722918Y-50986312D01*
X140694648Y-50893115D01*
X150415000Y-50893115D01*
X150415000Y-51106841D01*
X150456696Y-51316461D01*
X150538485Y-51513918D01*
X150657225Y-51691625D01*
X150808353Y-51842753D01*
X150986060Y-51961493D01*
X151183517Y-52043282D01*
X151393137Y-52084978D01*
X151606863Y-52084978D01*
X151816483Y-52043282D01*
X152013940Y-51961493D01*
X152191647Y-51842753D01*
X152199422Y-51834978D01*
X153550556Y-51834978D01*
X153558353Y-51842775D01*
X153736060Y-51961515D01*
X153933517Y-52043304D01*
X154143137Y-52085000D01*
X154356863Y-52085000D01*
X154566483Y-52043304D01*
X154763940Y-51961515D01*
X154941647Y-51842775D01*
X155092775Y-51691647D01*
X155211515Y-51513940D01*
X155293304Y-51316483D01*
X155335000Y-51106863D01*
X155335000Y-50893137D01*
X155293304Y-50683517D01*
X155211515Y-50486060D01*
X155092775Y-50308353D01*
X154941647Y-50157225D01*
X154763940Y-50038485D01*
X154566483Y-49956696D01*
X154356863Y-49915000D01*
X154143137Y-49915000D01*
X153933517Y-49956696D01*
X153736060Y-50038485D01*
X153558353Y-50157225D01*
X153550600Y-50164978D01*
X152199422Y-50164978D01*
X152191647Y-50157203D01*
X152013940Y-50038463D01*
X151816483Y-49956674D01*
X151606863Y-49914978D01*
X151393137Y-49914978D01*
X151183517Y-49956674D01*
X150986060Y-50038463D01*
X150808353Y-50157203D01*
X150657225Y-50308331D01*
X150538485Y-50486038D01*
X150456696Y-50683495D01*
X150415000Y-50893115D01*
X140694648Y-50893115D01*
X140675172Y-50828913D01*
X140597636Y-50683854D01*
X140519439Y-50588570D01*
X140519437Y-50588568D01*
X140493291Y-50556709D01*
X140461433Y-50530564D01*
X139835000Y-49904132D01*
X139835000Y-49893137D01*
X139800716Y-49720777D01*
X190165000Y-49720777D01*
X190165000Y-50279223D01*
X190273948Y-50826939D01*
X190487656Y-51342876D01*
X190797912Y-51807207D01*
X191192793Y-52202088D01*
X191657124Y-52512344D01*
X192173061Y-52726052D01*
X192720777Y-52835000D01*
X193279223Y-52835000D01*
X193826939Y-52726052D01*
X194342876Y-52512344D01*
X194807207Y-52202088D01*
X195202088Y-51807207D01*
X195512344Y-51342876D01*
X195726052Y-50826939D01*
X195835000Y-50279223D01*
X195835000Y-49720777D01*
X195726052Y-49173061D01*
X195512344Y-48657124D01*
X195202088Y-48192793D01*
X194807207Y-47797912D01*
X194342876Y-47487656D01*
X193826939Y-47273948D01*
X193279223Y-47165000D01*
X192720777Y-47165000D01*
X192173061Y-47273948D01*
X191657124Y-47487656D01*
X191192793Y-47797912D01*
X190797912Y-48192793D01*
X190487656Y-48657124D01*
X190273948Y-49173061D01*
X190165000Y-49720777D01*
X139800716Y-49720777D01*
X139793304Y-49683517D01*
X139711515Y-49486060D01*
X139592775Y-49308353D01*
X139441647Y-49157225D01*
X139263940Y-49038485D01*
X139066483Y-48956696D01*
X138856863Y-48915000D01*
X138643137Y-48915000D01*
X138433517Y-48956696D01*
X138236060Y-49038485D01*
X138058353Y-49157225D01*
X137907225Y-49308353D01*
X137788485Y-49486060D01*
X137706696Y-49683517D01*
X137665000Y-49893137D01*
X111728645Y-49893137D01*
X111658760Y-49541801D01*
X111411129Y-48943969D01*
X111051626Y-48405934D01*
X110594066Y-47948374D01*
X110056031Y-47588871D01*
X109495984Y-47356891D01*
X152518519Y-47356891D01*
X152615843Y-47631252D01*
X152764822Y-47881355D01*
X152959731Y-48097588D01*
X153193080Y-48271641D01*
X153455901Y-48396825D01*
X153603110Y-48441476D01*
X153833000Y-48320155D01*
X153833000Y-47127000D01*
X152639186Y-47127000D01*
X152518519Y-47356891D01*
X109495984Y-47356891D01*
X109458199Y-47341240D01*
X108823544Y-47215000D01*
X108176456Y-47215000D01*
X107541801Y-47341240D01*
X106943969Y-47588871D01*
X106405934Y-47948374D01*
X105948374Y-48405934D01*
X105588871Y-48943969D01*
X105424293Y-49341294D01*
X105409103Y-49291408D01*
X105121118Y-48752627D01*
X104703148Y-48476457D01*
X102679605Y-50500000D01*
X102693748Y-50514143D01*
X102514143Y-50693748D01*
X102500000Y-50679605D01*
X100476457Y-52703148D01*
X98960000Y-52703148D01*
X98960000Y-50503328D01*
X99349832Y-50503328D01*
X99411010Y-51117831D01*
X99590897Y-51708592D01*
X99878882Y-52247373D01*
X100296852Y-52523543D01*
X102320395Y-50500000D01*
X100296852Y-48476457D01*
X99878882Y-48752627D01*
X99588351Y-49297557D01*
X99409713Y-49888696D01*
X99349832Y-50503328D01*
X98960000Y-50503328D01*
X98960000Y-48296852D01*
X100476457Y-48296852D01*
X102500000Y-50320395D01*
X104523543Y-48296852D01*
X104247373Y-47878882D01*
X103702443Y-47588351D01*
X103111304Y-47409713D01*
X102496672Y-47349832D01*
X101882169Y-47411010D01*
X101291408Y-47590897D01*
X100752627Y-47878882D01*
X100476457Y-48296852D01*
X98960000Y-48296852D01*
X98960000Y-46643109D01*
X152518519Y-46643109D01*
X152639186Y-46873000D01*
X153833000Y-46873000D01*
X153833000Y-45679845D01*
X154087000Y-45679845D01*
X154087000Y-46873000D01*
X154107000Y-46873000D01*
X154107000Y-47127000D01*
X154087000Y-47127000D01*
X154087000Y-48320155D01*
X154316890Y-48441476D01*
X154464099Y-48396825D01*
X154726920Y-48271641D01*
X154960269Y-48097588D01*
X155036034Y-48013534D01*
X155060498Y-48094180D01*
X155119463Y-48204494D01*
X155198815Y-48301185D01*
X155295506Y-48380537D01*
X155405820Y-48439502D01*
X155525518Y-48475812D01*
X155650000Y-48488072D01*
X157350000Y-48488072D01*
X157474482Y-48475812D01*
X157594180Y-48439502D01*
X157704494Y-48380537D01*
X157801185Y-48301185D01*
X157880537Y-48204494D01*
X157939502Y-48094180D01*
X157975812Y-47974482D01*
X157988072Y-47850000D01*
X157988072Y-46150000D01*
X157975812Y-46025518D01*
X157939502Y-45905820D01*
X157880537Y-45795506D01*
X157801185Y-45698815D01*
X157704494Y-45619463D01*
X157594180Y-45560498D01*
X157474482Y-45524188D01*
X157350000Y-45511928D01*
X155650000Y-45511928D01*
X155525518Y-45524188D01*
X155405820Y-45560498D01*
X155295506Y-45619463D01*
X155198815Y-45698815D01*
X155119463Y-45795506D01*
X155060498Y-45905820D01*
X155036034Y-45986466D01*
X154960269Y-45902412D01*
X154726920Y-45728359D01*
X154464099Y-45603175D01*
X154316890Y-45558524D01*
X154087000Y-45679845D01*
X153833000Y-45679845D01*
X153603110Y-45558524D01*
X153455901Y-45603175D01*
X153193080Y-45728359D01*
X152959731Y-45902412D01*
X152764822Y-46118645D01*
X152615843Y-46368748D01*
X152518519Y-46643109D01*
X98960000Y-46643109D01*
X98960000Y-45032279D01*
X98998147Y-44643225D01*
X99101763Y-44300033D01*
X99270062Y-43983511D01*
X99496637Y-43705701D01*
X99772856Y-43477194D01*
X100088197Y-43306690D01*
X100430656Y-43200681D01*
X100817712Y-43160000D01*
X195467721Y-43160000D01*
X195856775Y-43198147D01*
M02*
