G04 #@! TF.GenerationSoftware,KiCad,Pcbnew,(5.1.4)-1*
G04 #@! TF.CreationDate,2019-12-12T13:05:58+01:00*
G04 #@! TF.ProjectId,Schaltplan_embedded,53636861-6c74-4706-9c61-6e5f656d6265,rev?*
G04 #@! TF.SameCoordinates,Original*
G04 #@! TF.FileFunction,Soldermask,Top*
G04 #@! TF.FilePolarity,Negative*
%FSLAX46Y46*%
G04 Gerber Fmt 4.6, Leading zero omitted, Abs format (unit mm)*
G04 Created by KiCad (PCBNEW (5.1.4)-1) date 2019-12-12 13:05:58*
%MOMM*%
%LPD*%
G04 APERTURE LIST*
%ADD10C,0.100000*%
G04 APERTURE END LIST*
D10*
G36*
X127653428Y-108744213D02*
G01*
X127749153Y-108783864D01*
X127835305Y-108841429D01*
X127908571Y-108914695D01*
X127966136Y-109000847D01*
X128009516Y-109105575D01*
X128021067Y-109127186D01*
X128036612Y-109146128D01*
X128055554Y-109161673D01*
X128077165Y-109173224D01*
X128100614Y-109180337D01*
X128125000Y-109182739D01*
X128149386Y-109180337D01*
X128172835Y-109173224D01*
X128194446Y-109161673D01*
X128213388Y-109146128D01*
X128228933Y-109127186D01*
X128240484Y-109105575D01*
X128283864Y-109000847D01*
X128341429Y-108914695D01*
X128414695Y-108841429D01*
X128500847Y-108783864D01*
X128596572Y-108744213D01*
X128698192Y-108724000D01*
X128801808Y-108724000D01*
X128903428Y-108744213D01*
X128999153Y-108783864D01*
X129085305Y-108841429D01*
X129158571Y-108914695D01*
X129216136Y-109000847D01*
X129259516Y-109105575D01*
X129271067Y-109127186D01*
X129286612Y-109146128D01*
X129305554Y-109161673D01*
X129327165Y-109173224D01*
X129350614Y-109180337D01*
X129375000Y-109182739D01*
X129399386Y-109180337D01*
X129422835Y-109173224D01*
X129444446Y-109161673D01*
X129463388Y-109146128D01*
X129478933Y-109127186D01*
X129490484Y-109105575D01*
X129533864Y-109000847D01*
X129591429Y-108914695D01*
X129664695Y-108841429D01*
X129750847Y-108783864D01*
X129846572Y-108744213D01*
X129948192Y-108724000D01*
X130051808Y-108724000D01*
X130153428Y-108744213D01*
X130249153Y-108783864D01*
X130335305Y-108841429D01*
X130408571Y-108914695D01*
X130466136Y-109000847D01*
X130509516Y-109105575D01*
X130521067Y-109127186D01*
X130536612Y-109146128D01*
X130555554Y-109161673D01*
X130577165Y-109173224D01*
X130600614Y-109180337D01*
X130625000Y-109182739D01*
X130649386Y-109180337D01*
X130672835Y-109173224D01*
X130694446Y-109161673D01*
X130713388Y-109146128D01*
X130728933Y-109127186D01*
X130740484Y-109105575D01*
X130783864Y-109000847D01*
X130841429Y-108914695D01*
X130914695Y-108841429D01*
X131000847Y-108783864D01*
X131096572Y-108744213D01*
X131198192Y-108724000D01*
X131301808Y-108724000D01*
X131403428Y-108744213D01*
X131499153Y-108783864D01*
X131585305Y-108841429D01*
X131658571Y-108914695D01*
X131716136Y-109000847D01*
X131759516Y-109105575D01*
X131771067Y-109127186D01*
X131786612Y-109146128D01*
X131805554Y-109161673D01*
X131827165Y-109173224D01*
X131850614Y-109180337D01*
X131875000Y-109182739D01*
X131899386Y-109180337D01*
X131922835Y-109173224D01*
X131944446Y-109161673D01*
X131963388Y-109146128D01*
X131978933Y-109127186D01*
X131990484Y-109105575D01*
X132033864Y-109000847D01*
X132091429Y-108914695D01*
X132164695Y-108841429D01*
X132250847Y-108783864D01*
X132346572Y-108744213D01*
X132448192Y-108724000D01*
X132551808Y-108724000D01*
X132653428Y-108744213D01*
X132749153Y-108783864D01*
X132835305Y-108841429D01*
X132908571Y-108914695D01*
X132966136Y-109000847D01*
X133009516Y-109105575D01*
X133021067Y-109127186D01*
X133036612Y-109146128D01*
X133055554Y-109161673D01*
X133077165Y-109173224D01*
X133100614Y-109180337D01*
X133125000Y-109182739D01*
X133149386Y-109180337D01*
X133172835Y-109173224D01*
X133194446Y-109161673D01*
X133213388Y-109146128D01*
X133228933Y-109127186D01*
X133240484Y-109105575D01*
X133283864Y-109000847D01*
X133341429Y-108914695D01*
X133414695Y-108841429D01*
X133500847Y-108783864D01*
X133596572Y-108744213D01*
X133698192Y-108724000D01*
X133801808Y-108724000D01*
X133903428Y-108744213D01*
X133999153Y-108783864D01*
X134085305Y-108841429D01*
X134158571Y-108914695D01*
X134216136Y-109000847D01*
X134259516Y-109105575D01*
X134271067Y-109127186D01*
X134286612Y-109146128D01*
X134305554Y-109161673D01*
X134327165Y-109173224D01*
X134350614Y-109180337D01*
X134375000Y-109182739D01*
X134399386Y-109180337D01*
X134422835Y-109173224D01*
X134444446Y-109161673D01*
X134463388Y-109146128D01*
X134478933Y-109127186D01*
X134490484Y-109105575D01*
X134533864Y-109000847D01*
X134591429Y-108914695D01*
X134664695Y-108841429D01*
X134750847Y-108783864D01*
X134846572Y-108744213D01*
X134948192Y-108724000D01*
X135051808Y-108724000D01*
X135153428Y-108744213D01*
X135249153Y-108783864D01*
X135335305Y-108841429D01*
X135408571Y-108914695D01*
X135466136Y-109000847D01*
X135483517Y-109042808D01*
X135495068Y-109064419D01*
X135510613Y-109083361D01*
X135529555Y-109098906D01*
X135551166Y-109110457D01*
X135574615Y-109117570D01*
X135599001Y-109119972D01*
X135623387Y-109117570D01*
X135646836Y-109110457D01*
X135668447Y-109098906D01*
X135687389Y-109083361D01*
X135702934Y-109064419D01*
X135714485Y-109042808D01*
X135721598Y-109019359D01*
X135724000Y-108994973D01*
X135724000Y-108724000D01*
X136776000Y-108724000D01*
X136776000Y-109776000D01*
X135724000Y-109776000D01*
X135724000Y-109505027D01*
X135721598Y-109480641D01*
X135714485Y-109457192D01*
X135702934Y-109435581D01*
X135687389Y-109416639D01*
X135668447Y-109401094D01*
X135646836Y-109389543D01*
X135623387Y-109382430D01*
X135599001Y-109380028D01*
X135574615Y-109382430D01*
X135551166Y-109389543D01*
X135529555Y-109401094D01*
X135510613Y-109416639D01*
X135495068Y-109435581D01*
X135483517Y-109457192D01*
X135466136Y-109499153D01*
X135408571Y-109585305D01*
X135335305Y-109658571D01*
X135249153Y-109716136D01*
X135153428Y-109755787D01*
X135051808Y-109776000D01*
X134948192Y-109776000D01*
X134846572Y-109755787D01*
X134750847Y-109716136D01*
X134664695Y-109658571D01*
X134591429Y-109585305D01*
X134533864Y-109499153D01*
X134490484Y-109394425D01*
X134478933Y-109372814D01*
X134463388Y-109353872D01*
X134444446Y-109338327D01*
X134422835Y-109326776D01*
X134399386Y-109319663D01*
X134375000Y-109317261D01*
X134350614Y-109319663D01*
X134327165Y-109326776D01*
X134305554Y-109338327D01*
X134286612Y-109353872D01*
X134271067Y-109372814D01*
X134259516Y-109394425D01*
X134216136Y-109499153D01*
X134158571Y-109585305D01*
X134085305Y-109658571D01*
X133999153Y-109716136D01*
X133903428Y-109755787D01*
X133801808Y-109776000D01*
X133698192Y-109776000D01*
X133596572Y-109755787D01*
X133500847Y-109716136D01*
X133414695Y-109658571D01*
X133341429Y-109585305D01*
X133283864Y-109499153D01*
X133240484Y-109394425D01*
X133228933Y-109372814D01*
X133213388Y-109353872D01*
X133194446Y-109338327D01*
X133172835Y-109326776D01*
X133149386Y-109319663D01*
X133125000Y-109317261D01*
X133100614Y-109319663D01*
X133077165Y-109326776D01*
X133055554Y-109338327D01*
X133036612Y-109353872D01*
X133021067Y-109372814D01*
X133009516Y-109394425D01*
X132966136Y-109499153D01*
X132908571Y-109585305D01*
X132835305Y-109658571D01*
X132749153Y-109716136D01*
X132653428Y-109755787D01*
X132551808Y-109776000D01*
X132448192Y-109776000D01*
X132346572Y-109755787D01*
X132250847Y-109716136D01*
X132164695Y-109658571D01*
X132091429Y-109585305D01*
X132033864Y-109499153D01*
X131990484Y-109394425D01*
X131978933Y-109372814D01*
X131963388Y-109353872D01*
X131944446Y-109338327D01*
X131922835Y-109326776D01*
X131899386Y-109319663D01*
X131875000Y-109317261D01*
X131850614Y-109319663D01*
X131827165Y-109326776D01*
X131805554Y-109338327D01*
X131786612Y-109353872D01*
X131771067Y-109372814D01*
X131759516Y-109394425D01*
X131716136Y-109499153D01*
X131658571Y-109585305D01*
X131585305Y-109658571D01*
X131499153Y-109716136D01*
X131403428Y-109755787D01*
X131301808Y-109776000D01*
X131198192Y-109776000D01*
X131096572Y-109755787D01*
X131000847Y-109716136D01*
X130914695Y-109658571D01*
X130841429Y-109585305D01*
X130783864Y-109499153D01*
X130740484Y-109394425D01*
X130728933Y-109372814D01*
X130713388Y-109353872D01*
X130694446Y-109338327D01*
X130672835Y-109326776D01*
X130649386Y-109319663D01*
X130625000Y-109317261D01*
X130600614Y-109319663D01*
X130577165Y-109326776D01*
X130555554Y-109338327D01*
X130536612Y-109353872D01*
X130521067Y-109372814D01*
X130509516Y-109394425D01*
X130466136Y-109499153D01*
X130408571Y-109585305D01*
X130335305Y-109658571D01*
X130249153Y-109716136D01*
X130153428Y-109755787D01*
X130051808Y-109776000D01*
X129948192Y-109776000D01*
X129846572Y-109755787D01*
X129750847Y-109716136D01*
X129664695Y-109658571D01*
X129591429Y-109585305D01*
X129533864Y-109499153D01*
X129490484Y-109394425D01*
X129478933Y-109372814D01*
X129463388Y-109353872D01*
X129444446Y-109338327D01*
X129422835Y-109326776D01*
X129399386Y-109319663D01*
X129375000Y-109317261D01*
X129350614Y-109319663D01*
X129327165Y-109326776D01*
X129305554Y-109338327D01*
X129286612Y-109353872D01*
X129271067Y-109372814D01*
X129259516Y-109394425D01*
X129216136Y-109499153D01*
X129158571Y-109585305D01*
X129085305Y-109658571D01*
X128999153Y-109716136D01*
X128903428Y-109755787D01*
X128801808Y-109776000D01*
X128698192Y-109776000D01*
X128596572Y-109755787D01*
X128500847Y-109716136D01*
X128414695Y-109658571D01*
X128341429Y-109585305D01*
X128283864Y-109499153D01*
X128240484Y-109394425D01*
X128228933Y-109372814D01*
X128213388Y-109353872D01*
X128194446Y-109338327D01*
X128172835Y-109326776D01*
X128149386Y-109319663D01*
X128125000Y-109317261D01*
X128100614Y-109319663D01*
X128077165Y-109326776D01*
X128055554Y-109338327D01*
X128036612Y-109353872D01*
X128021067Y-109372814D01*
X128009516Y-109394425D01*
X127966136Y-109499153D01*
X127908571Y-109585305D01*
X127835305Y-109658571D01*
X127749153Y-109716136D01*
X127653428Y-109755787D01*
X127551808Y-109776000D01*
X127448192Y-109776000D01*
X127346572Y-109755787D01*
X127250847Y-109716136D01*
X127164695Y-109658571D01*
X127091429Y-109585305D01*
X127033864Y-109499153D01*
X126994213Y-109403428D01*
X126974000Y-109301808D01*
X126974000Y-109198192D01*
X126994213Y-109096572D01*
X127033864Y-109000847D01*
X127091429Y-108914695D01*
X127164695Y-108841429D01*
X127250847Y-108783864D01*
X127346572Y-108744213D01*
X127448192Y-108724000D01*
X127551808Y-108724000D01*
X127653428Y-108744213D01*
X127653428Y-108744213D01*
G37*
G36*
X185141560Y-105889064D02*
G01*
X185293027Y-105919193D01*
X185507045Y-106007842D01*
X185569778Y-106049759D01*
X185699654Y-106136539D01*
X185863461Y-106300346D01*
X185944980Y-106422348D01*
X185992158Y-106492955D01*
X186080807Y-106706973D01*
X186126000Y-106934174D01*
X186126000Y-107165826D01*
X186080807Y-107393027D01*
X185992158Y-107607045D01*
X185992157Y-107607046D01*
X185863461Y-107799654D01*
X185699654Y-107963461D01*
X185640810Y-108002779D01*
X185507045Y-108092158D01*
X185293027Y-108180807D01*
X185141560Y-108210936D01*
X185065827Y-108226000D01*
X184834173Y-108226000D01*
X184758440Y-108210936D01*
X184606973Y-108180807D01*
X184392955Y-108092158D01*
X184259190Y-108002779D01*
X184200346Y-107963461D01*
X184036539Y-107799654D01*
X183907843Y-107607046D01*
X183907842Y-107607045D01*
X183819193Y-107393027D01*
X183774000Y-107165826D01*
X183774000Y-106934174D01*
X183819193Y-106706973D01*
X183907842Y-106492955D01*
X183955020Y-106422348D01*
X184036539Y-106300346D01*
X184200346Y-106136539D01*
X184330222Y-106049759D01*
X184392955Y-106007842D01*
X184606973Y-105919193D01*
X184758440Y-105889064D01*
X184834173Y-105874000D01*
X185065827Y-105874000D01*
X185141560Y-105889064D01*
X185141560Y-105889064D01*
G37*
G36*
X190241560Y-105889064D02*
G01*
X190393027Y-105919193D01*
X190607045Y-106007842D01*
X190669778Y-106049759D01*
X190799654Y-106136539D01*
X190963461Y-106300346D01*
X191044980Y-106422348D01*
X191092158Y-106492955D01*
X191180807Y-106706973D01*
X191226000Y-106934174D01*
X191226000Y-107165826D01*
X191180807Y-107393027D01*
X191092158Y-107607045D01*
X191092157Y-107607046D01*
X190963461Y-107799654D01*
X190799654Y-107963461D01*
X190740810Y-108002779D01*
X190607045Y-108092158D01*
X190393027Y-108180807D01*
X190241560Y-108210936D01*
X190165827Y-108226000D01*
X189934173Y-108226000D01*
X189858440Y-108210936D01*
X189706973Y-108180807D01*
X189492955Y-108092158D01*
X189359190Y-108002779D01*
X189300346Y-107963461D01*
X189136539Y-107799654D01*
X189007843Y-107607046D01*
X189007842Y-107607045D01*
X188919193Y-107393027D01*
X188874000Y-107165826D01*
X188874000Y-106934174D01*
X188919193Y-106706973D01*
X189007842Y-106492955D01*
X189055020Y-106422348D01*
X189136539Y-106300346D01*
X189300346Y-106136539D01*
X189430222Y-106049759D01*
X189492955Y-106007842D01*
X189706973Y-105919193D01*
X189858440Y-105889064D01*
X189934173Y-105874000D01*
X190165827Y-105874000D01*
X190241560Y-105889064D01*
X190241560Y-105889064D01*
G37*
G36*
X152401000Y-108151000D02*
G01*
X150599000Y-108151000D01*
X150599000Y-106349000D01*
X152401000Y-106349000D01*
X152401000Y-108151000D01*
X152401000Y-108151000D01*
G37*
G36*
X154150442Y-106355518D02*
G01*
X154216627Y-106362037D01*
X154386466Y-106413557D01*
X154542991Y-106497222D01*
X154573289Y-106522087D01*
X154680186Y-106609814D01*
X154759921Y-106706973D01*
X154792778Y-106747009D01*
X154876443Y-106903534D01*
X154927963Y-107073373D01*
X154945359Y-107250000D01*
X154927963Y-107426627D01*
X154876443Y-107596466D01*
X154792778Y-107752991D01*
X154763448Y-107788729D01*
X154680186Y-107890186D01*
X154590901Y-107963459D01*
X154542991Y-108002778D01*
X154386466Y-108086443D01*
X154216627Y-108137963D01*
X154150443Y-108144481D01*
X154084260Y-108151000D01*
X153995740Y-108151000D01*
X153929557Y-108144481D01*
X153863373Y-108137963D01*
X153693534Y-108086443D01*
X153537009Y-108002778D01*
X153489099Y-107963459D01*
X153399814Y-107890186D01*
X153316552Y-107788729D01*
X153287222Y-107752991D01*
X153203557Y-107596466D01*
X153152037Y-107426627D01*
X153134641Y-107250000D01*
X153152037Y-107073373D01*
X153203557Y-106903534D01*
X153287222Y-106747009D01*
X153320079Y-106706973D01*
X153399814Y-106609814D01*
X153506711Y-106522087D01*
X153537009Y-106497222D01*
X153693534Y-106413557D01*
X153863373Y-106362037D01*
X153929558Y-106355518D01*
X153995740Y-106349000D01*
X154084260Y-106349000D01*
X154150442Y-106355518D01*
X154150442Y-106355518D01*
G37*
G36*
X97575880Y-102759776D02*
G01*
X97956593Y-102835504D01*
X98366249Y-103005189D01*
X98734929Y-103251534D01*
X99048466Y-103565071D01*
X99294811Y-103933751D01*
X99464496Y-104343407D01*
X99551000Y-104778296D01*
X99551000Y-105221704D01*
X99464496Y-105656593D01*
X99294811Y-106066249D01*
X99048466Y-106434929D01*
X98734929Y-106748466D01*
X98366249Y-106994811D01*
X97956593Y-107164496D01*
X97575880Y-107240224D01*
X97521705Y-107251000D01*
X97078295Y-107251000D01*
X97024120Y-107240224D01*
X96643407Y-107164496D01*
X96233751Y-106994811D01*
X95865071Y-106748466D01*
X95551534Y-106434929D01*
X95305189Y-106066249D01*
X95135504Y-105656593D01*
X95049000Y-105221704D01*
X95049000Y-104778296D01*
X95135504Y-104343407D01*
X95305189Y-103933751D01*
X95551534Y-103565071D01*
X95865071Y-103251534D01*
X96233751Y-103005189D01*
X96643407Y-102835504D01*
X97024120Y-102759776D01*
X97078295Y-102749000D01*
X97521705Y-102749000D01*
X97575880Y-102759776D01*
X97575880Y-102759776D01*
G37*
G36*
X181838674Y-104903465D02*
G01*
X181876367Y-104914899D01*
X181911103Y-104933466D01*
X181941548Y-104958452D01*
X181966534Y-104988897D01*
X181985101Y-105023633D01*
X181996535Y-105061326D01*
X182001000Y-105106661D01*
X182001000Y-105943339D01*
X181996535Y-105988674D01*
X181985101Y-106026367D01*
X181966534Y-106061103D01*
X181941548Y-106091548D01*
X181911103Y-106116534D01*
X181876367Y-106135101D01*
X181838674Y-106146535D01*
X181793339Y-106151000D01*
X180706661Y-106151000D01*
X180661326Y-106146535D01*
X180623633Y-106135101D01*
X180588897Y-106116534D01*
X180558452Y-106091548D01*
X180533466Y-106061103D01*
X180514899Y-106026367D01*
X180503465Y-105988674D01*
X180499000Y-105943339D01*
X180499000Y-105106661D01*
X180503465Y-105061326D01*
X180514899Y-105023633D01*
X180533466Y-104988897D01*
X180558452Y-104958452D01*
X180588897Y-104933466D01*
X180623633Y-104914899D01*
X180661326Y-104903465D01*
X180706661Y-104899000D01*
X181793339Y-104899000D01*
X181838674Y-104903465D01*
X181838674Y-104903465D01*
G37*
G36*
X187714794Y-103420155D02*
G01*
X187821150Y-103441311D01*
X187921334Y-103482809D01*
X188021520Y-103524307D01*
X188201844Y-103644795D01*
X188355205Y-103798156D01*
X188475693Y-103978480D01*
X188475693Y-103978481D01*
X188558689Y-104178850D01*
X188579844Y-104285205D01*
X188601000Y-104391560D01*
X188601000Y-104608440D01*
X188558689Y-104821149D01*
X188475693Y-105021520D01*
X188355205Y-105201844D01*
X188201844Y-105355205D01*
X188021520Y-105475693D01*
X187921334Y-105517191D01*
X187821150Y-105558689D01*
X187714794Y-105579845D01*
X187608440Y-105601000D01*
X187391560Y-105601000D01*
X187285205Y-105579844D01*
X187178850Y-105558689D01*
X187078666Y-105517191D01*
X186978480Y-105475693D01*
X186798156Y-105355205D01*
X186644795Y-105201844D01*
X186524307Y-105021520D01*
X186441311Y-104821149D01*
X186399000Y-104608440D01*
X186399000Y-104391560D01*
X186420156Y-104285205D01*
X186441311Y-104178850D01*
X186524307Y-103978481D01*
X186524307Y-103978480D01*
X186644795Y-103798156D01*
X186798156Y-103644795D01*
X186978480Y-103524307D01*
X187078666Y-103482809D01*
X187178850Y-103441311D01*
X187285206Y-103420155D01*
X187391560Y-103399000D01*
X187608440Y-103399000D01*
X187714794Y-103420155D01*
X187714794Y-103420155D01*
G37*
G36*
X178801000Y-105051000D02*
G01*
X176699000Y-105051000D01*
X176699000Y-103949000D01*
X178801000Y-103949000D01*
X178801000Y-105051000D01*
X178801000Y-105051000D01*
G37*
G36*
X162801000Y-105051000D02*
G01*
X160699000Y-105051000D01*
X160699000Y-103949000D01*
X162801000Y-103949000D01*
X162801000Y-105051000D01*
X162801000Y-105051000D01*
G37*
G36*
X181838674Y-102853465D02*
G01*
X181876367Y-102864899D01*
X181911103Y-102883466D01*
X181941548Y-102908452D01*
X181966534Y-102938897D01*
X181985101Y-102973633D01*
X181996535Y-103011326D01*
X182001000Y-103056661D01*
X182001000Y-103893339D01*
X181996535Y-103938674D01*
X181985101Y-103976367D01*
X181966534Y-104011103D01*
X181941548Y-104041548D01*
X181911103Y-104066534D01*
X181876367Y-104085101D01*
X181838674Y-104096535D01*
X181793339Y-104101000D01*
X180706661Y-104101000D01*
X180661326Y-104096535D01*
X180623633Y-104085101D01*
X180588897Y-104066534D01*
X180558452Y-104041548D01*
X180533466Y-104011103D01*
X180514899Y-103976367D01*
X180503465Y-103938674D01*
X180499000Y-103893339D01*
X180499000Y-103056661D01*
X180503465Y-103011326D01*
X180514899Y-102973633D01*
X180533466Y-102938897D01*
X180558452Y-102908452D01*
X180588897Y-102883466D01*
X180623633Y-102864899D01*
X180661326Y-102853465D01*
X180706661Y-102849000D01*
X181793339Y-102849000D01*
X181838674Y-102853465D01*
X181838674Y-102853465D01*
G37*
G36*
X185141560Y-100789064D02*
G01*
X185293027Y-100819193D01*
X185507045Y-100907842D01*
X185507046Y-100907843D01*
X185699654Y-101036539D01*
X185863461Y-101200346D01*
X185949258Y-101328751D01*
X185992158Y-101392955D01*
X186080807Y-101606973D01*
X186126000Y-101834174D01*
X186126000Y-102065826D01*
X186080807Y-102293027D01*
X185992158Y-102507045D01*
X185992157Y-102507046D01*
X185863461Y-102699654D01*
X185699654Y-102863461D01*
X185571635Y-102949000D01*
X185507045Y-102992158D01*
X185293027Y-103080807D01*
X185141560Y-103110936D01*
X185065827Y-103126000D01*
X184834173Y-103126000D01*
X184758440Y-103110936D01*
X184606973Y-103080807D01*
X184392955Y-102992158D01*
X184328365Y-102949000D01*
X184200346Y-102863461D01*
X184036539Y-102699654D01*
X183907843Y-102507046D01*
X183907842Y-102507045D01*
X183819193Y-102293027D01*
X183774000Y-102065826D01*
X183774000Y-101834174D01*
X183819193Y-101606973D01*
X183907842Y-101392955D01*
X183950742Y-101328751D01*
X184036539Y-101200346D01*
X184200346Y-101036539D01*
X184392954Y-100907843D01*
X184392955Y-100907842D01*
X184606973Y-100819193D01*
X184758440Y-100789064D01*
X184834173Y-100774000D01*
X185065827Y-100774000D01*
X185141560Y-100789064D01*
X185141560Y-100789064D01*
G37*
G36*
X190241560Y-100789064D02*
G01*
X190393027Y-100819193D01*
X190607045Y-100907842D01*
X190607046Y-100907843D01*
X190799654Y-101036539D01*
X190963461Y-101200346D01*
X191049258Y-101328751D01*
X191092158Y-101392955D01*
X191180807Y-101606973D01*
X191226000Y-101834174D01*
X191226000Y-102065826D01*
X191180807Y-102293027D01*
X191092158Y-102507045D01*
X191092157Y-102507046D01*
X190963461Y-102699654D01*
X190799654Y-102863461D01*
X190671635Y-102949000D01*
X190607045Y-102992158D01*
X190393027Y-103080807D01*
X190241560Y-103110936D01*
X190165827Y-103126000D01*
X189934173Y-103126000D01*
X189858440Y-103110936D01*
X189706973Y-103080807D01*
X189492955Y-102992158D01*
X189428365Y-102949000D01*
X189300346Y-102863461D01*
X189136539Y-102699654D01*
X189007843Y-102507046D01*
X189007842Y-102507045D01*
X188919193Y-102293027D01*
X188874000Y-102065826D01*
X188874000Y-101834174D01*
X188919193Y-101606973D01*
X189007842Y-101392955D01*
X189050742Y-101328751D01*
X189136539Y-101200346D01*
X189300346Y-101036539D01*
X189492954Y-100907843D01*
X189492955Y-100907842D01*
X189706973Y-100819193D01*
X189858440Y-100789064D01*
X189934173Y-100774000D01*
X190165827Y-100774000D01*
X190241560Y-100789064D01*
X190241560Y-100789064D01*
G37*
G36*
X162801000Y-103051000D02*
G01*
X160699000Y-103051000D01*
X160699000Y-101949000D01*
X162801000Y-101949000D01*
X162801000Y-103051000D01*
X162801000Y-103051000D01*
G37*
G36*
X178801000Y-103051000D02*
G01*
X176699000Y-103051000D01*
X176699000Y-101949000D01*
X178801000Y-101949000D01*
X178801000Y-103051000D01*
X178801000Y-103051000D01*
G37*
G36*
X151051000Y-102426000D02*
G01*
X149449000Y-102426000D01*
X149449000Y-101074000D01*
X151051000Y-101074000D01*
X151051000Y-102426000D01*
X151051000Y-102426000D01*
G37*
G36*
X153551000Y-102426000D02*
G01*
X151949000Y-102426000D01*
X151949000Y-101074000D01*
X153551000Y-101074000D01*
X153551000Y-102426000D01*
X153551000Y-102426000D01*
G37*
G36*
X178801000Y-101051000D02*
G01*
X176699000Y-101051000D01*
X176699000Y-99949000D01*
X178801000Y-99949000D01*
X178801000Y-101051000D01*
X178801000Y-101051000D01*
G37*
G36*
X162801000Y-101051000D02*
G01*
X160699000Y-101051000D01*
X160699000Y-99949000D01*
X162801000Y-99949000D01*
X162801000Y-101051000D01*
X162801000Y-101051000D01*
G37*
G36*
X131551000Y-100676000D02*
G01*
X129949000Y-100676000D01*
X129949000Y-99324000D01*
X131551000Y-99324000D01*
X131551000Y-100676000D01*
X131551000Y-100676000D01*
G37*
G36*
X129051000Y-100676000D02*
G01*
X127449000Y-100676000D01*
X127449000Y-99324000D01*
X129051000Y-99324000D01*
X129051000Y-100676000D01*
X129051000Y-100676000D01*
G37*
G36*
X148426000Y-100314442D02*
G01*
X140574000Y-100314442D01*
X140574000Y-99212442D01*
X148426000Y-99212442D01*
X148426000Y-100314442D01*
X148426000Y-100314442D01*
G37*
G36*
X162801000Y-99051000D02*
G01*
X160699000Y-99051000D01*
X160699000Y-97949000D01*
X162801000Y-97949000D01*
X162801000Y-99051000D01*
X162801000Y-99051000D01*
G37*
G36*
X178801000Y-99051000D02*
G01*
X176699000Y-99051000D01*
X176699000Y-97949000D01*
X178801000Y-97949000D01*
X178801000Y-99051000D01*
X178801000Y-99051000D01*
G37*
G36*
X184076000Y-98701000D02*
G01*
X182724000Y-98701000D01*
X182724000Y-97099000D01*
X184076000Y-97099000D01*
X184076000Y-98701000D01*
X184076000Y-98701000D01*
G37*
G36*
X186576000Y-98551000D02*
G01*
X185224000Y-98551000D01*
X185224000Y-96949000D01*
X186576000Y-96949000D01*
X186576000Y-98551000D01*
X186576000Y-98551000D01*
G37*
G36*
X139351000Y-97989442D02*
G01*
X138249000Y-97989442D01*
X138249000Y-90137442D01*
X139351000Y-90137442D01*
X139351000Y-97989442D01*
X139351000Y-97989442D01*
G37*
G36*
X150751000Y-97989442D02*
G01*
X149649000Y-97989442D01*
X149649000Y-90137442D01*
X150751000Y-90137442D01*
X150751000Y-97989442D01*
X150751000Y-97989442D01*
G37*
G36*
X131901000Y-97951000D02*
G01*
X130299000Y-97951000D01*
X130299000Y-96549000D01*
X131901000Y-96549000D01*
X131901000Y-97951000D01*
X131901000Y-97951000D01*
G37*
G36*
X129201000Y-97951000D02*
G01*
X127599000Y-97951000D01*
X127599000Y-96549000D01*
X129201000Y-96549000D01*
X129201000Y-97951000D01*
X129201000Y-97951000D01*
G37*
G36*
X122951000Y-97951000D02*
G01*
X121349000Y-97951000D01*
X121349000Y-96549000D01*
X122951000Y-96549000D01*
X122951000Y-97951000D01*
X122951000Y-97951000D01*
G37*
G36*
X125651000Y-97951000D02*
G01*
X124049000Y-97951000D01*
X124049000Y-96549000D01*
X125651000Y-96549000D01*
X125651000Y-97951000D01*
X125651000Y-97951000D01*
G37*
G36*
X97575880Y-92759776D02*
G01*
X97956593Y-92835504D01*
X98366249Y-93005189D01*
X98734929Y-93251534D01*
X99048466Y-93565071D01*
X99294811Y-93933751D01*
X99464496Y-94343407D01*
X99551000Y-94778296D01*
X99551000Y-95221704D01*
X99464496Y-95656593D01*
X99294811Y-96066249D01*
X99048466Y-96434929D01*
X98734929Y-96748466D01*
X98366249Y-96994811D01*
X97956593Y-97164496D01*
X97575880Y-97240224D01*
X97521705Y-97251000D01*
X97078295Y-97251000D01*
X97024120Y-97240224D01*
X96643407Y-97164496D01*
X96233751Y-96994811D01*
X95865071Y-96748466D01*
X95551534Y-96434929D01*
X95305189Y-96066249D01*
X95135504Y-95656593D01*
X95049000Y-95221704D01*
X95049000Y-94778296D01*
X95135504Y-94343407D01*
X95305189Y-93933751D01*
X95551534Y-93565071D01*
X95865071Y-93251534D01*
X96233751Y-93005189D01*
X96643407Y-92835504D01*
X97024120Y-92759776D01*
X97078295Y-92749000D01*
X97521705Y-92749000D01*
X97575880Y-92759776D01*
X97575880Y-92759776D01*
G37*
G36*
X105451000Y-97151000D02*
G01*
X104049000Y-97151000D01*
X104049000Y-95549000D01*
X105451000Y-95549000D01*
X105451000Y-97151000D01*
X105451000Y-97151000D01*
G37*
G36*
X178801000Y-97051000D02*
G01*
X176699000Y-97051000D01*
X176699000Y-95949000D01*
X178801000Y-95949000D01*
X178801000Y-97051000D01*
X178801000Y-97051000D01*
G37*
G36*
X162801000Y-97051000D02*
G01*
X160699000Y-97051000D01*
X160699000Y-95949000D01*
X162801000Y-95949000D01*
X162801000Y-97051000D01*
X162801000Y-97051000D01*
G37*
G36*
X111488674Y-95003465D02*
G01*
X111526367Y-95014899D01*
X111561103Y-95033466D01*
X111591548Y-95058452D01*
X111616534Y-95088897D01*
X111635101Y-95123633D01*
X111646535Y-95161326D01*
X111651000Y-95206661D01*
X111651000Y-96293339D01*
X111646535Y-96338674D01*
X111635101Y-96376367D01*
X111616534Y-96411103D01*
X111591548Y-96441548D01*
X111561103Y-96466534D01*
X111526367Y-96485101D01*
X111488674Y-96496535D01*
X111443339Y-96501000D01*
X110606661Y-96501000D01*
X110561326Y-96496535D01*
X110523633Y-96485101D01*
X110488897Y-96466534D01*
X110458452Y-96441548D01*
X110433466Y-96411103D01*
X110414899Y-96376367D01*
X110403465Y-96338674D01*
X110399000Y-96293339D01*
X110399000Y-95206661D01*
X110403465Y-95161326D01*
X110414899Y-95123633D01*
X110433466Y-95088897D01*
X110458452Y-95058452D01*
X110488897Y-95033466D01*
X110523633Y-95014899D01*
X110561326Y-95003465D01*
X110606661Y-94999000D01*
X111443339Y-94999000D01*
X111488674Y-95003465D01*
X111488674Y-95003465D01*
G37*
G36*
X109438674Y-95003465D02*
G01*
X109476367Y-95014899D01*
X109511103Y-95033466D01*
X109541548Y-95058452D01*
X109566534Y-95088897D01*
X109585101Y-95123633D01*
X109596535Y-95161326D01*
X109601000Y-95206661D01*
X109601000Y-96293339D01*
X109596535Y-96338674D01*
X109585101Y-96376367D01*
X109566534Y-96411103D01*
X109541548Y-96441548D01*
X109511103Y-96466534D01*
X109476367Y-96485101D01*
X109438674Y-96496535D01*
X109393339Y-96501000D01*
X108556661Y-96501000D01*
X108511326Y-96496535D01*
X108473633Y-96485101D01*
X108438897Y-96466534D01*
X108408452Y-96441548D01*
X108383466Y-96411103D01*
X108364899Y-96376367D01*
X108353465Y-96338674D01*
X108349000Y-96293339D01*
X108349000Y-95206661D01*
X108353465Y-95161326D01*
X108364899Y-95123633D01*
X108383466Y-95088897D01*
X108408452Y-95058452D01*
X108438897Y-95033466D01*
X108473633Y-95014899D01*
X108511326Y-95003465D01*
X108556661Y-94999000D01*
X109393339Y-94999000D01*
X109438674Y-95003465D01*
X109438674Y-95003465D01*
G37*
G36*
X184076000Y-96201000D02*
G01*
X182724000Y-96201000D01*
X182724000Y-94599000D01*
X184076000Y-94599000D01*
X184076000Y-96201000D01*
X184076000Y-96201000D01*
G37*
G36*
X186576000Y-96051000D02*
G01*
X185224000Y-96051000D01*
X185224000Y-94449000D01*
X186576000Y-94449000D01*
X186576000Y-96051000D01*
X186576000Y-96051000D01*
G37*
G36*
X178801000Y-95051000D02*
G01*
X176699000Y-95051000D01*
X176699000Y-93949000D01*
X178801000Y-93949000D01*
X178801000Y-95051000D01*
X178801000Y-95051000D01*
G37*
G36*
X162801000Y-95051000D02*
G01*
X160699000Y-95051000D01*
X160699000Y-93949000D01*
X162801000Y-93949000D01*
X162801000Y-95051000D01*
X162801000Y-95051000D01*
G37*
G36*
X105451000Y-94451000D02*
G01*
X104049000Y-94451000D01*
X104049000Y-92849000D01*
X105451000Y-92849000D01*
X105451000Y-94451000D01*
X105451000Y-94451000D01*
G37*
G36*
X162801000Y-93051000D02*
G01*
X160699000Y-93051000D01*
X160699000Y-91949000D01*
X162801000Y-91949000D01*
X162801000Y-93051000D01*
X162801000Y-93051000D01*
G37*
G36*
X178801000Y-93051000D02*
G01*
X176699000Y-93051000D01*
X176699000Y-91949000D01*
X178801000Y-91949000D01*
X178801000Y-93051000D01*
X178801000Y-93051000D01*
G37*
G36*
X135676000Y-92101000D02*
G01*
X134824000Y-92101000D01*
X134824000Y-90799000D01*
X135676000Y-90799000D01*
X135676000Y-92101000D01*
X135676000Y-92101000D01*
G37*
G36*
X128176000Y-92101000D02*
G01*
X127324000Y-92101000D01*
X127324000Y-90799000D01*
X128176000Y-90799000D01*
X128176000Y-92101000D01*
X128176000Y-92101000D01*
G37*
G36*
X130401000Y-91901000D02*
G01*
X128999000Y-91901000D01*
X128999000Y-89799000D01*
X130401000Y-89799000D01*
X130401000Y-91901000D01*
X130401000Y-91901000D01*
G37*
G36*
X134101000Y-91901000D02*
G01*
X132699000Y-91901000D01*
X132699000Y-89799000D01*
X134101000Y-89799000D01*
X134101000Y-91901000D01*
X134101000Y-91901000D01*
G37*
G36*
X109843800Y-91639200D02*
G01*
X108573400Y-91639200D01*
X108573400Y-89860800D01*
X109843800Y-89860800D01*
X109843800Y-91639200D01*
X109843800Y-91639200D01*
G37*
G36*
X111926600Y-91639200D02*
G01*
X110656200Y-91639200D01*
X110656200Y-91181600D01*
X111926600Y-91181600D01*
X111926600Y-91639200D01*
X111926600Y-91639200D01*
G37*
G36*
X106301000Y-91176000D02*
G01*
X104699000Y-91176000D01*
X104699000Y-89824000D01*
X106301000Y-89824000D01*
X106301000Y-91176000D01*
X106301000Y-91176000D01*
G37*
G36*
X103801000Y-91176000D02*
G01*
X102199000Y-91176000D01*
X102199000Y-89824000D01*
X103801000Y-89824000D01*
X103801000Y-91176000D01*
X103801000Y-91176000D01*
G37*
G36*
X162801000Y-91051000D02*
G01*
X160699000Y-91051000D01*
X160699000Y-89949000D01*
X162801000Y-89949000D01*
X162801000Y-91051000D01*
X162801000Y-91051000D01*
G37*
G36*
X178801000Y-91051000D02*
G01*
X176699000Y-91051000D01*
X176699000Y-89949000D01*
X178801000Y-89949000D01*
X178801000Y-91051000D01*
X178801000Y-91051000D01*
G37*
G36*
X111926600Y-90318400D02*
G01*
X110656200Y-90318400D01*
X110656200Y-89860800D01*
X111926600Y-89860800D01*
X111926600Y-90318400D01*
X111926600Y-90318400D01*
G37*
G36*
X135676000Y-90201000D02*
G01*
X134824000Y-90201000D01*
X134824000Y-88899000D01*
X135676000Y-88899000D01*
X135676000Y-90201000D01*
X135676000Y-90201000D01*
G37*
G36*
X128176000Y-90201000D02*
G01*
X127324000Y-90201000D01*
X127324000Y-88899000D01*
X128176000Y-88899000D01*
X128176000Y-90201000D01*
X128176000Y-90201000D01*
G37*
G36*
X148426000Y-88914442D02*
G01*
X140574000Y-88914442D01*
X140574000Y-87812442D01*
X148426000Y-87812442D01*
X148426000Y-88914442D01*
X148426000Y-88914442D01*
G37*
G36*
X125188674Y-86853465D02*
G01*
X125226367Y-86864899D01*
X125261103Y-86883466D01*
X125291548Y-86908452D01*
X125316534Y-86938897D01*
X125335101Y-86973633D01*
X125346535Y-87011326D01*
X125351000Y-87056661D01*
X125351000Y-88143339D01*
X125346535Y-88188674D01*
X125335101Y-88226367D01*
X125316534Y-88261103D01*
X125291548Y-88291548D01*
X125261103Y-88316534D01*
X125226367Y-88335101D01*
X125188674Y-88346535D01*
X125143339Y-88351000D01*
X124306661Y-88351000D01*
X124261326Y-88346535D01*
X124223633Y-88335101D01*
X124188897Y-88316534D01*
X124158452Y-88291548D01*
X124133466Y-88261103D01*
X124114899Y-88226367D01*
X124103465Y-88188674D01*
X124099000Y-88143339D01*
X124099000Y-87056661D01*
X124103465Y-87011326D01*
X124114899Y-86973633D01*
X124133466Y-86938897D01*
X124158452Y-86908452D01*
X124188897Y-86883466D01*
X124223633Y-86864899D01*
X124261326Y-86853465D01*
X124306661Y-86849000D01*
X125143339Y-86849000D01*
X125188674Y-86853465D01*
X125188674Y-86853465D01*
G37*
G36*
X123138674Y-86853465D02*
G01*
X123176367Y-86864899D01*
X123211103Y-86883466D01*
X123241548Y-86908452D01*
X123266534Y-86938897D01*
X123285101Y-86973633D01*
X123296535Y-87011326D01*
X123301000Y-87056661D01*
X123301000Y-88143339D01*
X123296535Y-88188674D01*
X123285101Y-88226367D01*
X123266534Y-88261103D01*
X123241548Y-88291548D01*
X123211103Y-88316534D01*
X123176367Y-88335101D01*
X123138674Y-88346535D01*
X123093339Y-88351000D01*
X122256661Y-88351000D01*
X122211326Y-88346535D01*
X122173633Y-88335101D01*
X122138897Y-88316534D01*
X122108452Y-88291548D01*
X122083466Y-88261103D01*
X122064899Y-88226367D01*
X122053465Y-88188674D01*
X122049000Y-88143339D01*
X122049000Y-87056661D01*
X122053465Y-87011326D01*
X122064899Y-86973633D01*
X122083466Y-86938897D01*
X122108452Y-86908452D01*
X122138897Y-86883466D01*
X122173633Y-86864899D01*
X122211326Y-86853465D01*
X122256661Y-86849000D01*
X123093339Y-86849000D01*
X123138674Y-86853465D01*
X123138674Y-86853465D01*
G37*
G36*
X104438674Y-86753465D02*
G01*
X104476367Y-86764899D01*
X104511103Y-86783466D01*
X104541548Y-86808452D01*
X104566534Y-86838897D01*
X104585101Y-86873633D01*
X104596535Y-86911326D01*
X104601000Y-86956661D01*
X104601000Y-88043339D01*
X104596535Y-88088674D01*
X104585101Y-88126367D01*
X104566534Y-88161103D01*
X104541548Y-88191548D01*
X104511103Y-88216534D01*
X104476367Y-88235101D01*
X104438674Y-88246535D01*
X104393339Y-88251000D01*
X103556661Y-88251000D01*
X103511326Y-88246535D01*
X103473633Y-88235101D01*
X103438897Y-88216534D01*
X103408452Y-88191548D01*
X103383466Y-88161103D01*
X103364899Y-88126367D01*
X103353465Y-88088674D01*
X103349000Y-88043339D01*
X103349000Y-86956661D01*
X103353465Y-86911326D01*
X103364899Y-86873633D01*
X103383466Y-86838897D01*
X103408452Y-86808452D01*
X103438897Y-86783466D01*
X103473633Y-86764899D01*
X103511326Y-86753465D01*
X103556661Y-86749000D01*
X104393339Y-86749000D01*
X104438674Y-86753465D01*
X104438674Y-86753465D01*
G37*
G36*
X106488674Y-86753465D02*
G01*
X106526367Y-86764899D01*
X106561103Y-86783466D01*
X106591548Y-86808452D01*
X106616534Y-86838897D01*
X106635101Y-86873633D01*
X106646535Y-86911326D01*
X106651000Y-86956661D01*
X106651000Y-88043339D01*
X106646535Y-88088674D01*
X106635101Y-88126367D01*
X106616534Y-88161103D01*
X106591548Y-88191548D01*
X106561103Y-88216534D01*
X106526367Y-88235101D01*
X106488674Y-88246535D01*
X106443339Y-88251000D01*
X105606661Y-88251000D01*
X105561326Y-88246535D01*
X105523633Y-88235101D01*
X105488897Y-88216534D01*
X105458452Y-88191548D01*
X105433466Y-88161103D01*
X105414899Y-88126367D01*
X105403465Y-88088674D01*
X105399000Y-88043339D01*
X105399000Y-86956661D01*
X105403465Y-86911326D01*
X105414899Y-86873633D01*
X105433466Y-86838897D01*
X105458452Y-86808452D01*
X105488897Y-86783466D01*
X105523633Y-86764899D01*
X105561326Y-86753465D01*
X105606661Y-86749000D01*
X106443339Y-86749000D01*
X106488674Y-86753465D01*
X106488674Y-86753465D01*
G37*
G36*
X131801000Y-87676000D02*
G01*
X130199000Y-87676000D01*
X130199000Y-86324000D01*
X131801000Y-86324000D01*
X131801000Y-87676000D01*
X131801000Y-87676000D01*
G37*
G36*
X134301000Y-87676000D02*
G01*
X132699000Y-87676000D01*
X132699000Y-86324000D01*
X134301000Y-86324000D01*
X134301000Y-87676000D01*
X134301000Y-87676000D01*
G37*
G36*
X151251000Y-86376000D02*
G01*
X149649000Y-86376000D01*
X149649000Y-85024000D01*
X151251000Y-85024000D01*
X151251000Y-86376000D01*
X151251000Y-86376000D01*
G37*
G36*
X153751000Y-86376000D02*
G01*
X152149000Y-86376000D01*
X152149000Y-85024000D01*
X153751000Y-85024000D01*
X153751000Y-86376000D01*
X153751000Y-86376000D01*
G37*
G36*
X117776000Y-85876000D02*
G01*
X116224000Y-85876000D01*
X116224000Y-76124000D01*
X117776000Y-76124000D01*
X117776000Y-85876000D01*
X117776000Y-85876000D01*
G37*
G36*
X126776000Y-85876000D02*
G01*
X125224000Y-85876000D01*
X125224000Y-76124000D01*
X126776000Y-76124000D01*
X126776000Y-85876000D01*
X126776000Y-85876000D01*
G37*
G36*
X131951000Y-85451000D02*
G01*
X130349000Y-85451000D01*
X130349000Y-84049000D01*
X131951000Y-84049000D01*
X131951000Y-85451000D01*
X131951000Y-85451000D01*
G37*
G36*
X134651000Y-85451000D02*
G01*
X133049000Y-85451000D01*
X133049000Y-84049000D01*
X134651000Y-84049000D01*
X134651000Y-85451000D01*
X134651000Y-85451000D01*
G37*
G36*
X113838674Y-81903465D02*
G01*
X113876367Y-81914899D01*
X113911103Y-81933466D01*
X113941548Y-81958452D01*
X113966534Y-81988897D01*
X113985101Y-82023633D01*
X113996535Y-82061326D01*
X114001000Y-82106661D01*
X114001000Y-82943339D01*
X113996535Y-82988674D01*
X113985101Y-83026367D01*
X113966534Y-83061103D01*
X113941548Y-83091548D01*
X113911103Y-83116534D01*
X113876367Y-83135101D01*
X113838674Y-83146535D01*
X113793339Y-83151000D01*
X112706661Y-83151000D01*
X112661326Y-83146535D01*
X112623633Y-83135101D01*
X112588897Y-83116534D01*
X112558452Y-83091548D01*
X112533466Y-83061103D01*
X112514899Y-83026367D01*
X112503465Y-82988674D01*
X112499000Y-82943339D01*
X112499000Y-82106661D01*
X112503465Y-82061326D01*
X112514899Y-82023633D01*
X112533466Y-81988897D01*
X112558452Y-81958452D01*
X112588897Y-81933466D01*
X112623633Y-81914899D01*
X112661326Y-81903465D01*
X112706661Y-81899000D01*
X113793339Y-81899000D01*
X113838674Y-81903465D01*
X113838674Y-81903465D01*
G37*
G36*
X132688674Y-81503465D02*
G01*
X132726367Y-81514899D01*
X132761103Y-81533466D01*
X132791548Y-81558452D01*
X132816534Y-81588897D01*
X132835101Y-81623633D01*
X132846535Y-81661326D01*
X132851000Y-81706661D01*
X132851000Y-82793339D01*
X132846535Y-82838674D01*
X132835101Y-82876367D01*
X132816534Y-82911103D01*
X132791548Y-82941548D01*
X132761103Y-82966534D01*
X132726367Y-82985101D01*
X132688674Y-82996535D01*
X132643339Y-83001000D01*
X131806661Y-83001000D01*
X131761326Y-82996535D01*
X131723633Y-82985101D01*
X131688897Y-82966534D01*
X131658452Y-82941548D01*
X131633466Y-82911103D01*
X131614899Y-82876367D01*
X131603465Y-82838674D01*
X131599000Y-82793339D01*
X131599000Y-81706661D01*
X131603465Y-81661326D01*
X131614899Y-81623633D01*
X131633466Y-81588897D01*
X131658452Y-81558452D01*
X131688897Y-81533466D01*
X131723633Y-81514899D01*
X131761326Y-81503465D01*
X131806661Y-81499000D01*
X132643339Y-81499000D01*
X132688674Y-81503465D01*
X132688674Y-81503465D01*
G37*
G36*
X134738674Y-81503465D02*
G01*
X134776367Y-81514899D01*
X134811103Y-81533466D01*
X134841548Y-81558452D01*
X134866534Y-81588897D01*
X134885101Y-81623633D01*
X134896535Y-81661326D01*
X134901000Y-81706661D01*
X134901000Y-82793339D01*
X134896535Y-82838674D01*
X134885101Y-82876367D01*
X134866534Y-82911103D01*
X134841548Y-82941548D01*
X134811103Y-82966534D01*
X134776367Y-82985101D01*
X134738674Y-82996535D01*
X134693339Y-83001000D01*
X133856661Y-83001000D01*
X133811326Y-82996535D01*
X133773633Y-82985101D01*
X133738897Y-82966534D01*
X133708452Y-82941548D01*
X133683466Y-82911103D01*
X133664899Y-82876367D01*
X133653465Y-82838674D01*
X133649000Y-82793339D01*
X133649000Y-81706661D01*
X133653465Y-81661326D01*
X133664899Y-81623633D01*
X133683466Y-81588897D01*
X133708452Y-81558452D01*
X133738897Y-81533466D01*
X133773633Y-81514899D01*
X133811326Y-81503465D01*
X133856661Y-81499000D01*
X134693339Y-81499000D01*
X134738674Y-81503465D01*
X134738674Y-81503465D01*
G37*
G36*
X111261000Y-81851000D02*
G01*
X110739000Y-81851000D01*
X110739000Y-81199000D01*
X111261000Y-81199000D01*
X111261000Y-81851000D01*
X111261000Y-81851000D01*
G37*
G36*
X102391560Y-79139064D02*
G01*
X102543027Y-79169193D01*
X102757045Y-79257842D01*
X102757046Y-79257843D01*
X102949654Y-79386539D01*
X103113461Y-79550346D01*
X103179379Y-79649000D01*
X103242158Y-79742955D01*
X103330807Y-79956973D01*
X103355872Y-80082983D01*
X103364502Y-80126367D01*
X103376000Y-80184174D01*
X103376000Y-80415826D01*
X103330807Y-80643027D01*
X103242158Y-80857045D01*
X103217907Y-80893339D01*
X103113461Y-81049654D01*
X102949654Y-81213461D01*
X102821249Y-81299258D01*
X102757045Y-81342158D01*
X102543027Y-81430807D01*
X102391560Y-81460936D01*
X102315827Y-81476000D01*
X102084173Y-81476000D01*
X102008440Y-81460936D01*
X101856973Y-81430807D01*
X101642955Y-81342158D01*
X101578751Y-81299258D01*
X101450346Y-81213461D01*
X101286539Y-81049654D01*
X101182093Y-80893339D01*
X101157842Y-80857045D01*
X101069193Y-80643027D01*
X101024000Y-80415826D01*
X101024000Y-80184174D01*
X101035499Y-80126367D01*
X101044128Y-80082983D01*
X101069193Y-79956973D01*
X101157842Y-79742955D01*
X101220621Y-79649000D01*
X101286539Y-79550346D01*
X101450346Y-79386539D01*
X101642954Y-79257843D01*
X101642955Y-79257842D01*
X101856973Y-79169193D01*
X102008440Y-79139064D01*
X102084173Y-79124000D01*
X102315827Y-79124000D01*
X102391560Y-79139064D01*
X102391560Y-79139064D01*
G37*
G36*
X107491560Y-79139064D02*
G01*
X107643027Y-79169193D01*
X107857045Y-79257842D01*
X107857046Y-79257843D01*
X108049654Y-79386539D01*
X108213461Y-79550346D01*
X108279379Y-79649000D01*
X108342158Y-79742955D01*
X108430807Y-79956973D01*
X108455872Y-80082983D01*
X108464502Y-80126367D01*
X108476000Y-80184174D01*
X108476000Y-80415826D01*
X108430807Y-80643027D01*
X108342158Y-80857045D01*
X108317907Y-80893339D01*
X108213461Y-81049654D01*
X108049654Y-81213461D01*
X107921249Y-81299258D01*
X107857045Y-81342158D01*
X107643027Y-81430807D01*
X107491560Y-81460936D01*
X107415827Y-81476000D01*
X107184173Y-81476000D01*
X107108440Y-81460936D01*
X106956973Y-81430807D01*
X106742955Y-81342158D01*
X106678751Y-81299258D01*
X106550346Y-81213461D01*
X106386539Y-81049654D01*
X106282093Y-80893339D01*
X106257842Y-80857045D01*
X106169193Y-80643027D01*
X106124000Y-80415826D01*
X106124000Y-80184174D01*
X106135499Y-80126367D01*
X106144128Y-80082983D01*
X106169193Y-79956973D01*
X106257842Y-79742955D01*
X106320621Y-79649000D01*
X106386539Y-79550346D01*
X106550346Y-79386539D01*
X106742954Y-79257843D01*
X106742955Y-79257842D01*
X106956973Y-79169193D01*
X107108440Y-79139064D01*
X107184173Y-79124000D01*
X107415827Y-79124000D01*
X107491560Y-79139064D01*
X107491560Y-79139064D01*
G37*
G36*
X113838674Y-79853465D02*
G01*
X113876367Y-79864899D01*
X113911103Y-79883466D01*
X113941548Y-79908452D01*
X113966534Y-79938897D01*
X113985101Y-79973633D01*
X113996535Y-80011326D01*
X114001000Y-80056661D01*
X114001000Y-80893339D01*
X113996535Y-80938674D01*
X113985101Y-80976367D01*
X113966534Y-81011103D01*
X113941548Y-81041548D01*
X113911103Y-81066534D01*
X113876367Y-81085101D01*
X113838674Y-81096535D01*
X113793339Y-81101000D01*
X112706661Y-81101000D01*
X112661326Y-81096535D01*
X112623633Y-81085101D01*
X112588897Y-81066534D01*
X112558452Y-81041548D01*
X112533466Y-81011103D01*
X112514899Y-80976367D01*
X112503465Y-80938674D01*
X112499000Y-80893339D01*
X112499000Y-80056661D01*
X112503465Y-80011326D01*
X112514899Y-79973633D01*
X112533466Y-79938897D01*
X112558452Y-79908452D01*
X112588897Y-79883466D01*
X112623633Y-79864899D01*
X112661326Y-79853465D01*
X112706661Y-79849000D01*
X113793339Y-79849000D01*
X113838674Y-79853465D01*
X113838674Y-79853465D01*
G37*
G36*
X111261000Y-80301000D02*
G01*
X110739000Y-80301000D01*
X110739000Y-79649000D01*
X111261000Y-79649000D01*
X111261000Y-80301000D01*
X111261000Y-80301000D01*
G37*
G36*
X134738674Y-78753465D02*
G01*
X134776367Y-78764899D01*
X134811103Y-78783466D01*
X134841548Y-78808452D01*
X134866534Y-78838897D01*
X134885101Y-78873633D01*
X134896535Y-78911326D01*
X134901000Y-78956661D01*
X134901000Y-80043339D01*
X134896535Y-80088674D01*
X134885101Y-80126367D01*
X134866534Y-80161103D01*
X134841548Y-80191548D01*
X134811103Y-80216534D01*
X134776367Y-80235101D01*
X134738674Y-80246535D01*
X134693339Y-80251000D01*
X133856661Y-80251000D01*
X133811326Y-80246535D01*
X133773633Y-80235101D01*
X133738897Y-80216534D01*
X133708452Y-80191548D01*
X133683466Y-80161103D01*
X133664899Y-80126367D01*
X133653465Y-80088674D01*
X133649000Y-80043339D01*
X133649000Y-78956661D01*
X133653465Y-78911326D01*
X133664899Y-78873633D01*
X133683466Y-78838897D01*
X133708452Y-78808452D01*
X133738897Y-78783466D01*
X133773633Y-78764899D01*
X133811326Y-78753465D01*
X133856661Y-78749000D01*
X134693339Y-78749000D01*
X134738674Y-78753465D01*
X134738674Y-78753465D01*
G37*
G36*
X132688674Y-78753465D02*
G01*
X132726367Y-78764899D01*
X132761103Y-78783466D01*
X132791548Y-78808452D01*
X132816534Y-78838897D01*
X132835101Y-78873633D01*
X132846535Y-78911326D01*
X132851000Y-78956661D01*
X132851000Y-80043339D01*
X132846535Y-80088674D01*
X132835101Y-80126367D01*
X132816534Y-80161103D01*
X132791548Y-80191548D01*
X132761103Y-80216534D01*
X132726367Y-80235101D01*
X132688674Y-80246535D01*
X132643339Y-80251000D01*
X131806661Y-80251000D01*
X131761326Y-80246535D01*
X131723633Y-80235101D01*
X131688897Y-80216534D01*
X131658452Y-80191548D01*
X131633466Y-80161103D01*
X131614899Y-80126367D01*
X131603465Y-80088674D01*
X131599000Y-80043339D01*
X131599000Y-78956661D01*
X131603465Y-78911326D01*
X131614899Y-78873633D01*
X131633466Y-78838897D01*
X131658452Y-78808452D01*
X131688897Y-78783466D01*
X131723633Y-78764899D01*
X131761326Y-78753465D01*
X131806661Y-78749000D01*
X132643339Y-78749000D01*
X132688674Y-78753465D01*
X132688674Y-78753465D01*
G37*
G36*
X178351000Y-79751000D02*
G01*
X176649000Y-79751000D01*
X176649000Y-76649000D01*
X178351000Y-76649000D01*
X178351000Y-79751000D01*
X178351000Y-79751000D01*
G37*
G36*
X171851000Y-79751000D02*
G01*
X170149000Y-79751000D01*
X170149000Y-76649000D01*
X171851000Y-76649000D01*
X171851000Y-79751000D01*
X171851000Y-79751000D01*
G37*
G36*
X164351000Y-79751000D02*
G01*
X162649000Y-79751000D01*
X162649000Y-76649000D01*
X164351000Y-76649000D01*
X164351000Y-79751000D01*
X164351000Y-79751000D01*
G37*
G36*
X187851000Y-79751000D02*
G01*
X186149000Y-79751000D01*
X186149000Y-76649000D01*
X187851000Y-76649000D01*
X187851000Y-79751000D01*
X187851000Y-79751000D01*
G37*
G36*
X104964794Y-76670155D02*
G01*
X105071150Y-76691311D01*
X105271520Y-76774307D01*
X105451844Y-76894795D01*
X105605205Y-77048156D01*
X105725693Y-77228480D01*
X105808689Y-77428851D01*
X105851000Y-77641560D01*
X105851000Y-77858440D01*
X105808689Y-78071149D01*
X105725693Y-78271520D01*
X105605205Y-78451844D01*
X105451844Y-78605205D01*
X105271520Y-78725693D01*
X105204472Y-78753465D01*
X105071150Y-78808689D01*
X104970458Y-78828718D01*
X104858440Y-78851000D01*
X104641560Y-78851000D01*
X104529542Y-78828718D01*
X104428850Y-78808689D01*
X104295528Y-78753465D01*
X104228480Y-78725693D01*
X104048156Y-78605205D01*
X103894795Y-78451844D01*
X103774307Y-78271520D01*
X103691311Y-78071149D01*
X103649000Y-77858440D01*
X103649000Y-77641560D01*
X103691311Y-77428851D01*
X103774307Y-77228480D01*
X103894795Y-77048156D01*
X104048156Y-76894795D01*
X104228480Y-76774307D01*
X104328666Y-76732809D01*
X104428850Y-76691311D01*
X104535206Y-76670155D01*
X104641560Y-76649000D01*
X104858440Y-76649000D01*
X104964794Y-76670155D01*
X104964794Y-76670155D01*
G37*
G36*
X112938674Y-77003465D02*
G01*
X112976367Y-77014899D01*
X113011103Y-77033466D01*
X113041548Y-77058452D01*
X113066534Y-77088897D01*
X113085101Y-77123633D01*
X113096535Y-77161326D01*
X113101000Y-77206661D01*
X113101000Y-78293339D01*
X113096535Y-78338674D01*
X113085101Y-78376367D01*
X113066534Y-78411103D01*
X113041548Y-78441548D01*
X113011103Y-78466534D01*
X112976367Y-78485101D01*
X112938674Y-78496535D01*
X112893339Y-78501000D01*
X112056661Y-78501000D01*
X112011326Y-78496535D01*
X111973633Y-78485101D01*
X111938897Y-78466534D01*
X111908452Y-78441548D01*
X111883466Y-78411103D01*
X111864899Y-78376367D01*
X111853465Y-78338674D01*
X111849000Y-78293339D01*
X111849000Y-77206661D01*
X111853465Y-77161326D01*
X111864899Y-77123633D01*
X111883466Y-77088897D01*
X111908452Y-77058452D01*
X111938897Y-77033466D01*
X111973633Y-77014899D01*
X112011326Y-77003465D01*
X112056661Y-76999000D01*
X112893339Y-76999000D01*
X112938674Y-77003465D01*
X112938674Y-77003465D01*
G37*
G36*
X114988674Y-77003465D02*
G01*
X115026367Y-77014899D01*
X115061103Y-77033466D01*
X115091548Y-77058452D01*
X115116534Y-77088897D01*
X115135101Y-77123633D01*
X115146535Y-77161326D01*
X115151000Y-77206661D01*
X115151000Y-78293339D01*
X115146535Y-78338674D01*
X115135101Y-78376367D01*
X115116534Y-78411103D01*
X115091548Y-78441548D01*
X115061103Y-78466534D01*
X115026367Y-78485101D01*
X114988674Y-78496535D01*
X114943339Y-78501000D01*
X114106661Y-78501000D01*
X114061326Y-78496535D01*
X114023633Y-78485101D01*
X113988897Y-78466534D01*
X113958452Y-78441548D01*
X113933466Y-78411103D01*
X113914899Y-78376367D01*
X113903465Y-78338674D01*
X113899000Y-78293339D01*
X113899000Y-77206661D01*
X113903465Y-77161326D01*
X113914899Y-77123633D01*
X113933466Y-77088897D01*
X113958452Y-77058452D01*
X113988897Y-77033466D01*
X114023633Y-77014899D01*
X114061326Y-77003465D01*
X114106661Y-76999000D01*
X114943339Y-76999000D01*
X114988674Y-77003465D01*
X114988674Y-77003465D01*
G37*
G36*
X131638674Y-76253465D02*
G01*
X131676367Y-76264899D01*
X131711103Y-76283466D01*
X131741548Y-76308452D01*
X131766534Y-76338897D01*
X131785101Y-76373633D01*
X131796535Y-76411326D01*
X131801000Y-76456661D01*
X131801000Y-77543339D01*
X131796535Y-77588674D01*
X131785101Y-77626367D01*
X131766534Y-77661103D01*
X131741548Y-77691548D01*
X131711103Y-77716534D01*
X131676367Y-77735101D01*
X131638674Y-77746535D01*
X131593339Y-77751000D01*
X130756661Y-77751000D01*
X130711326Y-77746535D01*
X130673633Y-77735101D01*
X130638897Y-77716534D01*
X130608452Y-77691548D01*
X130583466Y-77661103D01*
X130564899Y-77626367D01*
X130553465Y-77588674D01*
X130549000Y-77543339D01*
X130549000Y-76456661D01*
X130553465Y-76411326D01*
X130564899Y-76373633D01*
X130583466Y-76338897D01*
X130608452Y-76308452D01*
X130638897Y-76283466D01*
X130673633Y-76264899D01*
X130711326Y-76253465D01*
X130756661Y-76249000D01*
X131593339Y-76249000D01*
X131638674Y-76253465D01*
X131638674Y-76253465D01*
G37*
G36*
X133688674Y-76253465D02*
G01*
X133726367Y-76264899D01*
X133761103Y-76283466D01*
X133791548Y-76308452D01*
X133816534Y-76338897D01*
X133835101Y-76373633D01*
X133846535Y-76411326D01*
X133851000Y-76456661D01*
X133851000Y-77543339D01*
X133846535Y-77588674D01*
X133835101Y-77626367D01*
X133816534Y-77661103D01*
X133791548Y-77691548D01*
X133761103Y-77716534D01*
X133726367Y-77735101D01*
X133688674Y-77746535D01*
X133643339Y-77751000D01*
X132806661Y-77751000D01*
X132761326Y-77746535D01*
X132723633Y-77735101D01*
X132688897Y-77716534D01*
X132658452Y-77691548D01*
X132633466Y-77661103D01*
X132614899Y-77626367D01*
X132603465Y-77588674D01*
X132599000Y-77543339D01*
X132599000Y-76456661D01*
X132603465Y-76411326D01*
X132614899Y-76373633D01*
X132633466Y-76338897D01*
X132658452Y-76308452D01*
X132688897Y-76283466D01*
X132723633Y-76264899D01*
X132761326Y-76253465D01*
X132806661Y-76249000D01*
X133643339Y-76249000D01*
X133688674Y-76253465D01*
X133688674Y-76253465D01*
G37*
G36*
X102391560Y-74039064D02*
G01*
X102543027Y-74069193D01*
X102757045Y-74157842D01*
X102757046Y-74157843D01*
X102949654Y-74286539D01*
X103113461Y-74450346D01*
X103199258Y-74578751D01*
X103242158Y-74642955D01*
X103330807Y-74856973D01*
X103330807Y-74856975D01*
X103376000Y-75084173D01*
X103376000Y-75315827D01*
X103360936Y-75391560D01*
X103330807Y-75543027D01*
X103242158Y-75757045D01*
X103242157Y-75757046D01*
X103113461Y-75949654D01*
X102949654Y-76113461D01*
X102821249Y-76199258D01*
X102757045Y-76242158D01*
X102543027Y-76330807D01*
X102391560Y-76360936D01*
X102315827Y-76376000D01*
X102084173Y-76376000D01*
X102008440Y-76360936D01*
X101856973Y-76330807D01*
X101642955Y-76242158D01*
X101578751Y-76199258D01*
X101450346Y-76113461D01*
X101286539Y-75949654D01*
X101157843Y-75757046D01*
X101157842Y-75757045D01*
X101069193Y-75543027D01*
X101039064Y-75391560D01*
X101024000Y-75315827D01*
X101024000Y-75084173D01*
X101069193Y-74856975D01*
X101069193Y-74856973D01*
X101157842Y-74642955D01*
X101200742Y-74578751D01*
X101286539Y-74450346D01*
X101450346Y-74286539D01*
X101642954Y-74157843D01*
X101642955Y-74157842D01*
X101856973Y-74069193D01*
X102008440Y-74039064D01*
X102084173Y-74024000D01*
X102315827Y-74024000D01*
X102391560Y-74039064D01*
X102391560Y-74039064D01*
G37*
G36*
X107491560Y-74039064D02*
G01*
X107643027Y-74069193D01*
X107857045Y-74157842D01*
X107857046Y-74157843D01*
X108049654Y-74286539D01*
X108213461Y-74450346D01*
X108299258Y-74578751D01*
X108342158Y-74642955D01*
X108430807Y-74856973D01*
X108430807Y-74856975D01*
X108476000Y-75084173D01*
X108476000Y-75315827D01*
X108460936Y-75391560D01*
X108430807Y-75543027D01*
X108342158Y-75757045D01*
X108342157Y-75757046D01*
X108213461Y-75949654D01*
X108049654Y-76113461D01*
X107921249Y-76199258D01*
X107857045Y-76242158D01*
X107643027Y-76330807D01*
X107491560Y-76360936D01*
X107415827Y-76376000D01*
X107184173Y-76376000D01*
X107108440Y-76360936D01*
X106956973Y-76330807D01*
X106742955Y-76242158D01*
X106678751Y-76199258D01*
X106550346Y-76113461D01*
X106386539Y-75949654D01*
X106257843Y-75757046D01*
X106257842Y-75757045D01*
X106169193Y-75543027D01*
X106139064Y-75391560D01*
X106124000Y-75315827D01*
X106124000Y-75084173D01*
X106169193Y-74856975D01*
X106169193Y-74856973D01*
X106257842Y-74642955D01*
X106300742Y-74578751D01*
X106386539Y-74450346D01*
X106550346Y-74286539D01*
X106742954Y-74157843D01*
X106742955Y-74157842D01*
X106956973Y-74069193D01*
X107108440Y-74039064D01*
X107184173Y-74024000D01*
X107415827Y-74024000D01*
X107491560Y-74039064D01*
X107491560Y-74039064D01*
G37*
G36*
X178351000Y-75351000D02*
G01*
X176649000Y-75351000D01*
X176649000Y-72249000D01*
X178351000Y-72249000D01*
X178351000Y-75351000D01*
X178351000Y-75351000D01*
G37*
G36*
X187851000Y-75351000D02*
G01*
X186149000Y-75351000D01*
X186149000Y-72249000D01*
X187851000Y-72249000D01*
X187851000Y-75351000D01*
X187851000Y-75351000D01*
G37*
G36*
X164351000Y-75351000D02*
G01*
X162649000Y-75351000D01*
X162649000Y-72249000D01*
X164351000Y-72249000D01*
X164351000Y-75351000D01*
X164351000Y-75351000D01*
G37*
G36*
X171851000Y-75351000D02*
G01*
X170149000Y-75351000D01*
X170149000Y-72249000D01*
X171851000Y-72249000D01*
X171851000Y-75351000D01*
X171851000Y-75351000D01*
G37*
G36*
X131688674Y-73753465D02*
G01*
X131726367Y-73764899D01*
X131761103Y-73783466D01*
X131791548Y-73808452D01*
X131816534Y-73838897D01*
X131835101Y-73873633D01*
X131846535Y-73911326D01*
X131851000Y-73956661D01*
X131851000Y-75043339D01*
X131846535Y-75088674D01*
X131835101Y-75126367D01*
X131816534Y-75161103D01*
X131791548Y-75191548D01*
X131761103Y-75216534D01*
X131726367Y-75235101D01*
X131688674Y-75246535D01*
X131643339Y-75251000D01*
X130806661Y-75251000D01*
X130761326Y-75246535D01*
X130723633Y-75235101D01*
X130688897Y-75216534D01*
X130658452Y-75191548D01*
X130633466Y-75161103D01*
X130614899Y-75126367D01*
X130603465Y-75088674D01*
X130599000Y-75043339D01*
X130599000Y-73956661D01*
X130603465Y-73911326D01*
X130614899Y-73873633D01*
X130633466Y-73838897D01*
X130658452Y-73808452D01*
X130688897Y-73783466D01*
X130723633Y-73764899D01*
X130761326Y-73753465D01*
X130806661Y-73749000D01*
X131643339Y-73749000D01*
X131688674Y-73753465D01*
X131688674Y-73753465D01*
G37*
G36*
X136438674Y-73753465D02*
G01*
X136476367Y-73764899D01*
X136511103Y-73783466D01*
X136541548Y-73808452D01*
X136566534Y-73838897D01*
X136585101Y-73873633D01*
X136596535Y-73911326D01*
X136601000Y-73956661D01*
X136601000Y-75043339D01*
X136596535Y-75088674D01*
X136585101Y-75126367D01*
X136566534Y-75161103D01*
X136541548Y-75191548D01*
X136511103Y-75216534D01*
X136476367Y-75235101D01*
X136438674Y-75246535D01*
X136393339Y-75251000D01*
X135556661Y-75251000D01*
X135511326Y-75246535D01*
X135473633Y-75235101D01*
X135438897Y-75216534D01*
X135408452Y-75191548D01*
X135383466Y-75161103D01*
X135364899Y-75126367D01*
X135353465Y-75088674D01*
X135349000Y-75043339D01*
X135349000Y-73956661D01*
X135353465Y-73911326D01*
X135364899Y-73873633D01*
X135383466Y-73838897D01*
X135408452Y-73808452D01*
X135438897Y-73783466D01*
X135473633Y-73764899D01*
X135511326Y-73753465D01*
X135556661Y-73749000D01*
X136393339Y-73749000D01*
X136438674Y-73753465D01*
X136438674Y-73753465D01*
G37*
G36*
X138488674Y-73753465D02*
G01*
X138526367Y-73764899D01*
X138561103Y-73783466D01*
X138591548Y-73808452D01*
X138616534Y-73838897D01*
X138635101Y-73873633D01*
X138646535Y-73911326D01*
X138651000Y-73956661D01*
X138651000Y-75043339D01*
X138646535Y-75088674D01*
X138635101Y-75126367D01*
X138616534Y-75161103D01*
X138591548Y-75191548D01*
X138561103Y-75216534D01*
X138526367Y-75235101D01*
X138488674Y-75246535D01*
X138443339Y-75251000D01*
X137606661Y-75251000D01*
X137561326Y-75246535D01*
X137523633Y-75235101D01*
X137488897Y-75216534D01*
X137458452Y-75191548D01*
X137433466Y-75161103D01*
X137414899Y-75126367D01*
X137403465Y-75088674D01*
X137399000Y-75043339D01*
X137399000Y-73956661D01*
X137403465Y-73911326D01*
X137414899Y-73873633D01*
X137433466Y-73838897D01*
X137458452Y-73808452D01*
X137488897Y-73783466D01*
X137523633Y-73764899D01*
X137561326Y-73753465D01*
X137606661Y-73749000D01*
X138443339Y-73749000D01*
X138488674Y-73753465D01*
X138488674Y-73753465D01*
G37*
G36*
X133738674Y-73753465D02*
G01*
X133776367Y-73764899D01*
X133811103Y-73783466D01*
X133841548Y-73808452D01*
X133866534Y-73838897D01*
X133885101Y-73873633D01*
X133896535Y-73911326D01*
X133901000Y-73956661D01*
X133901000Y-75043339D01*
X133896535Y-75088674D01*
X133885101Y-75126367D01*
X133866534Y-75161103D01*
X133841548Y-75191548D01*
X133811103Y-75216534D01*
X133776367Y-75235101D01*
X133738674Y-75246535D01*
X133693339Y-75251000D01*
X132856661Y-75251000D01*
X132811326Y-75246535D01*
X132773633Y-75235101D01*
X132738897Y-75216534D01*
X132708452Y-75191548D01*
X132683466Y-75161103D01*
X132664899Y-75126367D01*
X132653465Y-75088674D01*
X132649000Y-75043339D01*
X132649000Y-73956661D01*
X132653465Y-73911326D01*
X132664899Y-73873633D01*
X132683466Y-73838897D01*
X132708452Y-73808452D01*
X132738897Y-73783466D01*
X132773633Y-73764899D01*
X132811326Y-73753465D01*
X132856661Y-73749000D01*
X133693339Y-73749000D01*
X133738674Y-73753465D01*
X133738674Y-73753465D01*
G37*
G36*
X149711766Y-71401899D02*
G01*
X149843888Y-71456626D01*
X149843890Y-71456627D01*
X149962798Y-71536079D01*
X150063921Y-71637202D01*
X150143373Y-71756110D01*
X150143374Y-71756112D01*
X150198101Y-71888234D01*
X150226000Y-72028494D01*
X150226000Y-72171506D01*
X150198101Y-72311766D01*
X150143374Y-72443888D01*
X150143373Y-72443890D01*
X150063921Y-72562798D01*
X149962798Y-72663921D01*
X149843890Y-72743373D01*
X149843889Y-72743374D01*
X149843888Y-72743374D01*
X149711766Y-72798101D01*
X149571506Y-72826000D01*
X149428494Y-72826000D01*
X149288234Y-72798101D01*
X149156112Y-72743374D01*
X149156111Y-72743374D01*
X149156110Y-72743373D01*
X149037202Y-72663921D01*
X148936079Y-72562798D01*
X148856627Y-72443890D01*
X148856626Y-72443888D01*
X148801899Y-72311766D01*
X148774000Y-72171506D01*
X148774000Y-72028494D01*
X148801899Y-71888234D01*
X148856626Y-71756112D01*
X148856627Y-71756110D01*
X148936079Y-71637202D01*
X149037202Y-71536079D01*
X149156110Y-71456627D01*
X149156112Y-71456626D01*
X149288234Y-71401899D01*
X149428494Y-71374000D01*
X149571506Y-71374000D01*
X149711766Y-71401899D01*
X149711766Y-71401899D01*
G37*
G36*
X151711766Y-71401899D02*
G01*
X151843888Y-71456626D01*
X151843890Y-71456627D01*
X151962798Y-71536079D01*
X152063921Y-71637202D01*
X152143373Y-71756110D01*
X152143374Y-71756112D01*
X152198101Y-71888234D01*
X152226000Y-72028494D01*
X152226000Y-72171506D01*
X152198101Y-72311766D01*
X152143374Y-72443888D01*
X152143373Y-72443890D01*
X152063921Y-72562798D01*
X151962798Y-72663921D01*
X151843890Y-72743373D01*
X151843889Y-72743374D01*
X151843888Y-72743374D01*
X151711766Y-72798101D01*
X151571506Y-72826000D01*
X151428494Y-72826000D01*
X151288234Y-72798101D01*
X151156112Y-72743374D01*
X151156111Y-72743374D01*
X151156110Y-72743373D01*
X151037202Y-72663921D01*
X150936079Y-72562798D01*
X150856627Y-72443890D01*
X150856626Y-72443888D01*
X150801899Y-72311766D01*
X150774000Y-72171506D01*
X150774000Y-72028494D01*
X150801899Y-71888234D01*
X150856626Y-71756112D01*
X150856627Y-71756110D01*
X150936079Y-71637202D01*
X151037202Y-71536079D01*
X151156110Y-71456627D01*
X151156112Y-71456626D01*
X151288234Y-71401899D01*
X151428494Y-71374000D01*
X151571506Y-71374000D01*
X151711766Y-71401899D01*
X151711766Y-71401899D01*
G37*
G36*
X144226000Y-72826000D02*
G01*
X142774000Y-72826000D01*
X142774000Y-71374000D01*
X144226000Y-71374000D01*
X144226000Y-72826000D01*
X144226000Y-72826000D01*
G37*
G36*
X145711766Y-71401899D02*
G01*
X145843888Y-71456626D01*
X145843890Y-71456627D01*
X145962798Y-71536079D01*
X146063921Y-71637202D01*
X146143373Y-71756110D01*
X146143374Y-71756112D01*
X146198101Y-71888234D01*
X146226000Y-72028494D01*
X146226000Y-72171506D01*
X146198101Y-72311766D01*
X146143374Y-72443888D01*
X146143373Y-72443890D01*
X146063921Y-72562798D01*
X145962798Y-72663921D01*
X145843890Y-72743373D01*
X145843889Y-72743374D01*
X145843888Y-72743374D01*
X145711766Y-72798101D01*
X145571506Y-72826000D01*
X145428494Y-72826000D01*
X145288234Y-72798101D01*
X145156112Y-72743374D01*
X145156111Y-72743374D01*
X145156110Y-72743373D01*
X145037202Y-72663921D01*
X144936079Y-72562798D01*
X144856627Y-72443890D01*
X144856626Y-72443888D01*
X144801899Y-72311766D01*
X144774000Y-72171506D01*
X144774000Y-72028494D01*
X144801899Y-71888234D01*
X144856626Y-71756112D01*
X144856627Y-71756110D01*
X144936079Y-71637202D01*
X145037202Y-71536079D01*
X145156110Y-71456627D01*
X145156112Y-71456626D01*
X145288234Y-71401899D01*
X145428494Y-71374000D01*
X145571506Y-71374000D01*
X145711766Y-71401899D01*
X145711766Y-71401899D01*
G37*
G36*
X147711766Y-71401899D02*
G01*
X147843888Y-71456626D01*
X147843890Y-71456627D01*
X147962798Y-71536079D01*
X148063921Y-71637202D01*
X148143373Y-71756110D01*
X148143374Y-71756112D01*
X148198101Y-71888234D01*
X148226000Y-72028494D01*
X148226000Y-72171506D01*
X148198101Y-72311766D01*
X148143374Y-72443888D01*
X148143373Y-72443890D01*
X148063921Y-72562798D01*
X147962798Y-72663921D01*
X147843890Y-72743373D01*
X147843889Y-72743374D01*
X147843888Y-72743374D01*
X147711766Y-72798101D01*
X147571506Y-72826000D01*
X147428494Y-72826000D01*
X147288234Y-72798101D01*
X147156112Y-72743374D01*
X147156111Y-72743374D01*
X147156110Y-72743373D01*
X147037202Y-72663921D01*
X146936079Y-72562798D01*
X146856627Y-72443890D01*
X146856626Y-72443888D01*
X146801899Y-72311766D01*
X146774000Y-72171506D01*
X146774000Y-72028494D01*
X146801899Y-71888234D01*
X146856626Y-71756112D01*
X146856627Y-71756110D01*
X146936079Y-71637202D01*
X147037202Y-71536079D01*
X147156110Y-71456627D01*
X147156112Y-71456626D01*
X147288234Y-71401899D01*
X147428494Y-71374000D01*
X147571506Y-71374000D01*
X147711766Y-71401899D01*
X147711766Y-71401899D01*
G37*
G36*
X122651000Y-71751000D02*
G01*
X120449000Y-71751000D01*
X120449000Y-70249000D01*
X122651000Y-70249000D01*
X122651000Y-71751000D01*
X122651000Y-71751000D01*
G37*
G36*
X113551000Y-71751000D02*
G01*
X111349000Y-71751000D01*
X111349000Y-70249000D01*
X113551000Y-70249000D01*
X113551000Y-71751000D01*
X113551000Y-71751000D01*
G37*
G36*
X147711766Y-69401899D02*
G01*
X147843888Y-69456626D01*
X147843890Y-69456627D01*
X147962798Y-69536079D01*
X148063921Y-69637202D01*
X148063922Y-69637204D01*
X148143374Y-69756112D01*
X148198101Y-69888234D01*
X148226000Y-70028494D01*
X148226000Y-70171506D01*
X148198101Y-70311766D01*
X148143374Y-70443888D01*
X148143373Y-70443890D01*
X148063921Y-70562798D01*
X147962798Y-70663921D01*
X147843890Y-70743373D01*
X147843889Y-70743374D01*
X147843888Y-70743374D01*
X147711766Y-70798101D01*
X147571506Y-70826000D01*
X147428494Y-70826000D01*
X147288234Y-70798101D01*
X147156112Y-70743374D01*
X147156111Y-70743374D01*
X147156110Y-70743373D01*
X147037202Y-70663921D01*
X146936079Y-70562798D01*
X146856627Y-70443890D01*
X146856626Y-70443888D01*
X146801899Y-70311766D01*
X146774000Y-70171506D01*
X146774000Y-70028494D01*
X146801899Y-69888234D01*
X146856626Y-69756112D01*
X146936078Y-69637204D01*
X146936079Y-69637202D01*
X147037202Y-69536079D01*
X147156110Y-69456627D01*
X147156112Y-69456626D01*
X147288234Y-69401899D01*
X147428494Y-69374000D01*
X147571506Y-69374000D01*
X147711766Y-69401899D01*
X147711766Y-69401899D01*
G37*
G36*
X151711766Y-69401899D02*
G01*
X151843888Y-69456626D01*
X151843890Y-69456627D01*
X151962798Y-69536079D01*
X152063921Y-69637202D01*
X152063922Y-69637204D01*
X152143374Y-69756112D01*
X152198101Y-69888234D01*
X152226000Y-70028494D01*
X152226000Y-70171506D01*
X152198101Y-70311766D01*
X152143374Y-70443888D01*
X152143373Y-70443890D01*
X152063921Y-70562798D01*
X151962798Y-70663921D01*
X151843890Y-70743373D01*
X151843889Y-70743374D01*
X151843888Y-70743374D01*
X151711766Y-70798101D01*
X151571506Y-70826000D01*
X151428494Y-70826000D01*
X151288234Y-70798101D01*
X151156112Y-70743374D01*
X151156111Y-70743374D01*
X151156110Y-70743373D01*
X151037202Y-70663921D01*
X150936079Y-70562798D01*
X150856627Y-70443890D01*
X150856626Y-70443888D01*
X150801899Y-70311766D01*
X150774000Y-70171506D01*
X150774000Y-70028494D01*
X150801899Y-69888234D01*
X150856626Y-69756112D01*
X150936078Y-69637204D01*
X150936079Y-69637202D01*
X151037202Y-69536079D01*
X151156110Y-69456627D01*
X151156112Y-69456626D01*
X151288234Y-69401899D01*
X151428494Y-69374000D01*
X151571506Y-69374000D01*
X151711766Y-69401899D01*
X151711766Y-69401899D01*
G37*
G36*
X149711766Y-69401899D02*
G01*
X149843888Y-69456626D01*
X149843890Y-69456627D01*
X149962798Y-69536079D01*
X150063921Y-69637202D01*
X150063922Y-69637204D01*
X150143374Y-69756112D01*
X150198101Y-69888234D01*
X150226000Y-70028494D01*
X150226000Y-70171506D01*
X150198101Y-70311766D01*
X150143374Y-70443888D01*
X150143373Y-70443890D01*
X150063921Y-70562798D01*
X149962798Y-70663921D01*
X149843890Y-70743373D01*
X149843889Y-70743374D01*
X149843888Y-70743374D01*
X149711766Y-70798101D01*
X149571506Y-70826000D01*
X149428494Y-70826000D01*
X149288234Y-70798101D01*
X149156112Y-70743374D01*
X149156111Y-70743374D01*
X149156110Y-70743373D01*
X149037202Y-70663921D01*
X148936079Y-70562798D01*
X148856627Y-70443890D01*
X148856626Y-70443888D01*
X148801899Y-70311766D01*
X148774000Y-70171506D01*
X148774000Y-70028494D01*
X148801899Y-69888234D01*
X148856626Y-69756112D01*
X148936078Y-69637204D01*
X148936079Y-69637202D01*
X149037202Y-69536079D01*
X149156110Y-69456627D01*
X149156112Y-69456626D01*
X149288234Y-69401899D01*
X149428494Y-69374000D01*
X149571506Y-69374000D01*
X149711766Y-69401899D01*
X149711766Y-69401899D01*
G37*
G36*
X143711766Y-69401899D02*
G01*
X143843888Y-69456626D01*
X143843890Y-69456627D01*
X143962798Y-69536079D01*
X144063921Y-69637202D01*
X144063922Y-69637204D01*
X144143374Y-69756112D01*
X144198101Y-69888234D01*
X144226000Y-70028494D01*
X144226000Y-70171506D01*
X144198101Y-70311766D01*
X144143374Y-70443888D01*
X144143373Y-70443890D01*
X144063921Y-70562798D01*
X143962798Y-70663921D01*
X143843890Y-70743373D01*
X143843889Y-70743374D01*
X143843888Y-70743374D01*
X143711766Y-70798101D01*
X143571506Y-70826000D01*
X143428494Y-70826000D01*
X143288234Y-70798101D01*
X143156112Y-70743374D01*
X143156111Y-70743374D01*
X143156110Y-70743373D01*
X143037202Y-70663921D01*
X142936079Y-70562798D01*
X142856627Y-70443890D01*
X142856626Y-70443888D01*
X142801899Y-70311766D01*
X142774000Y-70171506D01*
X142774000Y-70028494D01*
X142801899Y-69888234D01*
X142856626Y-69756112D01*
X142936078Y-69637204D01*
X142936079Y-69637202D01*
X143037202Y-69536079D01*
X143156110Y-69456627D01*
X143156112Y-69456626D01*
X143288234Y-69401899D01*
X143428494Y-69374000D01*
X143571506Y-69374000D01*
X143711766Y-69401899D01*
X143711766Y-69401899D01*
G37*
G36*
X145711766Y-69401899D02*
G01*
X145843888Y-69456626D01*
X145843890Y-69456627D01*
X145962798Y-69536079D01*
X146063921Y-69637202D01*
X146063922Y-69637204D01*
X146143374Y-69756112D01*
X146198101Y-69888234D01*
X146226000Y-70028494D01*
X146226000Y-70171506D01*
X146198101Y-70311766D01*
X146143374Y-70443888D01*
X146143373Y-70443890D01*
X146063921Y-70562798D01*
X145962798Y-70663921D01*
X145843890Y-70743373D01*
X145843889Y-70743374D01*
X145843888Y-70743374D01*
X145711766Y-70798101D01*
X145571506Y-70826000D01*
X145428494Y-70826000D01*
X145288234Y-70798101D01*
X145156112Y-70743374D01*
X145156111Y-70743374D01*
X145156110Y-70743373D01*
X145037202Y-70663921D01*
X144936079Y-70562798D01*
X144856627Y-70443890D01*
X144856626Y-70443888D01*
X144801899Y-70311766D01*
X144774000Y-70171506D01*
X144774000Y-70028494D01*
X144801899Y-69888234D01*
X144856626Y-69756112D01*
X144936078Y-69637204D01*
X144936079Y-69637202D01*
X145037202Y-69536079D01*
X145156110Y-69456627D01*
X145156112Y-69456626D01*
X145288234Y-69401899D01*
X145428494Y-69374000D01*
X145571506Y-69374000D01*
X145711766Y-69401899D01*
X145711766Y-69401899D01*
G37*
G36*
X169051000Y-69176000D02*
G01*
X167449000Y-69176000D01*
X167449000Y-67824000D01*
X169051000Y-67824000D01*
X169051000Y-69176000D01*
X169051000Y-69176000D01*
G37*
G36*
X171551000Y-69176000D02*
G01*
X169949000Y-69176000D01*
X169949000Y-67824000D01*
X171551000Y-67824000D01*
X171551000Y-69176000D01*
X171551000Y-69176000D01*
G37*
G36*
X163051000Y-69176000D02*
G01*
X161449000Y-69176000D01*
X161449000Y-67824000D01*
X163051000Y-67824000D01*
X163051000Y-69176000D01*
X163051000Y-69176000D01*
G37*
G36*
X165551000Y-69176000D02*
G01*
X163949000Y-69176000D01*
X163949000Y-67824000D01*
X165551000Y-67824000D01*
X165551000Y-69176000D01*
X165551000Y-69176000D01*
G37*
G36*
X187651000Y-69076000D02*
G01*
X186349000Y-69076000D01*
X186349000Y-68224000D01*
X187651000Y-68224000D01*
X187651000Y-69076000D01*
X187651000Y-69076000D01*
G37*
G36*
X185751000Y-69076000D02*
G01*
X184449000Y-69076000D01*
X184449000Y-68224000D01*
X185751000Y-68224000D01*
X185751000Y-69076000D01*
X185751000Y-69076000D01*
G37*
G36*
X177101000Y-68926000D02*
G01*
X175799000Y-68926000D01*
X175799000Y-68074000D01*
X177101000Y-68074000D01*
X177101000Y-68926000D01*
X177101000Y-68926000D01*
G37*
G36*
X175201000Y-68926000D02*
G01*
X173899000Y-68926000D01*
X173899000Y-68074000D01*
X175201000Y-68074000D01*
X175201000Y-68926000D01*
X175201000Y-68926000D01*
G37*
G36*
X133101000Y-68051000D02*
G01*
X131699000Y-68051000D01*
X131699000Y-66449000D01*
X133101000Y-66449000D01*
X133101000Y-68051000D01*
X133101000Y-68051000D01*
G37*
G36*
X136576000Y-67951000D02*
G01*
X135224000Y-67951000D01*
X135224000Y-66349000D01*
X136576000Y-66349000D01*
X136576000Y-67951000D01*
X136576000Y-67951000D01*
G37*
G36*
X122651000Y-67251000D02*
G01*
X120449000Y-67251000D01*
X120449000Y-65749000D01*
X122651000Y-65749000D01*
X122651000Y-67251000D01*
X122651000Y-67251000D01*
G37*
G36*
X113551000Y-67251000D02*
G01*
X111349000Y-67251000D01*
X111349000Y-65749000D01*
X113551000Y-65749000D01*
X113551000Y-67251000D01*
X113551000Y-67251000D01*
G37*
G36*
X193775880Y-62759776D02*
G01*
X194156593Y-62835504D01*
X194566249Y-63005189D01*
X194934929Y-63251534D01*
X195248466Y-63565071D01*
X195494811Y-63933751D01*
X195664496Y-64343407D01*
X195751000Y-64778296D01*
X195751000Y-65221704D01*
X195664496Y-65656593D01*
X195494811Y-66066249D01*
X195248466Y-66434929D01*
X194934929Y-66748466D01*
X194566249Y-66994811D01*
X194156593Y-67164496D01*
X193775880Y-67240224D01*
X193721705Y-67251000D01*
X193278295Y-67251000D01*
X193224120Y-67240224D01*
X192843407Y-67164496D01*
X192433751Y-66994811D01*
X192065071Y-66748466D01*
X191751534Y-66434929D01*
X191505189Y-66066249D01*
X191335504Y-65656593D01*
X191249000Y-65221704D01*
X191249000Y-64778296D01*
X191335504Y-64343407D01*
X191505189Y-63933751D01*
X191751534Y-63565071D01*
X192065071Y-63251534D01*
X192433751Y-63005189D01*
X192843407Y-62835504D01*
X193224120Y-62759776D01*
X193278295Y-62749000D01*
X193721705Y-62749000D01*
X193775880Y-62759776D01*
X193775880Y-62759776D01*
G37*
G36*
X136576000Y-65451000D02*
G01*
X135224000Y-65451000D01*
X135224000Y-63849000D01*
X136576000Y-63849000D01*
X136576000Y-65451000D01*
X136576000Y-65451000D01*
G37*
G36*
X133101000Y-65351000D02*
G01*
X131699000Y-65351000D01*
X131699000Y-63749000D01*
X133101000Y-63749000D01*
X133101000Y-65351000D01*
X133101000Y-65351000D01*
G37*
G36*
X173001000Y-62551000D02*
G01*
X171799000Y-62551000D01*
X171799000Y-57849000D01*
X173001000Y-57849000D01*
X173001000Y-62551000D01*
X173001000Y-62551000D01*
G37*
G36*
X184801000Y-62551000D02*
G01*
X183599000Y-62551000D01*
X183599000Y-57849000D01*
X184801000Y-57849000D01*
X184801000Y-62551000D01*
X184801000Y-62551000D01*
G37*
G36*
X183101000Y-62551000D02*
G01*
X181899000Y-62551000D01*
X181899000Y-57849000D01*
X183101000Y-57849000D01*
X183101000Y-62551000D01*
X183101000Y-62551000D01*
G37*
G36*
X186501000Y-62551000D02*
G01*
X185299000Y-62551000D01*
X185299000Y-57849000D01*
X186501000Y-57849000D01*
X186501000Y-62551000D01*
X186501000Y-62551000D01*
G37*
G36*
X166201000Y-62551000D02*
G01*
X164999000Y-62551000D01*
X164999000Y-57849000D01*
X166201000Y-57849000D01*
X166201000Y-62551000D01*
X166201000Y-62551000D01*
G37*
G36*
X167901000Y-62551000D02*
G01*
X166699000Y-62551000D01*
X166699000Y-57849000D01*
X167901000Y-57849000D01*
X167901000Y-62551000D01*
X167901000Y-62551000D01*
G37*
G36*
X169601000Y-62551000D02*
G01*
X168399000Y-62551000D01*
X168399000Y-57849000D01*
X169601000Y-57849000D01*
X169601000Y-62551000D01*
X169601000Y-62551000D01*
G37*
G36*
X171301000Y-62551000D02*
G01*
X170099000Y-62551000D01*
X170099000Y-57849000D01*
X171301000Y-57849000D01*
X171301000Y-62551000D01*
X171301000Y-62551000D01*
G37*
G36*
X181401000Y-62551000D02*
G01*
X180199000Y-62551000D01*
X180199000Y-57849000D01*
X181401000Y-57849000D01*
X181401000Y-62551000D01*
X181401000Y-62551000D01*
G37*
G36*
X179701000Y-62551000D02*
G01*
X178499000Y-62551000D01*
X178499000Y-57849000D01*
X179701000Y-57849000D01*
X179701000Y-62551000D01*
X179701000Y-62551000D01*
G37*
G36*
X147601000Y-61851000D02*
G01*
X146199000Y-61851000D01*
X146199000Y-60249000D01*
X147601000Y-60249000D01*
X147601000Y-61851000D01*
X147601000Y-61851000D01*
G37*
G36*
X150076000Y-61751000D02*
G01*
X148724000Y-61751000D01*
X148724000Y-60149000D01*
X150076000Y-60149000D01*
X150076000Y-61751000D01*
X150076000Y-61751000D01*
G37*
G36*
X144376000Y-61641000D02*
G01*
X143624000Y-61641000D01*
X143624000Y-60689000D01*
X144376000Y-60689000D01*
X144376000Y-61641000D01*
X144376000Y-61641000D01*
G37*
G36*
X152226000Y-61301000D02*
G01*
X151374000Y-61301000D01*
X151374000Y-59999000D01*
X152226000Y-59999000D01*
X152226000Y-61301000D01*
X152226000Y-61301000D01*
G37*
G36*
X159726000Y-61001000D02*
G01*
X158874000Y-61001000D01*
X158874000Y-59699000D01*
X159726000Y-59699000D01*
X159726000Y-61001000D01*
X159726000Y-61001000D01*
G37*
G36*
X144526000Y-57909001D02*
G01*
X144528402Y-57933387D01*
X144535515Y-57956836D01*
X144547066Y-57978447D01*
X144562611Y-57997389D01*
X144581553Y-58012934D01*
X144603164Y-58024485D01*
X144626613Y-58031598D01*
X144650999Y-58034000D01*
X145026000Y-58034000D01*
X145026000Y-60136000D01*
X142974000Y-60136000D01*
X142974000Y-58034000D01*
X143349001Y-58034000D01*
X143373387Y-58031598D01*
X143396836Y-58024485D01*
X143418447Y-58012934D01*
X143437389Y-57997389D01*
X143452934Y-57978447D01*
X143464485Y-57956836D01*
X143471598Y-57933387D01*
X143474000Y-57909001D01*
X143474000Y-57384000D01*
X144526000Y-57384000D01*
X144526000Y-57909001D01*
X144526000Y-57909001D01*
G37*
G36*
X152226000Y-59401000D02*
G01*
X151374000Y-59401000D01*
X151374000Y-58099000D01*
X152226000Y-58099000D01*
X152226000Y-59401000D01*
X152226000Y-59401000D01*
G37*
G36*
X150076000Y-59251000D02*
G01*
X148724000Y-59251000D01*
X148724000Y-57649000D01*
X150076000Y-57649000D01*
X150076000Y-59251000D01*
X150076000Y-59251000D01*
G37*
G36*
X132201000Y-59151000D02*
G01*
X130799000Y-59151000D01*
X130799000Y-57549000D01*
X132201000Y-57549000D01*
X132201000Y-59151000D01*
X132201000Y-59151000D01*
G37*
G36*
X138201000Y-59151000D02*
G01*
X136799000Y-59151000D01*
X136799000Y-57549000D01*
X138201000Y-57549000D01*
X138201000Y-59151000D01*
X138201000Y-59151000D01*
G37*
G36*
X147601000Y-59151000D02*
G01*
X146199000Y-59151000D01*
X146199000Y-57549000D01*
X147601000Y-57549000D01*
X147601000Y-59151000D01*
X147601000Y-59151000D01*
G37*
G36*
X135201000Y-59151000D02*
G01*
X133799000Y-59151000D01*
X133799000Y-57549000D01*
X135201000Y-57549000D01*
X135201000Y-59151000D01*
X135201000Y-59151000D01*
G37*
G36*
X159726000Y-59101000D02*
G01*
X158874000Y-59101000D01*
X158874000Y-57799000D01*
X159726000Y-57799000D01*
X159726000Y-59101000D01*
X159726000Y-59101000D01*
G37*
G36*
X129176000Y-59051000D02*
G01*
X127824000Y-59051000D01*
X127824000Y-57449000D01*
X129176000Y-57449000D01*
X129176000Y-59051000D01*
X129176000Y-59051000D01*
G37*
G36*
X122438674Y-57253465D02*
G01*
X122476367Y-57264899D01*
X122511103Y-57283466D01*
X122541548Y-57308452D01*
X122566534Y-57338897D01*
X122585101Y-57373633D01*
X122596535Y-57411326D01*
X122601000Y-57456661D01*
X122601000Y-58543339D01*
X122596535Y-58588674D01*
X122585101Y-58626367D01*
X122566534Y-58661103D01*
X122541548Y-58691548D01*
X122511103Y-58716534D01*
X122476367Y-58735101D01*
X122438674Y-58746535D01*
X122393339Y-58751000D01*
X121556661Y-58751000D01*
X121511326Y-58746535D01*
X121473633Y-58735101D01*
X121438897Y-58716534D01*
X121408452Y-58691548D01*
X121383466Y-58661103D01*
X121364899Y-58626367D01*
X121353465Y-58588674D01*
X121349000Y-58543339D01*
X121349000Y-57456661D01*
X121353465Y-57411326D01*
X121364899Y-57373633D01*
X121383466Y-57338897D01*
X121408452Y-57308452D01*
X121438897Y-57283466D01*
X121473633Y-57264899D01*
X121511326Y-57253465D01*
X121556661Y-57249000D01*
X122393339Y-57249000D01*
X122438674Y-57253465D01*
X122438674Y-57253465D01*
G37*
G36*
X124488674Y-57253465D02*
G01*
X124526367Y-57264899D01*
X124561103Y-57283466D01*
X124591548Y-57308452D01*
X124616534Y-57338897D01*
X124635101Y-57373633D01*
X124646535Y-57411326D01*
X124651000Y-57456661D01*
X124651000Y-58543339D01*
X124646535Y-58588674D01*
X124635101Y-58626367D01*
X124616534Y-58661103D01*
X124591548Y-58691548D01*
X124561103Y-58716534D01*
X124526367Y-58735101D01*
X124488674Y-58746535D01*
X124443339Y-58751000D01*
X123606661Y-58751000D01*
X123561326Y-58746535D01*
X123523633Y-58735101D01*
X123488897Y-58716534D01*
X123458452Y-58691548D01*
X123433466Y-58661103D01*
X123414899Y-58626367D01*
X123403465Y-58588674D01*
X123399000Y-58543339D01*
X123399000Y-57456661D01*
X123403465Y-57411326D01*
X123414899Y-57373633D01*
X123433466Y-57338897D01*
X123458452Y-57308452D01*
X123488897Y-57283466D01*
X123523633Y-57264899D01*
X123561326Y-57253465D01*
X123606661Y-57249000D01*
X124443339Y-57249000D01*
X124488674Y-57253465D01*
X124488674Y-57253465D01*
G37*
G36*
X109287852Y-47902797D02*
G01*
X109779402Y-48106404D01*
X109779403Y-48106405D01*
X110221787Y-48401996D01*
X110598004Y-48778213D01*
X110701931Y-48933751D01*
X110893596Y-49220598D01*
X111097203Y-49712148D01*
X111201000Y-50233973D01*
X111201000Y-50766027D01*
X111097203Y-51287852D01*
X110893596Y-51779402D01*
X110893595Y-51779403D01*
X110598004Y-52221787D01*
X110221787Y-52598004D01*
X110039874Y-52719554D01*
X109779402Y-52893596D01*
X109287852Y-53097203D01*
X108766027Y-53201000D01*
X108233973Y-53201000D01*
X107712148Y-53097203D01*
X107447444Y-52987559D01*
X107423995Y-52980446D01*
X107399609Y-52978044D01*
X107375223Y-52980446D01*
X107351774Y-52987559D01*
X107330163Y-52999110D01*
X107311221Y-53014655D01*
X107295676Y-53033597D01*
X107284125Y-53055208D01*
X107277012Y-53078657D01*
X107274610Y-53103043D01*
X107277012Y-53127429D01*
X107284125Y-53150878D01*
X107295676Y-53172489D01*
X107311216Y-53191425D01*
X107598004Y-53478213D01*
X107746865Y-53701000D01*
X107893596Y-53920598D01*
X108097203Y-54412148D01*
X108201000Y-54933973D01*
X108201000Y-55466027D01*
X108097203Y-55987852D01*
X107893596Y-56479402D01*
X107893595Y-56479403D01*
X107598004Y-56921787D01*
X107221787Y-57298004D01*
X106967257Y-57468075D01*
X106779402Y-57593596D01*
X106287852Y-57797203D01*
X105766027Y-57901000D01*
X105233973Y-57901000D01*
X104712148Y-57797203D01*
X104220598Y-57593596D01*
X104032743Y-57468075D01*
X103778213Y-57298004D01*
X103401996Y-56921787D01*
X103106405Y-56479403D01*
X103106404Y-56479402D01*
X102902797Y-55987852D01*
X102799000Y-55466027D01*
X102799000Y-54933973D01*
X102902797Y-54412148D01*
X103106404Y-53920598D01*
X103253135Y-53701000D01*
X103401996Y-53478213D01*
X103778213Y-53101996D01*
X104090329Y-52893447D01*
X104220598Y-52806404D01*
X104712148Y-52602797D01*
X105233973Y-52499000D01*
X105766027Y-52499000D01*
X106287852Y-52602797D01*
X106552556Y-52712441D01*
X106576005Y-52719554D01*
X106600391Y-52721956D01*
X106624777Y-52719554D01*
X106648226Y-52712441D01*
X106669837Y-52700890D01*
X106688779Y-52685345D01*
X106704324Y-52666403D01*
X106715875Y-52644792D01*
X106722988Y-52621343D01*
X106725390Y-52596957D01*
X106722988Y-52572571D01*
X106715875Y-52549122D01*
X106704324Y-52527511D01*
X106688784Y-52508575D01*
X106401996Y-52221787D01*
X106106405Y-51779403D01*
X106106404Y-51779402D01*
X105902797Y-51287852D01*
X105799000Y-50766027D01*
X105799000Y-50233973D01*
X105902797Y-49712148D01*
X106106404Y-49220598D01*
X106298069Y-48933751D01*
X106401996Y-48778213D01*
X106778213Y-48401996D01*
X107220597Y-48106405D01*
X107220598Y-48106404D01*
X107712148Y-47902797D01*
X108233973Y-47799000D01*
X108766027Y-47799000D01*
X109287852Y-47902797D01*
X109287852Y-47902797D01*
G37*
G36*
X129176000Y-56551000D02*
G01*
X127824000Y-56551000D01*
X127824000Y-54949000D01*
X129176000Y-54949000D01*
X129176000Y-56551000D01*
X129176000Y-56551000D01*
G37*
G36*
X138201000Y-56451000D02*
G01*
X136799000Y-56451000D01*
X136799000Y-54849000D01*
X138201000Y-54849000D01*
X138201000Y-56451000D01*
X138201000Y-56451000D01*
G37*
G36*
X135201000Y-56451000D02*
G01*
X133799000Y-56451000D01*
X133799000Y-54849000D01*
X135201000Y-54849000D01*
X135201000Y-56451000D01*
X135201000Y-56451000D01*
G37*
G36*
X132201000Y-56451000D02*
G01*
X130799000Y-56451000D01*
X130799000Y-54849000D01*
X132201000Y-54849000D01*
X132201000Y-56451000D01*
X132201000Y-56451000D01*
G37*
G36*
X122551000Y-56001000D02*
G01*
X121249000Y-56001000D01*
X121249000Y-54999000D01*
X122551000Y-54999000D01*
X122551000Y-56001000D01*
X122551000Y-56001000D01*
G37*
G36*
X124751000Y-56001000D02*
G01*
X123449000Y-56001000D01*
X123449000Y-54999000D01*
X124751000Y-54999000D01*
X124751000Y-56001000D01*
X124751000Y-56001000D01*
G37*
G36*
X151651000Y-52824001D02*
G01*
X151653402Y-52848387D01*
X151660515Y-52871836D01*
X151672066Y-52893447D01*
X151687611Y-52912389D01*
X151706553Y-52927934D01*
X151728164Y-52939485D01*
X151751613Y-52946598D01*
X151775999Y-52949000D01*
X152676000Y-52949000D01*
X152676000Y-54851000D01*
X151775999Y-54851000D01*
X151751613Y-54853402D01*
X151728164Y-54860515D01*
X151706553Y-54872066D01*
X151687611Y-54887611D01*
X151672066Y-54906553D01*
X151660515Y-54928164D01*
X151653402Y-54951613D01*
X151651000Y-54975999D01*
X151651000Y-55876000D01*
X149749000Y-55876000D01*
X149749000Y-54975999D01*
X149746598Y-54951613D01*
X149739485Y-54928164D01*
X149727934Y-54906553D01*
X149712389Y-54887611D01*
X149693447Y-54872066D01*
X149671836Y-54860515D01*
X149648387Y-54853402D01*
X149624001Y-54851000D01*
X148724000Y-54851000D01*
X148724000Y-52949000D01*
X149624001Y-52949000D01*
X149648387Y-52946598D01*
X149671836Y-52939485D01*
X149693447Y-52927934D01*
X149712389Y-52912389D01*
X149727934Y-52893447D01*
X149739485Y-52871836D01*
X149746598Y-52848387D01*
X149749000Y-52824001D01*
X149749000Y-51924000D01*
X151651000Y-51924000D01*
X151651000Y-52824001D01*
X151651000Y-52824001D01*
G37*
G36*
X155851000Y-55876000D02*
G01*
X154249000Y-55876000D01*
X154249000Y-54524000D01*
X155851000Y-54524000D01*
X155851000Y-55876000D01*
X155851000Y-55876000D01*
G37*
G36*
X158351000Y-55876000D02*
G01*
X156749000Y-55876000D01*
X156749000Y-54524000D01*
X158351000Y-54524000D01*
X158351000Y-55876000D01*
X158351000Y-55876000D01*
G37*
G36*
X187951000Y-55801000D02*
G01*
X177049000Y-55801000D01*
X177049000Y-46299000D01*
X187951000Y-46299000D01*
X187951000Y-55801000D01*
X187951000Y-55801000D01*
G37*
G36*
X174451000Y-55801000D02*
G01*
X163549000Y-55801000D01*
X163549000Y-46299000D01*
X174451000Y-46299000D01*
X174451000Y-55801000D01*
X174451000Y-55801000D01*
G37*
G36*
X146851000Y-55401000D02*
G01*
X145249000Y-55401000D01*
X145249000Y-53999000D01*
X146851000Y-53999000D01*
X146851000Y-55401000D01*
X146851000Y-55401000D01*
G37*
G36*
X144151000Y-55401000D02*
G01*
X142549000Y-55401000D01*
X142549000Y-53999000D01*
X144151000Y-53999000D01*
X144151000Y-55401000D01*
X144151000Y-55401000D01*
G37*
G36*
X125151000Y-53701000D02*
G01*
X123549000Y-53701000D01*
X123549000Y-52299000D01*
X125151000Y-52299000D01*
X125151000Y-53701000D01*
X125151000Y-53701000D01*
G37*
G36*
X122451000Y-53701000D02*
G01*
X120849000Y-53701000D01*
X120849000Y-52299000D01*
X122451000Y-52299000D01*
X122451000Y-53701000D01*
X122451000Y-53701000D01*
G37*
G36*
X158551000Y-53601000D02*
G01*
X156949000Y-53601000D01*
X156949000Y-52199000D01*
X158551000Y-52199000D01*
X158551000Y-53601000D01*
X158551000Y-53601000D01*
G37*
G36*
X155851000Y-53601000D02*
G01*
X154249000Y-53601000D01*
X154249000Y-52199000D01*
X155851000Y-52199000D01*
X155851000Y-53601000D01*
X155851000Y-53601000D01*
G37*
G36*
X103244098Y-48047033D02*
G01*
X103708350Y-48239332D01*
X103708352Y-48239333D01*
X104126168Y-48518509D01*
X104481491Y-48873832D01*
X104760667Y-49291648D01*
X104760668Y-49291650D01*
X104952967Y-49755902D01*
X105051000Y-50248747D01*
X105051000Y-50751253D01*
X104952967Y-51244098D01*
X104768478Y-51689495D01*
X104760667Y-51708352D01*
X104481491Y-52126168D01*
X104126168Y-52481491D01*
X103708352Y-52760667D01*
X103708351Y-52760668D01*
X103708350Y-52760668D01*
X103244098Y-52952967D01*
X102751253Y-53051000D01*
X102248747Y-53051000D01*
X101755902Y-52952967D01*
X101291650Y-52760668D01*
X101291649Y-52760668D01*
X101291648Y-52760667D01*
X100873832Y-52481491D01*
X100518509Y-52126168D01*
X100239333Y-51708352D01*
X100231522Y-51689495D01*
X100047033Y-51244098D01*
X99949000Y-50751253D01*
X99949000Y-50248747D01*
X100047033Y-49755902D01*
X100239332Y-49291650D01*
X100239333Y-49291648D01*
X100518509Y-48873832D01*
X100873832Y-48518509D01*
X101291648Y-48239333D01*
X101291650Y-48239332D01*
X101755902Y-48047033D01*
X102248747Y-47949000D01*
X102751253Y-47949000D01*
X103244098Y-48047033D01*
X103244098Y-48047033D01*
G37*
G36*
X146851000Y-52801000D02*
G01*
X145249000Y-52801000D01*
X145249000Y-51399000D01*
X146851000Y-51399000D01*
X146851000Y-52801000D01*
X146851000Y-52801000D01*
G37*
G36*
X144151000Y-52801000D02*
G01*
X142549000Y-52801000D01*
X142549000Y-51399000D01*
X144151000Y-51399000D01*
X144151000Y-52801000D01*
X144151000Y-52801000D01*
G37*
G36*
X193775880Y-47759776D02*
G01*
X194156593Y-47835504D01*
X194566249Y-48005189D01*
X194934929Y-48251534D01*
X195248466Y-48565071D01*
X195494811Y-48933751D01*
X195664496Y-49343407D01*
X195715336Y-49599000D01*
X195746546Y-49755901D01*
X195751000Y-49778296D01*
X195751000Y-50221704D01*
X195664496Y-50656593D01*
X195494811Y-51066249D01*
X195248466Y-51434929D01*
X194934929Y-51748466D01*
X194566249Y-51994811D01*
X194156593Y-52164496D01*
X193775880Y-52240224D01*
X193721705Y-52251000D01*
X193278295Y-52251000D01*
X193224120Y-52240224D01*
X192843407Y-52164496D01*
X192433751Y-51994811D01*
X192065071Y-51748466D01*
X191751534Y-51434929D01*
X191505189Y-51066249D01*
X191335504Y-50656593D01*
X191249000Y-50221704D01*
X191249000Y-49778296D01*
X191253455Y-49755901D01*
X191284664Y-49599000D01*
X191335504Y-49343407D01*
X191505189Y-48933751D01*
X191751534Y-48565071D01*
X192065071Y-48251534D01*
X192433751Y-48005189D01*
X192843407Y-47835504D01*
X193224120Y-47759776D01*
X193278295Y-47749000D01*
X193721705Y-47749000D01*
X193775880Y-47759776D01*
X193775880Y-47759776D01*
G37*
G36*
X130850500Y-52251000D02*
G01*
X129273500Y-52251000D01*
X129273500Y-49749000D01*
X130850500Y-49749000D01*
X130850500Y-52251000D01*
X130850500Y-52251000D01*
G37*
G36*
X136726500Y-52251000D02*
G01*
X135149500Y-52251000D01*
X135149500Y-49749000D01*
X136726500Y-49749000D01*
X136726500Y-52251000D01*
X136726500Y-52251000D01*
G37*
G36*
X125051000Y-51176000D02*
G01*
X123449000Y-51176000D01*
X123449000Y-49824000D01*
X125051000Y-49824000D01*
X125051000Y-51176000D01*
X125051000Y-51176000D01*
G37*
G36*
X122551000Y-51176000D02*
G01*
X120949000Y-51176000D01*
X120949000Y-49824000D01*
X122551000Y-49824000D01*
X122551000Y-51176000D01*
X122551000Y-51176000D01*
G37*
G36*
X146651000Y-50276000D02*
G01*
X145049000Y-50276000D01*
X145049000Y-48924000D01*
X146651000Y-48924000D01*
X146651000Y-50276000D01*
X146651000Y-50276000D01*
G37*
G36*
X144151000Y-50276000D02*
G01*
X142549000Y-50276000D01*
X142549000Y-48924000D01*
X144151000Y-48924000D01*
X144151000Y-50276000D01*
X144151000Y-50276000D01*
G37*
G36*
X125051000Y-48676000D02*
G01*
X123449000Y-48676000D01*
X123449000Y-47324000D01*
X125051000Y-47324000D01*
X125051000Y-48676000D01*
X125051000Y-48676000D01*
G37*
G36*
X122551000Y-48676000D02*
G01*
X120949000Y-48676000D01*
X120949000Y-47324000D01*
X122551000Y-47324000D01*
X122551000Y-48676000D01*
X122551000Y-48676000D01*
G37*
G36*
X157401000Y-47901000D02*
G01*
X155599000Y-47901000D01*
X155599000Y-46099000D01*
X157401000Y-46099000D01*
X157401000Y-47901000D01*
X157401000Y-47901000D01*
G37*
G36*
X144051000Y-47901000D02*
G01*
X142449000Y-47901000D01*
X142449000Y-46499000D01*
X144051000Y-46499000D01*
X144051000Y-47901000D01*
X144051000Y-47901000D01*
G37*
G36*
X146751000Y-47901000D02*
G01*
X145149000Y-47901000D01*
X145149000Y-46499000D01*
X146751000Y-46499000D01*
X146751000Y-47901000D01*
X146751000Y-47901000D01*
G37*
G36*
X154070442Y-46105518D02*
G01*
X154136627Y-46112037D01*
X154306466Y-46163557D01*
X154462991Y-46247222D01*
X154498729Y-46276552D01*
X154600186Y-46359814D01*
X154683448Y-46461271D01*
X154712778Y-46497009D01*
X154796443Y-46653534D01*
X154847963Y-46823373D01*
X154865359Y-47000000D01*
X154847963Y-47176627D01*
X154796443Y-47346466D01*
X154712778Y-47502991D01*
X154683448Y-47538729D01*
X154600186Y-47640186D01*
X154498729Y-47723448D01*
X154462991Y-47752778D01*
X154306466Y-47836443D01*
X154136627Y-47887963D01*
X154070442Y-47894482D01*
X154004260Y-47901000D01*
X153915740Y-47901000D01*
X153849558Y-47894482D01*
X153783373Y-47887963D01*
X153613534Y-47836443D01*
X153457009Y-47752778D01*
X153421271Y-47723448D01*
X153319814Y-47640186D01*
X153236552Y-47538729D01*
X153207222Y-47502991D01*
X153123557Y-47346466D01*
X153072037Y-47176627D01*
X153054641Y-47000000D01*
X153072037Y-46823373D01*
X153123557Y-46653534D01*
X153207222Y-46497009D01*
X153236552Y-46461271D01*
X153319814Y-46359814D01*
X153421271Y-46276552D01*
X153457009Y-46247222D01*
X153613534Y-46163557D01*
X153783373Y-46112037D01*
X153849558Y-46105518D01*
X153915740Y-46099000D01*
X154004260Y-46099000D01*
X154070442Y-46105518D01*
X154070442Y-46105518D01*
G37*
G36*
X135051000Y-47176000D02*
G01*
X133449000Y-47176000D01*
X133449000Y-45824000D01*
X135051000Y-45824000D01*
X135051000Y-47176000D01*
X135051000Y-47176000D01*
G37*
G36*
X137551000Y-47176000D02*
G01*
X135949000Y-47176000D01*
X135949000Y-45824000D01*
X137551000Y-45824000D01*
X137551000Y-47176000D01*
X137551000Y-47176000D01*
G37*
M02*
