G04 #@! TF.GenerationSoftware,KiCad,Pcbnew,(5.1.4)-1*
G04 #@! TF.CreationDate,2019-12-12T15:56:35+01:00*
G04 #@! TF.ProjectId,Schaltplan_embedded,53636861-6c74-4706-9c61-6e5f656d6265,rev?*
G04 #@! TF.SameCoordinates,Original*
G04 #@! TF.FileFunction,Soldermask,Bot*
G04 #@! TF.FilePolarity,Negative*
%FSLAX46Y46*%
G04 Gerber Fmt 4.6, Leading zero omitted, Abs format (unit mm)*
G04 Created by KiCad (PCBNEW (5.1.4)-1) date 2019-12-12 15:56:35*
%MOMM*%
%LPD*%
G04 APERTURE LIST*
%ADD10C,0.100000*%
G04 APERTURE END LIST*
D10*
G36*
X127653428Y-108744213D02*
G01*
X127749153Y-108783864D01*
X127835305Y-108841429D01*
X127908571Y-108914695D01*
X127966136Y-109000847D01*
X128009516Y-109105575D01*
X128021067Y-109127186D01*
X128036612Y-109146128D01*
X128055554Y-109161673D01*
X128077165Y-109173224D01*
X128100614Y-109180337D01*
X128125000Y-109182739D01*
X128149386Y-109180337D01*
X128172835Y-109173224D01*
X128194446Y-109161673D01*
X128213388Y-109146128D01*
X128228933Y-109127186D01*
X128240484Y-109105575D01*
X128283864Y-109000847D01*
X128341429Y-108914695D01*
X128414695Y-108841429D01*
X128500847Y-108783864D01*
X128596572Y-108744213D01*
X128698192Y-108724000D01*
X128801808Y-108724000D01*
X128903428Y-108744213D01*
X128999153Y-108783864D01*
X129085305Y-108841429D01*
X129158571Y-108914695D01*
X129216136Y-109000847D01*
X129259516Y-109105575D01*
X129271067Y-109127186D01*
X129286612Y-109146128D01*
X129305554Y-109161673D01*
X129327165Y-109173224D01*
X129350614Y-109180337D01*
X129375000Y-109182739D01*
X129399386Y-109180337D01*
X129422835Y-109173224D01*
X129444446Y-109161673D01*
X129463388Y-109146128D01*
X129478933Y-109127186D01*
X129490484Y-109105575D01*
X129533864Y-109000847D01*
X129591429Y-108914695D01*
X129664695Y-108841429D01*
X129750847Y-108783864D01*
X129846572Y-108744213D01*
X129948192Y-108724000D01*
X130051808Y-108724000D01*
X130153428Y-108744213D01*
X130249153Y-108783864D01*
X130335305Y-108841429D01*
X130408571Y-108914695D01*
X130466136Y-109000847D01*
X130509516Y-109105575D01*
X130521067Y-109127186D01*
X130536612Y-109146128D01*
X130555554Y-109161673D01*
X130577165Y-109173224D01*
X130600614Y-109180337D01*
X130625000Y-109182739D01*
X130649386Y-109180337D01*
X130672835Y-109173224D01*
X130694446Y-109161673D01*
X130713388Y-109146128D01*
X130728933Y-109127186D01*
X130740484Y-109105575D01*
X130783864Y-109000847D01*
X130841429Y-108914695D01*
X130914695Y-108841429D01*
X131000847Y-108783864D01*
X131096572Y-108744213D01*
X131198192Y-108724000D01*
X131301808Y-108724000D01*
X131403428Y-108744213D01*
X131499153Y-108783864D01*
X131585305Y-108841429D01*
X131658571Y-108914695D01*
X131716136Y-109000847D01*
X131759516Y-109105575D01*
X131771067Y-109127186D01*
X131786612Y-109146128D01*
X131805554Y-109161673D01*
X131827165Y-109173224D01*
X131850614Y-109180337D01*
X131875000Y-109182739D01*
X131899386Y-109180337D01*
X131922835Y-109173224D01*
X131944446Y-109161673D01*
X131963388Y-109146128D01*
X131978933Y-109127186D01*
X131990484Y-109105575D01*
X132033864Y-109000847D01*
X132091429Y-108914695D01*
X132164695Y-108841429D01*
X132250847Y-108783864D01*
X132346572Y-108744213D01*
X132448192Y-108724000D01*
X132551808Y-108724000D01*
X132653428Y-108744213D01*
X132749153Y-108783864D01*
X132835305Y-108841429D01*
X132908571Y-108914695D01*
X132966136Y-109000847D01*
X133009516Y-109105575D01*
X133021067Y-109127186D01*
X133036612Y-109146128D01*
X133055554Y-109161673D01*
X133077165Y-109173224D01*
X133100614Y-109180337D01*
X133125000Y-109182739D01*
X133149386Y-109180337D01*
X133172835Y-109173224D01*
X133194446Y-109161673D01*
X133213388Y-109146128D01*
X133228933Y-109127186D01*
X133240484Y-109105575D01*
X133283864Y-109000847D01*
X133341429Y-108914695D01*
X133414695Y-108841429D01*
X133500847Y-108783864D01*
X133596572Y-108744213D01*
X133698192Y-108724000D01*
X133801808Y-108724000D01*
X133903428Y-108744213D01*
X133999153Y-108783864D01*
X134085305Y-108841429D01*
X134158571Y-108914695D01*
X134216136Y-109000847D01*
X134259516Y-109105575D01*
X134271067Y-109127186D01*
X134286612Y-109146128D01*
X134305554Y-109161673D01*
X134327165Y-109173224D01*
X134350614Y-109180337D01*
X134375000Y-109182739D01*
X134399386Y-109180337D01*
X134422835Y-109173224D01*
X134444446Y-109161673D01*
X134463388Y-109146128D01*
X134478933Y-109127186D01*
X134490484Y-109105575D01*
X134533864Y-109000847D01*
X134591429Y-108914695D01*
X134664695Y-108841429D01*
X134750847Y-108783864D01*
X134846572Y-108744213D01*
X134948192Y-108724000D01*
X135051808Y-108724000D01*
X135153428Y-108744213D01*
X135249153Y-108783864D01*
X135335305Y-108841429D01*
X135408571Y-108914695D01*
X135466136Y-109000847D01*
X135483517Y-109042808D01*
X135495068Y-109064419D01*
X135510613Y-109083361D01*
X135529555Y-109098906D01*
X135551166Y-109110457D01*
X135574615Y-109117570D01*
X135599001Y-109119972D01*
X135623387Y-109117570D01*
X135646836Y-109110457D01*
X135668447Y-109098906D01*
X135687389Y-109083361D01*
X135702934Y-109064419D01*
X135714485Y-109042808D01*
X135721598Y-109019359D01*
X135724000Y-108994973D01*
X135724000Y-108724000D01*
X136776000Y-108724000D01*
X136776000Y-109776000D01*
X135724000Y-109776000D01*
X135724000Y-109505027D01*
X135721598Y-109480641D01*
X135714485Y-109457192D01*
X135702934Y-109435581D01*
X135687389Y-109416639D01*
X135668447Y-109401094D01*
X135646836Y-109389543D01*
X135623387Y-109382430D01*
X135599001Y-109380028D01*
X135574615Y-109382430D01*
X135551166Y-109389543D01*
X135529555Y-109401094D01*
X135510613Y-109416639D01*
X135495068Y-109435581D01*
X135483517Y-109457192D01*
X135466136Y-109499153D01*
X135408571Y-109585305D01*
X135335305Y-109658571D01*
X135249153Y-109716136D01*
X135153428Y-109755787D01*
X135051808Y-109776000D01*
X134948192Y-109776000D01*
X134846572Y-109755787D01*
X134750847Y-109716136D01*
X134664695Y-109658571D01*
X134591429Y-109585305D01*
X134533864Y-109499153D01*
X134490484Y-109394425D01*
X134478933Y-109372814D01*
X134463388Y-109353872D01*
X134444446Y-109338327D01*
X134422835Y-109326776D01*
X134399386Y-109319663D01*
X134375000Y-109317261D01*
X134350614Y-109319663D01*
X134327165Y-109326776D01*
X134305554Y-109338327D01*
X134286612Y-109353872D01*
X134271067Y-109372814D01*
X134259516Y-109394425D01*
X134216136Y-109499153D01*
X134158571Y-109585305D01*
X134085305Y-109658571D01*
X133999153Y-109716136D01*
X133903428Y-109755787D01*
X133801808Y-109776000D01*
X133698192Y-109776000D01*
X133596572Y-109755787D01*
X133500847Y-109716136D01*
X133414695Y-109658571D01*
X133341429Y-109585305D01*
X133283864Y-109499153D01*
X133240484Y-109394425D01*
X133228933Y-109372814D01*
X133213388Y-109353872D01*
X133194446Y-109338327D01*
X133172835Y-109326776D01*
X133149386Y-109319663D01*
X133125000Y-109317261D01*
X133100614Y-109319663D01*
X133077165Y-109326776D01*
X133055554Y-109338327D01*
X133036612Y-109353872D01*
X133021067Y-109372814D01*
X133009516Y-109394425D01*
X132966136Y-109499153D01*
X132908571Y-109585305D01*
X132835305Y-109658571D01*
X132749153Y-109716136D01*
X132653428Y-109755787D01*
X132551808Y-109776000D01*
X132448192Y-109776000D01*
X132346572Y-109755787D01*
X132250847Y-109716136D01*
X132164695Y-109658571D01*
X132091429Y-109585305D01*
X132033864Y-109499153D01*
X131990484Y-109394425D01*
X131978933Y-109372814D01*
X131963388Y-109353872D01*
X131944446Y-109338327D01*
X131922835Y-109326776D01*
X131899386Y-109319663D01*
X131875000Y-109317261D01*
X131850614Y-109319663D01*
X131827165Y-109326776D01*
X131805554Y-109338327D01*
X131786612Y-109353872D01*
X131771067Y-109372814D01*
X131759516Y-109394425D01*
X131716136Y-109499153D01*
X131658571Y-109585305D01*
X131585305Y-109658571D01*
X131499153Y-109716136D01*
X131403428Y-109755787D01*
X131301808Y-109776000D01*
X131198192Y-109776000D01*
X131096572Y-109755787D01*
X131000847Y-109716136D01*
X130914695Y-109658571D01*
X130841429Y-109585305D01*
X130783864Y-109499153D01*
X130740484Y-109394425D01*
X130728933Y-109372814D01*
X130713388Y-109353872D01*
X130694446Y-109338327D01*
X130672835Y-109326776D01*
X130649386Y-109319663D01*
X130625000Y-109317261D01*
X130600614Y-109319663D01*
X130577165Y-109326776D01*
X130555554Y-109338327D01*
X130536612Y-109353872D01*
X130521067Y-109372814D01*
X130509516Y-109394425D01*
X130466136Y-109499153D01*
X130408571Y-109585305D01*
X130335305Y-109658571D01*
X130249153Y-109716136D01*
X130153428Y-109755787D01*
X130051808Y-109776000D01*
X129948192Y-109776000D01*
X129846572Y-109755787D01*
X129750847Y-109716136D01*
X129664695Y-109658571D01*
X129591429Y-109585305D01*
X129533864Y-109499153D01*
X129490484Y-109394425D01*
X129478933Y-109372814D01*
X129463388Y-109353872D01*
X129444446Y-109338327D01*
X129422835Y-109326776D01*
X129399386Y-109319663D01*
X129375000Y-109317261D01*
X129350614Y-109319663D01*
X129327165Y-109326776D01*
X129305554Y-109338327D01*
X129286612Y-109353872D01*
X129271067Y-109372814D01*
X129259516Y-109394425D01*
X129216136Y-109499153D01*
X129158571Y-109585305D01*
X129085305Y-109658571D01*
X128999153Y-109716136D01*
X128903428Y-109755787D01*
X128801808Y-109776000D01*
X128698192Y-109776000D01*
X128596572Y-109755787D01*
X128500847Y-109716136D01*
X128414695Y-109658571D01*
X128341429Y-109585305D01*
X128283864Y-109499153D01*
X128240484Y-109394425D01*
X128228933Y-109372814D01*
X128213388Y-109353872D01*
X128194446Y-109338327D01*
X128172835Y-109326776D01*
X128149386Y-109319663D01*
X128125000Y-109317261D01*
X128100614Y-109319663D01*
X128077165Y-109326776D01*
X128055554Y-109338327D01*
X128036612Y-109353872D01*
X128021067Y-109372814D01*
X128009516Y-109394425D01*
X127966136Y-109499153D01*
X127908571Y-109585305D01*
X127835305Y-109658571D01*
X127749153Y-109716136D01*
X127653428Y-109755787D01*
X127551808Y-109776000D01*
X127448192Y-109776000D01*
X127346572Y-109755787D01*
X127250847Y-109716136D01*
X127164695Y-109658571D01*
X127091429Y-109585305D01*
X127033864Y-109499153D01*
X126994213Y-109403428D01*
X126974000Y-109301808D01*
X126974000Y-109198192D01*
X126994213Y-109096572D01*
X127033864Y-109000847D01*
X127091429Y-108914695D01*
X127164695Y-108841429D01*
X127250847Y-108783864D01*
X127346572Y-108744213D01*
X127448192Y-108724000D01*
X127551808Y-108724000D01*
X127653428Y-108744213D01*
X127653428Y-108744213D01*
G37*
G36*
X190241560Y-105889064D02*
G01*
X190393027Y-105919193D01*
X190607045Y-106007842D01*
X190607046Y-106007843D01*
X190799654Y-106136539D01*
X190963461Y-106300346D01*
X191044980Y-106422348D01*
X191092158Y-106492955D01*
X191180807Y-106706973D01*
X191226000Y-106934174D01*
X191226000Y-107165826D01*
X191180807Y-107393027D01*
X191092158Y-107607045D01*
X191092157Y-107607046D01*
X190963461Y-107799654D01*
X190799654Y-107963461D01*
X190740810Y-108002779D01*
X190607045Y-108092158D01*
X190393027Y-108180807D01*
X190241560Y-108210936D01*
X190165827Y-108226000D01*
X189934173Y-108226000D01*
X189858440Y-108210936D01*
X189706973Y-108180807D01*
X189492955Y-108092158D01*
X189359190Y-108002779D01*
X189300346Y-107963461D01*
X189136539Y-107799654D01*
X189007843Y-107607046D01*
X189007842Y-107607045D01*
X188919193Y-107393027D01*
X188874000Y-107165826D01*
X188874000Y-106934174D01*
X188919193Y-106706973D01*
X189007842Y-106492955D01*
X189055020Y-106422348D01*
X189136539Y-106300346D01*
X189300346Y-106136539D01*
X189492954Y-106007843D01*
X189492955Y-106007842D01*
X189706973Y-105919193D01*
X189858440Y-105889064D01*
X189934173Y-105874000D01*
X190165827Y-105874000D01*
X190241560Y-105889064D01*
X190241560Y-105889064D01*
G37*
G36*
X185141560Y-105889064D02*
G01*
X185293027Y-105919193D01*
X185507045Y-106007842D01*
X185507046Y-106007843D01*
X185699654Y-106136539D01*
X185863461Y-106300346D01*
X185944980Y-106422348D01*
X185992158Y-106492955D01*
X186080807Y-106706973D01*
X186126000Y-106934174D01*
X186126000Y-107165826D01*
X186080807Y-107393027D01*
X185992158Y-107607045D01*
X185992157Y-107607046D01*
X185863461Y-107799654D01*
X185699654Y-107963461D01*
X185640810Y-108002779D01*
X185507045Y-108092158D01*
X185293027Y-108180807D01*
X185141560Y-108210936D01*
X185065827Y-108226000D01*
X184834173Y-108226000D01*
X184758440Y-108210936D01*
X184606973Y-108180807D01*
X184392955Y-108092158D01*
X184259190Y-108002779D01*
X184200346Y-107963461D01*
X184036539Y-107799654D01*
X183907843Y-107607046D01*
X183907842Y-107607045D01*
X183819193Y-107393027D01*
X183774000Y-107165826D01*
X183774000Y-106934174D01*
X183819193Y-106706973D01*
X183907842Y-106492955D01*
X183955020Y-106422348D01*
X184036539Y-106300346D01*
X184200346Y-106136539D01*
X184392954Y-106007843D01*
X184392955Y-106007842D01*
X184606973Y-105919193D01*
X184758440Y-105889064D01*
X184834173Y-105874000D01*
X185065827Y-105874000D01*
X185141560Y-105889064D01*
X185141560Y-105889064D01*
G37*
G36*
X154150442Y-106355518D02*
G01*
X154216627Y-106362037D01*
X154386466Y-106413557D01*
X154542991Y-106497222D01*
X154573289Y-106522087D01*
X154680186Y-106609814D01*
X154759921Y-106706973D01*
X154792778Y-106747009D01*
X154876443Y-106903534D01*
X154927963Y-107073373D01*
X154945359Y-107250000D01*
X154927963Y-107426627D01*
X154876443Y-107596466D01*
X154792778Y-107752991D01*
X154763448Y-107788729D01*
X154680186Y-107890186D01*
X154590901Y-107963459D01*
X154542991Y-108002778D01*
X154386466Y-108086443D01*
X154216627Y-108137963D01*
X154150443Y-108144481D01*
X154084260Y-108151000D01*
X153995740Y-108151000D01*
X153929557Y-108144481D01*
X153863373Y-108137963D01*
X153693534Y-108086443D01*
X153537009Y-108002778D01*
X153489099Y-107963459D01*
X153399814Y-107890186D01*
X153316552Y-107788729D01*
X153287222Y-107752991D01*
X153203557Y-107596466D01*
X153152037Y-107426627D01*
X153134641Y-107250000D01*
X153152037Y-107073373D01*
X153203557Y-106903534D01*
X153287222Y-106747009D01*
X153320079Y-106706973D01*
X153399814Y-106609814D01*
X153506711Y-106522087D01*
X153537009Y-106497222D01*
X153693534Y-106413557D01*
X153863373Y-106362037D01*
X153929558Y-106355518D01*
X153995740Y-106349000D01*
X154084260Y-106349000D01*
X154150442Y-106355518D01*
X154150442Y-106355518D01*
G37*
G36*
X152401000Y-108151000D02*
G01*
X150599000Y-108151000D01*
X150599000Y-106349000D01*
X152401000Y-106349000D01*
X152401000Y-108151000D01*
X152401000Y-108151000D01*
G37*
G36*
X98075880Y-102759776D02*
G01*
X98456593Y-102835504D01*
X98866249Y-103005189D01*
X99234929Y-103251534D01*
X99548466Y-103565071D01*
X99794811Y-103933751D01*
X99964496Y-104343407D01*
X100051000Y-104778296D01*
X100051000Y-105221704D01*
X99964496Y-105656593D01*
X99794811Y-106066249D01*
X99548466Y-106434929D01*
X99234929Y-106748466D01*
X98866249Y-106994811D01*
X98456593Y-107164496D01*
X98075880Y-107240224D01*
X98021705Y-107251000D01*
X97578295Y-107251000D01*
X97524120Y-107240224D01*
X97143407Y-107164496D01*
X96733751Y-106994811D01*
X96365071Y-106748466D01*
X96051534Y-106434929D01*
X95805189Y-106066249D01*
X95635504Y-105656593D01*
X95549000Y-105221704D01*
X95549000Y-104778296D01*
X95635504Y-104343407D01*
X95805189Y-103933751D01*
X96051534Y-103565071D01*
X96365071Y-103251534D01*
X96733751Y-103005189D01*
X97143407Y-102835504D01*
X97524120Y-102759776D01*
X97578295Y-102749000D01*
X98021705Y-102749000D01*
X98075880Y-102759776D01*
X98075880Y-102759776D01*
G37*
G36*
X187714794Y-103420155D02*
G01*
X187821150Y-103441311D01*
X187921334Y-103482809D01*
X188021520Y-103524307D01*
X188201844Y-103644795D01*
X188355205Y-103798156D01*
X188475693Y-103978480D01*
X188475693Y-103978481D01*
X188558689Y-104178850D01*
X188579844Y-104285205D01*
X188601000Y-104391560D01*
X188601000Y-104608440D01*
X188558689Y-104821149D01*
X188475693Y-105021520D01*
X188355205Y-105201844D01*
X188201844Y-105355205D01*
X188021520Y-105475693D01*
X187921334Y-105517191D01*
X187821150Y-105558689D01*
X187714794Y-105579845D01*
X187608440Y-105601000D01*
X187391560Y-105601000D01*
X187285205Y-105579844D01*
X187178850Y-105558689D01*
X187078666Y-105517191D01*
X186978480Y-105475693D01*
X186798156Y-105355205D01*
X186644795Y-105201844D01*
X186524307Y-105021520D01*
X186441311Y-104821149D01*
X186399000Y-104608440D01*
X186399000Y-104391560D01*
X186420156Y-104285205D01*
X186441311Y-104178850D01*
X186524307Y-103978481D01*
X186524307Y-103978480D01*
X186644795Y-103798156D01*
X186798156Y-103644795D01*
X186978480Y-103524307D01*
X187078666Y-103482809D01*
X187178850Y-103441311D01*
X187285206Y-103420155D01*
X187391560Y-103399000D01*
X187608440Y-103399000D01*
X187714794Y-103420155D01*
X187714794Y-103420155D01*
G37*
G36*
X185141560Y-100789064D02*
G01*
X185293027Y-100819193D01*
X185507045Y-100907842D01*
X185507046Y-100907843D01*
X185699654Y-101036539D01*
X185863461Y-101200346D01*
X185949258Y-101328751D01*
X185992158Y-101392955D01*
X186080807Y-101606973D01*
X186126000Y-101834174D01*
X186126000Y-102065826D01*
X186080807Y-102293027D01*
X185992158Y-102507045D01*
X185992157Y-102507046D01*
X185863461Y-102699654D01*
X185699654Y-102863461D01*
X185571635Y-102949000D01*
X185507045Y-102992158D01*
X185293027Y-103080807D01*
X185141560Y-103110936D01*
X185065827Y-103126000D01*
X184834173Y-103126000D01*
X184758440Y-103110936D01*
X184606973Y-103080807D01*
X184392955Y-102992158D01*
X184328365Y-102949000D01*
X184200346Y-102863461D01*
X184036539Y-102699654D01*
X183907843Y-102507046D01*
X183907842Y-102507045D01*
X183819193Y-102293027D01*
X183774000Y-102065826D01*
X183774000Y-101834174D01*
X183819193Y-101606973D01*
X183907842Y-101392955D01*
X183950742Y-101328751D01*
X184036539Y-101200346D01*
X184200346Y-101036539D01*
X184392954Y-100907843D01*
X184392955Y-100907842D01*
X184606973Y-100819193D01*
X184758440Y-100789064D01*
X184834173Y-100774000D01*
X185065827Y-100774000D01*
X185141560Y-100789064D01*
X185141560Y-100789064D01*
G37*
G36*
X190241560Y-100789064D02*
G01*
X190393027Y-100819193D01*
X190607045Y-100907842D01*
X190607046Y-100907843D01*
X190799654Y-101036539D01*
X190963461Y-101200346D01*
X191049258Y-101328751D01*
X191092158Y-101392955D01*
X191180807Y-101606973D01*
X191226000Y-101834174D01*
X191226000Y-102065826D01*
X191180807Y-102293027D01*
X191092158Y-102507045D01*
X191092157Y-102507046D01*
X190963461Y-102699654D01*
X190799654Y-102863461D01*
X190671635Y-102949000D01*
X190607045Y-102992158D01*
X190393027Y-103080807D01*
X190241560Y-103110936D01*
X190165827Y-103126000D01*
X189934173Y-103126000D01*
X189858440Y-103110936D01*
X189706973Y-103080807D01*
X189492955Y-102992158D01*
X189428365Y-102949000D01*
X189300346Y-102863461D01*
X189136539Y-102699654D01*
X189007843Y-102507046D01*
X189007842Y-102507045D01*
X188919193Y-102293027D01*
X188874000Y-102065826D01*
X188874000Y-101834174D01*
X188919193Y-101606973D01*
X189007842Y-101392955D01*
X189050742Y-101328751D01*
X189136539Y-101200346D01*
X189300346Y-101036539D01*
X189492954Y-100907843D01*
X189492955Y-100907842D01*
X189706973Y-100819193D01*
X189858440Y-100789064D01*
X189934173Y-100774000D01*
X190165827Y-100774000D01*
X190241560Y-100789064D01*
X190241560Y-100789064D01*
G37*
G36*
X98075880Y-92759776D02*
G01*
X98456593Y-92835504D01*
X98866249Y-93005189D01*
X99234929Y-93251534D01*
X99548466Y-93565071D01*
X99794811Y-93933751D01*
X99964496Y-94343407D01*
X100051000Y-94778296D01*
X100051000Y-95221704D01*
X99964496Y-95656593D01*
X99794811Y-96066249D01*
X99548466Y-96434929D01*
X99234929Y-96748466D01*
X98866249Y-96994811D01*
X98456593Y-97164496D01*
X98075880Y-97240224D01*
X98021705Y-97251000D01*
X97578295Y-97251000D01*
X97524120Y-97240224D01*
X97143407Y-97164496D01*
X96733751Y-96994811D01*
X96365071Y-96748466D01*
X96051534Y-96434929D01*
X95805189Y-96066249D01*
X95635504Y-95656593D01*
X95549000Y-95221704D01*
X95549000Y-94778296D01*
X95635504Y-94343407D01*
X95805189Y-93933751D01*
X96051534Y-93565071D01*
X96365071Y-93251534D01*
X96733751Y-93005189D01*
X97143407Y-92835504D01*
X97524120Y-92759776D01*
X97578295Y-92749000D01*
X98021705Y-92749000D01*
X98075880Y-92759776D01*
X98075880Y-92759776D01*
G37*
G36*
X148770443Y-68805519D02*
G01*
X148836627Y-68812037D01*
X149006466Y-68863557D01*
X149162991Y-68947222D01*
X149198729Y-68976552D01*
X149300186Y-69059814D01*
X149383448Y-69161271D01*
X149412778Y-69197009D01*
X149496443Y-69353534D01*
X149547963Y-69523373D01*
X149565359Y-69700000D01*
X149547963Y-69876627D01*
X149496443Y-70046466D01*
X149412778Y-70202991D01*
X149383448Y-70238729D01*
X149300186Y-70340186D01*
X149198729Y-70423448D01*
X149162991Y-70452778D01*
X149006466Y-70536443D01*
X148836627Y-70587963D01*
X148770443Y-70594481D01*
X148704260Y-70601000D01*
X148615740Y-70601000D01*
X148549557Y-70594481D01*
X148483373Y-70587963D01*
X148313534Y-70536443D01*
X148157009Y-70452778D01*
X148121271Y-70423448D01*
X148019814Y-70340186D01*
X147936552Y-70238729D01*
X147907222Y-70202991D01*
X147823557Y-70046466D01*
X147772037Y-69876627D01*
X147754641Y-69700000D01*
X147772037Y-69523373D01*
X147823557Y-69353534D01*
X147907222Y-69197009D01*
X147936552Y-69161271D01*
X148019814Y-69059814D01*
X148121271Y-68976552D01*
X148157009Y-68947222D01*
X148313534Y-68863557D01*
X148483373Y-68812037D01*
X148549557Y-68805519D01*
X148615740Y-68799000D01*
X148704260Y-68799000D01*
X148770443Y-68805519D01*
X148770443Y-68805519D01*
G37*
G36*
X152101000Y-70601000D02*
G01*
X150299000Y-70601000D01*
X150299000Y-68799000D01*
X152101000Y-68799000D01*
X152101000Y-70601000D01*
X152101000Y-70601000D01*
G37*
G36*
X146230443Y-68805519D02*
G01*
X146296627Y-68812037D01*
X146466466Y-68863557D01*
X146622991Y-68947222D01*
X146658729Y-68976552D01*
X146760186Y-69059814D01*
X146843448Y-69161271D01*
X146872778Y-69197009D01*
X146956443Y-69353534D01*
X147007963Y-69523373D01*
X147025359Y-69700000D01*
X147007963Y-69876627D01*
X146956443Y-70046466D01*
X146872778Y-70202991D01*
X146843448Y-70238729D01*
X146760186Y-70340186D01*
X146658729Y-70423448D01*
X146622991Y-70452778D01*
X146466466Y-70536443D01*
X146296627Y-70587963D01*
X146230443Y-70594481D01*
X146164260Y-70601000D01*
X146075740Y-70601000D01*
X146009557Y-70594481D01*
X145943373Y-70587963D01*
X145773534Y-70536443D01*
X145617009Y-70452778D01*
X145581271Y-70423448D01*
X145479814Y-70340186D01*
X145396552Y-70238729D01*
X145367222Y-70202991D01*
X145283557Y-70046466D01*
X145232037Y-69876627D01*
X145214641Y-69700000D01*
X145232037Y-69523373D01*
X145283557Y-69353534D01*
X145367222Y-69197009D01*
X145396552Y-69161271D01*
X145479814Y-69059814D01*
X145581271Y-68976552D01*
X145617009Y-68947222D01*
X145773534Y-68863557D01*
X145943373Y-68812037D01*
X146009557Y-68805519D01*
X146075740Y-68799000D01*
X146164260Y-68799000D01*
X146230443Y-68805519D01*
X146230443Y-68805519D01*
G37*
G36*
X143690443Y-68805519D02*
G01*
X143756627Y-68812037D01*
X143926466Y-68863557D01*
X144082991Y-68947222D01*
X144118729Y-68976552D01*
X144220186Y-69059814D01*
X144303448Y-69161271D01*
X144332778Y-69197009D01*
X144416443Y-69353534D01*
X144467963Y-69523373D01*
X144485359Y-69700000D01*
X144467963Y-69876627D01*
X144416443Y-70046466D01*
X144332778Y-70202991D01*
X144303448Y-70238729D01*
X144220186Y-70340186D01*
X144118729Y-70423448D01*
X144082991Y-70452778D01*
X143926466Y-70536443D01*
X143756627Y-70587963D01*
X143690443Y-70594481D01*
X143624260Y-70601000D01*
X143535740Y-70601000D01*
X143469557Y-70594481D01*
X143403373Y-70587963D01*
X143233534Y-70536443D01*
X143077009Y-70452778D01*
X143041271Y-70423448D01*
X142939814Y-70340186D01*
X142856552Y-70238729D01*
X142827222Y-70202991D01*
X142743557Y-70046466D01*
X142692037Y-69876627D01*
X142674641Y-69700000D01*
X142692037Y-69523373D01*
X142743557Y-69353534D01*
X142827222Y-69197009D01*
X142856552Y-69161271D01*
X142939814Y-69059814D01*
X143041271Y-68976552D01*
X143077009Y-68947222D01*
X143233534Y-68863557D01*
X143403373Y-68812037D01*
X143469557Y-68805519D01*
X143535740Y-68799000D01*
X143624260Y-68799000D01*
X143690443Y-68805519D01*
X143690443Y-68805519D01*
G37*
G36*
X141150443Y-68805519D02*
G01*
X141216627Y-68812037D01*
X141386466Y-68863557D01*
X141542991Y-68947222D01*
X141578729Y-68976552D01*
X141680186Y-69059814D01*
X141763448Y-69161271D01*
X141792778Y-69197009D01*
X141876443Y-69353534D01*
X141927963Y-69523373D01*
X141945359Y-69700000D01*
X141927963Y-69876627D01*
X141876443Y-70046466D01*
X141792778Y-70202991D01*
X141763448Y-70238729D01*
X141680186Y-70340186D01*
X141578729Y-70423448D01*
X141542991Y-70452778D01*
X141386466Y-70536443D01*
X141216627Y-70587963D01*
X141150443Y-70594481D01*
X141084260Y-70601000D01*
X140995740Y-70601000D01*
X140929557Y-70594481D01*
X140863373Y-70587963D01*
X140693534Y-70536443D01*
X140537009Y-70452778D01*
X140501271Y-70423448D01*
X140399814Y-70340186D01*
X140316552Y-70238729D01*
X140287222Y-70202991D01*
X140203557Y-70046466D01*
X140152037Y-69876627D01*
X140134641Y-69700000D01*
X140152037Y-69523373D01*
X140203557Y-69353534D01*
X140287222Y-69197009D01*
X140316552Y-69161271D01*
X140399814Y-69059814D01*
X140501271Y-68976552D01*
X140537009Y-68947222D01*
X140693534Y-68863557D01*
X140863373Y-68812037D01*
X140929557Y-68805519D01*
X140995740Y-68799000D01*
X141084260Y-68799000D01*
X141150443Y-68805519D01*
X141150443Y-68805519D01*
G37*
G36*
X193275880Y-62759776D02*
G01*
X193656593Y-62835504D01*
X194066249Y-63005189D01*
X194434929Y-63251534D01*
X194748466Y-63565071D01*
X194994811Y-63933751D01*
X195164496Y-64343407D01*
X195251000Y-64778296D01*
X195251000Y-65221704D01*
X195164496Y-65656593D01*
X194994811Y-66066249D01*
X194748466Y-66434929D01*
X194434929Y-66748466D01*
X194066249Y-66994811D01*
X193656593Y-67164496D01*
X193275880Y-67240224D01*
X193221705Y-67251000D01*
X192778295Y-67251000D01*
X192724120Y-67240224D01*
X192343407Y-67164496D01*
X191933751Y-66994811D01*
X191565071Y-66748466D01*
X191251534Y-66434929D01*
X191005189Y-66066249D01*
X190835504Y-65656593D01*
X190749000Y-65221704D01*
X190749000Y-64778296D01*
X190835504Y-64343407D01*
X191005189Y-63933751D01*
X191251534Y-63565071D01*
X191565071Y-63251534D01*
X191933751Y-63005189D01*
X192343407Y-62835504D01*
X192724120Y-62759776D01*
X192778295Y-62749000D01*
X193221705Y-62749000D01*
X193275880Y-62759776D01*
X193275880Y-62759776D01*
G37*
G36*
X109287852Y-47902797D02*
G01*
X109779402Y-48106404D01*
X109779403Y-48106405D01*
X110221787Y-48401996D01*
X110598004Y-48778213D01*
X110661184Y-48872769D01*
X110893596Y-49220598D01*
X111097203Y-49712148D01*
X111201000Y-50233973D01*
X111201000Y-50766027D01*
X111097203Y-51287852D01*
X110893596Y-51779402D01*
X110893595Y-51779403D01*
X110598004Y-52221787D01*
X110221787Y-52598004D01*
X110039874Y-52719554D01*
X109779402Y-52893596D01*
X109287852Y-53097203D01*
X108766027Y-53201000D01*
X108233973Y-53201000D01*
X107712148Y-53097203D01*
X107447444Y-52987559D01*
X107423995Y-52980446D01*
X107399609Y-52978044D01*
X107375223Y-52980446D01*
X107351774Y-52987559D01*
X107330163Y-52999110D01*
X107311221Y-53014655D01*
X107295676Y-53033597D01*
X107284125Y-53055208D01*
X107277012Y-53078657D01*
X107274610Y-53103043D01*
X107277012Y-53127429D01*
X107284125Y-53150878D01*
X107295676Y-53172489D01*
X107311216Y-53191425D01*
X107598004Y-53478213D01*
X107795512Y-53773805D01*
X107893596Y-53920598D01*
X108097203Y-54412148D01*
X108201000Y-54933973D01*
X108201000Y-55466027D01*
X108097203Y-55987852D01*
X107893596Y-56479402D01*
X107893595Y-56479403D01*
X107598004Y-56921787D01*
X107221787Y-57298004D01*
X106926195Y-57495512D01*
X106779402Y-57593596D01*
X106287852Y-57797203D01*
X105766027Y-57901000D01*
X105233973Y-57901000D01*
X104712148Y-57797203D01*
X104220598Y-57593596D01*
X104073805Y-57495512D01*
X103778213Y-57298004D01*
X103401996Y-56921787D01*
X103106405Y-56479403D01*
X103106404Y-56479402D01*
X102902797Y-55987852D01*
X102799000Y-55466027D01*
X102799000Y-54933973D01*
X102902797Y-54412148D01*
X103106404Y-53920598D01*
X103204488Y-53773805D01*
X103401996Y-53478213D01*
X103778213Y-53101996D01*
X104220597Y-52806405D01*
X104220598Y-52806404D01*
X104712148Y-52602797D01*
X105233973Y-52499000D01*
X105766027Y-52499000D01*
X106287852Y-52602797D01*
X106552556Y-52712441D01*
X106576005Y-52719554D01*
X106600391Y-52721956D01*
X106624777Y-52719554D01*
X106648226Y-52712441D01*
X106669837Y-52700890D01*
X106688779Y-52685345D01*
X106704324Y-52666403D01*
X106715875Y-52644792D01*
X106722988Y-52621343D01*
X106725390Y-52596957D01*
X106722988Y-52572571D01*
X106715875Y-52549122D01*
X106704324Y-52527511D01*
X106688784Y-52508575D01*
X106401996Y-52221787D01*
X106106405Y-51779403D01*
X106106404Y-51779402D01*
X105902797Y-51287852D01*
X105799000Y-50766027D01*
X105799000Y-50233973D01*
X105902797Y-49712148D01*
X106106404Y-49220598D01*
X106338816Y-48872769D01*
X106401996Y-48778213D01*
X106778213Y-48401996D01*
X107220597Y-48106405D01*
X107220598Y-48106404D01*
X107712148Y-47902797D01*
X108233973Y-47799000D01*
X108766027Y-47799000D01*
X109287852Y-47902797D01*
X109287852Y-47902797D01*
G37*
G36*
X103244098Y-48047033D02*
G01*
X103708350Y-48239332D01*
X103708352Y-48239333D01*
X104126168Y-48518509D01*
X104481491Y-48873832D01*
X104760667Y-49291648D01*
X104760668Y-49291650D01*
X104952967Y-49755902D01*
X105051000Y-50248747D01*
X105051000Y-50751253D01*
X104952967Y-51244098D01*
X104768478Y-51689495D01*
X104760667Y-51708352D01*
X104481491Y-52126168D01*
X104126168Y-52481491D01*
X103708352Y-52760667D01*
X103708351Y-52760668D01*
X103708350Y-52760668D01*
X103244098Y-52952967D01*
X102751253Y-53051000D01*
X102248747Y-53051000D01*
X101755902Y-52952967D01*
X101291650Y-52760668D01*
X101291649Y-52760668D01*
X101291648Y-52760667D01*
X100873832Y-52481491D01*
X100518509Y-52126168D01*
X100239333Y-51708352D01*
X100231522Y-51689495D01*
X100047033Y-51244098D01*
X99949000Y-50751253D01*
X99949000Y-50248747D01*
X100047033Y-49755902D01*
X100239332Y-49291650D01*
X100239333Y-49291648D01*
X100518509Y-48873832D01*
X100873832Y-48518509D01*
X101291648Y-48239333D01*
X101291650Y-48239332D01*
X101755902Y-48047033D01*
X102248747Y-47949000D01*
X102751253Y-47949000D01*
X103244098Y-48047033D01*
X103244098Y-48047033D01*
G37*
G36*
X193275880Y-47759776D02*
G01*
X193656593Y-47835504D01*
X194066249Y-48005189D01*
X194434929Y-48251534D01*
X194748466Y-48565071D01*
X194994811Y-48933751D01*
X195164496Y-49343407D01*
X195215336Y-49599000D01*
X195246546Y-49755901D01*
X195251000Y-49778296D01*
X195251000Y-50221704D01*
X195164496Y-50656593D01*
X194994811Y-51066249D01*
X194748466Y-51434929D01*
X194434929Y-51748466D01*
X194066249Y-51994811D01*
X193656593Y-52164496D01*
X193275880Y-52240224D01*
X193221705Y-52251000D01*
X192778295Y-52251000D01*
X192724120Y-52240224D01*
X192343407Y-52164496D01*
X191933751Y-51994811D01*
X191565071Y-51748466D01*
X191251534Y-51434929D01*
X191005189Y-51066249D01*
X190835504Y-50656593D01*
X190749000Y-50221704D01*
X190749000Y-49778296D01*
X190753455Y-49755901D01*
X190784664Y-49599000D01*
X190835504Y-49343407D01*
X191005189Y-48933751D01*
X191251534Y-48565071D01*
X191565071Y-48251534D01*
X191933751Y-48005189D01*
X192343407Y-47835504D01*
X192724120Y-47759776D01*
X192778295Y-47749000D01*
X193221705Y-47749000D01*
X193275880Y-47759776D01*
X193275880Y-47759776D01*
G37*
G36*
X157401000Y-47901000D02*
G01*
X155599000Y-47901000D01*
X155599000Y-46099000D01*
X157401000Y-46099000D01*
X157401000Y-47901000D01*
X157401000Y-47901000D01*
G37*
G36*
X154070442Y-46105518D02*
G01*
X154136627Y-46112037D01*
X154306466Y-46163557D01*
X154462991Y-46247222D01*
X154498729Y-46276552D01*
X154600186Y-46359814D01*
X154683448Y-46461271D01*
X154712778Y-46497009D01*
X154796443Y-46653534D01*
X154847963Y-46823373D01*
X154865359Y-47000000D01*
X154847963Y-47176627D01*
X154796443Y-47346466D01*
X154712778Y-47502991D01*
X154683448Y-47538729D01*
X154600186Y-47640186D01*
X154498729Y-47723448D01*
X154462991Y-47752778D01*
X154306466Y-47836443D01*
X154136627Y-47887963D01*
X154070442Y-47894482D01*
X154004260Y-47901000D01*
X153915740Y-47901000D01*
X153849558Y-47894482D01*
X153783373Y-47887963D01*
X153613534Y-47836443D01*
X153457009Y-47752778D01*
X153421271Y-47723448D01*
X153319814Y-47640186D01*
X153236552Y-47538729D01*
X153207222Y-47502991D01*
X153123557Y-47346466D01*
X153072037Y-47176627D01*
X153054641Y-47000000D01*
X153072037Y-46823373D01*
X153123557Y-46653534D01*
X153207222Y-46497009D01*
X153236552Y-46461271D01*
X153319814Y-46359814D01*
X153421271Y-46276552D01*
X153457009Y-46247222D01*
X153613534Y-46163557D01*
X153783373Y-46112037D01*
X153849558Y-46105518D01*
X153915740Y-46099000D01*
X154004260Y-46099000D01*
X154070442Y-46105518D01*
X154070442Y-46105518D01*
G37*
M02*
