M48
; DRILL file {KiCad (5.1.4)-1} date 12/12/2019 13:04:48
; FORMAT={-:-/ absolute / inch / decimal}
; #@! TF.CreationDate,2019-12-12T13:04:48+01:00
; #@! TF.GenerationSoftware,Kicad,Pcbnew,(5.1.4)-1
; #@! TF.FileFunction,Plated,1,2,PTH
FMAT,2
INCH
T1C0.0157
T2C0.0217
T3C0.0236
T4C0.0315
T5C0.0394
T6C0.0551
T7C0.0591
T8C0.0866
T9C0.1245
T10C0.1433
%
G90
G05
T1
X3.8307Y-3.6752
X3.7657Y-4.1339
X3.7848Y-4.0879
X3.7848Y-4.1798
X3.8307Y-4.0689
X3.8307Y-4.1988
X3.8766Y-4.0879
X3.8766Y-4.1798
X3.8957Y-4.1339
X7.5531Y-2.5591
X7.5722Y-2.5131
X7.5722Y-2.605
X7.6181Y-2.4941
X7.6181Y-2.624
X7.664Y-2.5131
X7.664Y-2.605
X7.6831Y-2.5591
X7.5531Y-1.9685
X7.5722Y-1.9226
X7.5722Y-2.0144
X7.6181Y-1.9035
X7.6181Y-2.0335
X7.664Y-1.9226
X7.664Y-2.0144
X7.6831Y-1.9685
X3.7657Y-3.7402
X3.7848Y-3.6942
X3.7848Y-3.7861
X3.8307Y-3.8051
X3.8766Y-3.6942
X3.8766Y-3.7861
X3.8957Y-3.7402
T2
X5.0197Y-4.3012
X5.0689Y-4.3012
X5.1181Y-4.3012
X5.1673Y-4.3012
X5.2165Y-4.3012
X5.2657Y-4.3012
X5.315Y-4.3012
X5.3642Y-4.3012
T3
X4.0512Y-2.5472
X4.122Y-3.3189
X4.2087Y-2.5472
X4.4291Y-3.4843
X4.4685Y-3.5787
X4.5276Y-3.7677
X4.5276Y-3.878
X4.5866Y-2.9528
X4.6358Y-2.9035
X4.6358Y-2.9528
X4.6457Y-2.4213
X4.6555Y-1.9882
X4.6555Y-2.185
X4.6752Y-3.5236
X4.6752Y-3.7303
X4.6949Y-2.9035
X4.6949Y-2.9528
X4.6949Y-3.002
X4.6949Y-3.0512
X4.6949Y-3.1004
X4.6949Y-3.1496
X4.6949Y-3.2087
X4.7539Y-2.9035
X4.7539Y-2.9528
X4.7539Y-3.002
X4.7539Y-3.0512
X4.7539Y-3.1004
X4.7539Y-3.1496
X4.8228Y-2.4213
X4.9213Y-3.5236
X4.9213Y-3.7303
X4.9606Y-2.4213
X4.9803Y-2.0079
X5.0132Y-2.7427
X5.0157Y-4.0433
X5.0315Y-3.2165
X5.0768Y-3.3583
X5.0787Y-3.0157
X5.0807Y-3.435
X5.1181Y-2.3622
X5.1575Y-3.7402
X5.187Y-2.7461
X5.2598Y-4.0512
X5.3839Y-3.0315
X5.3839Y-3.1102
X5.3839Y-3.5827
X5.3858Y-3.4252
X5.3858Y-3.7008
X5.4035Y-3.2382
X5.4173Y-3.9606
X5.4626Y-1.9685
X5.4685Y-4.0512
X5.4823Y-3.3169
X5.4823Y-3.1339
X5.502Y-2.5886
X5.5217Y-3.7205
X5.5217Y-4.1339
X5.5276Y-2.374
X5.5295Y-3.8642
X5.5413Y-4.0846
X5.5807Y-4.1142
X5.5827Y-2.9331
X5.5906Y-3.5433
X5.6732Y-2.9331
X5.69Y-3.3573
X5.752Y-4.0354
X5.7598Y-3.6732
X5.7756Y-3.874
X5.7776Y-3.1988
X5.815Y-3.3346
X5.8543Y-3.626
X5.8858Y-3.2835
X5.9646Y-2.0079
X5.9921Y-2.9921
X5.9921Y-3.0866
X6.0335Y-3.7303
X6.0433Y-2.126
X6.065Y-3.2598
X6.065Y-3.1476
X6.0728Y-2.0079
X6.0787Y-2.7087
X6.0807Y-2.4429
X6.1044Y-3.7277
X6.1122Y-3.1476
X6.1142Y-3.2539
X6.1161Y-4.0965
X6.1339Y-2.5157
X6.1378Y-2.7047
X6.1516Y-3.7402
X6.1594Y-3.1476
X6.1614Y-3.25
X6.1614Y-4.1772
X6.1614Y-3.7894
X6.1713Y-2.2835
X6.1713Y-2.4114
X6.2008Y-3.4331
X6.2087Y-3.252
X6.25Y-4.2421
X6.2677Y-3.1417
X6.3287Y-2.4803
X6.3661Y-3.3583
X6.4606Y-3.2559
X6.4606Y-4.3228
X6.4646Y-2.5787
X6.4764Y-3.563
X6.4764Y-3.6516
X6.4764Y-3.7303
X6.4764Y-3.7992
X6.4764Y-3.878
X6.4764Y-3.9567
X6.4764Y-4.0256
X6.4764Y-4.1142
X6.5748Y-2.5551
X6.5827Y-3.1516
X6.6339Y-3.563
X6.6339Y-3.7303
X6.6339Y-3.878
X6.6339Y-4.0256
X6.6969Y-4.3228
X6.8169Y-3.252
X6.8189Y-2.7835
X6.9606Y-4.3228
X7.0118Y-2.5748
X7.1329Y-2.5738
X7.1339Y-3.1319
X7.1358Y-3.252
X7.1516Y-2.7805
X7.2244Y-3.1398
X7.2264Y-3.2539
X7.2431Y-2.5728
T4
X5.6496Y-2.7598
X5.6496Y-2.8386
X5.7283Y-2.7598
X5.7283Y-2.8386
X5.8071Y-2.7598
X5.8071Y-2.8386
X5.8858Y-2.7598
X5.8858Y-2.8386
X5.9646Y-2.7598
X5.9646Y-2.8386
T5
X5.9646Y-4.2224
X6.0646Y-4.2224
X6.0614Y-1.8504
X6.1614Y-1.8504
T6
X4.124Y-3.061
X7.3819Y-4.1142
T7
X4.0236Y-2.9606
X4.0236Y-3.1614
X4.2244Y-2.9606
X4.2244Y-3.1614
X7.2815Y-4.0138
X7.2815Y-4.2146
X7.4823Y-4.0138
X7.4823Y-4.2146
T8
X7.6181Y-2.5591
X7.6181Y-1.9685
X3.8307Y-3.7402
X3.8307Y-4.1339
T9
X4.0354Y-1.9882
T10
X4.1535Y-2.1732
X4.2717Y-1.9882
T0
M30
