G04 #@! TF.GenerationSoftware,KiCad,Pcbnew,(5.1.4)-1*
G04 #@! TF.CreationDate,2019-12-12T13:05:01+01:00*
G04 #@! TF.ProjectId,Schaltplan_embedded,53636861-6c74-4706-9c61-6e5f656d6265,rev?*
G04 #@! TF.SameCoordinates,Original*
G04 #@! TF.FileFunction,Legend,Top*
G04 #@! TF.FilePolarity,Positive*
%FSLAX46Y46*%
G04 Gerber Fmt 4.6, Leading zero omitted, Abs format (unit mm)*
G04 Created by KiCad (PCBNEW (5.1.4)-1) date 2019-12-12 13:05:01*
%MOMM*%
%LPD*%
G04 APERTURE LIST*
%ADD10C,0.120000*%
%ADD11C,0.150000*%
%ADD12C,0.200000*%
%ADD13C,0.100000*%
%ADD14C,0.254000*%
%ADD15C,0.152400*%
G04 APERTURE END LIST*
D10*
X152500000Y-18000000D02*
X152500000Y-18000000D01*
X129000000Y-89275000D02*
X134000000Y-89275000D01*
X134000000Y-89275000D02*
X134000000Y-92475000D01*
X129000000Y-89275000D02*
X129000000Y-92475000D01*
X129000000Y-92495000D02*
X134000000Y-92495000D01*
D11*
X141600000Y-68350000D02*
X141600000Y-73850000D01*
X141600000Y-73850000D02*
X153400000Y-73850000D01*
X153400000Y-73850000D02*
X153400000Y-68350000D01*
X153400000Y-68350000D02*
X141600000Y-68350000D01*
X142200000Y-68950000D02*
X142200000Y-73250000D01*
X142200000Y-73250000D02*
X152800000Y-73250000D01*
X152800000Y-73250000D02*
X152800000Y-68950000D01*
X152800000Y-68950000D02*
X142200000Y-68950000D01*
X143500000Y-74100000D02*
X143200000Y-74700000D01*
X143200000Y-74700000D02*
X143800000Y-74700000D01*
X143800000Y-74700000D02*
X143500000Y-74100000D01*
D10*
X128350000Y-90150000D02*
X128350000Y-90850000D01*
X127150000Y-90850000D02*
X127150000Y-90150000D01*
X109738748Y-96460000D02*
X110261252Y-96460000D01*
X109738748Y-95040000D02*
X110261252Y-95040000D01*
D12*
X123100000Y-71050000D02*
G75*
G03X123100000Y-70850000I0J100000D01*
G01*
X123100000Y-70850000D02*
G75*
G03X123100000Y-71050000I0J-100000D01*
G01*
X123100000Y-70850000D02*
X123100000Y-70850000D01*
X123100000Y-71050000D02*
X123100000Y-71050000D01*
D13*
X120000000Y-65750000D02*
X120000000Y-71750000D01*
X114000000Y-65750000D02*
X120000000Y-65750000D01*
X114000000Y-71750000D02*
X114000000Y-65750000D01*
X120000000Y-71750000D02*
X114000000Y-71750000D01*
D11*
X139325000Y-88888442D02*
X139325000Y-89888442D01*
X149675000Y-88888442D02*
X149675000Y-89963442D01*
X149675000Y-99238442D02*
X149675000Y-98163442D01*
X139325000Y-99238442D02*
X139325000Y-98163442D01*
X139325000Y-88888442D02*
X140400000Y-88888442D01*
X139325000Y-99238442D02*
X140400000Y-99238442D01*
X149675000Y-99238442D02*
X148600000Y-99238442D01*
X149675000Y-88888442D02*
X148600000Y-88888442D01*
X139325000Y-89888442D02*
X138300000Y-89888442D01*
D10*
X136620000Y-57600000D02*
X136620000Y-56400000D01*
X138380000Y-56400000D02*
X138380000Y-57600000D01*
X174860000Y-74090000D02*
X174860000Y-78670000D01*
X175620000Y-73330000D02*
X174860000Y-74090000D01*
X180190000Y-74090000D02*
X179430000Y-73330000D01*
X180190000Y-78670000D02*
X180190000Y-74090000D01*
X179430000Y-73330000D02*
X178640000Y-73330000D01*
X175620000Y-73330000D02*
X176410000Y-73330000D01*
X174860000Y-78670000D02*
X176410000Y-78670000D01*
X180190000Y-78670000D02*
X178640000Y-78670000D01*
X170000000Y-67650000D02*
X169000000Y-67650000D01*
X169000000Y-69350000D02*
X170000000Y-69350000D01*
X166190000Y-78670000D02*
X164640000Y-78670000D01*
X160860000Y-78670000D02*
X162410000Y-78670000D01*
X161620000Y-73330000D02*
X162410000Y-73330000D01*
X165430000Y-73330000D02*
X164640000Y-73330000D01*
X166190000Y-78670000D02*
X166190000Y-74090000D01*
X166190000Y-74090000D02*
X165430000Y-73330000D01*
X161620000Y-73330000D02*
X160860000Y-74090000D01*
X160860000Y-74090000D02*
X160860000Y-78670000D01*
X175850000Y-69100000D02*
X175150000Y-69100000D01*
X175150000Y-67900000D02*
X175850000Y-67900000D01*
X173690000Y-78670000D02*
X172140000Y-78670000D01*
X168360000Y-78670000D02*
X169910000Y-78670000D01*
X169120000Y-73330000D02*
X169910000Y-73330000D01*
X172930000Y-73330000D02*
X172140000Y-73330000D01*
X173690000Y-78670000D02*
X173690000Y-74090000D01*
X173690000Y-74090000D02*
X172930000Y-73330000D01*
X169120000Y-73330000D02*
X168360000Y-74090000D01*
X168360000Y-74090000D02*
X168360000Y-78670000D01*
X163000000Y-69350000D02*
X164000000Y-69350000D01*
X164000000Y-67650000D02*
X163000000Y-67650000D01*
D13*
X109200000Y-47500000D02*
X109200000Y-46000000D01*
X109200000Y-46000000D02*
X94000000Y-46000000D01*
X94000000Y-46000000D02*
X94000000Y-55000000D01*
X94000000Y-55000000D02*
X102000000Y-55000000D01*
D12*
X136250000Y-110400000D02*
X125900000Y-110400000D01*
X125900000Y-110400000D02*
X125900000Y-104700000D01*
X125900000Y-104700000D02*
X137850000Y-104700000D01*
X137850000Y-104700000D02*
X137850000Y-109250000D01*
D13*
X161630000Y-89380000D02*
X169750000Y-89380000D01*
X175750000Y-105620000D02*
X177870000Y-105620000D01*
X177870000Y-105620000D02*
X177870000Y-105450000D01*
X161630000Y-105620000D02*
X163750000Y-105620000D01*
X161630000Y-105620000D02*
X161630000Y-105450000D01*
X175750000Y-89380000D02*
X177870000Y-89380000D01*
X177870000Y-89380000D02*
X177870000Y-89550000D01*
D10*
X185050000Y-96000000D02*
X185050000Y-97000000D01*
X186750000Y-97000000D02*
X186750000Y-96000000D01*
X105630000Y-94400000D02*
X105630000Y-95600000D01*
X103870000Y-95600000D02*
X103870000Y-94400000D01*
X132380000Y-56400000D02*
X132380000Y-57600000D01*
X130620000Y-57600000D02*
X130620000Y-56400000D01*
X133620000Y-57600000D02*
X133620000Y-56400000D01*
X135380000Y-56400000D02*
X135380000Y-57600000D01*
X147780000Y-59100000D02*
X147780000Y-60300000D01*
X146020000Y-60300000D02*
X146020000Y-59100000D01*
X155800000Y-52020000D02*
X157000000Y-52020000D01*
X157000000Y-53780000D02*
X155800000Y-53780000D01*
X145200000Y-48080000D02*
X144000000Y-48080000D01*
X144000000Y-46320000D02*
X145200000Y-46320000D01*
X145300000Y-52980000D02*
X144100000Y-52980000D01*
X144100000Y-51220000D02*
X145300000Y-51220000D01*
X145300000Y-55580000D02*
X144100000Y-55580000D01*
X144100000Y-53820000D02*
X145300000Y-53820000D01*
X123500000Y-56180000D02*
X122500000Y-56180000D01*
X122500000Y-54820000D02*
X123500000Y-54820000D01*
X122400000Y-52120000D02*
X123600000Y-52120000D01*
X123600000Y-53880000D02*
X122400000Y-53880000D01*
X130350000Y-98130000D02*
X129150000Y-98130000D01*
X129150000Y-96370000D02*
X130350000Y-96370000D01*
X131520000Y-66500000D02*
X131520000Y-65300000D01*
X133280000Y-65300000D02*
X133280000Y-66500000D01*
X131900000Y-83870000D02*
X133100000Y-83870000D01*
X133100000Y-85630000D02*
X131900000Y-85630000D01*
D13*
X101250000Y-79250000D02*
X101250000Y-76250000D01*
X106250000Y-81250000D02*
X103250000Y-81250000D01*
X106250000Y-74250000D02*
X103250000Y-74250000D01*
X108250000Y-79250000D02*
X108250000Y-76250000D01*
X191000000Y-103000000D02*
X191000000Y-106000000D01*
X186000000Y-101000000D02*
X189000000Y-101000000D01*
X186000000Y-108000000D02*
X189000000Y-108000000D01*
X184000000Y-103000000D02*
X184000000Y-106000000D01*
D14*
X126850000Y-86325000D02*
G75*
G03X126850000Y-86325000I-125000J0D01*
G01*
D12*
X124925000Y-75950000D02*
X124925000Y-86050000D01*
X118075000Y-75950000D02*
X124925000Y-75950000D01*
X118075000Y-86050000D02*
X118075000Y-75950000D01*
X124925000Y-86050000D02*
X118075000Y-86050000D01*
D15*
X110427800Y-89759400D02*
X110072200Y-89759400D01*
X110885000Y-90902400D02*
X110885000Y-90597600D01*
X110072200Y-91740600D02*
X110427800Y-91740600D01*
D12*
X129325000Y-49450000D02*
X130800000Y-49450000D01*
X131150000Y-52500000D02*
X131150000Y-49500000D01*
X134850000Y-52500000D02*
X131150000Y-52500000D01*
X134850000Y-49500000D02*
X134850000Y-52500000D01*
X131150000Y-49500000D02*
X134850000Y-49500000D01*
X165500000Y-62900000D02*
G75*
G03X165700000Y-62900000I100000J0D01*
G01*
X165700000Y-62900000D02*
G75*
G03X165500000Y-62900000I-100000J0D01*
G01*
X165700000Y-62900000D02*
X165700000Y-62900000D01*
X165500000Y-62900000D02*
X165500000Y-62900000D01*
D13*
X174000000Y-57250000D02*
X174000000Y-56000000D01*
X164000000Y-57250000D02*
X174000000Y-57250000D01*
X164000000Y-56000000D02*
X164000000Y-57250000D01*
D14*
X149325000Y-55825000D02*
G75*
G03X149325000Y-55825000I-125000J0D01*
G01*
D12*
X179000000Y-62900000D02*
G75*
G03X179200000Y-62900000I100000J0D01*
G01*
X179200000Y-62900000D02*
G75*
G03X179000000Y-62900000I-100000J0D01*
G01*
X179200000Y-62900000D02*
X179200000Y-62900000D01*
X179000000Y-62900000D02*
X179000000Y-62900000D01*
D13*
X187500000Y-57250000D02*
X187500000Y-56000000D01*
X177500000Y-57250000D02*
X187500000Y-57250000D01*
X177500000Y-56000000D02*
X177500000Y-57250000D01*
D14*
X144034000Y-57051000D02*
G75*
G03X144034000Y-57051000I-37000J0D01*
G01*
D12*
X144950000Y-60975000D02*
X144950000Y-60299000D01*
X144950000Y-60975000D02*
X144548000Y-60975000D01*
X143050000Y-60975000D02*
X143452000Y-60975000D01*
X143050000Y-60975000D02*
X143050000Y-60299000D01*
D10*
X124500000Y-98000000D02*
X121300000Y-98000000D01*
X121300000Y-96500000D02*
X124500000Y-96500000D01*
X121300000Y-96500000D02*
X121300000Y-98000000D01*
X103750000Y-91350000D02*
X104750000Y-91350000D01*
X104750000Y-89650000D02*
X103750000Y-89650000D01*
X182550000Y-96150000D02*
X182550000Y-97150000D01*
X184250000Y-97150000D02*
X184250000Y-96150000D01*
X129350000Y-57500000D02*
X129350000Y-56500000D01*
X127650000Y-56500000D02*
X127650000Y-57500000D01*
X135000000Y-47350000D02*
X136000000Y-47350000D01*
X136000000Y-45650000D02*
X135000000Y-45650000D01*
X144100000Y-50450000D02*
X145100000Y-50450000D01*
X145100000Y-48750000D02*
X144100000Y-48750000D01*
X158700000Y-59750000D02*
X158700000Y-59050000D01*
X159900000Y-59050000D02*
X159900000Y-59750000D01*
X152400000Y-59350000D02*
X152400000Y-60050000D01*
X151200000Y-60050000D02*
X151200000Y-59350000D01*
X122500000Y-51350000D02*
X123500000Y-51350000D01*
X123500000Y-49650000D02*
X122500000Y-49650000D01*
X156800000Y-54350000D02*
X155800000Y-54350000D01*
X155800000Y-56050000D02*
X156800000Y-56050000D01*
X123500000Y-47150000D02*
X122500000Y-47150000D01*
X122500000Y-48850000D02*
X123500000Y-48850000D01*
X150250000Y-60200000D02*
X150250000Y-59200000D01*
X148550000Y-59200000D02*
X148550000Y-60200000D01*
X189690000Y-78670000D02*
X188140000Y-78670000D01*
X184360000Y-78670000D02*
X185910000Y-78670000D01*
X185120000Y-73330000D02*
X185910000Y-73330000D01*
X188930000Y-73330000D02*
X188140000Y-73330000D01*
X189690000Y-78670000D02*
X189690000Y-74090000D01*
X189690000Y-74090000D02*
X188930000Y-73330000D01*
X185120000Y-73330000D02*
X184360000Y-74090000D01*
X184360000Y-74090000D02*
X184360000Y-78670000D01*
X186400000Y-69250000D02*
X185700000Y-69250000D01*
X185700000Y-68050000D02*
X186400000Y-68050000D01*
X135050000Y-65400000D02*
X135050000Y-66400000D01*
X136750000Y-66400000D02*
X136750000Y-65400000D01*
X129000000Y-100850000D02*
X130000000Y-100850000D01*
X130000000Y-99150000D02*
X129000000Y-99150000D01*
X131750000Y-87850000D02*
X132750000Y-87850000D01*
X132750000Y-86150000D02*
X131750000Y-86150000D01*
X151200000Y-86550000D02*
X152200000Y-86550000D01*
X152200000Y-84850000D02*
X151200000Y-84850000D01*
X152000000Y-100900000D02*
X151000000Y-100900000D01*
X151000000Y-102600000D02*
X152000000Y-102600000D01*
X135850000Y-90150000D02*
X135850000Y-90850000D01*
X134650000Y-90850000D02*
X134650000Y-90150000D01*
X150170000Y-108580000D02*
X150170000Y-107250000D01*
X151500000Y-108580000D02*
X150170000Y-108580000D01*
X152770000Y-108580000D02*
X152770000Y-105920000D01*
X152770000Y-105920000D02*
X155370000Y-105920000D01*
X152770000Y-108580000D02*
X155370000Y-108580000D01*
X155370000Y-108580000D02*
X155370000Y-105920000D01*
D12*
X111400000Y-79700000D02*
X111400000Y-81350000D01*
X110600000Y-80150000D02*
X110600000Y-81350000D01*
D10*
X157830000Y-45670000D02*
X157830000Y-47000000D01*
X156500000Y-45670000D02*
X157830000Y-45670000D01*
X155230000Y-45670000D02*
X155230000Y-48330000D01*
X155230000Y-48330000D02*
X152630000Y-48330000D01*
X155230000Y-45670000D02*
X152630000Y-45670000D01*
X152630000Y-45670000D02*
X152630000Y-48330000D01*
X105261252Y-88210000D02*
X104738748Y-88210000D01*
X105261252Y-86790000D02*
X104738748Y-86790000D01*
X132988748Y-80210000D02*
X133511252Y-80210000D01*
X132988748Y-78790000D02*
X133511252Y-78790000D01*
X132988748Y-81540000D02*
X133511252Y-81540000D01*
X132988748Y-82960000D02*
X133511252Y-82960000D01*
X131938748Y-77710000D02*
X132461252Y-77710000D01*
X131938748Y-76290000D02*
X132461252Y-76290000D01*
X136738748Y-73790000D02*
X137261252Y-73790000D01*
X136738748Y-75210000D02*
X137261252Y-75210000D01*
X113761252Y-78460000D02*
X113238748Y-78460000D01*
X113761252Y-77040000D02*
X113238748Y-77040000D01*
X180540000Y-104761252D02*
X180540000Y-104238748D01*
X181960000Y-104761252D02*
X181960000Y-104238748D01*
X113960000Y-81238748D02*
X113960000Y-81761252D01*
X112540000Y-81238748D02*
X112540000Y-81761252D01*
X123961252Y-88310000D02*
X123438748Y-88310000D01*
X123961252Y-86890000D02*
X123438748Y-86890000D01*
X132511252Y-73790000D02*
X131988748Y-73790000D01*
X132511252Y-75210000D02*
X131988748Y-75210000D01*
X122738748Y-58710000D02*
X123261252Y-58710000D01*
X122738748Y-57290000D02*
X123261252Y-57290000D01*
D11*
X95966666Y-102252380D02*
X95633333Y-101776190D01*
X95395238Y-102252380D02*
X95395238Y-101252380D01*
X95776190Y-101252380D01*
X95871428Y-101300000D01*
X95919047Y-101347619D01*
X95966666Y-101442857D01*
X95966666Y-101585714D01*
X95919047Y-101680952D01*
X95871428Y-101728571D01*
X95776190Y-101776190D01*
X95395238Y-101776190D01*
X96395238Y-101728571D02*
X96728571Y-101728571D01*
X96871428Y-102252380D02*
X96395238Y-102252380D01*
X96395238Y-101252380D01*
X96871428Y-101252380D01*
X97633333Y-101728571D02*
X97300000Y-101728571D01*
X97300000Y-102252380D02*
X97300000Y-101252380D01*
X97776190Y-101252380D01*
X98300000Y-101252380D02*
X98300000Y-101490476D01*
X98061904Y-101395238D02*
X98300000Y-101490476D01*
X98538095Y-101395238D01*
X98157142Y-101680952D02*
X98300000Y-101490476D01*
X98442857Y-101680952D01*
X99061904Y-101252380D02*
X99061904Y-101490476D01*
X98823809Y-101395238D02*
X99061904Y-101490476D01*
X99300000Y-101395238D01*
X98919047Y-101680952D02*
X99061904Y-101490476D01*
X99204761Y-101680952D01*
X95966666Y-92252380D02*
X95633333Y-91776190D01*
X95395238Y-92252380D02*
X95395238Y-91252380D01*
X95776190Y-91252380D01*
X95871428Y-91300000D01*
X95919047Y-91347619D01*
X95966666Y-91442857D01*
X95966666Y-91585714D01*
X95919047Y-91680952D01*
X95871428Y-91728571D01*
X95776190Y-91776190D01*
X95395238Y-91776190D01*
X96395238Y-91728571D02*
X96728571Y-91728571D01*
X96871428Y-92252380D02*
X96395238Y-92252380D01*
X96395238Y-91252380D01*
X96871428Y-91252380D01*
X97633333Y-91728571D02*
X97300000Y-91728571D01*
X97300000Y-92252380D02*
X97300000Y-91252380D01*
X97776190Y-91252380D01*
X98300000Y-91252380D02*
X98300000Y-91490476D01*
X98061904Y-91395238D02*
X98300000Y-91490476D01*
X98538095Y-91395238D01*
X98157142Y-91680952D02*
X98300000Y-91490476D01*
X98442857Y-91680952D01*
X99061904Y-91252380D02*
X99061904Y-91490476D01*
X98823809Y-91395238D02*
X99061904Y-91490476D01*
X99300000Y-91395238D01*
X98919047Y-91680952D02*
X99061904Y-91490476D01*
X99204761Y-91680952D01*
X192166666Y-62252380D02*
X191833333Y-61776190D01*
X191595238Y-62252380D02*
X191595238Y-61252380D01*
X191976190Y-61252380D01*
X192071428Y-61300000D01*
X192119047Y-61347619D01*
X192166666Y-61442857D01*
X192166666Y-61585714D01*
X192119047Y-61680952D01*
X192071428Y-61728571D01*
X191976190Y-61776190D01*
X191595238Y-61776190D01*
X192595238Y-61728571D02*
X192928571Y-61728571D01*
X193071428Y-62252380D02*
X192595238Y-62252380D01*
X192595238Y-61252380D01*
X193071428Y-61252380D01*
X193833333Y-61728571D02*
X193500000Y-61728571D01*
X193500000Y-62252380D02*
X193500000Y-61252380D01*
X193976190Y-61252380D01*
X194500000Y-61252380D02*
X194500000Y-61490476D01*
X194261904Y-61395238D02*
X194500000Y-61490476D01*
X194738095Y-61395238D01*
X194357142Y-61680952D02*
X194500000Y-61490476D01*
X194642857Y-61680952D01*
X195261904Y-61252380D02*
X195261904Y-61490476D01*
X195023809Y-61395238D02*
X195261904Y-61490476D01*
X195500000Y-61395238D01*
X195119047Y-61680952D02*
X195261904Y-61490476D01*
X195404761Y-61680952D01*
X190752380Y-51333333D02*
X190276190Y-51666666D01*
X190752380Y-51904761D02*
X189752380Y-51904761D01*
X189752380Y-51523809D01*
X189800000Y-51428571D01*
X189847619Y-51380952D01*
X189942857Y-51333333D01*
X190085714Y-51333333D01*
X190180952Y-51380952D01*
X190228571Y-51428571D01*
X190276190Y-51523809D01*
X190276190Y-51904761D01*
X190228571Y-50904761D02*
X190228571Y-50571428D01*
X190752380Y-50428571D02*
X190752380Y-50904761D01*
X189752380Y-50904761D01*
X189752380Y-50428571D01*
X190228571Y-49666666D02*
X190228571Y-50000000D01*
X190752380Y-50000000D02*
X189752380Y-50000000D01*
X189752380Y-49523809D01*
X189752380Y-49000000D02*
X189990476Y-49000000D01*
X189895238Y-49238095D02*
X189990476Y-49000000D01*
X189895238Y-48761904D01*
X190180952Y-49142857D02*
X189990476Y-49000000D01*
X190180952Y-48857142D01*
X189752380Y-48238095D02*
X189990476Y-48238095D01*
X189895238Y-48476190D02*
X189990476Y-48238095D01*
X189895238Y-48000000D01*
X190180952Y-48380952D02*
X189990476Y-48238095D01*
X190180952Y-48095238D01*
X128748809Y-87101190D02*
X128748809Y-87577380D01*
X128415476Y-86577380D02*
X128748809Y-87101190D01*
X129082142Y-86577380D01*
X129939285Y-87577380D02*
X129367857Y-87577380D01*
X129653571Y-87577380D02*
X129653571Y-86577380D01*
X129558333Y-86720238D01*
X129463095Y-86815476D01*
X129367857Y-86863095D01*
X147166666Y-66552380D02*
X147166666Y-67266666D01*
X147119047Y-67409523D01*
X147023809Y-67504761D01*
X146880952Y-67552380D01*
X146785714Y-67552380D01*
X148166666Y-67552380D02*
X147595238Y-67552380D01*
X147880952Y-67552380D02*
X147880952Y-66552380D01*
X147785714Y-66695238D01*
X147690476Y-66790476D01*
X147595238Y-66838095D01*
X128107142Y-93666666D02*
X128154761Y-93714285D01*
X128202380Y-93857142D01*
X128202380Y-93952380D01*
X128154761Y-94095238D01*
X128059523Y-94190476D01*
X127964285Y-94238095D01*
X127773809Y-94285714D01*
X127630952Y-94285714D01*
X127440476Y-94238095D01*
X127345238Y-94190476D01*
X127250000Y-94095238D01*
X127202380Y-93952380D01*
X127202380Y-93857142D01*
X127250000Y-93714285D01*
X127297619Y-93666666D01*
X127297619Y-93285714D02*
X127250000Y-93238095D01*
X127202380Y-93142857D01*
X127202380Y-92904761D01*
X127250000Y-92809523D01*
X127297619Y-92761904D01*
X127392857Y-92714285D01*
X127488095Y-92714285D01*
X127630952Y-92761904D01*
X128202380Y-93333333D01*
X128202380Y-92714285D01*
X109607142Y-98107142D02*
X109559523Y-98154761D01*
X109416666Y-98202380D01*
X109321428Y-98202380D01*
X109178571Y-98154761D01*
X109083333Y-98059523D01*
X109035714Y-97964285D01*
X108988095Y-97773809D01*
X108988095Y-97630952D01*
X109035714Y-97440476D01*
X109083333Y-97345238D01*
X109178571Y-97250000D01*
X109321428Y-97202380D01*
X109416666Y-97202380D01*
X109559523Y-97250000D01*
X109607142Y-97297619D01*
X110559523Y-98202380D02*
X109988095Y-98202380D01*
X110273809Y-98202380D02*
X110273809Y-97202380D01*
X110178571Y-97345238D01*
X110083333Y-97440476D01*
X109988095Y-97488095D01*
X111416666Y-97535714D02*
X111416666Y-98202380D01*
X111178571Y-97154761D02*
X110940476Y-97869047D01*
X111559523Y-97869047D01*
D14*
X116332380Y-69264047D02*
X116513809Y-69324523D01*
X116816190Y-69324523D01*
X116937142Y-69264047D01*
X116997619Y-69203571D01*
X117058095Y-69082619D01*
X117058095Y-68961666D01*
X116997619Y-68840714D01*
X116937142Y-68780238D01*
X116816190Y-68719761D01*
X116574285Y-68659285D01*
X116453333Y-68598809D01*
X116392857Y-68538333D01*
X116332380Y-68417380D01*
X116332380Y-68296428D01*
X116392857Y-68175476D01*
X116453333Y-68115000D01*
X116574285Y-68054523D01*
X116876666Y-68054523D01*
X117058095Y-68115000D01*
X118267619Y-69324523D02*
X117541904Y-69324523D01*
X117904761Y-69324523D02*
X117904761Y-68054523D01*
X117783809Y-68235952D01*
X117662857Y-68356904D01*
X117541904Y-68417380D01*
D11*
X143738095Y-86315822D02*
X143738095Y-87125346D01*
X143785714Y-87220584D01*
X143833333Y-87268203D01*
X143928571Y-87315822D01*
X144119047Y-87315822D01*
X144214285Y-87268203D01*
X144261904Y-87220584D01*
X144309523Y-87125346D01*
X144309523Y-86315822D01*
X145309523Y-87315822D02*
X144738095Y-87315822D01*
X145023809Y-87315822D02*
X145023809Y-86315822D01*
X144928571Y-86458680D01*
X144833333Y-86553918D01*
X144738095Y-86601537D01*
X137357142Y-60452380D02*
X137023809Y-59976190D01*
X136785714Y-60452380D02*
X136785714Y-59452380D01*
X137166666Y-59452380D01*
X137261904Y-59500000D01*
X137309523Y-59547619D01*
X137357142Y-59642857D01*
X137357142Y-59785714D01*
X137309523Y-59880952D01*
X137261904Y-59928571D01*
X137166666Y-59976190D01*
X136785714Y-59976190D01*
X138309523Y-60452380D02*
X137738095Y-60452380D01*
X138023809Y-60452380D02*
X138023809Y-59452380D01*
X137928571Y-59595238D01*
X137833333Y-59690476D01*
X137738095Y-59738095D01*
X138690476Y-59547619D02*
X138738095Y-59500000D01*
X138833333Y-59452380D01*
X139071428Y-59452380D01*
X139166666Y-59500000D01*
X139214285Y-59547619D01*
X139261904Y-59642857D01*
X139261904Y-59738095D01*
X139214285Y-59880952D01*
X138642857Y-60452380D01*
X139261904Y-60452380D01*
X181357142Y-76642857D02*
X181404761Y-76690476D01*
X181452380Y-76833333D01*
X181452380Y-76928571D01*
X181404761Y-77071428D01*
X181309523Y-77166666D01*
X181214285Y-77214285D01*
X181023809Y-77261904D01*
X180880952Y-77261904D01*
X180690476Y-77214285D01*
X180595238Y-77166666D01*
X180500000Y-77071428D01*
X180452380Y-76928571D01*
X180452380Y-76833333D01*
X180500000Y-76690476D01*
X180547619Y-76642857D01*
X180452380Y-76309523D02*
X180452380Y-75690476D01*
X180833333Y-76023809D01*
X180833333Y-75880952D01*
X180880952Y-75785714D01*
X180928571Y-75738095D01*
X181023809Y-75690476D01*
X181261904Y-75690476D01*
X181357142Y-75738095D01*
X181404761Y-75785714D01*
X181452380Y-75880952D01*
X181452380Y-76166666D01*
X181404761Y-76261904D01*
X181357142Y-76309523D01*
X180452380Y-74785714D02*
X180452380Y-75261904D01*
X180928571Y-75309523D01*
X180880952Y-75261904D01*
X180833333Y-75166666D01*
X180833333Y-74928571D01*
X180880952Y-74833333D01*
X180928571Y-74785714D01*
X181023809Y-74738095D01*
X181261904Y-74738095D01*
X181357142Y-74785714D01*
X181404761Y-74833333D01*
X181452380Y-74928571D01*
X181452380Y-75166666D01*
X181404761Y-75261904D01*
X181357142Y-75309523D01*
X175231428Y-73000952D02*
X175231428Y-72239047D01*
X175612380Y-72620000D02*
X174850476Y-72620000D01*
X168857142Y-67107142D02*
X168809523Y-67154761D01*
X168666666Y-67202380D01*
X168571428Y-67202380D01*
X168428571Y-67154761D01*
X168333333Y-67059523D01*
X168285714Y-66964285D01*
X168238095Y-66773809D01*
X168238095Y-66630952D01*
X168285714Y-66440476D01*
X168333333Y-66345238D01*
X168428571Y-66250000D01*
X168571428Y-66202380D01*
X168666666Y-66202380D01*
X168809523Y-66250000D01*
X168857142Y-66297619D01*
X169190476Y-66202380D02*
X169809523Y-66202380D01*
X169476190Y-66583333D01*
X169619047Y-66583333D01*
X169714285Y-66630952D01*
X169761904Y-66678571D01*
X169809523Y-66773809D01*
X169809523Y-67011904D01*
X169761904Y-67107142D01*
X169714285Y-67154761D01*
X169619047Y-67202380D01*
X169333333Y-67202380D01*
X169238095Y-67154761D01*
X169190476Y-67107142D01*
X170761904Y-67202380D02*
X170190476Y-67202380D01*
X170476190Y-67202380D02*
X170476190Y-66202380D01*
X170380952Y-66345238D01*
X170285714Y-66440476D01*
X170190476Y-66488095D01*
X160357142Y-76642857D02*
X160404761Y-76690476D01*
X160452380Y-76833333D01*
X160452380Y-76928571D01*
X160404761Y-77071428D01*
X160309523Y-77166666D01*
X160214285Y-77214285D01*
X160023809Y-77261904D01*
X159880952Y-77261904D01*
X159690476Y-77214285D01*
X159595238Y-77166666D01*
X159500000Y-77071428D01*
X159452380Y-76928571D01*
X159452380Y-76833333D01*
X159500000Y-76690476D01*
X159547619Y-76642857D01*
X159547619Y-76261904D02*
X159500000Y-76214285D01*
X159452380Y-76119047D01*
X159452380Y-75880952D01*
X159500000Y-75785714D01*
X159547619Y-75738095D01*
X159642857Y-75690476D01*
X159738095Y-75690476D01*
X159880952Y-75738095D01*
X160452380Y-76309523D01*
X160452380Y-75690476D01*
X159880952Y-75119047D02*
X159833333Y-75214285D01*
X159785714Y-75261904D01*
X159690476Y-75309523D01*
X159642857Y-75309523D01*
X159547619Y-75261904D01*
X159500000Y-75214285D01*
X159452380Y-75119047D01*
X159452380Y-74928571D01*
X159500000Y-74833333D01*
X159547619Y-74785714D01*
X159642857Y-74738095D01*
X159690476Y-74738095D01*
X159785714Y-74785714D01*
X159833333Y-74833333D01*
X159880952Y-74928571D01*
X159880952Y-75119047D01*
X159928571Y-75214285D01*
X159976190Y-75261904D01*
X160071428Y-75309523D01*
X160261904Y-75309523D01*
X160357142Y-75261904D01*
X160404761Y-75214285D01*
X160452380Y-75119047D01*
X160452380Y-74928571D01*
X160404761Y-74833333D01*
X160357142Y-74785714D01*
X160261904Y-74738095D01*
X160071428Y-74738095D01*
X159976190Y-74785714D01*
X159928571Y-74833333D01*
X159880952Y-74928571D01*
X161231428Y-73000952D02*
X161231428Y-72239047D01*
X161612380Y-72620000D02*
X160850476Y-72620000D01*
X178207142Y-68957142D02*
X178159523Y-69004761D01*
X178016666Y-69052380D01*
X177921428Y-69052380D01*
X177778571Y-69004761D01*
X177683333Y-68909523D01*
X177635714Y-68814285D01*
X177588095Y-68623809D01*
X177588095Y-68480952D01*
X177635714Y-68290476D01*
X177683333Y-68195238D01*
X177778571Y-68100000D01*
X177921428Y-68052380D01*
X178016666Y-68052380D01*
X178159523Y-68100000D01*
X178207142Y-68147619D01*
X178540476Y-68052380D02*
X179159523Y-68052380D01*
X178826190Y-68433333D01*
X178969047Y-68433333D01*
X179064285Y-68480952D01*
X179111904Y-68528571D01*
X179159523Y-68623809D01*
X179159523Y-68861904D01*
X179111904Y-68957142D01*
X179064285Y-69004761D01*
X178969047Y-69052380D01*
X178683333Y-69052380D01*
X178588095Y-69004761D01*
X178540476Y-68957142D01*
X179492857Y-68052380D02*
X180111904Y-68052380D01*
X179778571Y-68433333D01*
X179921428Y-68433333D01*
X180016666Y-68480952D01*
X180064285Y-68528571D01*
X180111904Y-68623809D01*
X180111904Y-68861904D01*
X180064285Y-68957142D01*
X180016666Y-69004761D01*
X179921428Y-69052380D01*
X179635714Y-69052380D01*
X179540476Y-69004761D01*
X179492857Y-68957142D01*
X167857142Y-76642857D02*
X167904761Y-76690476D01*
X167952380Y-76833333D01*
X167952380Y-76928571D01*
X167904761Y-77071428D01*
X167809523Y-77166666D01*
X167714285Y-77214285D01*
X167523809Y-77261904D01*
X167380952Y-77261904D01*
X167190476Y-77214285D01*
X167095238Y-77166666D01*
X167000000Y-77071428D01*
X166952380Y-76928571D01*
X166952380Y-76833333D01*
X167000000Y-76690476D01*
X167047619Y-76642857D01*
X167047619Y-76261904D02*
X167000000Y-76214285D01*
X166952380Y-76119047D01*
X166952380Y-75880952D01*
X167000000Y-75785714D01*
X167047619Y-75738095D01*
X167142857Y-75690476D01*
X167238095Y-75690476D01*
X167380952Y-75738095D01*
X167952380Y-76309523D01*
X167952380Y-75690476D01*
X167952380Y-75214285D02*
X167952380Y-75023809D01*
X167904761Y-74928571D01*
X167857142Y-74880952D01*
X167714285Y-74785714D01*
X167523809Y-74738095D01*
X167142857Y-74738095D01*
X167047619Y-74785714D01*
X167000000Y-74833333D01*
X166952380Y-74928571D01*
X166952380Y-75119047D01*
X167000000Y-75214285D01*
X167047619Y-75261904D01*
X167142857Y-75309523D01*
X167380952Y-75309523D01*
X167476190Y-75261904D01*
X167523809Y-75214285D01*
X167571428Y-75119047D01*
X167571428Y-74928571D01*
X167523809Y-74833333D01*
X167476190Y-74785714D01*
X167380952Y-74738095D01*
X168731428Y-73000952D02*
X168731428Y-72239047D01*
X169112380Y-72620000D02*
X168350476Y-72620000D01*
X162857142Y-70607142D02*
X162809523Y-70654761D01*
X162666666Y-70702380D01*
X162571428Y-70702380D01*
X162428571Y-70654761D01*
X162333333Y-70559523D01*
X162285714Y-70464285D01*
X162238095Y-70273809D01*
X162238095Y-70130952D01*
X162285714Y-69940476D01*
X162333333Y-69845238D01*
X162428571Y-69750000D01*
X162571428Y-69702380D01*
X162666666Y-69702380D01*
X162809523Y-69750000D01*
X162857142Y-69797619D01*
X163190476Y-69702380D02*
X163809523Y-69702380D01*
X163476190Y-70083333D01*
X163619047Y-70083333D01*
X163714285Y-70130952D01*
X163761904Y-70178571D01*
X163809523Y-70273809D01*
X163809523Y-70511904D01*
X163761904Y-70607142D01*
X163714285Y-70654761D01*
X163619047Y-70702380D01*
X163333333Y-70702380D01*
X163238095Y-70654761D01*
X163190476Y-70607142D01*
X164428571Y-69702380D02*
X164523809Y-69702380D01*
X164619047Y-69750000D01*
X164666666Y-69797619D01*
X164714285Y-69892857D01*
X164761904Y-70083333D01*
X164761904Y-70321428D01*
X164714285Y-70511904D01*
X164666666Y-70607142D01*
X164619047Y-70654761D01*
X164523809Y-70702380D01*
X164428571Y-70702380D01*
X164333333Y-70654761D01*
X164285714Y-70607142D01*
X164238095Y-70511904D01*
X164190476Y-70321428D01*
X164190476Y-70083333D01*
X164238095Y-69892857D01*
X164285714Y-69797619D01*
X164333333Y-69750000D01*
X164428571Y-69702380D01*
D14*
X102151666Y-51229523D02*
X102151666Y-52136666D01*
X102091190Y-52318095D01*
X101970238Y-52439047D01*
X101788809Y-52499523D01*
X101667857Y-52499523D01*
X103300714Y-51229523D02*
X103058809Y-51229523D01*
X102937857Y-51290000D01*
X102877380Y-51350476D01*
X102756428Y-51531904D01*
X102695952Y-51773809D01*
X102695952Y-52257619D01*
X102756428Y-52378571D01*
X102816904Y-52439047D01*
X102937857Y-52499523D01*
X103179761Y-52499523D01*
X103300714Y-52439047D01*
X103361190Y-52378571D01*
X103421666Y-52257619D01*
X103421666Y-51955238D01*
X103361190Y-51834285D01*
X103300714Y-51773809D01*
X103179761Y-51713333D01*
X102937857Y-51713333D01*
X102816904Y-51773809D01*
X102756428Y-51834285D01*
X102695952Y-51955238D01*
X139326666Y-108554523D02*
X139326666Y-109461666D01*
X139266190Y-109643095D01*
X139145238Y-109764047D01*
X138963809Y-109824523D01*
X138842857Y-109824523D01*
X139810476Y-108554523D02*
X140596666Y-108554523D01*
X140173333Y-109038333D01*
X140354761Y-109038333D01*
X140475714Y-109098809D01*
X140536190Y-109159285D01*
X140596666Y-109280238D01*
X140596666Y-109582619D01*
X140536190Y-109703571D01*
X140475714Y-109764047D01*
X140354761Y-109824523D01*
X139991904Y-109824523D01*
X139870952Y-109764047D01*
X139810476Y-109703571D01*
D11*
X161988095Y-87452380D02*
X161988095Y-88261904D01*
X162035714Y-88357142D01*
X162083333Y-88404761D01*
X162178571Y-88452380D01*
X162369047Y-88452380D01*
X162464285Y-88404761D01*
X162511904Y-88357142D01*
X162559523Y-88261904D01*
X162559523Y-87452380D01*
X162988095Y-87547619D02*
X163035714Y-87500000D01*
X163130952Y-87452380D01*
X163369047Y-87452380D01*
X163464285Y-87500000D01*
X163511904Y-87547619D01*
X163559523Y-87642857D01*
X163559523Y-87738095D01*
X163511904Y-87880952D01*
X162940476Y-88452380D01*
X163559523Y-88452380D01*
X188007142Y-97866666D02*
X188054761Y-97914285D01*
X188102380Y-98057142D01*
X188102380Y-98152380D01*
X188054761Y-98295238D01*
X187959523Y-98390476D01*
X187864285Y-98438095D01*
X187673809Y-98485714D01*
X187530952Y-98485714D01*
X187340476Y-98438095D01*
X187245238Y-98390476D01*
X187150000Y-98295238D01*
X187102380Y-98152380D01*
X187102380Y-98057142D01*
X187150000Y-97914285D01*
X187197619Y-97866666D01*
X187530952Y-97295238D02*
X187483333Y-97390476D01*
X187435714Y-97438095D01*
X187340476Y-97485714D01*
X187292857Y-97485714D01*
X187197619Y-97438095D01*
X187150000Y-97390476D01*
X187102380Y-97295238D01*
X187102380Y-97104761D01*
X187150000Y-97009523D01*
X187197619Y-96961904D01*
X187292857Y-96914285D01*
X187340476Y-96914285D01*
X187435714Y-96961904D01*
X187483333Y-97009523D01*
X187530952Y-97104761D01*
X187530952Y-97295238D01*
X187578571Y-97390476D01*
X187626190Y-97438095D01*
X187721428Y-97485714D01*
X187911904Y-97485714D01*
X188007142Y-97438095D01*
X188054761Y-97390476D01*
X188102380Y-97295238D01*
X188102380Y-97104761D01*
X188054761Y-97009523D01*
X188007142Y-96961904D01*
X187911904Y-96914285D01*
X187721428Y-96914285D01*
X187626190Y-96961904D01*
X187578571Y-97009523D01*
X187530952Y-97104761D01*
X103202380Y-94916666D02*
X102726190Y-95250000D01*
X103202380Y-95488095D02*
X102202380Y-95488095D01*
X102202380Y-95107142D01*
X102250000Y-95011904D01*
X102297619Y-94964285D01*
X102392857Y-94916666D01*
X102535714Y-94916666D01*
X102630952Y-94964285D01*
X102678571Y-95011904D01*
X102726190Y-95107142D01*
X102726190Y-95488095D01*
X102535714Y-94059523D02*
X103202380Y-94059523D01*
X102154761Y-94297619D02*
X102869047Y-94535714D01*
X102869047Y-93916666D01*
X130857142Y-60452380D02*
X130523809Y-59976190D01*
X130285714Y-60452380D02*
X130285714Y-59452380D01*
X130666666Y-59452380D01*
X130761904Y-59500000D01*
X130809523Y-59547619D01*
X130857142Y-59642857D01*
X130857142Y-59785714D01*
X130809523Y-59880952D01*
X130761904Y-59928571D01*
X130666666Y-59976190D01*
X130285714Y-59976190D01*
X131809523Y-60452380D02*
X131238095Y-60452380D01*
X131523809Y-60452380D02*
X131523809Y-59452380D01*
X131428571Y-59595238D01*
X131333333Y-59690476D01*
X131238095Y-59738095D01*
X132666666Y-59785714D02*
X132666666Y-60452380D01*
X132428571Y-59404761D02*
X132190476Y-60119047D01*
X132809523Y-60119047D01*
X134357142Y-60452380D02*
X134023809Y-59976190D01*
X133785714Y-60452380D02*
X133785714Y-59452380D01*
X134166666Y-59452380D01*
X134261904Y-59500000D01*
X134309523Y-59547619D01*
X134357142Y-59642857D01*
X134357142Y-59785714D01*
X134309523Y-59880952D01*
X134261904Y-59928571D01*
X134166666Y-59976190D01*
X133785714Y-59976190D01*
X135309523Y-60452380D02*
X134738095Y-60452380D01*
X135023809Y-60452380D02*
X135023809Y-59452380D01*
X134928571Y-59595238D01*
X134833333Y-59690476D01*
X134738095Y-59738095D01*
X135642857Y-59452380D02*
X136261904Y-59452380D01*
X135928571Y-59833333D01*
X136071428Y-59833333D01*
X136166666Y-59880952D01*
X136214285Y-59928571D01*
X136261904Y-60023809D01*
X136261904Y-60261904D01*
X136214285Y-60357142D01*
X136166666Y-60404761D01*
X136071428Y-60452380D01*
X135785714Y-60452380D01*
X135690476Y-60404761D01*
X135642857Y-60357142D01*
X147352380Y-64142857D02*
X146876190Y-64476190D01*
X147352380Y-64714285D02*
X146352380Y-64714285D01*
X146352380Y-64333333D01*
X146400000Y-64238095D01*
X146447619Y-64190476D01*
X146542857Y-64142857D01*
X146685714Y-64142857D01*
X146780952Y-64190476D01*
X146828571Y-64238095D01*
X146876190Y-64333333D01*
X146876190Y-64714285D01*
X147352380Y-63190476D02*
X147352380Y-63761904D01*
X147352380Y-63476190D02*
X146352380Y-63476190D01*
X146495238Y-63571428D01*
X146590476Y-63666666D01*
X146638095Y-63761904D01*
X147352380Y-62238095D02*
X147352380Y-62809523D01*
X147352380Y-62523809D02*
X146352380Y-62523809D01*
X146495238Y-62619047D01*
X146590476Y-62714285D01*
X146638095Y-62809523D01*
X159557142Y-53352380D02*
X159223809Y-52876190D01*
X158985714Y-53352380D02*
X158985714Y-52352380D01*
X159366666Y-52352380D01*
X159461904Y-52400000D01*
X159509523Y-52447619D01*
X159557142Y-52542857D01*
X159557142Y-52685714D01*
X159509523Y-52780952D01*
X159461904Y-52828571D01*
X159366666Y-52876190D01*
X158985714Y-52876190D01*
X160509523Y-53352380D02*
X159938095Y-53352380D01*
X160223809Y-53352380D02*
X160223809Y-52352380D01*
X160128571Y-52495238D01*
X160033333Y-52590476D01*
X159938095Y-52638095D01*
X161128571Y-52352380D02*
X161223809Y-52352380D01*
X161319047Y-52400000D01*
X161366666Y-52447619D01*
X161414285Y-52542857D01*
X161461904Y-52733333D01*
X161461904Y-52971428D01*
X161414285Y-53161904D01*
X161366666Y-53257142D01*
X161319047Y-53304761D01*
X161223809Y-53352380D01*
X161128571Y-53352380D01*
X161033333Y-53304761D01*
X160985714Y-53257142D01*
X160938095Y-53161904D01*
X160890476Y-52971428D01*
X160890476Y-52733333D01*
X160938095Y-52542857D01*
X160985714Y-52447619D01*
X161033333Y-52400000D01*
X161128571Y-52352380D01*
X140533333Y-47552380D02*
X140200000Y-47076190D01*
X139961904Y-47552380D02*
X139961904Y-46552380D01*
X140342857Y-46552380D01*
X140438095Y-46600000D01*
X140485714Y-46647619D01*
X140533333Y-46742857D01*
X140533333Y-46885714D01*
X140485714Y-46980952D01*
X140438095Y-47028571D01*
X140342857Y-47076190D01*
X139961904Y-47076190D01*
X141009523Y-47552380D02*
X141200000Y-47552380D01*
X141295238Y-47504761D01*
X141342857Y-47457142D01*
X141438095Y-47314285D01*
X141485714Y-47123809D01*
X141485714Y-46742857D01*
X141438095Y-46647619D01*
X141390476Y-46600000D01*
X141295238Y-46552380D01*
X141104761Y-46552380D01*
X141009523Y-46600000D01*
X140961904Y-46647619D01*
X140914285Y-46742857D01*
X140914285Y-46980952D01*
X140961904Y-47076190D01*
X141009523Y-47123809D01*
X141104761Y-47171428D01*
X141295238Y-47171428D01*
X141390476Y-47123809D01*
X141438095Y-47076190D01*
X141485714Y-46980952D01*
X141133333Y-52552380D02*
X140800000Y-52076190D01*
X140561904Y-52552380D02*
X140561904Y-51552380D01*
X140942857Y-51552380D01*
X141038095Y-51600000D01*
X141085714Y-51647619D01*
X141133333Y-51742857D01*
X141133333Y-51885714D01*
X141085714Y-51980952D01*
X141038095Y-52028571D01*
X140942857Y-52076190D01*
X140561904Y-52076190D01*
X141704761Y-51980952D02*
X141609523Y-51933333D01*
X141561904Y-51885714D01*
X141514285Y-51790476D01*
X141514285Y-51742857D01*
X141561904Y-51647619D01*
X141609523Y-51600000D01*
X141704761Y-51552380D01*
X141895238Y-51552380D01*
X141990476Y-51600000D01*
X142038095Y-51647619D01*
X142085714Y-51742857D01*
X142085714Y-51790476D01*
X142038095Y-51885714D01*
X141990476Y-51933333D01*
X141895238Y-51980952D01*
X141704761Y-51980952D01*
X141609523Y-52028571D01*
X141561904Y-52076190D01*
X141514285Y-52171428D01*
X141514285Y-52361904D01*
X141561904Y-52457142D01*
X141609523Y-52504761D01*
X141704761Y-52552380D01*
X141895238Y-52552380D01*
X141990476Y-52504761D01*
X142038095Y-52457142D01*
X142085714Y-52361904D01*
X142085714Y-52171428D01*
X142038095Y-52076190D01*
X141990476Y-52028571D01*
X141895238Y-51980952D01*
X141133333Y-55052380D02*
X140800000Y-54576190D01*
X140561904Y-55052380D02*
X140561904Y-54052380D01*
X140942857Y-54052380D01*
X141038095Y-54100000D01*
X141085714Y-54147619D01*
X141133333Y-54242857D01*
X141133333Y-54385714D01*
X141085714Y-54480952D01*
X141038095Y-54528571D01*
X140942857Y-54576190D01*
X140561904Y-54576190D01*
X141466666Y-54052380D02*
X142133333Y-54052380D01*
X141704761Y-55052380D01*
X119833333Y-55952380D02*
X119500000Y-55476190D01*
X119261904Y-55952380D02*
X119261904Y-54952380D01*
X119642857Y-54952380D01*
X119738095Y-55000000D01*
X119785714Y-55047619D01*
X119833333Y-55142857D01*
X119833333Y-55285714D01*
X119785714Y-55380952D01*
X119738095Y-55428571D01*
X119642857Y-55476190D01*
X119261904Y-55476190D01*
X120690476Y-54952380D02*
X120500000Y-54952380D01*
X120404761Y-55000000D01*
X120357142Y-55047619D01*
X120261904Y-55190476D01*
X120214285Y-55380952D01*
X120214285Y-55761904D01*
X120261904Y-55857142D01*
X120309523Y-55904761D01*
X120404761Y-55952380D01*
X120595238Y-55952380D01*
X120690476Y-55904761D01*
X120738095Y-55857142D01*
X120785714Y-55761904D01*
X120785714Y-55523809D01*
X120738095Y-55428571D01*
X120690476Y-55380952D01*
X120595238Y-55333333D01*
X120404761Y-55333333D01*
X120309523Y-55380952D01*
X120261904Y-55428571D01*
X120214285Y-55523809D01*
X119333333Y-53452380D02*
X119000000Y-52976190D01*
X118761904Y-53452380D02*
X118761904Y-52452380D01*
X119142857Y-52452380D01*
X119238095Y-52500000D01*
X119285714Y-52547619D01*
X119333333Y-52642857D01*
X119333333Y-52785714D01*
X119285714Y-52880952D01*
X119238095Y-52928571D01*
X119142857Y-52976190D01*
X118761904Y-52976190D01*
X120238095Y-52452380D02*
X119761904Y-52452380D01*
X119714285Y-52928571D01*
X119761904Y-52880952D01*
X119857142Y-52833333D01*
X120095238Y-52833333D01*
X120190476Y-52880952D01*
X120238095Y-52928571D01*
X120285714Y-53023809D01*
X120285714Y-53261904D01*
X120238095Y-53357142D01*
X120190476Y-53404761D01*
X120095238Y-53452380D01*
X119857142Y-53452380D01*
X119761904Y-53404761D01*
X119714285Y-53357142D01*
X132983333Y-97702380D02*
X132650000Y-97226190D01*
X132411904Y-97702380D02*
X132411904Y-96702380D01*
X132792857Y-96702380D01*
X132888095Y-96750000D01*
X132935714Y-96797619D01*
X132983333Y-96892857D01*
X132983333Y-97035714D01*
X132935714Y-97130952D01*
X132888095Y-97178571D01*
X132792857Y-97226190D01*
X132411904Y-97226190D01*
X133316666Y-96702380D02*
X133935714Y-96702380D01*
X133602380Y-97083333D01*
X133745238Y-97083333D01*
X133840476Y-97130952D01*
X133888095Y-97178571D01*
X133935714Y-97273809D01*
X133935714Y-97511904D01*
X133888095Y-97607142D01*
X133840476Y-97654761D01*
X133745238Y-97702380D01*
X133459523Y-97702380D01*
X133364285Y-97654761D01*
X133316666Y-97607142D01*
X134552380Y-66066666D02*
X134076190Y-66400000D01*
X134552380Y-66638095D02*
X133552380Y-66638095D01*
X133552380Y-66257142D01*
X133600000Y-66161904D01*
X133647619Y-66114285D01*
X133742857Y-66066666D01*
X133885714Y-66066666D01*
X133980952Y-66114285D01*
X134028571Y-66161904D01*
X134076190Y-66257142D01*
X134076190Y-66638095D01*
X133647619Y-65685714D02*
X133600000Y-65638095D01*
X133552380Y-65542857D01*
X133552380Y-65304761D01*
X133600000Y-65209523D01*
X133647619Y-65161904D01*
X133742857Y-65114285D01*
X133838095Y-65114285D01*
X133980952Y-65161904D01*
X134552380Y-65733333D01*
X134552380Y-65114285D01*
X135833333Y-85202380D02*
X135500000Y-84726190D01*
X135261904Y-85202380D02*
X135261904Y-84202380D01*
X135642857Y-84202380D01*
X135738095Y-84250000D01*
X135785714Y-84297619D01*
X135833333Y-84392857D01*
X135833333Y-84535714D01*
X135785714Y-84630952D01*
X135738095Y-84678571D01*
X135642857Y-84726190D01*
X135261904Y-84726190D01*
X136785714Y-85202380D02*
X136214285Y-85202380D01*
X136500000Y-85202380D02*
X136500000Y-84202380D01*
X136404761Y-84345238D01*
X136309523Y-84440476D01*
X136214285Y-84488095D01*
D14*
X104326666Y-71554523D02*
X104326666Y-72461666D01*
X104266190Y-72643095D01*
X104145238Y-72764047D01*
X103963809Y-72824523D01*
X103842857Y-72824523D01*
X105536190Y-71554523D02*
X104931428Y-71554523D01*
X104870952Y-72159285D01*
X104931428Y-72098809D01*
X105052380Y-72038333D01*
X105354761Y-72038333D01*
X105475714Y-72098809D01*
X105536190Y-72159285D01*
X105596666Y-72280238D01*
X105596666Y-72582619D01*
X105536190Y-72703571D01*
X105475714Y-72764047D01*
X105354761Y-72824523D01*
X105052380Y-72824523D01*
X104931428Y-72764047D01*
X104870952Y-72703571D01*
X192688666Y-103804523D02*
X192688666Y-104711666D01*
X192628190Y-104893095D01*
X192507238Y-105014047D01*
X192325809Y-105074523D01*
X192204857Y-105074523D01*
X193837714Y-104227857D02*
X193837714Y-105074523D01*
X193535333Y-103744047D02*
X193232952Y-104651190D01*
X194019142Y-104651190D01*
X122874523Y-82239761D02*
X121604523Y-82239761D01*
X122753571Y-80909285D02*
X122814047Y-80969761D01*
X122874523Y-81151190D01*
X122874523Y-81272142D01*
X122814047Y-81453571D01*
X122693095Y-81574523D01*
X122572142Y-81635000D01*
X122330238Y-81695476D01*
X122148809Y-81695476D01*
X121906904Y-81635000D01*
X121785952Y-81574523D01*
X121665000Y-81453571D01*
X121604523Y-81272142D01*
X121604523Y-81151190D01*
X121665000Y-80969761D01*
X121725476Y-80909285D01*
X121725476Y-80425476D02*
X121665000Y-80365000D01*
X121604523Y-80244047D01*
X121604523Y-79941666D01*
X121665000Y-79820714D01*
X121725476Y-79760238D01*
X121846428Y-79699761D01*
X121967380Y-79699761D01*
X122148809Y-79760238D01*
X122874523Y-80485952D01*
X122874523Y-79699761D01*
X109010238Y-93324523D02*
X109010238Y-92054523D01*
X110340714Y-93203571D02*
X110280238Y-93264047D01*
X110098809Y-93324523D01*
X109977857Y-93324523D01*
X109796428Y-93264047D01*
X109675476Y-93143095D01*
X109615000Y-93022142D01*
X109554523Y-92780238D01*
X109554523Y-92598809D01*
X109615000Y-92356904D01*
X109675476Y-92235952D01*
X109796428Y-92115000D01*
X109977857Y-92054523D01*
X110098809Y-92054523D01*
X110280238Y-92115000D01*
X110340714Y-92175476D01*
X111550238Y-93324523D02*
X110824523Y-93324523D01*
X111187380Y-93324523D02*
X111187380Y-92054523D01*
X111066428Y-92235952D01*
X110945476Y-92356904D01*
X110824523Y-92417380D01*
X131760238Y-51574523D02*
X131760238Y-50304523D01*
X133090714Y-51453571D02*
X133030238Y-51514047D01*
X132848809Y-51574523D01*
X132727857Y-51574523D01*
X132546428Y-51514047D01*
X132425476Y-51393095D01*
X132365000Y-51272142D01*
X132304523Y-51030238D01*
X132304523Y-50848809D01*
X132365000Y-50606904D01*
X132425476Y-50485952D01*
X132546428Y-50365000D01*
X132727857Y-50304523D01*
X132848809Y-50304523D01*
X133030238Y-50365000D01*
X133090714Y-50425476D01*
X134179285Y-50727857D02*
X134179285Y-51574523D01*
X133876904Y-50244047D02*
X133574523Y-51151190D01*
X134360714Y-51151190D01*
X167760238Y-55249523D02*
X167760238Y-53979523D01*
X169090714Y-55128571D02*
X169030238Y-55189047D01*
X168848809Y-55249523D01*
X168727857Y-55249523D01*
X168546428Y-55189047D01*
X168425476Y-55068095D01*
X168365000Y-54947142D01*
X168304523Y-54705238D01*
X168304523Y-54523809D01*
X168365000Y-54281904D01*
X168425476Y-54160952D01*
X168546428Y-54040000D01*
X168727857Y-53979523D01*
X168848809Y-53979523D01*
X169030238Y-54040000D01*
X169090714Y-54100476D01*
X170179285Y-53979523D02*
X169937380Y-53979523D01*
X169816428Y-54040000D01*
X169755952Y-54100476D01*
X169635000Y-54281904D01*
X169574523Y-54523809D01*
X169574523Y-55007619D01*
X169635000Y-55128571D01*
X169695476Y-55189047D01*
X169816428Y-55249523D01*
X170058333Y-55249523D01*
X170179285Y-55189047D01*
X170239761Y-55128571D01*
X170300238Y-55007619D01*
X170300238Y-54705238D01*
X170239761Y-54584285D01*
X170179285Y-54523809D01*
X170058333Y-54463333D01*
X169816428Y-54463333D01*
X169695476Y-54523809D01*
X169635000Y-54584285D01*
X169574523Y-54705238D01*
X151274523Y-55139761D02*
X150004523Y-55139761D01*
X151153571Y-53809285D02*
X151214047Y-53869761D01*
X151274523Y-54051190D01*
X151274523Y-54172142D01*
X151214047Y-54353571D01*
X151093095Y-54474523D01*
X150972142Y-54535000D01*
X150730238Y-54595476D01*
X150548809Y-54595476D01*
X150306904Y-54535000D01*
X150185952Y-54474523D01*
X150065000Y-54353571D01*
X150004523Y-54172142D01*
X150004523Y-54051190D01*
X150065000Y-53869761D01*
X150125476Y-53809285D01*
X150004523Y-53385952D02*
X150004523Y-52599761D01*
X150488333Y-53023095D01*
X150488333Y-52841666D01*
X150548809Y-52720714D01*
X150609285Y-52660238D01*
X150730238Y-52599761D01*
X151032619Y-52599761D01*
X151153571Y-52660238D01*
X151214047Y-52720714D01*
X151274523Y-52841666D01*
X151274523Y-53204523D01*
X151214047Y-53325476D01*
X151153571Y-53385952D01*
X181260238Y-55249523D02*
X181260238Y-53979523D01*
X182590714Y-55128571D02*
X182530238Y-55189047D01*
X182348809Y-55249523D01*
X182227857Y-55249523D01*
X182046428Y-55189047D01*
X181925476Y-55068095D01*
X181865000Y-54947142D01*
X181804523Y-54705238D01*
X181804523Y-54523809D01*
X181865000Y-54281904D01*
X181925476Y-54160952D01*
X182046428Y-54040000D01*
X182227857Y-53979523D01*
X182348809Y-53979523D01*
X182530238Y-54040000D01*
X182590714Y-54100476D01*
X183739761Y-53979523D02*
X183135000Y-53979523D01*
X183074523Y-54584285D01*
X183135000Y-54523809D01*
X183255952Y-54463333D01*
X183558333Y-54463333D01*
X183679285Y-54523809D01*
X183739761Y-54584285D01*
X183800238Y-54705238D01*
X183800238Y-55007619D01*
X183739761Y-55128571D01*
X183679285Y-55189047D01*
X183558333Y-55249523D01*
X183255952Y-55249523D01*
X183135000Y-55189047D01*
X183074523Y-55128571D01*
X144574523Y-64022380D02*
X143304523Y-64022380D01*
X143304523Y-63720000D01*
X143365000Y-63538571D01*
X143485952Y-63417619D01*
X143606904Y-63357142D01*
X143848809Y-63296666D01*
X144030238Y-63296666D01*
X144272142Y-63357142D01*
X144393095Y-63417619D01*
X144514047Y-63538571D01*
X144574523Y-63720000D01*
X144574523Y-64022380D01*
X143304523Y-62873333D02*
X143304523Y-62087142D01*
X143788333Y-62510476D01*
X143788333Y-62329047D01*
X143848809Y-62208095D01*
X143909285Y-62147619D01*
X144030238Y-62087142D01*
X144332619Y-62087142D01*
X144453571Y-62147619D01*
X144514047Y-62208095D01*
X144574523Y-62329047D01*
X144574523Y-62691904D01*
X144514047Y-62812857D01*
X144453571Y-62873333D01*
D11*
X119361904Y-97702380D02*
X119361904Y-96702380D01*
X119600000Y-96702380D01*
X119742857Y-96750000D01*
X119838095Y-96845238D01*
X119885714Y-96940476D01*
X119933333Y-97130952D01*
X119933333Y-97273809D01*
X119885714Y-97464285D01*
X119838095Y-97559523D01*
X119742857Y-97654761D01*
X119600000Y-97702380D01*
X119361904Y-97702380D01*
X120885714Y-97702380D02*
X120314285Y-97702380D01*
X120600000Y-97702380D02*
X120600000Y-96702380D01*
X120504761Y-96845238D01*
X120409523Y-96940476D01*
X120314285Y-96988095D01*
X99857142Y-90857142D02*
X99809523Y-90904761D01*
X99666666Y-90952380D01*
X99571428Y-90952380D01*
X99428571Y-90904761D01*
X99333333Y-90809523D01*
X99285714Y-90714285D01*
X99238095Y-90523809D01*
X99238095Y-90380952D01*
X99285714Y-90190476D01*
X99333333Y-90095238D01*
X99428571Y-90000000D01*
X99571428Y-89952380D01*
X99666666Y-89952380D01*
X99809523Y-90000000D01*
X99857142Y-90047619D01*
X100809523Y-90952380D02*
X100238095Y-90952380D01*
X100523809Y-90952380D02*
X100523809Y-89952380D01*
X100428571Y-90095238D01*
X100333333Y-90190476D01*
X100238095Y-90238095D01*
X101761904Y-90952380D02*
X101190476Y-90952380D01*
X101476190Y-90952380D02*
X101476190Y-89952380D01*
X101380952Y-90095238D01*
X101285714Y-90190476D01*
X101190476Y-90238095D01*
X182107142Y-98042857D02*
X182154761Y-98090476D01*
X182202380Y-98233333D01*
X182202380Y-98328571D01*
X182154761Y-98471428D01*
X182059523Y-98566666D01*
X181964285Y-98614285D01*
X181773809Y-98661904D01*
X181630952Y-98661904D01*
X181440476Y-98614285D01*
X181345238Y-98566666D01*
X181250000Y-98471428D01*
X181202380Y-98328571D01*
X181202380Y-98233333D01*
X181250000Y-98090476D01*
X181297619Y-98042857D01*
X182202380Y-97090476D02*
X182202380Y-97661904D01*
X182202380Y-97376190D02*
X181202380Y-97376190D01*
X181345238Y-97471428D01*
X181440476Y-97566666D01*
X181488095Y-97661904D01*
X181202380Y-96471428D02*
X181202380Y-96376190D01*
X181250000Y-96280952D01*
X181297619Y-96233333D01*
X181392857Y-96185714D01*
X181583333Y-96138095D01*
X181821428Y-96138095D01*
X182011904Y-96185714D01*
X182107142Y-96233333D01*
X182154761Y-96280952D01*
X182202380Y-96376190D01*
X182202380Y-96471428D01*
X182154761Y-96566666D01*
X182107142Y-96614285D01*
X182011904Y-96661904D01*
X181821428Y-96709523D01*
X181583333Y-96709523D01*
X181392857Y-96661904D01*
X181297619Y-96614285D01*
X181250000Y-96566666D01*
X181202380Y-96471428D01*
X127357142Y-60357142D02*
X127309523Y-60404761D01*
X127166666Y-60452380D01*
X127071428Y-60452380D01*
X126928571Y-60404761D01*
X126833333Y-60309523D01*
X126785714Y-60214285D01*
X126738095Y-60023809D01*
X126738095Y-59880952D01*
X126785714Y-59690476D01*
X126833333Y-59595238D01*
X126928571Y-59500000D01*
X127071428Y-59452380D01*
X127166666Y-59452380D01*
X127309523Y-59500000D01*
X127357142Y-59547619D01*
X127738095Y-59547619D02*
X127785714Y-59500000D01*
X127880952Y-59452380D01*
X128119047Y-59452380D01*
X128214285Y-59500000D01*
X128261904Y-59547619D01*
X128309523Y-59642857D01*
X128309523Y-59738095D01*
X128261904Y-59880952D01*
X127690476Y-60452380D01*
X128309523Y-60452380D01*
X128642857Y-59452380D02*
X129309523Y-59452380D01*
X128880952Y-60452380D01*
X130957142Y-46857142D02*
X130909523Y-46904761D01*
X130766666Y-46952380D01*
X130671428Y-46952380D01*
X130528571Y-46904761D01*
X130433333Y-46809523D01*
X130385714Y-46714285D01*
X130338095Y-46523809D01*
X130338095Y-46380952D01*
X130385714Y-46190476D01*
X130433333Y-46095238D01*
X130528571Y-46000000D01*
X130671428Y-45952380D01*
X130766666Y-45952380D01*
X130909523Y-46000000D01*
X130957142Y-46047619D01*
X131338095Y-46047619D02*
X131385714Y-46000000D01*
X131480952Y-45952380D01*
X131719047Y-45952380D01*
X131814285Y-46000000D01*
X131861904Y-46047619D01*
X131909523Y-46142857D01*
X131909523Y-46238095D01*
X131861904Y-46380952D01*
X131290476Y-46952380D01*
X131909523Y-46952380D01*
X132766666Y-45952380D02*
X132576190Y-45952380D01*
X132480952Y-46000000D01*
X132433333Y-46047619D01*
X132338095Y-46190476D01*
X132290476Y-46380952D01*
X132290476Y-46761904D01*
X132338095Y-46857142D01*
X132385714Y-46904761D01*
X132480952Y-46952380D01*
X132671428Y-46952380D01*
X132766666Y-46904761D01*
X132814285Y-46857142D01*
X132861904Y-46761904D01*
X132861904Y-46523809D01*
X132814285Y-46428571D01*
X132766666Y-46380952D01*
X132671428Y-46333333D01*
X132480952Y-46333333D01*
X132385714Y-46380952D01*
X132338095Y-46428571D01*
X132290476Y-46523809D01*
X140057142Y-49957142D02*
X140009523Y-50004761D01*
X139866666Y-50052380D01*
X139771428Y-50052380D01*
X139628571Y-50004761D01*
X139533333Y-49909523D01*
X139485714Y-49814285D01*
X139438095Y-49623809D01*
X139438095Y-49480952D01*
X139485714Y-49290476D01*
X139533333Y-49195238D01*
X139628571Y-49100000D01*
X139771428Y-49052380D01*
X139866666Y-49052380D01*
X140009523Y-49100000D01*
X140057142Y-49147619D01*
X140438095Y-49147619D02*
X140485714Y-49100000D01*
X140580952Y-49052380D01*
X140819047Y-49052380D01*
X140914285Y-49100000D01*
X140961904Y-49147619D01*
X141009523Y-49242857D01*
X141009523Y-49338095D01*
X140961904Y-49480952D01*
X140390476Y-50052380D01*
X141009523Y-50052380D01*
X141914285Y-49052380D02*
X141438095Y-49052380D01*
X141390476Y-49528571D01*
X141438095Y-49480952D01*
X141533333Y-49433333D01*
X141771428Y-49433333D01*
X141866666Y-49480952D01*
X141914285Y-49528571D01*
X141961904Y-49623809D01*
X141961904Y-49861904D01*
X141914285Y-49957142D01*
X141866666Y-50004761D01*
X141771428Y-50052380D01*
X141533333Y-50052380D01*
X141438095Y-50004761D01*
X141390476Y-49957142D01*
X161157142Y-59542857D02*
X161204761Y-59590476D01*
X161252380Y-59733333D01*
X161252380Y-59828571D01*
X161204761Y-59971428D01*
X161109523Y-60066666D01*
X161014285Y-60114285D01*
X160823809Y-60161904D01*
X160680952Y-60161904D01*
X160490476Y-60114285D01*
X160395238Y-60066666D01*
X160300000Y-59971428D01*
X160252380Y-59828571D01*
X160252380Y-59733333D01*
X160300000Y-59590476D01*
X160347619Y-59542857D01*
X160347619Y-59161904D02*
X160300000Y-59114285D01*
X160252380Y-59019047D01*
X160252380Y-58780952D01*
X160300000Y-58685714D01*
X160347619Y-58638095D01*
X160442857Y-58590476D01*
X160538095Y-58590476D01*
X160680952Y-58638095D01*
X161252380Y-59209523D01*
X161252380Y-58590476D01*
X160585714Y-57733333D02*
X161252380Y-57733333D01*
X160204761Y-57971428D02*
X160919047Y-58209523D01*
X160919047Y-57590476D01*
X152157142Y-63742857D02*
X152204761Y-63790476D01*
X152252380Y-63933333D01*
X152252380Y-64028571D01*
X152204761Y-64171428D01*
X152109523Y-64266666D01*
X152014285Y-64314285D01*
X151823809Y-64361904D01*
X151680952Y-64361904D01*
X151490476Y-64314285D01*
X151395238Y-64266666D01*
X151300000Y-64171428D01*
X151252380Y-64028571D01*
X151252380Y-63933333D01*
X151300000Y-63790476D01*
X151347619Y-63742857D01*
X151347619Y-63361904D02*
X151300000Y-63314285D01*
X151252380Y-63219047D01*
X151252380Y-62980952D01*
X151300000Y-62885714D01*
X151347619Y-62838095D01*
X151442857Y-62790476D01*
X151538095Y-62790476D01*
X151680952Y-62838095D01*
X152252380Y-63409523D01*
X152252380Y-62790476D01*
X151252380Y-62457142D02*
X151252380Y-61838095D01*
X151633333Y-62171428D01*
X151633333Y-62028571D01*
X151680952Y-61933333D01*
X151728571Y-61885714D01*
X151823809Y-61838095D01*
X152061904Y-61838095D01*
X152157142Y-61885714D01*
X152204761Y-61933333D01*
X152252380Y-62028571D01*
X152252380Y-62314285D01*
X152204761Y-62409523D01*
X152157142Y-62457142D01*
X118357142Y-50857142D02*
X118309523Y-50904761D01*
X118166666Y-50952380D01*
X118071428Y-50952380D01*
X117928571Y-50904761D01*
X117833333Y-50809523D01*
X117785714Y-50714285D01*
X117738095Y-50523809D01*
X117738095Y-50380952D01*
X117785714Y-50190476D01*
X117833333Y-50095238D01*
X117928571Y-50000000D01*
X118071428Y-49952380D01*
X118166666Y-49952380D01*
X118309523Y-50000000D01*
X118357142Y-50047619D01*
X118738095Y-50047619D02*
X118785714Y-50000000D01*
X118880952Y-49952380D01*
X119119047Y-49952380D01*
X119214285Y-50000000D01*
X119261904Y-50047619D01*
X119309523Y-50142857D01*
X119309523Y-50238095D01*
X119261904Y-50380952D01*
X118690476Y-50952380D01*
X119309523Y-50952380D01*
X119690476Y-50047619D02*
X119738095Y-50000000D01*
X119833333Y-49952380D01*
X120071428Y-49952380D01*
X120166666Y-50000000D01*
X120214285Y-50047619D01*
X120261904Y-50142857D01*
X120261904Y-50238095D01*
X120214285Y-50380952D01*
X119642857Y-50952380D01*
X120261904Y-50952380D01*
X159457142Y-55557142D02*
X159409523Y-55604761D01*
X159266666Y-55652380D01*
X159171428Y-55652380D01*
X159028571Y-55604761D01*
X158933333Y-55509523D01*
X158885714Y-55414285D01*
X158838095Y-55223809D01*
X158838095Y-55080952D01*
X158885714Y-54890476D01*
X158933333Y-54795238D01*
X159028571Y-54700000D01*
X159171428Y-54652380D01*
X159266666Y-54652380D01*
X159409523Y-54700000D01*
X159457142Y-54747619D01*
X159838095Y-54747619D02*
X159885714Y-54700000D01*
X159980952Y-54652380D01*
X160219047Y-54652380D01*
X160314285Y-54700000D01*
X160361904Y-54747619D01*
X160409523Y-54842857D01*
X160409523Y-54938095D01*
X160361904Y-55080952D01*
X159790476Y-55652380D01*
X160409523Y-55652380D01*
X161361904Y-55652380D02*
X160790476Y-55652380D01*
X161076190Y-55652380D02*
X161076190Y-54652380D01*
X160980952Y-54795238D01*
X160885714Y-54890476D01*
X160790476Y-54938095D01*
X118357142Y-48357142D02*
X118309523Y-48404761D01*
X118166666Y-48452380D01*
X118071428Y-48452380D01*
X117928571Y-48404761D01*
X117833333Y-48309523D01*
X117785714Y-48214285D01*
X117738095Y-48023809D01*
X117738095Y-47880952D01*
X117785714Y-47690476D01*
X117833333Y-47595238D01*
X117928571Y-47500000D01*
X118071428Y-47452380D01*
X118166666Y-47452380D01*
X118309523Y-47500000D01*
X118357142Y-47547619D01*
X118738095Y-47547619D02*
X118785714Y-47500000D01*
X118880952Y-47452380D01*
X119119047Y-47452380D01*
X119214285Y-47500000D01*
X119261904Y-47547619D01*
X119309523Y-47642857D01*
X119309523Y-47738095D01*
X119261904Y-47880952D01*
X118690476Y-48452380D01*
X119309523Y-48452380D01*
X119928571Y-47452380D02*
X120023809Y-47452380D01*
X120119047Y-47500000D01*
X120166666Y-47547619D01*
X120214285Y-47642857D01*
X120261904Y-47833333D01*
X120261904Y-48071428D01*
X120214285Y-48261904D01*
X120166666Y-48357142D01*
X120119047Y-48404761D01*
X120023809Y-48452380D01*
X119928571Y-48452380D01*
X119833333Y-48404761D01*
X119785714Y-48357142D01*
X119738095Y-48261904D01*
X119690476Y-48071428D01*
X119690476Y-47833333D01*
X119738095Y-47642857D01*
X119785714Y-47547619D01*
X119833333Y-47500000D01*
X119928571Y-47452380D01*
X149757142Y-64142857D02*
X149804761Y-64190476D01*
X149852380Y-64333333D01*
X149852380Y-64428571D01*
X149804761Y-64571428D01*
X149709523Y-64666666D01*
X149614285Y-64714285D01*
X149423809Y-64761904D01*
X149280952Y-64761904D01*
X149090476Y-64714285D01*
X148995238Y-64666666D01*
X148900000Y-64571428D01*
X148852380Y-64428571D01*
X148852380Y-64333333D01*
X148900000Y-64190476D01*
X148947619Y-64142857D01*
X149852380Y-63190476D02*
X149852380Y-63761904D01*
X149852380Y-63476190D02*
X148852380Y-63476190D01*
X148995238Y-63571428D01*
X149090476Y-63666666D01*
X149138095Y-63761904D01*
X149852380Y-62714285D02*
X149852380Y-62523809D01*
X149804761Y-62428571D01*
X149757142Y-62380952D01*
X149614285Y-62285714D01*
X149423809Y-62238095D01*
X149042857Y-62238095D01*
X148947619Y-62285714D01*
X148900000Y-62333333D01*
X148852380Y-62428571D01*
X148852380Y-62619047D01*
X148900000Y-62714285D01*
X148947619Y-62761904D01*
X149042857Y-62809523D01*
X149280952Y-62809523D01*
X149376190Y-62761904D01*
X149423809Y-62714285D01*
X149471428Y-62619047D01*
X149471428Y-62428571D01*
X149423809Y-62333333D01*
X149376190Y-62285714D01*
X149280952Y-62238095D01*
X183857142Y-76642857D02*
X183904761Y-76690476D01*
X183952380Y-76833333D01*
X183952380Y-76928571D01*
X183904761Y-77071428D01*
X183809523Y-77166666D01*
X183714285Y-77214285D01*
X183523809Y-77261904D01*
X183380952Y-77261904D01*
X183190476Y-77214285D01*
X183095238Y-77166666D01*
X183000000Y-77071428D01*
X182952380Y-76928571D01*
X182952380Y-76833333D01*
X183000000Y-76690476D01*
X183047619Y-76642857D01*
X182952380Y-76309523D02*
X182952380Y-75690476D01*
X183333333Y-76023809D01*
X183333333Y-75880952D01*
X183380952Y-75785714D01*
X183428571Y-75738095D01*
X183523809Y-75690476D01*
X183761904Y-75690476D01*
X183857142Y-75738095D01*
X183904761Y-75785714D01*
X183952380Y-75880952D01*
X183952380Y-76166666D01*
X183904761Y-76261904D01*
X183857142Y-76309523D01*
X183285714Y-74833333D02*
X183952380Y-74833333D01*
X182904761Y-75071428D02*
X183619047Y-75309523D01*
X183619047Y-74690476D01*
X184731428Y-73000952D02*
X184731428Y-72239047D01*
X185112380Y-72620000D02*
X184350476Y-72620000D01*
X185407142Y-67507142D02*
X185359523Y-67554761D01*
X185216666Y-67602380D01*
X185121428Y-67602380D01*
X184978571Y-67554761D01*
X184883333Y-67459523D01*
X184835714Y-67364285D01*
X184788095Y-67173809D01*
X184788095Y-67030952D01*
X184835714Y-66840476D01*
X184883333Y-66745238D01*
X184978571Y-66650000D01*
X185121428Y-66602380D01*
X185216666Y-66602380D01*
X185359523Y-66650000D01*
X185407142Y-66697619D01*
X185740476Y-66602380D02*
X186359523Y-66602380D01*
X186026190Y-66983333D01*
X186169047Y-66983333D01*
X186264285Y-67030952D01*
X186311904Y-67078571D01*
X186359523Y-67173809D01*
X186359523Y-67411904D01*
X186311904Y-67507142D01*
X186264285Y-67554761D01*
X186169047Y-67602380D01*
X185883333Y-67602380D01*
X185788095Y-67554761D01*
X185740476Y-67507142D01*
X186740476Y-66697619D02*
X186788095Y-66650000D01*
X186883333Y-66602380D01*
X187121428Y-66602380D01*
X187216666Y-66650000D01*
X187264285Y-66697619D01*
X187311904Y-66792857D01*
X187311904Y-66888095D01*
X187264285Y-67030952D01*
X186692857Y-67602380D01*
X187311904Y-67602380D01*
X138257142Y-66066666D02*
X138304761Y-66114285D01*
X138352380Y-66257142D01*
X138352380Y-66352380D01*
X138304761Y-66495238D01*
X138209523Y-66590476D01*
X138114285Y-66638095D01*
X137923809Y-66685714D01*
X137780952Y-66685714D01*
X137590476Y-66638095D01*
X137495238Y-66590476D01*
X137400000Y-66495238D01*
X137352380Y-66352380D01*
X137352380Y-66257142D01*
X137400000Y-66114285D01*
X137447619Y-66066666D01*
X137352380Y-65733333D02*
X137352380Y-65066666D01*
X138352380Y-65495238D01*
X129333333Y-102107142D02*
X129285714Y-102154761D01*
X129142857Y-102202380D01*
X129047619Y-102202380D01*
X128904761Y-102154761D01*
X128809523Y-102059523D01*
X128761904Y-101964285D01*
X128714285Y-101773809D01*
X128714285Y-101630952D01*
X128761904Y-101440476D01*
X128809523Y-101345238D01*
X128904761Y-101250000D01*
X129047619Y-101202380D01*
X129142857Y-101202380D01*
X129285714Y-101250000D01*
X129333333Y-101297619D01*
X130190476Y-101202380D02*
X130000000Y-101202380D01*
X129904761Y-101250000D01*
X129857142Y-101297619D01*
X129761904Y-101440476D01*
X129714285Y-101630952D01*
X129714285Y-102011904D01*
X129761904Y-102107142D01*
X129809523Y-102154761D01*
X129904761Y-102202380D01*
X130095238Y-102202380D01*
X130190476Y-102154761D01*
X130238095Y-102107142D01*
X130285714Y-102011904D01*
X130285714Y-101773809D01*
X130238095Y-101678571D01*
X130190476Y-101630952D01*
X130095238Y-101583333D01*
X129904761Y-101583333D01*
X129809523Y-101630952D01*
X129761904Y-101678571D01*
X129714285Y-101773809D01*
X135333333Y-87607142D02*
X135285714Y-87654761D01*
X135142857Y-87702380D01*
X135047619Y-87702380D01*
X134904761Y-87654761D01*
X134809523Y-87559523D01*
X134761904Y-87464285D01*
X134714285Y-87273809D01*
X134714285Y-87130952D01*
X134761904Y-86940476D01*
X134809523Y-86845238D01*
X134904761Y-86750000D01*
X135047619Y-86702380D01*
X135142857Y-86702380D01*
X135285714Y-86750000D01*
X135333333Y-86797619D01*
X136238095Y-86702380D02*
X135761904Y-86702380D01*
X135714285Y-87178571D01*
X135761904Y-87130952D01*
X135857142Y-87083333D01*
X136095238Y-87083333D01*
X136190476Y-87130952D01*
X136238095Y-87178571D01*
X136285714Y-87273809D01*
X136285714Y-87511904D01*
X136238095Y-87607142D01*
X136190476Y-87654761D01*
X136095238Y-87702380D01*
X135857142Y-87702380D01*
X135761904Y-87654761D01*
X135714285Y-87607142D01*
X151533333Y-84057142D02*
X151485714Y-84104761D01*
X151342857Y-84152380D01*
X151247619Y-84152380D01*
X151104761Y-84104761D01*
X151009523Y-84009523D01*
X150961904Y-83914285D01*
X150914285Y-83723809D01*
X150914285Y-83580952D01*
X150961904Y-83390476D01*
X151009523Y-83295238D01*
X151104761Y-83200000D01*
X151247619Y-83152380D01*
X151342857Y-83152380D01*
X151485714Y-83200000D01*
X151533333Y-83247619D01*
X152390476Y-83485714D02*
X152390476Y-84152380D01*
X152152380Y-83104761D02*
X151914285Y-83819047D01*
X152533333Y-83819047D01*
X154833333Y-102107142D02*
X154785714Y-102154761D01*
X154642857Y-102202380D01*
X154547619Y-102202380D01*
X154404761Y-102154761D01*
X154309523Y-102059523D01*
X154261904Y-101964285D01*
X154214285Y-101773809D01*
X154214285Y-101630952D01*
X154261904Y-101440476D01*
X154309523Y-101345238D01*
X154404761Y-101250000D01*
X154547619Y-101202380D01*
X154642857Y-101202380D01*
X154785714Y-101250000D01*
X154833333Y-101297619D01*
X155166666Y-101202380D02*
X155785714Y-101202380D01*
X155452380Y-101583333D01*
X155595238Y-101583333D01*
X155690476Y-101630952D01*
X155738095Y-101678571D01*
X155785714Y-101773809D01*
X155785714Y-102011904D01*
X155738095Y-102107142D01*
X155690476Y-102154761D01*
X155595238Y-102202380D01*
X155309523Y-102202380D01*
X155214285Y-102154761D01*
X155166666Y-102107142D01*
X135607142Y-93666666D02*
X135654761Y-93714285D01*
X135702380Y-93857142D01*
X135702380Y-93952380D01*
X135654761Y-94095238D01*
X135559523Y-94190476D01*
X135464285Y-94238095D01*
X135273809Y-94285714D01*
X135130952Y-94285714D01*
X134940476Y-94238095D01*
X134845238Y-94190476D01*
X134750000Y-94095238D01*
X134702380Y-93952380D01*
X134702380Y-93857142D01*
X134750000Y-93714285D01*
X134797619Y-93666666D01*
X135702380Y-92714285D02*
X135702380Y-93285714D01*
X135702380Y-93000000D02*
X134702380Y-93000000D01*
X134845238Y-93095238D01*
X134940476Y-93190476D01*
X134988095Y-93285714D01*
X156166666Y-106702380D02*
X156166666Y-107416666D01*
X156119047Y-107559523D01*
X156023809Y-107654761D01*
X155880952Y-107702380D01*
X155785714Y-107702380D01*
X156595238Y-106797619D02*
X156642857Y-106750000D01*
X156738095Y-106702380D01*
X156976190Y-106702380D01*
X157071428Y-106750000D01*
X157119047Y-106797619D01*
X157166666Y-106892857D01*
X157166666Y-106988095D01*
X157119047Y-107130952D01*
X156547619Y-107702380D01*
X157166666Y-107702380D01*
D14*
X109812619Y-83324523D02*
X109812619Y-82054523D01*
X110115000Y-82054523D01*
X110296428Y-82115000D01*
X110417380Y-82235952D01*
X110477857Y-82356904D01*
X110538333Y-82598809D01*
X110538333Y-82780238D01*
X110477857Y-83022142D01*
X110417380Y-83143095D01*
X110296428Y-83264047D01*
X110115000Y-83324523D01*
X109812619Y-83324523D01*
X111022142Y-82175476D02*
X111082619Y-82115000D01*
X111203571Y-82054523D01*
X111505952Y-82054523D01*
X111626904Y-82115000D01*
X111687380Y-82175476D01*
X111747857Y-82296428D01*
X111747857Y-82417380D01*
X111687380Y-82598809D01*
X110961666Y-83324523D01*
X111747857Y-83324523D01*
D11*
X158452380Y-47333333D02*
X159166666Y-47333333D01*
X159309523Y-47380952D01*
X159404761Y-47476190D01*
X159452380Y-47619047D01*
X159452380Y-47714285D01*
X158452380Y-46952380D02*
X158452380Y-46285714D01*
X159452380Y-46714285D01*
X100857142Y-87857142D02*
X100809523Y-87904761D01*
X100666666Y-87952380D01*
X100571428Y-87952380D01*
X100428571Y-87904761D01*
X100333333Y-87809523D01*
X100285714Y-87714285D01*
X100238095Y-87523809D01*
X100238095Y-87380952D01*
X100285714Y-87190476D01*
X100333333Y-87095238D01*
X100428571Y-87000000D01*
X100571428Y-86952380D01*
X100666666Y-86952380D01*
X100809523Y-87000000D01*
X100857142Y-87047619D01*
X101809523Y-87952380D02*
X101238095Y-87952380D01*
X101523809Y-87952380D02*
X101523809Y-86952380D01*
X101428571Y-87095238D01*
X101333333Y-87190476D01*
X101238095Y-87238095D01*
X102142857Y-86952380D02*
X102761904Y-86952380D01*
X102428571Y-87333333D01*
X102571428Y-87333333D01*
X102666666Y-87380952D01*
X102714285Y-87428571D01*
X102761904Y-87523809D01*
X102761904Y-87761904D01*
X102714285Y-87857142D01*
X102666666Y-87904761D01*
X102571428Y-87952380D01*
X102285714Y-87952380D01*
X102190476Y-87904761D01*
X102142857Y-87857142D01*
X132607142Y-78207142D02*
X132559523Y-78254761D01*
X132416666Y-78302380D01*
X132321428Y-78302380D01*
X132178571Y-78254761D01*
X132083333Y-78159523D01*
X132035714Y-78064285D01*
X131988095Y-77873809D01*
X131988095Y-77730952D01*
X132035714Y-77540476D01*
X132083333Y-77445238D01*
X132178571Y-77350000D01*
X132321428Y-77302380D01*
X132416666Y-77302380D01*
X132559523Y-77350000D01*
X132607142Y-77397619D01*
X133559523Y-78302380D02*
X132988095Y-78302380D01*
X133273809Y-78302380D02*
X133273809Y-77302380D01*
X133178571Y-77445238D01*
X133083333Y-77540476D01*
X132988095Y-77588095D01*
X134464285Y-77302380D02*
X133988095Y-77302380D01*
X133940476Y-77778571D01*
X133988095Y-77730952D01*
X134083333Y-77683333D01*
X134321428Y-77683333D01*
X134416666Y-77730952D01*
X134464285Y-77778571D01*
X134511904Y-77873809D01*
X134511904Y-78111904D01*
X134464285Y-78207142D01*
X134416666Y-78254761D01*
X134321428Y-78302380D01*
X134083333Y-78302380D01*
X133988095Y-78254761D01*
X133940476Y-78207142D01*
X132607142Y-80957142D02*
X132559523Y-81004761D01*
X132416666Y-81052380D01*
X132321428Y-81052380D01*
X132178571Y-81004761D01*
X132083333Y-80909523D01*
X132035714Y-80814285D01*
X131988095Y-80623809D01*
X131988095Y-80480952D01*
X132035714Y-80290476D01*
X132083333Y-80195238D01*
X132178571Y-80100000D01*
X132321428Y-80052380D01*
X132416666Y-80052380D01*
X132559523Y-80100000D01*
X132607142Y-80147619D01*
X133559523Y-81052380D02*
X132988095Y-81052380D01*
X133273809Y-81052380D02*
X133273809Y-80052380D01*
X133178571Y-80195238D01*
X133083333Y-80290476D01*
X132988095Y-80338095D01*
X134416666Y-80052380D02*
X134226190Y-80052380D01*
X134130952Y-80100000D01*
X134083333Y-80147619D01*
X133988095Y-80290476D01*
X133940476Y-80480952D01*
X133940476Y-80861904D01*
X133988095Y-80957142D01*
X134035714Y-81004761D01*
X134130952Y-81052380D01*
X134321428Y-81052380D01*
X134416666Y-81004761D01*
X134464285Y-80957142D01*
X134511904Y-80861904D01*
X134511904Y-80623809D01*
X134464285Y-80528571D01*
X134416666Y-80480952D01*
X134321428Y-80433333D01*
X134130952Y-80433333D01*
X134035714Y-80480952D01*
X133988095Y-80528571D01*
X133940476Y-80623809D01*
X131557142Y-75707142D02*
X131509523Y-75754761D01*
X131366666Y-75802380D01*
X131271428Y-75802380D01*
X131128571Y-75754761D01*
X131033333Y-75659523D01*
X130985714Y-75564285D01*
X130938095Y-75373809D01*
X130938095Y-75230952D01*
X130985714Y-75040476D01*
X131033333Y-74945238D01*
X131128571Y-74850000D01*
X131271428Y-74802380D01*
X131366666Y-74802380D01*
X131509523Y-74850000D01*
X131557142Y-74897619D01*
X132509523Y-75802380D02*
X131938095Y-75802380D01*
X132223809Y-75802380D02*
X132223809Y-74802380D01*
X132128571Y-74945238D01*
X132033333Y-75040476D01*
X131938095Y-75088095D01*
X132842857Y-74802380D02*
X133509523Y-74802380D01*
X133080952Y-75802380D01*
X136357142Y-73207142D02*
X136309523Y-73254761D01*
X136166666Y-73302380D01*
X136071428Y-73302380D01*
X135928571Y-73254761D01*
X135833333Y-73159523D01*
X135785714Y-73064285D01*
X135738095Y-72873809D01*
X135738095Y-72730952D01*
X135785714Y-72540476D01*
X135833333Y-72445238D01*
X135928571Y-72350000D01*
X136071428Y-72302380D01*
X136166666Y-72302380D01*
X136309523Y-72350000D01*
X136357142Y-72397619D01*
X137309523Y-73302380D02*
X136738095Y-73302380D01*
X137023809Y-73302380D02*
X137023809Y-72302380D01*
X136928571Y-72445238D01*
X136833333Y-72540476D01*
X136738095Y-72588095D01*
X137880952Y-72730952D02*
X137785714Y-72683333D01*
X137738095Y-72635714D01*
X137690476Y-72540476D01*
X137690476Y-72492857D01*
X137738095Y-72397619D01*
X137785714Y-72350000D01*
X137880952Y-72302380D01*
X138071428Y-72302380D01*
X138166666Y-72350000D01*
X138214285Y-72397619D01*
X138261904Y-72492857D01*
X138261904Y-72540476D01*
X138214285Y-72635714D01*
X138166666Y-72683333D01*
X138071428Y-72730952D01*
X137880952Y-72730952D01*
X137785714Y-72778571D01*
X137738095Y-72826190D01*
X137690476Y-72921428D01*
X137690476Y-73111904D01*
X137738095Y-73207142D01*
X137785714Y-73254761D01*
X137880952Y-73302380D01*
X138071428Y-73302380D01*
X138166666Y-73254761D01*
X138214285Y-73207142D01*
X138261904Y-73111904D01*
X138261904Y-72921428D01*
X138214285Y-72826190D01*
X138166666Y-72778571D01*
X138071428Y-72730952D01*
X112857142Y-76357142D02*
X112809523Y-76404761D01*
X112666666Y-76452380D01*
X112571428Y-76452380D01*
X112428571Y-76404761D01*
X112333333Y-76309523D01*
X112285714Y-76214285D01*
X112238095Y-76023809D01*
X112238095Y-75880952D01*
X112285714Y-75690476D01*
X112333333Y-75595238D01*
X112428571Y-75500000D01*
X112571428Y-75452380D01*
X112666666Y-75452380D01*
X112809523Y-75500000D01*
X112857142Y-75547619D01*
X113809523Y-76452380D02*
X113238095Y-76452380D01*
X113523809Y-76452380D02*
X113523809Y-75452380D01*
X113428571Y-75595238D01*
X113333333Y-75690476D01*
X113238095Y-75738095D01*
X114190476Y-75547619D02*
X114238095Y-75500000D01*
X114333333Y-75452380D01*
X114571428Y-75452380D01*
X114666666Y-75500000D01*
X114714285Y-75547619D01*
X114761904Y-75642857D01*
X114761904Y-75738095D01*
X114714285Y-75880952D01*
X114142857Y-76452380D01*
X114761904Y-76452380D01*
X179957142Y-104666666D02*
X180004761Y-104714285D01*
X180052380Y-104857142D01*
X180052380Y-104952380D01*
X180004761Y-105095238D01*
X179909523Y-105190476D01*
X179814285Y-105238095D01*
X179623809Y-105285714D01*
X179480952Y-105285714D01*
X179290476Y-105238095D01*
X179195238Y-105190476D01*
X179100000Y-105095238D01*
X179052380Y-104952380D01*
X179052380Y-104857142D01*
X179100000Y-104714285D01*
X179147619Y-104666666D01*
X180052380Y-104190476D02*
X180052380Y-104000000D01*
X180004761Y-103904761D01*
X179957142Y-103857142D01*
X179814285Y-103761904D01*
X179623809Y-103714285D01*
X179242857Y-103714285D01*
X179147619Y-103761904D01*
X179100000Y-103809523D01*
X179052380Y-103904761D01*
X179052380Y-104095238D01*
X179100000Y-104190476D01*
X179147619Y-104238095D01*
X179242857Y-104285714D01*
X179480952Y-104285714D01*
X179576190Y-104238095D01*
X179623809Y-104190476D01*
X179671428Y-104095238D01*
X179671428Y-103904761D01*
X179623809Y-103809523D01*
X179576190Y-103761904D01*
X179480952Y-103714285D01*
X115352380Y-81666666D02*
X115352380Y-82142857D01*
X114352380Y-82142857D01*
X115352380Y-80809523D02*
X115352380Y-81380952D01*
X115352380Y-81095238D02*
X114352380Y-81095238D01*
X114495238Y-81190476D01*
X114590476Y-81285714D01*
X114638095Y-81380952D01*
X120533333Y-88052380D02*
X120057142Y-88052380D01*
X120057142Y-87052380D01*
X120819047Y-87147619D02*
X120866666Y-87100000D01*
X120961904Y-87052380D01*
X121200000Y-87052380D01*
X121295238Y-87100000D01*
X121342857Y-87147619D01*
X121390476Y-87242857D01*
X121390476Y-87338095D01*
X121342857Y-87480952D01*
X120771428Y-88052380D01*
X121390476Y-88052380D01*
X132083333Y-76602380D02*
X131607142Y-76602380D01*
X131607142Y-75602380D01*
X132321428Y-75602380D02*
X132940476Y-75602380D01*
X132607142Y-75983333D01*
X132750000Y-75983333D01*
X132845238Y-76030952D01*
X132892857Y-76078571D01*
X132940476Y-76173809D01*
X132940476Y-76411904D01*
X132892857Y-76507142D01*
X132845238Y-76554761D01*
X132750000Y-76602380D01*
X132464285Y-76602380D01*
X132369047Y-76554761D01*
X132321428Y-76507142D01*
X122833333Y-56802380D02*
X122357142Y-56802380D01*
X122357142Y-55802380D01*
X123595238Y-56135714D02*
X123595238Y-56802380D01*
X123357142Y-55754761D02*
X123119047Y-56469047D01*
X123738095Y-56469047D01*
M02*
